M48
;GenerationSoftware,Autodesk,EAGLE,9.4.0*%
;CreationDate,2019-06-03T05:36:52Z*%
FMAT,2
ICI,OFF
METRIC,TZ,000.000
T5C0.508
T4C0.700
T3C0.750
T2C0.900
T1C1.016
%
G90
M71
T1
X36418Y-834
X33878Y-834
T2
X41807Y17018
X44807Y17018
T3
X5686Y1229
X7718Y1229
X9750Y1229
X42434Y1184
X40402Y1184
X38370Y1184
T4
X2007Y940
X43688Y-1143
X45593Y-1143
X1016Y14986
X2921Y14986
X2007Y-965
T5
X35052Y889
X9906Y-635
X20955Y12446
X29210Y5461
X32766Y13081
X27940Y4572
X28448Y13589
X19304Y11049
X9779Y13843
X39748Y-130
X27813Y3302
X24832Y12319
X26162Y2413
X23495Y12522
X14478Y635
X15240Y11303
M30