G04 EAGLE Gerber RS-274X export*
G75*
%MOMM*%
%FSLAX34Y34*%
%LPD*%
%INBottom Copper*%
%IPPOS*%
%AMOC8*
5,1,8,0,0,1.08239X$1,22.5*%
G01*
%ADD10C,1.676400*%
%ADD11C,1.308000*%
%ADD12R,2.413000X2.413000*%
%ADD13R,0.279400X4.500000*%
%ADD14C,0.906400*%
%ADD15C,0.800100*%
%ADD16C,0.254000*%
%ADD17C,0.914400*%
%ADD18C,0.406400*%
%ADD19C,0.889000*%

G36*
X425519Y13358D02*
X425519Y13358D01*
X425614Y13356D01*
X425743Y13376D01*
X425873Y13386D01*
X425965Y13410D01*
X426059Y13425D01*
X426183Y13467D01*
X426308Y13500D01*
X426395Y13540D01*
X426485Y13571D01*
X426599Y13634D01*
X426717Y13689D01*
X426795Y13744D01*
X426878Y13790D01*
X426979Y13873D01*
X427086Y13947D01*
X427153Y14015D01*
X427227Y14076D01*
X427311Y14175D01*
X427403Y14267D01*
X427457Y14345D01*
X427519Y14418D01*
X427585Y14530D01*
X427659Y14637D01*
X427716Y14754D01*
X427747Y14807D01*
X427762Y14849D01*
X427796Y14918D01*
X429321Y18599D01*
X432251Y21529D01*
X436078Y23115D01*
X440222Y23115D01*
X444050Y21529D01*
X445674Y19904D01*
X445774Y19821D01*
X445867Y19730D01*
X445947Y19677D01*
X446020Y19615D01*
X446133Y19551D01*
X446240Y19478D01*
X446328Y19439D01*
X446411Y19392D01*
X446533Y19348D01*
X446652Y19296D01*
X446745Y19273D01*
X446835Y19241D01*
X446963Y19220D01*
X447090Y19189D01*
X447185Y19183D01*
X447279Y19168D01*
X447409Y19169D01*
X447539Y19161D01*
X447634Y19172D01*
X447730Y19174D01*
X447857Y19198D01*
X447986Y19213D01*
X448078Y19241D01*
X448172Y19259D01*
X448293Y19306D01*
X448417Y19344D01*
X448503Y19387D01*
X448592Y19422D01*
X448703Y19489D01*
X448819Y19548D01*
X448895Y19606D01*
X448976Y19655D01*
X449074Y19742D01*
X449177Y19820D01*
X449242Y19890D01*
X449314Y19954D01*
X449394Y20056D01*
X449483Y20151D01*
X449534Y20232D01*
X449593Y20307D01*
X449655Y20421D01*
X449724Y20531D01*
X449761Y20619D01*
X449806Y20704D01*
X449846Y20827D01*
X449895Y20948D01*
X449915Y21041D01*
X449945Y21132D01*
X449963Y21261D01*
X449990Y21388D01*
X449998Y21517D01*
X450006Y21578D01*
X450005Y21623D01*
X450009Y21700D01*
X450009Y21743D01*
X452071Y26720D01*
X455880Y30529D01*
X460857Y32591D01*
X466243Y32591D01*
X471220Y30529D01*
X473760Y27990D01*
X473786Y27967D01*
X473809Y27942D01*
X473958Y27824D01*
X474105Y27701D01*
X474135Y27684D01*
X474162Y27662D01*
X474330Y27572D01*
X474496Y27477D01*
X474529Y27466D01*
X474559Y27450D01*
X474740Y27391D01*
X474920Y27327D01*
X474955Y27321D01*
X474987Y27310D01*
X475176Y27284D01*
X475365Y27253D01*
X475399Y27254D01*
X475434Y27249D01*
X475624Y27257D01*
X475815Y27259D01*
X475849Y27266D01*
X475883Y27267D01*
X476069Y27309D01*
X476257Y27345D01*
X476289Y27357D01*
X476323Y27365D01*
X476499Y27438D01*
X476677Y27507D01*
X476706Y27525D01*
X476738Y27538D01*
X476899Y27642D01*
X477062Y27741D01*
X477088Y27764D01*
X477117Y27783D01*
X477351Y27990D01*
X479316Y29954D01*
X479421Y30081D01*
X479533Y30202D01*
X479565Y30253D01*
X479604Y30300D01*
X479686Y30443D01*
X479774Y30581D01*
X479798Y30638D01*
X479828Y30691D01*
X479883Y30846D01*
X479945Y30998D01*
X479958Y31058D01*
X479979Y31115D01*
X480005Y31277D01*
X480040Y31438D01*
X480045Y31515D01*
X480052Y31559D01*
X480051Y31620D01*
X480059Y31750D01*
X480059Y196850D01*
X480045Y197014D01*
X480038Y197178D01*
X480025Y197238D01*
X480019Y197298D01*
X479976Y197457D01*
X479940Y197618D01*
X479917Y197674D01*
X479901Y197733D01*
X479830Y197881D01*
X479767Y198033D01*
X479734Y198085D01*
X479707Y198139D01*
X479612Y198273D01*
X479522Y198411D01*
X479471Y198469D01*
X479445Y198506D01*
X479402Y198548D01*
X479316Y198646D01*
X477351Y200610D01*
X477324Y200633D01*
X477301Y200658D01*
X477152Y200776D01*
X477005Y200899D01*
X476975Y200916D01*
X476948Y200938D01*
X476780Y201028D01*
X476614Y201123D01*
X476582Y201134D01*
X476551Y201150D01*
X476370Y201209D01*
X476190Y201273D01*
X476156Y201279D01*
X476123Y201290D01*
X475935Y201316D01*
X475746Y201347D01*
X475711Y201346D01*
X475677Y201351D01*
X475487Y201343D01*
X475296Y201341D01*
X475262Y201334D01*
X475227Y201333D01*
X475041Y201291D01*
X474854Y201255D01*
X474821Y201243D01*
X474788Y201235D01*
X474612Y201162D01*
X474434Y201093D01*
X474404Y201075D01*
X474372Y201062D01*
X474212Y200958D01*
X474049Y200859D01*
X474023Y200836D01*
X473994Y200817D01*
X473760Y200610D01*
X471220Y198071D01*
X468191Y196816D01*
X468118Y196778D01*
X468042Y196748D01*
X467919Y196674D01*
X467792Y196608D01*
X467727Y196557D01*
X467657Y196514D01*
X467549Y196420D01*
X467436Y196332D01*
X467381Y196271D01*
X467319Y196216D01*
X467231Y196104D01*
X467135Y195998D01*
X467091Y195928D01*
X467040Y195863D01*
X466972Y195737D01*
X466897Y195615D01*
X466866Y195539D01*
X466827Y195466D01*
X466783Y195330D01*
X466730Y195197D01*
X466714Y195116D01*
X466688Y195038D01*
X466669Y194896D01*
X466640Y194756D01*
X466638Y194674D01*
X466627Y194592D01*
X466633Y194449D01*
X466629Y194306D01*
X466642Y194225D01*
X466645Y194142D01*
X466676Y194002D01*
X466698Y193861D01*
X466725Y193783D01*
X466743Y193702D01*
X466798Y193570D01*
X466844Y193435D01*
X466885Y193363D01*
X466916Y193287D01*
X466994Y193167D01*
X467064Y193042D01*
X467116Y192978D01*
X467161Y192909D01*
X467324Y192724D01*
X467349Y192693D01*
X467357Y192686D01*
X467368Y192675D01*
X468665Y191378D01*
X469583Y189160D01*
X469583Y186760D01*
X468665Y184542D01*
X466968Y182845D01*
X464750Y181927D01*
X462350Y181927D01*
X460132Y182845D01*
X458435Y184542D01*
X457517Y186760D01*
X457517Y189160D01*
X458435Y191378D01*
X459732Y192675D01*
X459785Y192738D01*
X459845Y192795D01*
X459929Y192910D01*
X460021Y193020D01*
X460062Y193092D01*
X460111Y193158D01*
X460174Y193287D01*
X460245Y193411D01*
X460272Y193489D01*
X460308Y193563D01*
X460347Y193700D01*
X460395Y193835D01*
X460409Y193917D01*
X460431Y193996D01*
X460446Y194138D01*
X460469Y194279D01*
X460468Y194362D01*
X460476Y194444D01*
X460465Y194587D01*
X460463Y194730D01*
X460447Y194811D01*
X460441Y194893D01*
X460405Y195031D01*
X460377Y195172D01*
X460348Y195249D01*
X460327Y195328D01*
X460267Y195458D01*
X460215Y195592D01*
X460172Y195662D01*
X460138Y195737D01*
X460055Y195854D01*
X459981Y195976D01*
X459927Y196038D01*
X459879Y196106D01*
X459778Y196207D01*
X459683Y196314D01*
X459618Y196365D01*
X459560Y196423D01*
X459442Y196504D01*
X459330Y196593D01*
X459257Y196632D01*
X459189Y196679D01*
X458968Y196787D01*
X458933Y196806D01*
X458923Y196809D01*
X458909Y196816D01*
X455880Y198071D01*
X452071Y201880D01*
X450009Y206857D01*
X450009Y206900D01*
X449998Y207030D01*
X449996Y207160D01*
X449978Y207253D01*
X449969Y207349D01*
X449935Y207474D01*
X449910Y207602D01*
X449876Y207691D01*
X449851Y207783D01*
X449795Y207900D01*
X449748Y208022D01*
X449698Y208104D01*
X449657Y208190D01*
X449582Y208295D01*
X449514Y208407D01*
X449451Y208478D01*
X449395Y208556D01*
X449302Y208647D01*
X449216Y208744D01*
X449141Y208803D01*
X449073Y208870D01*
X448965Y208943D01*
X448863Y209023D01*
X448779Y209069D01*
X448700Y209122D01*
X448581Y209175D01*
X448466Y209236D01*
X448375Y209266D01*
X448288Y209304D01*
X448161Y209335D01*
X448038Y209375D01*
X447943Y209388D01*
X447850Y209411D01*
X447721Y209419D01*
X447592Y209437D01*
X447496Y209433D01*
X447401Y209439D01*
X447272Y209424D01*
X447142Y209418D01*
X447049Y209398D01*
X446954Y209387D01*
X446829Y209349D01*
X446702Y209321D01*
X446614Y209284D01*
X446523Y209256D01*
X446407Y209197D01*
X446287Y209147D01*
X446207Y209095D01*
X446121Y209052D01*
X446018Y208973D01*
X445909Y208903D01*
X445811Y208817D01*
X445763Y208780D01*
X445732Y208747D01*
X445674Y208696D01*
X444050Y207071D01*
X440222Y205485D01*
X436078Y205485D01*
X432251Y207071D01*
X429321Y210001D01*
X427796Y213682D01*
X427736Y213797D01*
X427684Y213917D01*
X427632Y213996D01*
X427587Y214081D01*
X427508Y214184D01*
X427436Y214292D01*
X427370Y214361D01*
X427312Y214437D01*
X427215Y214524D01*
X427125Y214618D01*
X427048Y214675D01*
X426977Y214739D01*
X426867Y214807D01*
X426762Y214884D01*
X426676Y214926D01*
X426595Y214976D01*
X426474Y215025D01*
X426358Y215082D01*
X426266Y215108D01*
X426177Y215143D01*
X426049Y215169D01*
X425924Y215205D01*
X425829Y215214D01*
X425736Y215233D01*
X425606Y215236D01*
X425476Y215249D01*
X425381Y215242D01*
X425286Y215244D01*
X425157Y215224D01*
X425027Y215214D01*
X424935Y215190D01*
X424841Y215175D01*
X424718Y215133D01*
X424592Y215100D01*
X424505Y215060D01*
X424415Y215029D01*
X424301Y214965D01*
X424183Y214911D01*
X424105Y214856D01*
X424022Y214809D01*
X423921Y214727D01*
X423814Y214652D01*
X423747Y214585D01*
X423673Y214524D01*
X423589Y214425D01*
X423497Y214333D01*
X423443Y214254D01*
X423381Y214182D01*
X423315Y214070D01*
X423241Y213963D01*
X423184Y213846D01*
X423153Y213793D01*
X423138Y213751D01*
X423104Y213682D01*
X421579Y210001D01*
X418649Y207071D01*
X414822Y205485D01*
X410678Y205485D01*
X406851Y207071D01*
X403921Y210001D01*
X402396Y213682D01*
X402336Y213797D01*
X402284Y213917D01*
X402232Y213996D01*
X402187Y214081D01*
X402108Y214184D01*
X402036Y214292D01*
X401970Y214361D01*
X401912Y214437D01*
X401815Y214524D01*
X401725Y214618D01*
X401648Y214675D01*
X401577Y214739D01*
X401467Y214807D01*
X401362Y214884D01*
X401276Y214926D01*
X401195Y214976D01*
X401074Y215025D01*
X400958Y215082D01*
X400866Y215108D01*
X400777Y215143D01*
X400649Y215169D01*
X400524Y215205D01*
X400429Y215214D01*
X400336Y215233D01*
X400206Y215236D01*
X400076Y215249D01*
X399981Y215242D01*
X399886Y215244D01*
X399757Y215224D01*
X399627Y215214D01*
X399535Y215190D01*
X399441Y215175D01*
X399318Y215133D01*
X399192Y215100D01*
X399105Y215060D01*
X399015Y215029D01*
X398901Y214965D01*
X398783Y214911D01*
X398705Y214856D01*
X398622Y214809D01*
X398521Y214727D01*
X398414Y214652D01*
X398347Y214585D01*
X398273Y214524D01*
X398189Y214425D01*
X398097Y214333D01*
X398043Y214254D01*
X397981Y214182D01*
X397915Y214070D01*
X397841Y213963D01*
X397784Y213846D01*
X397753Y213793D01*
X397738Y213751D01*
X397704Y213682D01*
X396179Y210001D01*
X393249Y207071D01*
X389422Y205485D01*
X385278Y205485D01*
X381451Y207071D01*
X378521Y210001D01*
X376996Y213682D01*
X376936Y213797D01*
X376884Y213917D01*
X376832Y213996D01*
X376787Y214081D01*
X376708Y214184D01*
X376636Y214292D01*
X376570Y214361D01*
X376512Y214437D01*
X376415Y214524D01*
X376325Y214618D01*
X376248Y214675D01*
X376177Y214739D01*
X376067Y214807D01*
X375962Y214884D01*
X375876Y214926D01*
X375795Y214976D01*
X375674Y215025D01*
X375558Y215082D01*
X375466Y215108D01*
X375377Y215143D01*
X375249Y215169D01*
X375124Y215205D01*
X375029Y215214D01*
X374936Y215233D01*
X374806Y215236D01*
X374676Y215249D01*
X374581Y215242D01*
X374486Y215244D01*
X374357Y215224D01*
X374227Y215214D01*
X374135Y215190D01*
X374041Y215175D01*
X373918Y215133D01*
X373792Y215100D01*
X373705Y215060D01*
X373615Y215029D01*
X373501Y214965D01*
X373383Y214911D01*
X373305Y214856D01*
X373222Y214809D01*
X373121Y214727D01*
X373014Y214652D01*
X372947Y214585D01*
X372873Y214524D01*
X372789Y214425D01*
X372697Y214333D01*
X372643Y214254D01*
X372581Y214182D01*
X372515Y214070D01*
X372441Y213963D01*
X372384Y213846D01*
X372353Y213793D01*
X372338Y213751D01*
X372304Y213682D01*
X370779Y210001D01*
X367849Y207071D01*
X364022Y205485D01*
X359878Y205485D01*
X356051Y207071D01*
X353121Y210001D01*
X351596Y213682D01*
X351536Y213797D01*
X351484Y213917D01*
X351432Y213996D01*
X351387Y214081D01*
X351308Y214184D01*
X351236Y214292D01*
X351170Y214361D01*
X351112Y214437D01*
X351015Y214524D01*
X350925Y214618D01*
X350848Y214675D01*
X350777Y214739D01*
X350667Y214807D01*
X350562Y214884D01*
X350476Y214926D01*
X350395Y214976D01*
X350274Y215025D01*
X350158Y215082D01*
X350066Y215108D01*
X349977Y215143D01*
X349849Y215169D01*
X349724Y215205D01*
X349629Y215214D01*
X349536Y215233D01*
X349406Y215236D01*
X349276Y215249D01*
X349181Y215242D01*
X349086Y215244D01*
X348957Y215224D01*
X348827Y215214D01*
X348735Y215190D01*
X348641Y215175D01*
X348518Y215133D01*
X348392Y215100D01*
X348305Y215060D01*
X348215Y215029D01*
X348101Y214965D01*
X347983Y214911D01*
X347905Y214856D01*
X347822Y214809D01*
X347721Y214727D01*
X347614Y214652D01*
X347547Y214585D01*
X347473Y214524D01*
X347389Y214425D01*
X347297Y214333D01*
X347243Y214254D01*
X347181Y214182D01*
X347115Y214070D01*
X347041Y213963D01*
X346984Y213846D01*
X346953Y213793D01*
X346938Y213751D01*
X346904Y213682D01*
X345379Y210001D01*
X342449Y207071D01*
X338622Y205485D01*
X334478Y205485D01*
X330651Y207071D01*
X327721Y210001D01*
X326196Y213682D01*
X326136Y213797D01*
X326084Y213917D01*
X326032Y213996D01*
X325987Y214081D01*
X325908Y214184D01*
X325836Y214292D01*
X325770Y214361D01*
X325712Y214437D01*
X325615Y214524D01*
X325525Y214618D01*
X325448Y214675D01*
X325377Y214739D01*
X325267Y214807D01*
X325162Y214884D01*
X325076Y214926D01*
X324995Y214976D01*
X324874Y215025D01*
X324758Y215082D01*
X324666Y215108D01*
X324577Y215143D01*
X324449Y215169D01*
X324324Y215205D01*
X324229Y215214D01*
X324136Y215233D01*
X324006Y215236D01*
X323876Y215249D01*
X323781Y215242D01*
X323686Y215244D01*
X323557Y215224D01*
X323427Y215214D01*
X323335Y215190D01*
X323241Y215175D01*
X323118Y215133D01*
X322992Y215100D01*
X322905Y215060D01*
X322815Y215029D01*
X322701Y214965D01*
X322583Y214911D01*
X322505Y214856D01*
X322422Y214809D01*
X322321Y214727D01*
X322214Y214652D01*
X322147Y214585D01*
X322073Y214524D01*
X321989Y214425D01*
X321897Y214333D01*
X321843Y214254D01*
X321781Y214182D01*
X321715Y214070D01*
X321641Y213963D01*
X321584Y213846D01*
X321553Y213793D01*
X321538Y213751D01*
X321504Y213682D01*
X319979Y210000D01*
X317093Y207115D01*
X317010Y207015D01*
X316919Y206922D01*
X316865Y206842D01*
X316804Y206769D01*
X316740Y206656D01*
X316667Y206549D01*
X316628Y206461D01*
X316581Y206378D01*
X316537Y206256D01*
X316485Y206137D01*
X316462Y206044D01*
X316430Y205954D01*
X316409Y205826D01*
X316378Y205699D01*
X316372Y205604D01*
X316357Y205510D01*
X316358Y205380D01*
X316350Y205250D01*
X316361Y205155D01*
X316363Y205059D01*
X316387Y204932D01*
X316402Y204803D01*
X316430Y204711D01*
X316448Y204617D01*
X316495Y204496D01*
X316533Y204372D01*
X316576Y204286D01*
X316611Y204197D01*
X316678Y204086D01*
X316737Y203970D01*
X316795Y203894D01*
X316844Y203813D01*
X316931Y203715D01*
X317009Y203612D01*
X317079Y203547D01*
X317143Y203475D01*
X317245Y203395D01*
X317340Y203306D01*
X317421Y203255D01*
X317496Y203196D01*
X317610Y203135D01*
X317720Y203065D01*
X317808Y203028D01*
X317893Y202983D01*
X318016Y202943D01*
X318137Y202894D01*
X318230Y202874D01*
X318321Y202844D01*
X318450Y202826D01*
X318577Y202799D01*
X318706Y202791D01*
X318767Y202783D01*
X318812Y202784D01*
X318889Y202780D01*
X320076Y202780D01*
X322489Y201780D01*
X324335Y199934D01*
X325335Y197521D01*
X325335Y194909D01*
X324335Y192496D01*
X322489Y190650D01*
X320076Y189650D01*
X317464Y189650D01*
X315051Y190650D01*
X313922Y191780D01*
X313822Y191863D01*
X313729Y191954D01*
X313649Y192007D01*
X313576Y192068D01*
X313463Y192133D01*
X313356Y192206D01*
X313268Y192244D01*
X313185Y192292D01*
X313063Y192335D01*
X312944Y192388D01*
X312851Y192411D01*
X312761Y192443D01*
X312633Y192464D01*
X312506Y192495D01*
X312411Y192501D01*
X312317Y192516D01*
X312187Y192514D01*
X312057Y192522D01*
X311962Y192511D01*
X311866Y192510D01*
X311739Y192485D01*
X311610Y192470D01*
X311518Y192443D01*
X311424Y192424D01*
X311303Y192378D01*
X311179Y192340D01*
X311093Y192297D01*
X311004Y192262D01*
X310893Y192195D01*
X310777Y192136D01*
X310701Y192078D01*
X310620Y192028D01*
X310522Y191942D01*
X310419Y191864D01*
X310354Y191793D01*
X310282Y191730D01*
X310202Y191628D01*
X310113Y191533D01*
X310062Y191452D01*
X310003Y191377D01*
X309941Y191262D01*
X309872Y191153D01*
X309835Y191064D01*
X309790Y190980D01*
X309750Y190856D01*
X309701Y190736D01*
X309681Y190643D01*
X309651Y190552D01*
X309633Y190423D01*
X309606Y190296D01*
X309598Y190166D01*
X309590Y190106D01*
X309591Y190061D01*
X309587Y189984D01*
X309587Y168742D01*
X306909Y166064D01*
X306908Y166064D01*
X258046Y117202D01*
X257941Y117075D01*
X257829Y116955D01*
X257797Y116903D01*
X257758Y116856D01*
X257676Y116714D01*
X257588Y116575D01*
X257564Y116518D01*
X257534Y116465D01*
X257479Y116311D01*
X257417Y116158D01*
X257404Y116099D01*
X257383Y116041D01*
X257357Y115879D01*
X257322Y115718D01*
X257317Y115641D01*
X257310Y115597D01*
X257311Y115536D01*
X257303Y115406D01*
X257303Y114752D01*
X257317Y114588D01*
X257324Y114423D01*
X257337Y114364D01*
X257343Y114303D01*
X257386Y114144D01*
X257422Y113984D01*
X257430Y113964D01*
X257430Y66805D01*
X257449Y66594D01*
X257465Y66383D01*
X257468Y66370D01*
X257470Y66356D01*
X257526Y66152D01*
X257579Y65947D01*
X257585Y65935D01*
X257588Y65922D01*
X257679Y65731D01*
X257768Y65538D01*
X257776Y65527D01*
X257782Y65515D01*
X257905Y65343D01*
X258026Y65170D01*
X258036Y65160D01*
X258044Y65149D01*
X258196Y65001D01*
X258346Y64852D01*
X258357Y64845D01*
X258366Y64835D01*
X258447Y64781D01*
X260454Y62774D01*
X261454Y60361D01*
X261454Y57749D01*
X260454Y55336D01*
X259301Y54183D01*
X259279Y54156D01*
X259253Y54133D01*
X259134Y53984D01*
X259012Y53838D01*
X258995Y53808D01*
X258973Y53780D01*
X258883Y53612D01*
X258789Y53447D01*
X258777Y53414D01*
X258761Y53383D01*
X258702Y53202D01*
X258638Y53022D01*
X258632Y52988D01*
X258621Y52955D01*
X258595Y52766D01*
X258564Y52578D01*
X258565Y52544D01*
X258560Y52509D01*
X258568Y52319D01*
X258570Y52128D01*
X258577Y52094D01*
X258578Y52059D01*
X258620Y51873D01*
X258656Y51686D01*
X258669Y51654D01*
X258676Y51620D01*
X258749Y51444D01*
X258818Y51266D01*
X258836Y51236D01*
X258850Y51204D01*
X258953Y51044D01*
X259052Y50881D01*
X259075Y50855D01*
X259094Y50826D01*
X259301Y50592D01*
X260454Y49439D01*
X261454Y47026D01*
X261454Y44414D01*
X260454Y42001D01*
X259174Y40721D01*
X259152Y40694D01*
X259126Y40671D01*
X259007Y40522D01*
X258885Y40376D01*
X258868Y40346D01*
X258846Y40318D01*
X258756Y40150D01*
X258662Y39985D01*
X258650Y39952D01*
X258634Y39921D01*
X258575Y39740D01*
X258511Y39560D01*
X258505Y39526D01*
X258495Y39493D01*
X258469Y39305D01*
X258437Y39116D01*
X258438Y39082D01*
X258433Y39047D01*
X258441Y38857D01*
X258443Y38666D01*
X258450Y38632D01*
X258451Y38597D01*
X258493Y38411D01*
X258529Y38224D01*
X258542Y38191D01*
X258549Y38158D01*
X258622Y37982D01*
X258691Y37804D01*
X258709Y37774D01*
X258723Y37742D01*
X258826Y37582D01*
X258925Y37419D01*
X258948Y37393D01*
X258967Y37364D01*
X259174Y37130D01*
X260835Y35469D01*
X261835Y33056D01*
X261835Y30444D01*
X260835Y28031D01*
X260253Y27450D01*
X260170Y27350D01*
X260079Y27257D01*
X260026Y27177D01*
X259965Y27104D01*
X259900Y26991D01*
X259827Y26884D01*
X259789Y26796D01*
X259741Y26713D01*
X259698Y26591D01*
X259645Y26472D01*
X259622Y26379D01*
X259590Y26289D01*
X259569Y26161D01*
X259538Y26034D01*
X259532Y25939D01*
X259517Y25845D01*
X259519Y25715D01*
X259511Y25585D01*
X259522Y25490D01*
X259523Y25395D01*
X259548Y25267D01*
X259563Y25138D01*
X259590Y25046D01*
X259609Y24952D01*
X259655Y24831D01*
X259693Y24707D01*
X259736Y24621D01*
X259771Y24532D01*
X259838Y24421D01*
X259897Y24305D01*
X259955Y24229D01*
X260005Y24148D01*
X260091Y24050D01*
X260169Y23947D01*
X260240Y23882D01*
X260303Y23810D01*
X260405Y23730D01*
X260500Y23641D01*
X260581Y23590D01*
X260656Y23531D01*
X260771Y23469D01*
X260880Y23400D01*
X260969Y23363D01*
X261053Y23318D01*
X261176Y23278D01*
X261297Y23229D01*
X261390Y23209D01*
X261481Y23179D01*
X261610Y23161D01*
X261737Y23134D01*
X261867Y23126D01*
X261927Y23118D01*
X261972Y23119D01*
X262049Y23115D01*
X262422Y23115D01*
X266249Y21529D01*
X269179Y18599D01*
X270704Y14918D01*
X270764Y14803D01*
X270816Y14683D01*
X270868Y14604D01*
X270913Y14519D01*
X270992Y14416D01*
X271064Y14308D01*
X271130Y14239D01*
X271188Y14163D01*
X271285Y14076D01*
X271375Y13982D01*
X271452Y13925D01*
X271523Y13861D01*
X271633Y13793D01*
X271738Y13716D01*
X271824Y13674D01*
X271905Y13624D01*
X272026Y13575D01*
X272142Y13518D01*
X272234Y13492D01*
X272323Y13457D01*
X272451Y13431D01*
X272576Y13395D01*
X272671Y13386D01*
X272764Y13367D01*
X272894Y13364D01*
X273024Y13351D01*
X273119Y13358D01*
X273214Y13356D01*
X273343Y13376D01*
X273473Y13386D01*
X273565Y13410D01*
X273659Y13425D01*
X273782Y13467D01*
X273908Y13500D01*
X273995Y13540D01*
X274085Y13571D01*
X274199Y13635D01*
X274317Y13689D01*
X274395Y13744D01*
X274478Y13790D01*
X274579Y13873D01*
X274686Y13947D01*
X274753Y14015D01*
X274827Y14076D01*
X274911Y14175D01*
X275003Y14267D01*
X275057Y14346D01*
X275119Y14418D01*
X275185Y14530D01*
X275259Y14637D01*
X275316Y14754D01*
X275347Y14807D01*
X275362Y14849D01*
X275396Y14918D01*
X276921Y18599D01*
X279851Y21529D01*
X283678Y23115D01*
X288076Y23115D01*
X288111Y23118D01*
X288145Y23116D01*
X288334Y23138D01*
X288525Y23155D01*
X288558Y23164D01*
X288592Y23168D01*
X288775Y23223D01*
X288959Y23273D01*
X288990Y23288D01*
X289023Y23298D01*
X289194Y23385D01*
X289366Y23467D01*
X289394Y23487D01*
X289425Y23502D01*
X289577Y23618D01*
X289732Y23729D01*
X289756Y23754D01*
X289783Y23774D01*
X289912Y23914D01*
X290046Y24051D01*
X290065Y24080D01*
X290089Y24106D01*
X290191Y24267D01*
X290298Y24424D01*
X290312Y24456D01*
X290330Y24485D01*
X290403Y24662D01*
X290480Y24836D01*
X290488Y24870D01*
X290501Y24902D01*
X290541Y25089D01*
X290587Y25274D01*
X290589Y25308D01*
X290596Y25342D01*
X290599Y25398D01*
X291615Y27849D01*
X293461Y29695D01*
X295874Y30695D01*
X298486Y30695D01*
X300899Y29695D01*
X302745Y27849D01*
X303745Y25436D01*
X303745Y24706D01*
X303752Y24624D01*
X303750Y24541D01*
X303772Y24400D01*
X303785Y24257D01*
X303806Y24178D01*
X303819Y24096D01*
X303865Y23961D01*
X303903Y23823D01*
X303938Y23749D01*
X303965Y23670D01*
X304035Y23545D01*
X304097Y23416D01*
X304144Y23349D01*
X304185Y23277D01*
X304275Y23167D01*
X304359Y23050D01*
X304418Y22993D01*
X304470Y22929D01*
X304579Y22836D01*
X304681Y22736D01*
X304750Y22690D01*
X304812Y22636D01*
X304936Y22564D01*
X305054Y22484D01*
X305130Y22451D01*
X305201Y22409D01*
X305335Y22360D01*
X305466Y22302D01*
X305546Y22282D01*
X305624Y22254D01*
X305765Y22229D01*
X305904Y22195D01*
X305986Y22190D01*
X306067Y22176D01*
X306210Y22176D01*
X306353Y22167D01*
X306435Y22177D01*
X306517Y22177D01*
X306658Y22203D01*
X306800Y22219D01*
X306879Y22243D01*
X306960Y22258D01*
X307193Y22338D01*
X307231Y22350D01*
X307241Y22355D01*
X307256Y22360D01*
X309078Y23115D01*
X313222Y23115D01*
X317049Y21529D01*
X319979Y18599D01*
X321504Y14918D01*
X321564Y14803D01*
X321616Y14683D01*
X321668Y14604D01*
X321713Y14519D01*
X321792Y14416D01*
X321864Y14308D01*
X321930Y14239D01*
X321988Y14163D01*
X322085Y14076D01*
X322175Y13982D01*
X322252Y13925D01*
X322323Y13861D01*
X322433Y13793D01*
X322538Y13716D01*
X322624Y13674D01*
X322705Y13624D01*
X322826Y13575D01*
X322942Y13518D01*
X323034Y13492D01*
X323123Y13457D01*
X323251Y13431D01*
X323376Y13395D01*
X323471Y13386D01*
X323564Y13367D01*
X323694Y13364D01*
X323824Y13351D01*
X323919Y13358D01*
X324014Y13356D01*
X324143Y13376D01*
X324273Y13386D01*
X324365Y13410D01*
X324459Y13425D01*
X324582Y13467D01*
X324708Y13500D01*
X324795Y13540D01*
X324885Y13571D01*
X324999Y13635D01*
X325117Y13689D01*
X325195Y13744D01*
X325278Y13790D01*
X325379Y13873D01*
X325486Y13947D01*
X325553Y14015D01*
X325627Y14076D01*
X325711Y14175D01*
X325803Y14267D01*
X325857Y14346D01*
X325919Y14418D01*
X325985Y14530D01*
X326059Y14637D01*
X326116Y14754D01*
X326147Y14807D01*
X326162Y14849D01*
X326196Y14918D01*
X327721Y18599D01*
X330651Y21529D01*
X334478Y23115D01*
X338622Y23115D01*
X342449Y21529D01*
X345379Y18599D01*
X346904Y14918D01*
X346964Y14803D01*
X347016Y14683D01*
X347068Y14604D01*
X347113Y14519D01*
X347192Y14416D01*
X347264Y14308D01*
X347330Y14239D01*
X347388Y14163D01*
X347485Y14076D01*
X347575Y13982D01*
X347652Y13925D01*
X347723Y13861D01*
X347833Y13793D01*
X347938Y13716D01*
X348024Y13674D01*
X348105Y13624D01*
X348226Y13575D01*
X348342Y13518D01*
X348434Y13492D01*
X348523Y13457D01*
X348651Y13431D01*
X348776Y13395D01*
X348871Y13386D01*
X348964Y13367D01*
X349094Y13364D01*
X349224Y13351D01*
X349319Y13358D01*
X349414Y13356D01*
X349543Y13376D01*
X349673Y13386D01*
X349765Y13410D01*
X349859Y13425D01*
X349982Y13467D01*
X350108Y13500D01*
X350195Y13540D01*
X350285Y13571D01*
X350399Y13635D01*
X350517Y13689D01*
X350595Y13744D01*
X350678Y13790D01*
X350779Y13873D01*
X350886Y13947D01*
X350953Y14015D01*
X351027Y14076D01*
X351111Y14175D01*
X351203Y14267D01*
X351257Y14346D01*
X351319Y14418D01*
X351385Y14530D01*
X351459Y14637D01*
X351516Y14754D01*
X351547Y14807D01*
X351562Y14849D01*
X351596Y14918D01*
X353121Y18599D01*
X356051Y21529D01*
X359878Y23115D01*
X364022Y23115D01*
X367849Y21529D01*
X370779Y18599D01*
X372304Y14918D01*
X372364Y14803D01*
X372416Y14683D01*
X372468Y14604D01*
X372513Y14519D01*
X372592Y14416D01*
X372664Y14308D01*
X372730Y14239D01*
X372788Y14163D01*
X372885Y14076D01*
X372975Y13982D01*
X373052Y13925D01*
X373123Y13861D01*
X373233Y13793D01*
X373338Y13716D01*
X373424Y13674D01*
X373505Y13624D01*
X373626Y13575D01*
X373742Y13518D01*
X373834Y13492D01*
X373923Y13457D01*
X374051Y13431D01*
X374176Y13395D01*
X374271Y13386D01*
X374364Y13367D01*
X374494Y13364D01*
X374624Y13351D01*
X374719Y13358D01*
X374814Y13356D01*
X374943Y13376D01*
X375073Y13386D01*
X375165Y13410D01*
X375259Y13425D01*
X375382Y13467D01*
X375508Y13500D01*
X375595Y13540D01*
X375685Y13571D01*
X375799Y13635D01*
X375917Y13689D01*
X375995Y13744D01*
X376078Y13790D01*
X376179Y13873D01*
X376286Y13947D01*
X376353Y14015D01*
X376427Y14076D01*
X376511Y14175D01*
X376603Y14267D01*
X376657Y14346D01*
X376719Y14418D01*
X376785Y14530D01*
X376859Y14637D01*
X376916Y14754D01*
X376947Y14807D01*
X376962Y14849D01*
X376996Y14918D01*
X378521Y18599D01*
X381451Y21529D01*
X385278Y23115D01*
X389422Y23115D01*
X393249Y21529D01*
X396179Y18599D01*
X397704Y14918D01*
X397764Y14803D01*
X397816Y14683D01*
X397868Y14604D01*
X397913Y14519D01*
X397992Y14416D01*
X398064Y14308D01*
X398130Y14239D01*
X398188Y14163D01*
X398285Y14076D01*
X398375Y13982D01*
X398452Y13925D01*
X398523Y13861D01*
X398633Y13793D01*
X398738Y13716D01*
X398824Y13674D01*
X398905Y13624D01*
X399026Y13575D01*
X399142Y13518D01*
X399234Y13492D01*
X399323Y13457D01*
X399451Y13431D01*
X399576Y13395D01*
X399671Y13386D01*
X399764Y13367D01*
X399894Y13364D01*
X400024Y13351D01*
X400119Y13358D01*
X400214Y13356D01*
X400343Y13376D01*
X400473Y13386D01*
X400565Y13410D01*
X400659Y13425D01*
X400782Y13467D01*
X400908Y13500D01*
X400995Y13540D01*
X401085Y13571D01*
X401199Y13635D01*
X401317Y13689D01*
X401395Y13744D01*
X401478Y13790D01*
X401579Y13873D01*
X401686Y13947D01*
X401753Y14015D01*
X401827Y14076D01*
X401911Y14175D01*
X402003Y14267D01*
X402057Y14346D01*
X402119Y14418D01*
X402185Y14530D01*
X402259Y14637D01*
X402316Y14754D01*
X402347Y14807D01*
X402362Y14849D01*
X402396Y14918D01*
X403921Y18599D01*
X406851Y21529D01*
X410678Y23115D01*
X414822Y23115D01*
X418649Y21529D01*
X421579Y18599D01*
X423104Y14918D01*
X423164Y14803D01*
X423216Y14683D01*
X423268Y14604D01*
X423313Y14519D01*
X423392Y14416D01*
X423464Y14308D01*
X423530Y14239D01*
X423588Y14163D01*
X423685Y14076D01*
X423774Y13982D01*
X423852Y13925D01*
X423923Y13861D01*
X424033Y13793D01*
X424138Y13716D01*
X424224Y13674D01*
X424305Y13624D01*
X424426Y13575D01*
X424542Y13518D01*
X424634Y13492D01*
X424723Y13457D01*
X424851Y13431D01*
X424976Y13395D01*
X425071Y13386D01*
X425164Y13367D01*
X425294Y13364D01*
X425424Y13351D01*
X425519Y13358D01*
G37*
G36*
X46580Y2552D02*
X46580Y2552D01*
X46710Y2554D01*
X46804Y2572D01*
X46899Y2581D01*
X47024Y2615D01*
X47152Y2640D01*
X47241Y2674D01*
X47333Y2699D01*
X47450Y2755D01*
X47572Y2802D01*
X47654Y2852D01*
X47740Y2893D01*
X47845Y2968D01*
X47957Y3036D01*
X48028Y3099D01*
X48106Y3155D01*
X48197Y3248D01*
X48294Y3334D01*
X48353Y3409D01*
X48420Y3477D01*
X48493Y3585D01*
X48574Y3687D01*
X48619Y3771D01*
X48672Y3850D01*
X48725Y3969D01*
X48786Y4084D01*
X48816Y4175D01*
X48854Y4262D01*
X48885Y4389D01*
X48925Y4512D01*
X48938Y4607D01*
X48961Y4700D01*
X48969Y4829D01*
X48987Y4958D01*
X48983Y5054D01*
X48989Y5149D01*
X48974Y5278D01*
X48968Y5408D01*
X48948Y5501D01*
X48937Y5596D01*
X48899Y5721D01*
X48871Y5848D01*
X48834Y5936D01*
X48806Y6027D01*
X48747Y6143D01*
X48697Y6263D01*
X48645Y6343D01*
X48602Y6429D01*
X48523Y6532D01*
X48453Y6641D01*
X48367Y6739D01*
X48330Y6787D01*
X48324Y6793D01*
X46735Y10628D01*
X46735Y14772D01*
X48321Y18599D01*
X51251Y21529D01*
X55078Y23115D01*
X59222Y23115D01*
X63049Y21529D01*
X65979Y18599D01*
X67504Y14918D01*
X67564Y14803D01*
X67616Y14683D01*
X67668Y14604D01*
X67713Y14519D01*
X67792Y14416D01*
X67864Y14308D01*
X67930Y14239D01*
X67988Y14163D01*
X68085Y14076D01*
X68175Y13982D01*
X68252Y13925D01*
X68323Y13861D01*
X68433Y13793D01*
X68538Y13716D01*
X68624Y13674D01*
X68705Y13624D01*
X68826Y13575D01*
X68942Y13518D01*
X69034Y13492D01*
X69123Y13457D01*
X69251Y13431D01*
X69376Y13395D01*
X69471Y13386D01*
X69564Y13367D01*
X69694Y13364D01*
X69824Y13351D01*
X69919Y13358D01*
X70014Y13356D01*
X70143Y13376D01*
X70273Y13386D01*
X70365Y13410D01*
X70459Y13425D01*
X70582Y13467D01*
X70708Y13500D01*
X70795Y13540D01*
X70885Y13571D01*
X70999Y13635D01*
X71117Y13689D01*
X71195Y13744D01*
X71278Y13790D01*
X71379Y13873D01*
X71486Y13947D01*
X71553Y14015D01*
X71627Y14076D01*
X71711Y14175D01*
X71803Y14267D01*
X71857Y14346D01*
X71919Y14418D01*
X71985Y14530D01*
X72059Y14637D01*
X72116Y14754D01*
X72147Y14807D01*
X72162Y14849D01*
X72196Y14918D01*
X73721Y18599D01*
X76651Y21529D01*
X80478Y23115D01*
X84622Y23115D01*
X88449Y21529D01*
X91379Y18600D01*
X92904Y14918D01*
X92964Y14803D01*
X93016Y14683D01*
X93068Y14604D01*
X93113Y14519D01*
X93192Y14416D01*
X93264Y14308D01*
X93330Y14239D01*
X93388Y14163D01*
X93485Y14076D01*
X93575Y13982D01*
X93652Y13925D01*
X93723Y13861D01*
X93833Y13793D01*
X93938Y13716D01*
X94024Y13674D01*
X94105Y13624D01*
X94226Y13575D01*
X94342Y13518D01*
X94434Y13492D01*
X94523Y13457D01*
X94651Y13431D01*
X94776Y13395D01*
X94871Y13386D01*
X94964Y13367D01*
X95094Y13364D01*
X95224Y13351D01*
X95319Y13358D01*
X95414Y13356D01*
X95543Y13376D01*
X95673Y13386D01*
X95765Y13410D01*
X95859Y13425D01*
X95982Y13467D01*
X96108Y13500D01*
X96195Y13540D01*
X96285Y13571D01*
X96399Y13635D01*
X96517Y13689D01*
X96595Y13744D01*
X96678Y13790D01*
X96779Y13873D01*
X96886Y13947D01*
X96953Y14015D01*
X97027Y14076D01*
X97111Y14175D01*
X97203Y14267D01*
X97257Y14346D01*
X97319Y14418D01*
X97385Y14530D01*
X97459Y14637D01*
X97516Y14754D01*
X97547Y14807D01*
X97562Y14849D01*
X97596Y14918D01*
X99121Y18600D01*
X102051Y21529D01*
X105878Y23115D01*
X110022Y23115D01*
X113849Y21529D01*
X116779Y18599D01*
X118070Y15484D01*
X118072Y15480D01*
X118073Y15476D01*
X118176Y15281D01*
X118278Y15085D01*
X118281Y15082D01*
X118283Y15078D01*
X118419Y14904D01*
X118554Y14729D01*
X118557Y14726D01*
X118560Y14723D01*
X118726Y14574D01*
X118888Y14427D01*
X118892Y14425D01*
X118895Y14422D01*
X119085Y14305D01*
X119270Y14189D01*
X119274Y14188D01*
X119278Y14186D01*
X119483Y14105D01*
X119689Y14023D01*
X119693Y14022D01*
X119697Y14020D01*
X119912Y13977D01*
X120130Y13933D01*
X120134Y13933D01*
X120138Y13932D01*
X120354Y13927D01*
X120580Y13922D01*
X120584Y13923D01*
X120589Y13922D01*
X120799Y13956D01*
X121025Y13991D01*
X121029Y13992D01*
X121033Y13993D01*
X121239Y14064D01*
X121451Y14137D01*
X121455Y14139D01*
X121459Y14141D01*
X121649Y14248D01*
X121844Y14356D01*
X121847Y14359D01*
X121851Y14361D01*
X122019Y14499D01*
X122192Y14642D01*
X122195Y14645D01*
X122198Y14648D01*
X122343Y14818D01*
X122485Y14984D01*
X122487Y14988D01*
X122490Y14991D01*
X122602Y15185D01*
X122712Y15373D01*
X122714Y15377D01*
X122716Y15380D01*
X122831Y15671D01*
X123227Y16893D01*
X124008Y18425D01*
X125019Y19816D01*
X126234Y21031D01*
X127625Y22042D01*
X129157Y22822D01*
X130792Y23354D01*
X130811Y23357D01*
X130811Y12700D01*
X130814Y12666D01*
X130812Y12631D01*
X130834Y12442D01*
X130850Y12252D01*
X130860Y12218D01*
X130864Y12184D01*
X130919Y12001D01*
X130969Y11817D01*
X130984Y11786D01*
X130994Y11753D01*
X131081Y11582D01*
X131162Y11411D01*
X131183Y11383D01*
X131198Y11352D01*
X131313Y11200D01*
X131425Y11045D01*
X131449Y11021D01*
X131470Y10993D01*
X131610Y10864D01*
X131747Y10731D01*
X131776Y10711D01*
X131801Y10688D01*
X131962Y10585D01*
X132120Y10479D01*
X132152Y10465D01*
X132181Y10446D01*
X132358Y10374D01*
X132532Y10296D01*
X132566Y10288D01*
X132598Y10275D01*
X132784Y10235D01*
X132969Y10190D01*
X133004Y10188D01*
X133038Y10180D01*
X133350Y10161D01*
X133385Y10164D01*
X133419Y10162D01*
X133609Y10184D01*
X133799Y10201D01*
X133832Y10210D01*
X133866Y10214D01*
X134049Y10269D01*
X134233Y10320D01*
X134264Y10334D01*
X134297Y10344D01*
X134468Y10431D01*
X134640Y10513D01*
X134668Y10533D01*
X134699Y10549D01*
X134851Y10664D01*
X135006Y10775D01*
X135030Y10800D01*
X135057Y10821D01*
X135187Y10961D01*
X135320Y11098D01*
X135339Y11126D01*
X135363Y11152D01*
X135465Y11313D01*
X135572Y11471D01*
X135586Y11502D01*
X135604Y11532D01*
X135677Y11708D01*
X135754Y11883D01*
X135762Y11916D01*
X135775Y11948D01*
X135816Y12135D01*
X135861Y12320D01*
X135863Y12354D01*
X135870Y12388D01*
X135889Y12700D01*
X135889Y23357D01*
X135908Y23354D01*
X137543Y22822D01*
X139075Y22042D01*
X140466Y21031D01*
X141681Y19816D01*
X142692Y18425D01*
X143473Y16893D01*
X143869Y15671D01*
X143871Y15667D01*
X143872Y15663D01*
X143960Y15458D01*
X144046Y15257D01*
X144048Y15253D01*
X144050Y15249D01*
X144172Y15065D01*
X144293Y14880D01*
X144296Y14877D01*
X144298Y14874D01*
X144456Y14709D01*
X144603Y14553D01*
X144606Y14551D01*
X144609Y14548D01*
X144792Y14414D01*
X144965Y14286D01*
X144969Y14284D01*
X144972Y14282D01*
X145170Y14186D01*
X145369Y14087D01*
X145373Y14086D01*
X145377Y14084D01*
X145585Y14025D01*
X145802Y13963D01*
X145806Y13962D01*
X145810Y13961D01*
X146030Y13939D01*
X146250Y13917D01*
X146254Y13917D01*
X146258Y13917D01*
X146482Y13934D01*
X146699Y13951D01*
X146703Y13952D01*
X146707Y13952D01*
X146917Y14007D01*
X147134Y14063D01*
X147139Y14065D01*
X147143Y14066D01*
X147341Y14158D01*
X147544Y14251D01*
X147547Y14253D01*
X147551Y14255D01*
X147734Y14383D01*
X147913Y14508D01*
X147916Y14511D01*
X147920Y14513D01*
X148076Y14671D01*
X148232Y14826D01*
X148234Y14830D01*
X148237Y14833D01*
X148364Y15016D01*
X148489Y15196D01*
X148491Y15200D01*
X148493Y15203D01*
X148630Y15484D01*
X149921Y18599D01*
X152851Y21529D01*
X156678Y23115D01*
X160822Y23115D01*
X164650Y21529D01*
X166422Y19757D01*
X166448Y19735D01*
X166471Y19709D01*
X166620Y19591D01*
X166767Y19468D01*
X166797Y19451D01*
X166824Y19429D01*
X166992Y19340D01*
X167158Y19245D01*
X167191Y19233D01*
X167221Y19217D01*
X167402Y19158D01*
X167582Y19094D01*
X167616Y19088D01*
X167649Y19078D01*
X167838Y19052D01*
X168026Y19021D01*
X168061Y19021D01*
X168095Y19016D01*
X168286Y19024D01*
X168477Y19027D01*
X168511Y19033D01*
X168545Y19035D01*
X168731Y19076D01*
X168919Y19112D01*
X168951Y19125D01*
X168985Y19132D01*
X169161Y19206D01*
X169339Y19274D01*
X169368Y19292D01*
X169400Y19306D01*
X169561Y19409D01*
X169723Y19508D01*
X169749Y19531D01*
X169778Y19550D01*
X170013Y19757D01*
X187086Y36831D01*
X202172Y36831D01*
X202254Y36838D01*
X202337Y36836D01*
X202478Y36858D01*
X202621Y36871D01*
X202700Y36892D01*
X202782Y36905D01*
X202917Y36951D01*
X203055Y36989D01*
X203129Y37025D01*
X203207Y37051D01*
X203333Y37121D01*
X203462Y37183D01*
X203528Y37230D01*
X203601Y37271D01*
X203712Y37361D01*
X203828Y37445D01*
X203885Y37504D01*
X203949Y37556D01*
X204042Y37665D01*
X204142Y37767D01*
X204188Y37836D01*
X204241Y37898D01*
X204314Y38022D01*
X204394Y38140D01*
X204427Y38216D01*
X204469Y38287D01*
X204518Y38421D01*
X204576Y38552D01*
X204596Y38632D01*
X204624Y38710D01*
X204649Y38851D01*
X204683Y38990D01*
X204688Y39072D01*
X204702Y39153D01*
X204702Y39296D01*
X204710Y39439D01*
X204701Y39521D01*
X204701Y39603D01*
X204675Y39744D01*
X204658Y39886D01*
X204634Y39965D01*
X204620Y40046D01*
X204539Y40280D01*
X204528Y40317D01*
X204523Y40327D01*
X204518Y40342D01*
X203620Y42509D01*
X203620Y45121D01*
X204620Y47534D01*
X206466Y49380D01*
X208925Y50399D01*
X208959Y50403D01*
X209150Y50420D01*
X209183Y50429D01*
X209217Y50433D01*
X209400Y50488D01*
X209584Y50538D01*
X209615Y50553D01*
X209648Y50563D01*
X209819Y50650D01*
X209991Y50732D01*
X210019Y50752D01*
X210050Y50767D01*
X210202Y50883D01*
X210357Y50994D01*
X210381Y51019D01*
X210408Y51039D01*
X210537Y51179D01*
X210671Y51316D01*
X210690Y51345D01*
X210714Y51371D01*
X210816Y51532D01*
X210923Y51689D01*
X210937Y51721D01*
X210955Y51750D01*
X211028Y51927D01*
X211105Y52101D01*
X211113Y52135D01*
X211126Y52167D01*
X211166Y52354D01*
X211212Y52539D01*
X211214Y52573D01*
X211221Y52607D01*
X211240Y52919D01*
X211240Y54011D01*
X212240Y56424D01*
X214086Y58270D01*
X216499Y59270D01*
X219111Y59270D01*
X221556Y58257D01*
X221635Y58204D01*
X221708Y58143D01*
X221821Y58078D01*
X221928Y58005D01*
X222016Y57967D01*
X222099Y57919D01*
X222221Y57876D01*
X222340Y57823D01*
X222433Y57800D01*
X222523Y57768D01*
X222651Y57747D01*
X222778Y57716D01*
X222873Y57710D01*
X222967Y57695D01*
X223097Y57697D01*
X223227Y57689D01*
X223322Y57700D01*
X223417Y57701D01*
X223545Y57726D01*
X223674Y57741D01*
X223766Y57768D01*
X223859Y57786D01*
X223981Y57833D01*
X224105Y57871D01*
X224190Y57914D01*
X224279Y57949D01*
X224391Y58016D01*
X224507Y58075D01*
X224583Y58133D01*
X224664Y58183D01*
X224762Y58269D01*
X224865Y58347D01*
X224930Y58418D01*
X225002Y58481D01*
X225082Y58583D01*
X225171Y58678D01*
X225222Y58759D01*
X225281Y58834D01*
X225342Y58948D01*
X225412Y59058D01*
X225449Y59147D01*
X225494Y59231D01*
X225534Y59354D01*
X225583Y59475D01*
X225603Y59568D01*
X225633Y59659D01*
X225651Y59788D01*
X225678Y59915D01*
X225686Y60045D01*
X225694Y60105D01*
X225693Y60150D01*
X225697Y60227D01*
X225697Y62651D01*
X225694Y62686D01*
X225696Y62720D01*
X225674Y62909D01*
X225657Y63100D01*
X225648Y63133D01*
X225644Y63167D01*
X225589Y63350D01*
X225539Y63534D01*
X225524Y63565D01*
X225514Y63598D01*
X225427Y63769D01*
X225345Y63941D01*
X225325Y63969D01*
X225310Y64000D01*
X225194Y64152D01*
X225083Y64307D01*
X225058Y64331D01*
X225038Y64358D01*
X224898Y64487D01*
X224761Y64621D01*
X224732Y64640D01*
X224706Y64664D01*
X224545Y64766D01*
X224388Y64873D01*
X224356Y64887D01*
X224327Y64905D01*
X224150Y64978D01*
X223976Y65055D01*
X223942Y65063D01*
X223910Y65076D01*
X223723Y65116D01*
X223538Y65162D01*
X223504Y65164D01*
X223470Y65171D01*
X223158Y65190D01*
X222268Y65190D01*
X221617Y65365D01*
X221579Y65382D01*
X221531Y65413D01*
X221376Y65477D01*
X221223Y65548D01*
X221167Y65562D01*
X221114Y65584D01*
X220950Y65620D01*
X220788Y65662D01*
X220730Y65667D01*
X220674Y65679D01*
X220362Y65698D01*
X196761Y65698D01*
X195570Y66889D01*
X195570Y82296D01*
X195567Y82331D01*
X195569Y82365D01*
X195547Y82554D01*
X195530Y82745D01*
X195521Y82778D01*
X195517Y82812D01*
X195462Y82995D01*
X195412Y83179D01*
X195397Y83210D01*
X195387Y83243D01*
X195300Y83414D01*
X195218Y83586D01*
X195198Y83614D01*
X195183Y83645D01*
X195067Y83797D01*
X194956Y83952D01*
X194931Y83976D01*
X194911Y84003D01*
X194771Y84132D01*
X194634Y84266D01*
X194605Y84285D01*
X194579Y84309D01*
X194418Y84411D01*
X194261Y84518D01*
X194229Y84532D01*
X194200Y84550D01*
X194023Y84623D01*
X193849Y84700D01*
X193815Y84708D01*
X193783Y84721D01*
X193596Y84761D01*
X193411Y84807D01*
X193377Y84809D01*
X193343Y84816D01*
X193031Y84835D01*
X183341Y84835D01*
X181848Y85454D01*
X155304Y111998D01*
X154685Y113491D01*
X154685Y124059D01*
X154670Y124236D01*
X154660Y124414D01*
X154650Y124460D01*
X154645Y124508D01*
X154599Y124679D01*
X154558Y124852D01*
X154539Y124896D01*
X154527Y124942D01*
X154451Y125102D01*
X154380Y125266D01*
X154354Y125306D01*
X154333Y125349D01*
X154230Y125493D01*
X154132Y125641D01*
X154099Y125676D01*
X154071Y125715D01*
X153944Y125839D01*
X153822Y125967D01*
X153783Y125996D01*
X153749Y126029D01*
X153601Y126129D01*
X153458Y126233D01*
X153415Y126254D01*
X153376Y126281D01*
X153213Y126353D01*
X153054Y126431D01*
X153008Y126444D01*
X152964Y126463D01*
X152791Y126505D01*
X152620Y126554D01*
X152573Y126559D01*
X152526Y126570D01*
X152349Y126581D01*
X152172Y126598D01*
X152125Y126595D01*
X152077Y126598D01*
X151900Y126577D01*
X151723Y126563D01*
X151677Y126551D01*
X151630Y126546D01*
X151459Y126494D01*
X151288Y126449D01*
X151245Y126429D01*
X151199Y126415D01*
X151040Y126335D01*
X150879Y126260D01*
X150840Y126233D01*
X150797Y126211D01*
X150656Y126104D01*
X150510Y126002D01*
X150477Y125968D01*
X150439Y125939D01*
X150318Y125808D01*
X150193Y125682D01*
X150166Y125643D01*
X150134Y125608D01*
X150038Y125458D01*
X149937Y125312D01*
X149911Y125259D01*
X149892Y125228D01*
X149868Y125170D01*
X149800Y125031D01*
X149075Y123281D01*
X147229Y121435D01*
X144816Y120435D01*
X142204Y120435D01*
X139791Y121435D01*
X137945Y123281D01*
X136945Y125694D01*
X136945Y128306D01*
X137945Y130719D01*
X139791Y132565D01*
X142204Y133565D01*
X144816Y133565D01*
X147229Y132565D01*
X149075Y130719D01*
X149800Y128969D01*
X149882Y128811D01*
X149959Y128651D01*
X149986Y128612D01*
X150009Y128570D01*
X150117Y128429D01*
X150221Y128285D01*
X150255Y128252D01*
X150284Y128214D01*
X150416Y128095D01*
X150543Y127971D01*
X150583Y127944D01*
X150619Y127912D01*
X150769Y127819D01*
X150916Y127719D01*
X150960Y127700D01*
X151001Y127674D01*
X151166Y127609D01*
X151328Y127537D01*
X151375Y127525D01*
X151419Y127508D01*
X151593Y127472D01*
X151766Y127430D01*
X151813Y127427D01*
X151860Y127418D01*
X152038Y127413D01*
X152215Y127402D01*
X152263Y127408D01*
X152310Y127407D01*
X152486Y127434D01*
X152662Y127454D01*
X152708Y127468D01*
X152755Y127476D01*
X152923Y127533D01*
X153093Y127585D01*
X153136Y127606D01*
X153181Y127622D01*
X153336Y127708D01*
X153495Y127789D01*
X153533Y127818D01*
X153574Y127841D01*
X153712Y127954D01*
X153853Y128061D01*
X153886Y128096D01*
X153923Y128127D01*
X154038Y128261D01*
X154159Y128392D01*
X154184Y128433D01*
X154215Y128469D01*
X154305Y128622D01*
X154400Y128772D01*
X154419Y128816D01*
X154443Y128858D01*
X154504Y129024D01*
X154571Y129189D01*
X154581Y129235D01*
X154598Y129280D01*
X154629Y129455D01*
X154666Y129629D01*
X154670Y129688D01*
X154676Y129724D01*
X154676Y129787D01*
X154685Y129941D01*
X154685Y132428D01*
X154671Y132592D01*
X154664Y132756D01*
X154651Y132816D01*
X154645Y132876D01*
X154602Y133035D01*
X154566Y133196D01*
X154543Y133252D01*
X154527Y133311D01*
X154456Y133459D01*
X154393Y133611D01*
X154360Y133663D01*
X154333Y133717D01*
X154238Y133851D01*
X154148Y133989D01*
X154097Y134047D01*
X154071Y134084D01*
X154028Y134126D01*
X153942Y134223D01*
X145438Y142727D01*
X144819Y144221D01*
X144819Y156043D01*
X145438Y157536D01*
X153942Y166040D01*
X154047Y166166D01*
X154159Y166287D01*
X154191Y166338D01*
X154230Y166385D01*
X154312Y166528D01*
X154400Y166667D01*
X154424Y166723D01*
X154454Y166776D01*
X154509Y166931D01*
X154571Y167083D01*
X154584Y167143D01*
X154605Y167201D01*
X154631Y167363D01*
X154666Y167524D01*
X154671Y167600D01*
X154678Y167645D01*
X154677Y167706D01*
X154685Y167835D01*
X154685Y204614D01*
X154666Y204826D01*
X154650Y205037D01*
X154647Y205049D01*
X154645Y205063D01*
X154589Y205268D01*
X154536Y205472D01*
X154530Y205484D01*
X154527Y205497D01*
X154436Y205688D01*
X154347Y205881D01*
X154339Y205892D01*
X154333Y205904D01*
X154211Y206075D01*
X154088Y206250D01*
X154079Y206259D01*
X154071Y206270D01*
X153919Y206418D01*
X153769Y206567D01*
X153758Y206575D01*
X153749Y206584D01*
X153572Y206703D01*
X153399Y206823D01*
X153384Y206830D01*
X153376Y206836D01*
X153339Y206852D01*
X153118Y206960D01*
X152851Y207071D01*
X149921Y210001D01*
X148335Y213828D01*
X148335Y217972D01*
X149932Y221827D01*
X150020Y221917D01*
X150073Y221997D01*
X150135Y222070D01*
X150199Y222183D01*
X150272Y222290D01*
X150311Y222378D01*
X150358Y222461D01*
X150402Y222583D01*
X150454Y222702D01*
X150477Y222795D01*
X150509Y222885D01*
X150530Y223013D01*
X150561Y223140D01*
X150567Y223235D01*
X150582Y223329D01*
X150581Y223459D01*
X150589Y223589D01*
X150578Y223684D01*
X150576Y223779D01*
X150552Y223907D01*
X150537Y224036D01*
X150509Y224128D01*
X150491Y224221D01*
X150444Y224343D01*
X150406Y224467D01*
X150363Y224552D01*
X150329Y224641D01*
X150261Y224753D01*
X150202Y224869D01*
X150144Y224945D01*
X150095Y225026D01*
X150008Y225124D01*
X149930Y225227D01*
X149860Y225292D01*
X149796Y225364D01*
X149694Y225444D01*
X149599Y225533D01*
X149518Y225584D01*
X149443Y225643D01*
X149329Y225704D01*
X149219Y225774D01*
X149131Y225811D01*
X149046Y225856D01*
X148923Y225896D01*
X148802Y225945D01*
X148709Y225965D01*
X148618Y225995D01*
X148490Y226013D01*
X148362Y226040D01*
X148232Y226048D01*
X148172Y226056D01*
X148128Y226055D01*
X148050Y226059D01*
X125000Y226059D01*
X124870Y226048D01*
X124740Y226046D01*
X124646Y226028D01*
X124551Y226019D01*
X124426Y225985D01*
X124298Y225960D01*
X124209Y225926D01*
X124117Y225901D01*
X124000Y225845D01*
X123878Y225798D01*
X123796Y225748D01*
X123710Y225707D01*
X123605Y225632D01*
X123493Y225564D01*
X123422Y225501D01*
X123344Y225445D01*
X123253Y225352D01*
X123156Y225266D01*
X123097Y225191D01*
X123030Y225123D01*
X122957Y225015D01*
X122876Y224913D01*
X122831Y224829D01*
X122778Y224750D01*
X122725Y224631D01*
X122664Y224516D01*
X122634Y224425D01*
X122596Y224338D01*
X122565Y224211D01*
X122525Y224088D01*
X122512Y223993D01*
X122489Y223900D01*
X122481Y223771D01*
X122463Y223642D01*
X122467Y223546D01*
X122461Y223451D01*
X122476Y223322D01*
X122482Y223192D01*
X122502Y223099D01*
X122513Y223004D01*
X122551Y222879D01*
X122579Y222752D01*
X122616Y222664D01*
X122644Y222573D01*
X122703Y222457D01*
X122753Y222337D01*
X122805Y222257D01*
X122848Y222171D01*
X122927Y222068D01*
X122997Y221959D01*
X123083Y221861D01*
X123120Y221813D01*
X123126Y221807D01*
X124715Y217972D01*
X124715Y213828D01*
X123129Y210001D01*
X120199Y207071D01*
X116372Y205485D01*
X112228Y205485D01*
X108401Y207071D01*
X105301Y210171D01*
X105274Y210193D01*
X105251Y210219D01*
X105102Y210337D01*
X104955Y210460D01*
X104925Y210477D01*
X104898Y210498D01*
X104730Y210588D01*
X104564Y210683D01*
X104532Y210695D01*
X104501Y210711D01*
X104320Y210770D01*
X104140Y210834D01*
X104106Y210840D01*
X104073Y210850D01*
X103884Y210876D01*
X103696Y210907D01*
X103661Y210907D01*
X103627Y210912D01*
X103436Y210904D01*
X103245Y210901D01*
X103211Y210895D01*
X103177Y210893D01*
X102991Y210852D01*
X102803Y210816D01*
X102771Y210803D01*
X102737Y210796D01*
X102562Y210722D01*
X102383Y210653D01*
X102354Y210635D01*
X102322Y210622D01*
X102162Y210519D01*
X101999Y210420D01*
X101973Y210397D01*
X101944Y210378D01*
X101709Y210171D01*
X98610Y207071D01*
X94782Y205485D01*
X94409Y205485D01*
X94279Y205474D01*
X94149Y205472D01*
X94056Y205454D01*
X93960Y205445D01*
X93835Y205411D01*
X93707Y205386D01*
X93618Y205352D01*
X93526Y205327D01*
X93409Y205271D01*
X93287Y205224D01*
X93206Y205174D01*
X93119Y205133D01*
X93014Y205058D01*
X92903Y204990D01*
X92831Y204927D01*
X92753Y204871D01*
X92662Y204778D01*
X92565Y204692D01*
X92506Y204617D01*
X92439Y204549D01*
X92366Y204441D01*
X92286Y204339D01*
X92241Y204255D01*
X92187Y204176D01*
X92135Y204057D01*
X92073Y203942D01*
X92044Y203851D01*
X92005Y203764D01*
X91974Y203637D01*
X91934Y203514D01*
X91921Y203419D01*
X91898Y203326D01*
X91890Y203197D01*
X91873Y203068D01*
X91876Y202972D01*
X91871Y202877D01*
X91886Y202748D01*
X91891Y202618D01*
X91912Y202525D01*
X91923Y202430D01*
X91960Y202305D01*
X91989Y202178D01*
X92025Y202090D01*
X92053Y201999D01*
X92112Y201883D01*
X92162Y201763D01*
X92214Y201683D01*
X92257Y201597D01*
X92336Y201494D01*
X92406Y201385D01*
X92493Y201287D01*
X92529Y201239D01*
X92562Y201208D01*
X92613Y201150D01*
X93195Y200569D01*
X94195Y198156D01*
X94195Y195544D01*
X93195Y193131D01*
X91349Y191285D01*
X88936Y190285D01*
X86324Y190285D01*
X83911Y191285D01*
X82065Y193131D01*
X81065Y195544D01*
X81065Y198156D01*
X82065Y200569D01*
X83911Y202415D01*
X85742Y203174D01*
X85815Y203212D01*
X85892Y203242D01*
X86015Y203316D01*
X86141Y203382D01*
X86206Y203433D01*
X86277Y203475D01*
X86384Y203570D01*
X86497Y203658D01*
X86553Y203719D01*
X86614Y203774D01*
X86703Y203886D01*
X86799Y203992D01*
X86843Y204062D01*
X86894Y204127D01*
X86961Y204253D01*
X87037Y204374D01*
X87067Y204451D01*
X87106Y204524D01*
X87151Y204660D01*
X87204Y204793D01*
X87220Y204874D01*
X87246Y204952D01*
X87265Y205094D01*
X87294Y205234D01*
X87296Y205316D01*
X87307Y205398D01*
X87301Y205541D01*
X87305Y205684D01*
X87292Y205765D01*
X87289Y205848D01*
X87258Y205988D01*
X87236Y206129D01*
X87209Y206207D01*
X87191Y206287D01*
X87136Y206420D01*
X87089Y206555D01*
X87049Y206627D01*
X87017Y206703D01*
X86940Y206823D01*
X86870Y206948D01*
X86818Y207012D01*
X86773Y207081D01*
X86609Y207266D01*
X86585Y207296D01*
X86577Y207303D01*
X86566Y207315D01*
X83881Y210001D01*
X82295Y213828D01*
X82295Y217972D01*
X83892Y221827D01*
X83980Y221917D01*
X84033Y221997D01*
X84095Y222070D01*
X84159Y222183D01*
X84232Y222290D01*
X84271Y222378D01*
X84318Y222461D01*
X84362Y222583D01*
X84414Y222702D01*
X84437Y222795D01*
X84469Y222885D01*
X84490Y223013D01*
X84521Y223140D01*
X84527Y223235D01*
X84542Y223329D01*
X84541Y223459D01*
X84549Y223589D01*
X84538Y223684D01*
X84536Y223779D01*
X84512Y223907D01*
X84497Y224036D01*
X84469Y224128D01*
X84451Y224221D01*
X84404Y224343D01*
X84366Y224467D01*
X84323Y224552D01*
X84289Y224641D01*
X84221Y224753D01*
X84162Y224869D01*
X84104Y224945D01*
X84055Y225026D01*
X83968Y225124D01*
X83890Y225227D01*
X83820Y225292D01*
X83756Y225364D01*
X83654Y225444D01*
X83559Y225533D01*
X83478Y225584D01*
X83403Y225643D01*
X83289Y225704D01*
X83179Y225774D01*
X83091Y225811D01*
X83006Y225856D01*
X82883Y225896D01*
X82762Y225945D01*
X82669Y225965D01*
X82578Y225995D01*
X82450Y226013D01*
X82322Y226040D01*
X82192Y226048D01*
X82132Y226056D01*
X82088Y226055D01*
X82010Y226059D01*
X33020Y226059D01*
X32856Y226045D01*
X32692Y226038D01*
X32632Y226025D01*
X32572Y226019D01*
X32413Y225976D01*
X32252Y225940D01*
X32196Y225917D01*
X32137Y225901D01*
X31989Y225830D01*
X31837Y225767D01*
X31785Y225734D01*
X31731Y225707D01*
X31597Y225612D01*
X31459Y225522D01*
X31401Y225471D01*
X31364Y225445D01*
X31322Y225402D01*
X31224Y225316D01*
X28625Y222716D01*
X28602Y222689D01*
X28577Y222666D01*
X28483Y222548D01*
X28455Y222519D01*
X28432Y222486D01*
X28336Y222370D01*
X28319Y222340D01*
X28297Y222313D01*
X28226Y222181D01*
X28203Y222146D01*
X28186Y222108D01*
X28112Y221979D01*
X28101Y221947D01*
X28085Y221916D01*
X28039Y221776D01*
X28020Y221734D01*
X28010Y221690D01*
X27962Y221555D01*
X27956Y221521D01*
X27945Y221488D01*
X27926Y221346D01*
X27914Y221297D01*
X27911Y221247D01*
X27888Y221111D01*
X27889Y221076D01*
X27884Y221042D01*
X27890Y220905D01*
X27886Y220847D01*
X27893Y220791D01*
X27894Y220661D01*
X27901Y220627D01*
X27902Y220592D01*
X27930Y220465D01*
X27938Y220400D01*
X27957Y220338D01*
X27980Y220219D01*
X27992Y220186D01*
X28000Y220153D01*
X28047Y220040D01*
X28068Y219969D01*
X28101Y219904D01*
X28142Y219799D01*
X28160Y219769D01*
X28173Y219737D01*
X28235Y219642D01*
X28273Y219568D01*
X28322Y219502D01*
X28376Y219414D01*
X28399Y219388D01*
X28418Y219359D01*
X28511Y219254D01*
X28545Y219209D01*
X28575Y219181D01*
X28625Y219125D01*
X30529Y217220D01*
X32591Y212243D01*
X32591Y206857D01*
X30529Y201880D01*
X26720Y198071D01*
X21743Y196009D01*
X16357Y196009D01*
X11380Y198071D01*
X9475Y199975D01*
X9449Y199998D01*
X9426Y200023D01*
X9277Y200141D01*
X9130Y200264D01*
X9100Y200281D01*
X9073Y200303D01*
X8905Y200393D01*
X8739Y200488D01*
X8706Y200499D01*
X8676Y200515D01*
X8495Y200574D01*
X8315Y200638D01*
X8280Y200644D01*
X8248Y200655D01*
X8059Y200681D01*
X7870Y200712D01*
X7836Y200711D01*
X7801Y200716D01*
X7611Y200708D01*
X7420Y200706D01*
X7386Y200699D01*
X7352Y200698D01*
X7166Y200656D01*
X6978Y200620D01*
X6946Y200608D01*
X6912Y200600D01*
X6736Y200527D01*
X6558Y200458D01*
X6529Y200440D01*
X6497Y200427D01*
X6336Y200323D01*
X6173Y200224D01*
X6147Y200201D01*
X6118Y200182D01*
X5884Y199975D01*
X3284Y197376D01*
X3179Y197249D01*
X3067Y197128D01*
X3035Y197077D01*
X2996Y197030D01*
X2914Y196887D01*
X2826Y196749D01*
X2802Y196692D01*
X2772Y196639D01*
X2717Y196484D01*
X2655Y196332D01*
X2642Y196272D01*
X2621Y196215D01*
X2595Y196053D01*
X2560Y195892D01*
X2555Y195815D01*
X2548Y195771D01*
X2549Y195710D01*
X2541Y195580D01*
X2541Y166324D01*
X2552Y166194D01*
X2554Y166064D01*
X2572Y165971D01*
X2581Y165876D01*
X2615Y165750D01*
X2640Y165622D01*
X2674Y165533D01*
X2699Y165441D01*
X2755Y165324D01*
X2802Y165202D01*
X2852Y165121D01*
X2893Y165035D01*
X2968Y164929D01*
X3036Y164818D01*
X3099Y164746D01*
X3155Y164669D01*
X3248Y164578D01*
X3334Y164480D01*
X3409Y164421D01*
X3477Y164355D01*
X3585Y164282D01*
X3687Y164201D01*
X3771Y164156D01*
X3850Y164102D01*
X3969Y164050D01*
X4084Y163988D01*
X4175Y163959D01*
X4262Y163920D01*
X4389Y163889D01*
X4513Y163849D01*
X4607Y163836D01*
X4700Y163814D01*
X4830Y163806D01*
X4959Y163788D01*
X5054Y163792D01*
X5149Y163786D01*
X5279Y163801D01*
X5408Y163806D01*
X5501Y163827D01*
X5596Y163838D01*
X5721Y163876D01*
X5848Y163904D01*
X5936Y163941D01*
X6027Y163968D01*
X6143Y164027D01*
X6263Y164078D01*
X6344Y164129D01*
X6429Y164173D01*
X6532Y164251D01*
X6642Y164322D01*
X6696Y164370D01*
X7324Y164733D01*
X7970Y164906D01*
X17831Y164906D01*
X17831Y159880D01*
X17834Y159845D01*
X17832Y159811D01*
X17854Y159622D01*
X17870Y159431D01*
X17880Y159398D01*
X17884Y159364D01*
X17939Y159181D01*
X17989Y158997D01*
X18004Y158966D01*
X18014Y158933D01*
X18101Y158762D01*
X18182Y158590D01*
X18203Y158562D01*
X18218Y158531D01*
X18333Y158379D01*
X18445Y158224D01*
X18469Y158200D01*
X18490Y158173D01*
X18630Y158044D01*
X18767Y157910D01*
X18796Y157891D01*
X18821Y157867D01*
X18982Y157765D01*
X19140Y157658D01*
X19172Y157644D01*
X19201Y157626D01*
X19378Y157553D01*
X19552Y157476D01*
X19586Y157468D01*
X19618Y157455D01*
X19804Y157415D01*
X19989Y157369D01*
X20024Y157367D01*
X20058Y157360D01*
X20370Y157341D01*
X20405Y157344D01*
X20439Y157342D01*
X20629Y157364D01*
X20819Y157381D01*
X20852Y157390D01*
X20886Y157394D01*
X21069Y157449D01*
X21253Y157499D01*
X21284Y157514D01*
X21317Y157524D01*
X21488Y157611D01*
X21660Y157693D01*
X21688Y157713D01*
X21719Y157728D01*
X21871Y157844D01*
X22026Y157955D01*
X22050Y157980D01*
X22077Y158000D01*
X22207Y158140D01*
X22340Y158277D01*
X22359Y158306D01*
X22383Y158332D01*
X22485Y158493D01*
X22592Y158650D01*
X22606Y158682D01*
X22624Y158711D01*
X22697Y158888D01*
X22774Y159062D01*
X22782Y159096D01*
X22795Y159128D01*
X22836Y159315D01*
X22881Y159500D01*
X22883Y159534D01*
X22890Y159568D01*
X22909Y159880D01*
X22909Y164906D01*
X32770Y164906D01*
X33416Y164733D01*
X33995Y164398D01*
X34468Y163925D01*
X34803Y163346D01*
X34836Y163221D01*
X34894Y163061D01*
X34946Y162899D01*
X34972Y162850D01*
X34991Y162798D01*
X35076Y162651D01*
X35156Y162500D01*
X35190Y162457D01*
X35218Y162409D01*
X35328Y162280D01*
X35433Y162145D01*
X35474Y162108D01*
X35510Y162067D01*
X35641Y161958D01*
X35768Y161845D01*
X35815Y161816D01*
X35858Y161781D01*
X36006Y161698D01*
X36151Y161608D01*
X36202Y161588D01*
X36250Y161561D01*
X36412Y161505D01*
X36570Y161443D01*
X36624Y161432D01*
X36676Y161414D01*
X36845Y161388D01*
X37012Y161354D01*
X37066Y161353D01*
X37121Y161345D01*
X37292Y161348D01*
X37462Y161345D01*
X37516Y161354D01*
X37571Y161355D01*
X37738Y161389D01*
X37906Y161415D01*
X37959Y161433D01*
X38012Y161444D01*
X38171Y161507D01*
X38332Y161563D01*
X38380Y161590D01*
X38431Y161610D01*
X38576Y161700D01*
X38724Y161784D01*
X38767Y161819D01*
X38813Y161848D01*
X38940Y161962D01*
X39072Y162070D01*
X39107Y162112D01*
X39148Y162149D01*
X39253Y162284D01*
X39363Y162414D01*
X39391Y162461D01*
X39424Y162505D01*
X39503Y162656D01*
X39589Y162803D01*
X39614Y162867D01*
X39633Y162903D01*
X39652Y162963D01*
X39704Y163094D01*
X39955Y163866D01*
X40603Y165139D01*
X41444Y166296D01*
X42454Y167306D01*
X43611Y168147D01*
X44884Y168795D01*
X45831Y169103D01*
X45831Y147300D01*
X45831Y137177D01*
X45809Y137152D01*
X45737Y137028D01*
X45656Y136910D01*
X45623Y136834D01*
X45581Y136763D01*
X45532Y136629D01*
X45474Y136498D01*
X45455Y136418D01*
X45426Y136340D01*
X45401Y136199D01*
X45368Y136060D01*
X45363Y135978D01*
X45348Y135897D01*
X45349Y135754D01*
X45340Y135611D01*
X45349Y135529D01*
X45350Y135447D01*
X45375Y135306D01*
X45392Y135164D01*
X45411Y135102D01*
X45411Y132598D01*
X44491Y130378D01*
X42792Y128679D01*
X40572Y127759D01*
X38168Y127759D01*
X35948Y128679D01*
X34249Y130378D01*
X33329Y132598D01*
X33329Y133155D01*
X33326Y133190D01*
X33328Y133224D01*
X33306Y133413D01*
X33289Y133604D01*
X33280Y133637D01*
X33276Y133671D01*
X33221Y133854D01*
X33171Y134038D01*
X33156Y134069D01*
X33146Y134102D01*
X33059Y134273D01*
X32977Y134445D01*
X32957Y134473D01*
X32942Y134504D01*
X32826Y134656D01*
X32715Y134811D01*
X32690Y134835D01*
X32670Y134862D01*
X32530Y134991D01*
X32393Y135125D01*
X32364Y135144D01*
X32338Y135168D01*
X32177Y135270D01*
X32020Y135377D01*
X31988Y135391D01*
X31959Y135409D01*
X31782Y135482D01*
X31608Y135559D01*
X31574Y135567D01*
X31542Y135580D01*
X31355Y135620D01*
X31170Y135666D01*
X31136Y135668D01*
X31102Y135675D01*
X30790Y135694D01*
X22909Y135694D01*
X22909Y140720D01*
X22906Y140755D01*
X22908Y140789D01*
X22886Y140978D01*
X22869Y141169D01*
X22860Y141202D01*
X22856Y141236D01*
X22801Y141419D01*
X22751Y141603D01*
X22736Y141634D01*
X22726Y141667D01*
X22639Y141838D01*
X22558Y142010D01*
X22537Y142038D01*
X22522Y142069D01*
X22406Y142221D01*
X22295Y142376D01*
X22271Y142400D01*
X22250Y142427D01*
X22110Y142556D01*
X21973Y142690D01*
X21944Y142709D01*
X21919Y142733D01*
X21758Y142835D01*
X21600Y142942D01*
X21568Y142956D01*
X21539Y142974D01*
X21362Y143047D01*
X21188Y143124D01*
X21154Y143132D01*
X21122Y143145D01*
X20936Y143185D01*
X20750Y143231D01*
X20716Y143233D01*
X20682Y143240D01*
X20370Y143259D01*
X20335Y143256D01*
X20301Y143258D01*
X20111Y143236D01*
X19921Y143219D01*
X19888Y143210D01*
X19854Y143206D01*
X19671Y143151D01*
X19487Y143101D01*
X19456Y143086D01*
X19423Y143076D01*
X19252Y142989D01*
X19080Y142907D01*
X19052Y142887D01*
X19021Y142872D01*
X18869Y142756D01*
X18714Y142645D01*
X18690Y142620D01*
X18662Y142600D01*
X18533Y142460D01*
X18400Y142323D01*
X18381Y142294D01*
X18357Y142268D01*
X18255Y142107D01*
X18148Y141950D01*
X18134Y141918D01*
X18115Y141889D01*
X18043Y141712D01*
X17966Y141538D01*
X17958Y141504D01*
X17945Y141472D01*
X17904Y141285D01*
X17859Y141100D01*
X17857Y141066D01*
X17850Y141032D01*
X17831Y140720D01*
X17831Y135694D01*
X7970Y135694D01*
X7324Y135867D01*
X6702Y136227D01*
X6683Y136245D01*
X6604Y136299D01*
X6530Y136360D01*
X6417Y136425D01*
X6310Y136498D01*
X6222Y136536D01*
X6140Y136583D01*
X6017Y136627D01*
X5898Y136680D01*
X5805Y136702D01*
X5715Y136734D01*
X5587Y136756D01*
X5460Y136786D01*
X5365Y136792D01*
X5271Y136808D01*
X5141Y136806D01*
X5011Y136814D01*
X4916Y136803D01*
X4821Y136802D01*
X4693Y136777D01*
X4564Y136762D01*
X4472Y136734D01*
X4379Y136716D01*
X4258Y136670D01*
X4133Y136632D01*
X4048Y136588D01*
X3959Y136554D01*
X3847Y136486D01*
X3731Y136427D01*
X3656Y136370D01*
X3574Y136320D01*
X3476Y136234D01*
X3373Y136155D01*
X3308Y136085D01*
X3237Y136022D01*
X3156Y135920D01*
X3067Y135824D01*
X3016Y135744D01*
X2957Y135669D01*
X2896Y135554D01*
X2826Y135444D01*
X2789Y135356D01*
X2744Y135272D01*
X2704Y135148D01*
X2655Y135028D01*
X2635Y134935D01*
X2605Y134844D01*
X2587Y134715D01*
X2560Y134588D01*
X2552Y134458D01*
X2544Y134398D01*
X2545Y134353D01*
X2541Y134276D01*
X2541Y94324D01*
X2552Y94194D01*
X2554Y94064D01*
X2572Y93971D01*
X2581Y93876D01*
X2615Y93750D01*
X2640Y93622D01*
X2674Y93533D01*
X2699Y93441D01*
X2755Y93324D01*
X2802Y93202D01*
X2852Y93121D01*
X2893Y93035D01*
X2968Y92929D01*
X3036Y92818D01*
X3099Y92746D01*
X3155Y92669D01*
X3248Y92578D01*
X3334Y92480D01*
X3409Y92421D01*
X3477Y92355D01*
X3585Y92282D01*
X3687Y92201D01*
X3771Y92156D01*
X3850Y92102D01*
X3969Y92050D01*
X4084Y91988D01*
X4175Y91959D01*
X4262Y91920D01*
X4389Y91889D01*
X4513Y91849D01*
X4607Y91836D01*
X4700Y91814D01*
X4830Y91806D01*
X4959Y91788D01*
X5054Y91792D01*
X5149Y91786D01*
X5279Y91801D01*
X5408Y91806D01*
X5501Y91827D01*
X5596Y91838D01*
X5721Y91876D01*
X5848Y91904D01*
X5936Y91941D01*
X6027Y91968D01*
X6143Y92027D01*
X6263Y92078D01*
X6344Y92129D01*
X6429Y92173D01*
X6532Y92251D01*
X6642Y92322D01*
X6696Y92370D01*
X7324Y92733D01*
X7970Y92906D01*
X17831Y92906D01*
X17831Y87880D01*
X17834Y87845D01*
X17832Y87811D01*
X17854Y87622D01*
X17870Y87431D01*
X17880Y87398D01*
X17884Y87364D01*
X17939Y87181D01*
X17989Y86997D01*
X18004Y86966D01*
X18014Y86933D01*
X18101Y86762D01*
X18182Y86590D01*
X18203Y86562D01*
X18218Y86531D01*
X18333Y86379D01*
X18445Y86224D01*
X18469Y86200D01*
X18490Y86173D01*
X18630Y86044D01*
X18767Y85910D01*
X18796Y85891D01*
X18821Y85867D01*
X18982Y85765D01*
X19140Y85658D01*
X19172Y85644D01*
X19201Y85626D01*
X19378Y85553D01*
X19552Y85476D01*
X19586Y85468D01*
X19618Y85455D01*
X19804Y85415D01*
X19989Y85369D01*
X20024Y85367D01*
X20058Y85360D01*
X20370Y85341D01*
X20405Y85344D01*
X20439Y85342D01*
X20629Y85364D01*
X20819Y85381D01*
X20852Y85390D01*
X20886Y85394D01*
X21069Y85449D01*
X21253Y85499D01*
X21284Y85514D01*
X21317Y85524D01*
X21488Y85611D01*
X21660Y85693D01*
X21688Y85713D01*
X21719Y85728D01*
X21871Y85844D01*
X22026Y85955D01*
X22050Y85980D01*
X22077Y86000D01*
X22207Y86140D01*
X22340Y86277D01*
X22359Y86306D01*
X22383Y86332D01*
X22485Y86493D01*
X22592Y86650D01*
X22606Y86682D01*
X22624Y86711D01*
X22697Y86888D01*
X22774Y87062D01*
X22782Y87096D01*
X22795Y87128D01*
X22836Y87315D01*
X22881Y87500D01*
X22883Y87534D01*
X22890Y87568D01*
X22909Y87880D01*
X22909Y92906D01*
X30790Y92906D01*
X30825Y92909D01*
X30859Y92907D01*
X31048Y92929D01*
X31239Y92946D01*
X31272Y92955D01*
X31306Y92959D01*
X31489Y93014D01*
X31673Y93064D01*
X31704Y93079D01*
X31737Y93089D01*
X31908Y93176D01*
X32080Y93258D01*
X32108Y93278D01*
X32139Y93293D01*
X32291Y93409D01*
X32446Y93520D01*
X32470Y93545D01*
X32497Y93565D01*
X32626Y93705D01*
X32760Y93842D01*
X32779Y93871D01*
X32803Y93897D01*
X32905Y94058D01*
X33012Y94215D01*
X33026Y94247D01*
X33044Y94276D01*
X33117Y94453D01*
X33194Y94627D01*
X33202Y94661D01*
X33215Y94693D01*
X33255Y94880D01*
X33301Y95065D01*
X33303Y95099D01*
X33310Y95133D01*
X33329Y95445D01*
X33329Y96002D01*
X34249Y98222D01*
X35948Y99921D01*
X38168Y100841D01*
X40572Y100841D01*
X42792Y99921D01*
X44491Y98222D01*
X45411Y96002D01*
X45411Y93504D01*
X45397Y93462D01*
X45387Y93380D01*
X45368Y93300D01*
X45359Y93157D01*
X45341Y93016D01*
X45345Y92933D01*
X45340Y92851D01*
X45356Y92709D01*
X45364Y92566D01*
X45382Y92486D01*
X45392Y92404D01*
X45433Y92267D01*
X45466Y92127D01*
X45498Y92052D01*
X45522Y91973D01*
X45587Y91845D01*
X45644Y91714D01*
X45689Y91645D01*
X45727Y91571D01*
X45813Y91458D01*
X45831Y91431D01*
X45831Y81300D01*
X45831Y59497D01*
X44884Y59805D01*
X43611Y60453D01*
X42454Y61294D01*
X41444Y62304D01*
X40603Y63461D01*
X39955Y64734D01*
X39704Y65506D01*
X39637Y65663D01*
X39577Y65823D01*
X39549Y65870D01*
X39527Y65921D01*
X39434Y66063D01*
X39346Y66209D01*
X39310Y66251D01*
X39280Y66297D01*
X39163Y66421D01*
X39051Y66549D01*
X39009Y66584D01*
X38971Y66624D01*
X38833Y66725D01*
X38701Y66832D01*
X38653Y66859D01*
X38608Y66891D01*
X38455Y66966D01*
X38306Y67048D01*
X38254Y67066D01*
X38204Y67090D01*
X38040Y67137D01*
X37879Y67191D01*
X37824Y67199D01*
X37772Y67215D01*
X37602Y67232D01*
X37433Y67257D01*
X37378Y67255D01*
X37324Y67261D01*
X37154Y67248D01*
X36983Y67243D01*
X36930Y67231D01*
X36875Y67227D01*
X36710Y67184D01*
X36543Y67149D01*
X36492Y67128D01*
X36439Y67114D01*
X36284Y67043D01*
X36126Y66979D01*
X36079Y66950D01*
X36029Y66927D01*
X35890Y66829D01*
X35746Y66738D01*
X35705Y66701D01*
X35660Y66670D01*
X35539Y66549D01*
X35414Y66434D01*
X35380Y66390D01*
X35341Y66351D01*
X35244Y66211D01*
X35141Y66076D01*
X35116Y66027D01*
X35084Y65982D01*
X35013Y65827D01*
X34935Y65675D01*
X34913Y65610D01*
X34896Y65573D01*
X34881Y65512D01*
X34836Y65379D01*
X34803Y65254D01*
X34468Y64675D01*
X33995Y64202D01*
X33416Y63867D01*
X32770Y63694D01*
X22909Y63694D01*
X22909Y68720D01*
X22906Y68755D01*
X22908Y68789D01*
X22886Y68978D01*
X22869Y69169D01*
X22860Y69202D01*
X22856Y69236D01*
X22801Y69419D01*
X22751Y69603D01*
X22736Y69634D01*
X22726Y69667D01*
X22639Y69838D01*
X22558Y70010D01*
X22537Y70038D01*
X22522Y70069D01*
X22406Y70221D01*
X22295Y70376D01*
X22271Y70400D01*
X22250Y70427D01*
X22110Y70556D01*
X21973Y70690D01*
X21944Y70709D01*
X21919Y70733D01*
X21758Y70835D01*
X21600Y70942D01*
X21568Y70956D01*
X21539Y70974D01*
X21362Y71047D01*
X21188Y71124D01*
X21154Y71132D01*
X21122Y71145D01*
X20936Y71185D01*
X20750Y71231D01*
X20716Y71233D01*
X20682Y71240D01*
X20370Y71259D01*
X20335Y71256D01*
X20301Y71258D01*
X20111Y71236D01*
X19921Y71219D01*
X19888Y71210D01*
X19854Y71206D01*
X19671Y71151D01*
X19487Y71101D01*
X19456Y71086D01*
X19423Y71076D01*
X19252Y70989D01*
X19080Y70907D01*
X19052Y70887D01*
X19021Y70872D01*
X18869Y70756D01*
X18714Y70645D01*
X18690Y70620D01*
X18662Y70600D01*
X18533Y70460D01*
X18400Y70323D01*
X18381Y70294D01*
X18357Y70268D01*
X18255Y70107D01*
X18148Y69950D01*
X18134Y69918D01*
X18115Y69889D01*
X18043Y69712D01*
X17966Y69538D01*
X17958Y69504D01*
X17945Y69472D01*
X17904Y69285D01*
X17859Y69100D01*
X17857Y69066D01*
X17850Y69032D01*
X17831Y68720D01*
X17831Y63694D01*
X7970Y63694D01*
X7324Y63867D01*
X6702Y64227D01*
X6683Y64245D01*
X6604Y64299D01*
X6530Y64360D01*
X6417Y64425D01*
X6310Y64498D01*
X6222Y64536D01*
X6140Y64583D01*
X6017Y64627D01*
X5898Y64680D01*
X5805Y64702D01*
X5715Y64734D01*
X5587Y64756D01*
X5460Y64786D01*
X5365Y64792D01*
X5271Y64808D01*
X5141Y64806D01*
X5011Y64814D01*
X4916Y64803D01*
X4821Y64802D01*
X4693Y64777D01*
X4564Y64762D01*
X4472Y64734D01*
X4379Y64716D01*
X4258Y64670D01*
X4133Y64632D01*
X4048Y64588D01*
X3959Y64554D01*
X3847Y64486D01*
X3731Y64427D01*
X3656Y64370D01*
X3574Y64320D01*
X3476Y64234D01*
X3373Y64155D01*
X3308Y64085D01*
X3237Y64022D01*
X3156Y63920D01*
X3067Y63824D01*
X3016Y63744D01*
X2957Y63669D01*
X2896Y63554D01*
X2826Y63444D01*
X2789Y63356D01*
X2744Y63272D01*
X2704Y63148D01*
X2655Y63028D01*
X2635Y62935D01*
X2605Y62844D01*
X2587Y62715D01*
X2560Y62588D01*
X2552Y62458D01*
X2544Y62398D01*
X2545Y62353D01*
X2541Y62276D01*
X2541Y33020D01*
X2555Y32856D01*
X2562Y32692D01*
X2575Y32632D01*
X2581Y32572D01*
X2624Y32413D01*
X2660Y32252D01*
X2683Y32196D01*
X2699Y32137D01*
X2730Y32073D01*
X2732Y32064D01*
X2754Y32022D01*
X2770Y31989D01*
X2833Y31837D01*
X2866Y31785D01*
X2893Y31731D01*
X2927Y31683D01*
X2937Y31663D01*
X2995Y31586D01*
X3078Y31459D01*
X3129Y31401D01*
X3155Y31364D01*
X3187Y31333D01*
X3209Y31304D01*
X3236Y31279D01*
X3284Y31224D01*
X5884Y28625D01*
X5911Y28602D01*
X5934Y28577D01*
X6067Y28471D01*
X6079Y28460D01*
X6088Y28454D01*
X6230Y28336D01*
X6260Y28319D01*
X6287Y28297D01*
X6455Y28207D01*
X6621Y28112D01*
X6653Y28101D01*
X6684Y28085D01*
X6865Y28026D01*
X7045Y27962D01*
X7079Y27956D01*
X7112Y27945D01*
X7300Y27919D01*
X7489Y27888D01*
X7524Y27889D01*
X7558Y27884D01*
X7748Y27892D01*
X7939Y27894D01*
X7973Y27901D01*
X8008Y27902D01*
X8194Y27944D01*
X8381Y27980D01*
X8414Y27992D01*
X8447Y28000D01*
X8623Y28073D01*
X8801Y28142D01*
X8831Y28160D01*
X8863Y28173D01*
X9023Y28277D01*
X9186Y28376D01*
X9212Y28399D01*
X9241Y28418D01*
X9387Y28547D01*
X9388Y28547D01*
X9475Y28625D01*
X11380Y30529D01*
X16357Y32591D01*
X21743Y32591D01*
X26720Y30529D01*
X30529Y26720D01*
X32591Y21743D01*
X32591Y16357D01*
X30529Y11380D01*
X28625Y9475D01*
X28602Y9449D01*
X28577Y9426D01*
X28459Y9277D01*
X28336Y9130D01*
X28319Y9100D01*
X28297Y9073D01*
X28207Y8905D01*
X28112Y8739D01*
X28101Y8706D01*
X28085Y8676D01*
X28026Y8495D01*
X27962Y8315D01*
X27956Y8280D01*
X27945Y8248D01*
X27919Y8059D01*
X27888Y7870D01*
X27889Y7836D01*
X27884Y7801D01*
X27892Y7611D01*
X27894Y7420D01*
X27901Y7386D01*
X27902Y7352D01*
X27944Y7166D01*
X27980Y6978D01*
X27992Y6946D01*
X28000Y6912D01*
X28073Y6736D01*
X28142Y6558D01*
X28160Y6529D01*
X28173Y6497D01*
X28277Y6336D01*
X28376Y6173D01*
X28399Y6147D01*
X28418Y6118D01*
X28625Y5884D01*
X31224Y3284D01*
X31351Y3179D01*
X31472Y3067D01*
X31523Y3035D01*
X31570Y2996D01*
X31713Y2914D01*
X31851Y2826D01*
X31908Y2802D01*
X31961Y2772D01*
X32116Y2717D01*
X32268Y2655D01*
X32328Y2642D01*
X32385Y2621D01*
X32547Y2595D01*
X32708Y2560D01*
X32785Y2555D01*
X32829Y2548D01*
X32890Y2549D01*
X33020Y2541D01*
X46450Y2541D01*
X46580Y2552D01*
G37*
G36*
X194641Y129835D02*
X194641Y129835D01*
X194737Y129836D01*
X194864Y129861D01*
X194993Y129876D01*
X195085Y129904D01*
X195179Y129922D01*
X195300Y129969D01*
X195424Y130006D01*
X195510Y130050D01*
X195599Y130084D01*
X195710Y130152D01*
X195826Y130211D01*
X195902Y130269D01*
X195983Y130318D01*
X196081Y130404D01*
X196184Y130483D01*
X196249Y130553D01*
X196321Y130616D01*
X196401Y130718D01*
X196490Y130814D01*
X196541Y130895D01*
X196600Y130969D01*
X196661Y131084D01*
X196731Y131194D01*
X196768Y131282D01*
X196813Y131366D01*
X196853Y131490D01*
X196902Y131610D01*
X196922Y131704D01*
X196952Y131795D01*
X196970Y131923D01*
X196997Y132050D01*
X197005Y132180D01*
X197013Y132241D01*
X197012Y132285D01*
X197016Y132362D01*
X197016Y166527D01*
X230904Y200414D01*
X231009Y200540D01*
X231121Y200661D01*
X231153Y200713D01*
X231192Y200759D01*
X231274Y200902D01*
X231362Y201041D01*
X231386Y201098D01*
X231416Y201150D01*
X231471Y201305D01*
X231533Y201458D01*
X231546Y201517D01*
X231567Y201575D01*
X231593Y201737D01*
X231628Y201898D01*
X231633Y201975D01*
X231640Y202019D01*
X231639Y202080D01*
X231647Y202210D01*
X231647Y204299D01*
X231628Y204510D01*
X231612Y204721D01*
X231609Y204734D01*
X231607Y204747D01*
X231551Y204952D01*
X231498Y205157D01*
X231492Y205169D01*
X231489Y205181D01*
X231399Y205371D01*
X231309Y205565D01*
X231301Y205576D01*
X231295Y205588D01*
X231173Y205759D01*
X231050Y205934D01*
X231041Y205943D01*
X231033Y205954D01*
X230882Y206101D01*
X230731Y206251D01*
X230720Y206259D01*
X230711Y206268D01*
X230535Y206387D01*
X230361Y206507D01*
X230346Y206514D01*
X230338Y206520D01*
X230301Y206536D01*
X230080Y206645D01*
X229051Y207071D01*
X226121Y210001D01*
X224596Y213682D01*
X224536Y213797D01*
X224484Y213917D01*
X224432Y213996D01*
X224387Y214081D01*
X224308Y214184D01*
X224236Y214292D01*
X224170Y214361D01*
X224112Y214437D01*
X224015Y214524D01*
X223925Y214618D01*
X223848Y214675D01*
X223777Y214739D01*
X223667Y214807D01*
X223562Y214884D01*
X223476Y214926D01*
X223395Y214976D01*
X223274Y215025D01*
X223158Y215082D01*
X223066Y215108D01*
X222977Y215143D01*
X222849Y215169D01*
X222724Y215205D01*
X222629Y215214D01*
X222536Y215233D01*
X222406Y215236D01*
X222276Y215249D01*
X222181Y215242D01*
X222086Y215244D01*
X221957Y215224D01*
X221827Y215214D01*
X221735Y215190D01*
X221641Y215175D01*
X221518Y215133D01*
X221392Y215100D01*
X221305Y215060D01*
X221215Y215029D01*
X221101Y214965D01*
X220983Y214911D01*
X220905Y214856D01*
X220822Y214810D01*
X220721Y214727D01*
X220614Y214653D01*
X220547Y214585D01*
X220473Y214524D01*
X220389Y214425D01*
X220297Y214333D01*
X220243Y214254D01*
X220181Y214182D01*
X220115Y214070D01*
X220041Y213963D01*
X219984Y213846D01*
X219953Y213793D01*
X219938Y213751D01*
X219904Y213682D01*
X218379Y210001D01*
X215449Y207071D01*
X211622Y205485D01*
X207478Y205485D01*
X203651Y207071D01*
X200721Y210001D01*
X199196Y213682D01*
X199136Y213797D01*
X199084Y213917D01*
X199032Y213996D01*
X198987Y214081D01*
X198908Y214184D01*
X198836Y214292D01*
X198770Y214361D01*
X198712Y214437D01*
X198615Y214524D01*
X198525Y214618D01*
X198448Y214675D01*
X198377Y214739D01*
X198267Y214807D01*
X198162Y214884D01*
X198076Y214926D01*
X197995Y214976D01*
X197874Y215025D01*
X197758Y215082D01*
X197666Y215108D01*
X197577Y215143D01*
X197449Y215169D01*
X197324Y215205D01*
X197229Y215214D01*
X197136Y215233D01*
X197006Y215236D01*
X196876Y215249D01*
X196781Y215242D01*
X196686Y215244D01*
X196557Y215224D01*
X196427Y215214D01*
X196335Y215190D01*
X196241Y215175D01*
X196118Y215133D01*
X195992Y215100D01*
X195905Y215060D01*
X195815Y215029D01*
X195701Y214965D01*
X195583Y214911D01*
X195505Y214856D01*
X195422Y214810D01*
X195321Y214727D01*
X195214Y214653D01*
X195147Y214585D01*
X195073Y214524D01*
X194989Y214425D01*
X194897Y214333D01*
X194843Y214254D01*
X194781Y214182D01*
X194715Y214070D01*
X194641Y213963D01*
X194584Y213846D01*
X194553Y213793D01*
X194538Y213751D01*
X194504Y213682D01*
X192979Y210001D01*
X190049Y207071D01*
X186222Y205485D01*
X182078Y205485D01*
X178251Y207071D01*
X175321Y210001D01*
X173796Y213682D01*
X173736Y213797D01*
X173684Y213917D01*
X173632Y213996D01*
X173587Y214081D01*
X173508Y214184D01*
X173436Y214292D01*
X173370Y214361D01*
X173312Y214437D01*
X173215Y214524D01*
X173125Y214618D01*
X173048Y214675D01*
X172977Y214739D01*
X172867Y214807D01*
X172762Y214884D01*
X172676Y214926D01*
X172595Y214976D01*
X172474Y215025D01*
X172358Y215082D01*
X172266Y215108D01*
X172177Y215143D01*
X172049Y215169D01*
X171924Y215205D01*
X171829Y215214D01*
X171736Y215233D01*
X171606Y215236D01*
X171476Y215249D01*
X171381Y215242D01*
X171286Y215244D01*
X171157Y215224D01*
X171027Y215214D01*
X170935Y215190D01*
X170841Y215175D01*
X170718Y215133D01*
X170592Y215100D01*
X170505Y215060D01*
X170415Y215029D01*
X170301Y214965D01*
X170183Y214911D01*
X170105Y214856D01*
X170022Y214810D01*
X169921Y214727D01*
X169814Y214653D01*
X169747Y214585D01*
X169673Y214524D01*
X169589Y214425D01*
X169497Y214333D01*
X169443Y214254D01*
X169381Y214182D01*
X169315Y214070D01*
X169241Y213963D01*
X169184Y213846D01*
X169153Y213793D01*
X169138Y213751D01*
X169104Y213682D01*
X167579Y210001D01*
X164649Y207071D01*
X164382Y206960D01*
X164195Y206862D01*
X164005Y206766D01*
X163995Y206758D01*
X163983Y206752D01*
X163815Y206621D01*
X163647Y206494D01*
X163638Y206484D01*
X163627Y206476D01*
X163485Y206318D01*
X163341Y206163D01*
X163334Y206151D01*
X163326Y206142D01*
X163213Y205962D01*
X163100Y205783D01*
X163095Y205771D01*
X163088Y205759D01*
X163009Y205563D01*
X162929Y205366D01*
X162926Y205353D01*
X162921Y205341D01*
X162879Y205133D01*
X162834Y204926D01*
X162833Y204910D01*
X162831Y204900D01*
X162830Y204861D01*
X162815Y204614D01*
X162815Y164291D01*
X162196Y162797D01*
X160648Y161250D01*
X160595Y161186D01*
X160536Y161130D01*
X160451Y161014D01*
X160359Y160904D01*
X160318Y160833D01*
X160270Y160766D01*
X160207Y160638D01*
X160136Y160513D01*
X160108Y160436D01*
X160072Y160362D01*
X160033Y160224D01*
X159985Y160089D01*
X159971Y160008D01*
X159949Y159929D01*
X159935Y159786D01*
X159911Y159645D01*
X159913Y159563D01*
X159904Y159480D01*
X159916Y159338D01*
X159918Y159195D01*
X159933Y159114D01*
X159940Y159032D01*
X159976Y158893D01*
X160003Y158753D01*
X160033Y158676D01*
X160054Y158596D01*
X160114Y158466D01*
X160165Y158333D01*
X160208Y158262D01*
X160243Y158187D01*
X160325Y158070D01*
X160399Y157948D01*
X160454Y157886D01*
X160501Y157819D01*
X160603Y157718D01*
X160698Y157610D01*
X160762Y157559D01*
X160821Y157501D01*
X160938Y157420D01*
X161051Y157331D01*
X161123Y157292D01*
X161191Y157245D01*
X161412Y157137D01*
X161447Y157118D01*
X161458Y157115D01*
X161472Y157108D01*
X162469Y156695D01*
X163225Y155938D01*
X163351Y155833D01*
X163473Y155721D01*
X163524Y155689D01*
X163571Y155650D01*
X163713Y155568D01*
X163852Y155480D01*
X163909Y155456D01*
X163962Y155426D01*
X164117Y155371D01*
X164269Y155309D01*
X164329Y155296D01*
X164386Y155275D01*
X164548Y155249D01*
X164709Y155214D01*
X164786Y155209D01*
X164830Y155202D01*
X164891Y155203D01*
X165021Y155195D01*
X175088Y155195D01*
X176582Y154576D01*
X187596Y143562D01*
X188215Y142068D01*
X188215Y136085D01*
X188229Y135921D01*
X188236Y135757D01*
X188249Y135698D01*
X188255Y135637D01*
X188298Y135478D01*
X188334Y135318D01*
X188357Y135261D01*
X188373Y135203D01*
X188444Y135054D01*
X188507Y134902D01*
X188540Y134851D01*
X188567Y134796D01*
X188662Y134662D01*
X188752Y134524D01*
X188803Y134466D01*
X188829Y134430D01*
X188872Y134387D01*
X188958Y134290D01*
X192681Y130567D01*
X192781Y130484D01*
X192874Y130393D01*
X192954Y130339D01*
X193027Y130278D01*
X193140Y130214D01*
X193247Y130141D01*
X193335Y130102D01*
X193418Y130055D01*
X193540Y130011D01*
X193659Y129958D01*
X193752Y129936D01*
X193842Y129904D01*
X193970Y129883D01*
X194097Y129852D01*
X194192Y129846D01*
X194286Y129830D01*
X194416Y129832D01*
X194546Y129824D01*
X194641Y129835D01*
G37*
G36*
X193066Y92968D02*
X193066Y92968D01*
X193100Y92966D01*
X193289Y92988D01*
X193480Y93005D01*
X193513Y93014D01*
X193547Y93018D01*
X193730Y93073D01*
X193914Y93123D01*
X193945Y93138D01*
X193978Y93148D01*
X194149Y93235D01*
X194321Y93317D01*
X194349Y93337D01*
X194380Y93352D01*
X194532Y93468D01*
X194687Y93579D01*
X194711Y93604D01*
X194738Y93624D01*
X194867Y93764D01*
X195001Y93901D01*
X195020Y93930D01*
X195044Y93956D01*
X195146Y94116D01*
X195253Y94274D01*
X195267Y94306D01*
X195285Y94335D01*
X195358Y94512D01*
X195435Y94686D01*
X195443Y94720D01*
X195456Y94752D01*
X195496Y94939D01*
X195542Y95124D01*
X195544Y95158D01*
X195551Y95192D01*
X195570Y95504D01*
X195570Y109743D01*
X195559Y109873D01*
X195557Y110003D01*
X195539Y110096D01*
X195530Y110192D01*
X195496Y110317D01*
X195471Y110445D01*
X195437Y110534D01*
X195412Y110626D01*
X195356Y110743D01*
X195309Y110865D01*
X195259Y110946D01*
X195218Y111033D01*
X195143Y111138D01*
X195075Y111249D01*
X195012Y111321D01*
X194956Y111399D01*
X194863Y111489D01*
X194777Y111587D01*
X194702Y111646D01*
X194634Y111713D01*
X194526Y111785D01*
X194424Y111866D01*
X194340Y111911D01*
X194261Y111965D01*
X194142Y112017D01*
X194027Y112079D01*
X193936Y112108D01*
X193849Y112147D01*
X193722Y112178D01*
X193599Y112218D01*
X193504Y112231D01*
X193411Y112254D01*
X193282Y112262D01*
X193153Y112279D01*
X193057Y112276D01*
X192962Y112281D01*
X192833Y112266D01*
X192703Y112261D01*
X192610Y112240D01*
X192515Y112229D01*
X192390Y112192D01*
X192263Y112163D01*
X192175Y112127D01*
X192084Y112099D01*
X191968Y112040D01*
X191848Y111990D01*
X191768Y111938D01*
X191682Y111895D01*
X191579Y111816D01*
X191470Y111746D01*
X191372Y111659D01*
X191324Y111623D01*
X191293Y111590D01*
X191235Y111539D01*
X190409Y110712D01*
X187996Y109712D01*
X185384Y109712D01*
X182971Y110712D01*
X181125Y112558D01*
X180125Y114971D01*
X180125Y117583D01*
X181125Y119996D01*
X182971Y121842D01*
X184366Y122420D01*
X184439Y122458D01*
X184516Y122488D01*
X184638Y122562D01*
X184765Y122629D01*
X184831Y122679D01*
X184901Y122722D01*
X185008Y122817D01*
X185121Y122904D01*
X185176Y122965D01*
X185238Y123020D01*
X185327Y123132D01*
X185423Y123239D01*
X185467Y123309D01*
X185518Y123373D01*
X185585Y123499D01*
X185661Y123621D01*
X185691Y123697D01*
X185730Y123770D01*
X185775Y123906D01*
X185828Y124039D01*
X185844Y124120D01*
X185869Y124198D01*
X185889Y124340D01*
X185918Y124480D01*
X185920Y124563D01*
X185931Y124644D01*
X185925Y124787D01*
X185928Y124930D01*
X185916Y125012D01*
X185913Y125094D01*
X185882Y125234D01*
X185860Y125375D01*
X185833Y125453D01*
X185815Y125534D01*
X185760Y125666D01*
X185713Y125801D01*
X185673Y125873D01*
X185641Y125949D01*
X185564Y126069D01*
X185494Y126194D01*
X185442Y126258D01*
X185397Y126327D01*
X185234Y126512D01*
X185209Y126543D01*
X185200Y126550D01*
X185190Y126562D01*
X180704Y131047D01*
X180082Y132550D01*
X180066Y132581D01*
X180054Y132614D01*
X179961Y132780D01*
X179873Y132949D01*
X179852Y132977D01*
X179835Y133007D01*
X179714Y133155D01*
X179597Y133305D01*
X179572Y133328D01*
X179550Y133355D01*
X179405Y133479D01*
X179263Y133607D01*
X179234Y133625D01*
X179207Y133648D01*
X179043Y133744D01*
X178881Y133845D01*
X178849Y133858D01*
X178819Y133875D01*
X178639Y133941D01*
X178463Y134011D01*
X178429Y134018D01*
X178396Y134030D01*
X178208Y134063D01*
X178021Y134102D01*
X177987Y134102D01*
X177953Y134108D01*
X177762Y134108D01*
X177571Y134112D01*
X177537Y134107D01*
X177502Y134107D01*
X177314Y134073D01*
X177126Y134043D01*
X177094Y134032D01*
X177059Y134026D01*
X176764Y133924D01*
X174859Y133135D01*
X172247Y133135D01*
X169834Y134135D01*
X167988Y135981D01*
X167700Y136676D01*
X167617Y136834D01*
X167541Y136994D01*
X167514Y137033D01*
X167491Y137075D01*
X167383Y137216D01*
X167279Y137360D01*
X167245Y137393D01*
X167216Y137431D01*
X167084Y137550D01*
X166957Y137674D01*
X166917Y137701D01*
X166881Y137733D01*
X166731Y137827D01*
X166584Y137926D01*
X166540Y137945D01*
X166499Y137971D01*
X166334Y138036D01*
X166172Y138108D01*
X166125Y138120D01*
X166081Y138137D01*
X165907Y138173D01*
X165734Y138215D01*
X165687Y138218D01*
X165640Y138227D01*
X165462Y138232D01*
X165285Y138243D01*
X165237Y138237D01*
X165190Y138238D01*
X165014Y138211D01*
X164838Y138191D01*
X164792Y138177D01*
X164745Y138169D01*
X164577Y138112D01*
X164407Y138060D01*
X164364Y138039D01*
X164319Y138023D01*
X164164Y137937D01*
X164005Y137856D01*
X163967Y137827D01*
X163926Y137804D01*
X163788Y137691D01*
X163647Y137584D01*
X163614Y137549D01*
X163577Y137518D01*
X163462Y137383D01*
X163341Y137253D01*
X163316Y137213D01*
X163285Y137176D01*
X163195Y137023D01*
X163100Y136873D01*
X163081Y136829D01*
X163057Y136787D01*
X162996Y136621D01*
X162929Y136456D01*
X162919Y136410D01*
X162902Y136365D01*
X162871Y136190D01*
X162834Y136016D01*
X162830Y135957D01*
X162824Y135921D01*
X162824Y135858D01*
X162815Y135704D01*
X162815Y117035D01*
X162829Y116872D01*
X162836Y116707D01*
X162849Y116648D01*
X162855Y116587D01*
X162898Y116428D01*
X162934Y116268D01*
X162957Y116211D01*
X162973Y116153D01*
X163044Y116004D01*
X163107Y115852D01*
X163140Y115801D01*
X163167Y115746D01*
X163262Y115612D01*
X163352Y115474D01*
X163403Y115416D01*
X163429Y115380D01*
X163472Y115337D01*
X163558Y115240D01*
X185090Y93708D01*
X185216Y93603D01*
X185337Y93491D01*
X185388Y93459D01*
X185435Y93420D01*
X185578Y93338D01*
X185717Y93250D01*
X185773Y93226D01*
X185826Y93196D01*
X185981Y93141D01*
X186133Y93079D01*
X186193Y93066D01*
X186251Y93045D01*
X186413Y93019D01*
X186574Y92984D01*
X186650Y92979D01*
X186695Y92972D01*
X186756Y92973D01*
X186885Y92965D01*
X193031Y92965D01*
X193066Y92968D01*
G37*
%LPC*%
G36*
X333974Y91860D02*
X333974Y91860D01*
X331561Y92860D01*
X329715Y94706D01*
X328715Y97119D01*
X328715Y97576D01*
X328712Y97611D01*
X328714Y97645D01*
X328692Y97834D01*
X328675Y98025D01*
X328666Y98058D01*
X328662Y98092D01*
X328607Y98275D01*
X328557Y98459D01*
X328542Y98490D01*
X328532Y98523D01*
X328445Y98694D01*
X328363Y98866D01*
X328343Y98894D01*
X328328Y98925D01*
X328212Y99077D01*
X328101Y99232D01*
X328076Y99256D01*
X328056Y99283D01*
X327916Y99412D01*
X327779Y99546D01*
X327750Y99565D01*
X327724Y99589D01*
X327563Y99691D01*
X327406Y99798D01*
X327374Y99812D01*
X327345Y99830D01*
X327168Y99903D01*
X326994Y99980D01*
X326960Y99988D01*
X326928Y100001D01*
X326741Y100041D01*
X326556Y100087D01*
X326522Y100089D01*
X326488Y100096D01*
X326176Y100115D01*
X325719Y100115D01*
X323306Y101115D01*
X321460Y102961D01*
X320460Y105374D01*
X320460Y108455D01*
X320462Y108468D01*
X320460Y108485D01*
X320460Y108491D01*
X320456Y108538D01*
X320447Y108650D01*
X320439Y108832D01*
X320430Y108874D01*
X320426Y108917D01*
X320380Y109093D01*
X320340Y109271D01*
X320323Y109311D01*
X320312Y109352D01*
X320236Y109518D01*
X320165Y109686D01*
X320141Y109722D01*
X320123Y109761D01*
X320019Y109910D01*
X319919Y110063D01*
X319890Y110095D01*
X319865Y110130D01*
X319736Y110258D01*
X319611Y110391D01*
X319576Y110417D01*
X319545Y110447D01*
X319396Y110551D01*
X319249Y110660D01*
X319210Y110679D01*
X319175Y110703D01*
X318894Y110840D01*
X317845Y111275D01*
X315999Y113121D01*
X314999Y115534D01*
X314999Y118146D01*
X315999Y120559D01*
X317845Y122405D01*
X320258Y123405D01*
X322870Y123405D01*
X325283Y122405D01*
X327129Y120559D01*
X328129Y118146D01*
X328129Y115065D01*
X328127Y115052D01*
X328129Y115035D01*
X328129Y115029D01*
X328133Y114982D01*
X328142Y114870D01*
X328150Y114688D01*
X328159Y114646D01*
X328163Y114603D01*
X328209Y114427D01*
X328249Y114249D01*
X328266Y114209D01*
X328277Y114168D01*
X328353Y114002D01*
X328424Y113834D01*
X328448Y113798D01*
X328466Y113759D01*
X328570Y113610D01*
X328670Y113457D01*
X328699Y113425D01*
X328724Y113390D01*
X328853Y113262D01*
X328978Y113129D01*
X329013Y113103D01*
X329044Y113073D01*
X329193Y112969D01*
X329340Y112860D01*
X329379Y112841D01*
X329414Y112817D01*
X329695Y112680D01*
X330744Y112245D01*
X332590Y110399D01*
X333590Y107986D01*
X333590Y107529D01*
X333593Y107494D01*
X333591Y107460D01*
X333613Y107271D01*
X333630Y107080D01*
X333639Y107047D01*
X333643Y107013D01*
X333698Y106830D01*
X333748Y106646D01*
X333763Y106615D01*
X333773Y106582D01*
X333860Y106411D01*
X333942Y106239D01*
X333962Y106211D01*
X333977Y106180D01*
X334093Y106028D01*
X334204Y105873D01*
X334229Y105849D01*
X334249Y105822D01*
X334389Y105693D01*
X334526Y105559D01*
X334555Y105540D01*
X334581Y105516D01*
X334742Y105414D01*
X334899Y105307D01*
X334931Y105293D01*
X334960Y105275D01*
X335137Y105202D01*
X335311Y105125D01*
X335345Y105117D01*
X335377Y105104D01*
X335564Y105064D01*
X335749Y105018D01*
X335783Y105016D01*
X335817Y105009D01*
X336129Y104990D01*
X336586Y104990D01*
X338999Y103990D01*
X340845Y102144D01*
X341845Y99731D01*
X341845Y97119D01*
X340845Y94706D01*
X338999Y92860D01*
X336586Y91860D01*
X333974Y91860D01*
G37*
%LPD*%
%LPC*%
G36*
X331053Y173521D02*
X331053Y173521D01*
X328640Y174521D01*
X326794Y176367D01*
X325794Y178780D01*
X325794Y181392D01*
X326794Y183805D01*
X328640Y185651D01*
X331053Y186651D01*
X333665Y186651D01*
X336078Y185651D01*
X337969Y183759D01*
X338069Y183676D01*
X338162Y183585D01*
X338242Y183532D01*
X338315Y183471D01*
X338428Y183406D01*
X338535Y183333D01*
X338623Y183295D01*
X338706Y183247D01*
X338828Y183204D01*
X338947Y183151D01*
X339040Y183128D01*
X339130Y183096D01*
X339258Y183075D01*
X339385Y183044D01*
X339480Y183038D01*
X339574Y183023D01*
X339704Y183025D01*
X339834Y183017D01*
X339929Y183028D01*
X340025Y183029D01*
X340152Y183054D01*
X340281Y183069D01*
X340373Y183096D01*
X340467Y183115D01*
X340588Y183161D01*
X340712Y183199D01*
X340798Y183242D01*
X340887Y183277D01*
X340998Y183344D01*
X341114Y183403D01*
X341190Y183461D01*
X341271Y183511D01*
X341369Y183597D01*
X341472Y183675D01*
X341537Y183746D01*
X341609Y183809D01*
X341689Y183911D01*
X341778Y184006D01*
X341829Y184087D01*
X341888Y184162D01*
X341949Y184277D01*
X342019Y184386D01*
X342056Y184475D01*
X342101Y184559D01*
X342141Y184683D01*
X342190Y184803D01*
X342210Y184896D01*
X342240Y184987D01*
X342252Y185076D01*
X343304Y187615D01*
X345150Y189461D01*
X347563Y190461D01*
X350175Y190461D01*
X352588Y189461D01*
X354434Y187615D01*
X355434Y185202D01*
X355434Y182590D01*
X354434Y180177D01*
X352588Y178331D01*
X350175Y177331D01*
X347563Y177331D01*
X345150Y178331D01*
X343259Y180223D01*
X343159Y180306D01*
X343066Y180397D01*
X342986Y180450D01*
X342913Y180511D01*
X342800Y180576D01*
X342693Y180649D01*
X342605Y180687D01*
X342522Y180735D01*
X342400Y180778D01*
X342281Y180831D01*
X342188Y180854D01*
X342098Y180886D01*
X341970Y180907D01*
X341843Y180938D01*
X341748Y180944D01*
X341654Y180959D01*
X341524Y180957D01*
X341394Y180965D01*
X341299Y180954D01*
X341203Y180953D01*
X341076Y180928D01*
X340947Y180913D01*
X340855Y180886D01*
X340761Y180867D01*
X340640Y180821D01*
X340516Y180783D01*
X340430Y180740D01*
X340341Y180705D01*
X340230Y180638D01*
X340114Y180579D01*
X340038Y180521D01*
X339957Y180471D01*
X339859Y180385D01*
X339756Y180307D01*
X339691Y180236D01*
X339619Y180173D01*
X339539Y180071D01*
X339450Y179976D01*
X339399Y179895D01*
X339340Y179820D01*
X339279Y179705D01*
X339209Y179596D01*
X339172Y179507D01*
X339127Y179423D01*
X339087Y179299D01*
X339038Y179179D01*
X339018Y179086D01*
X338988Y178995D01*
X338976Y178906D01*
X337924Y176367D01*
X336078Y174521D01*
X333665Y173521D01*
X331053Y173521D01*
G37*
%LPD*%
%LPC*%
G36*
X291944Y76740D02*
X291944Y76740D01*
X289531Y77740D01*
X287685Y79586D01*
X286685Y81999D01*
X286685Y84611D01*
X287685Y87024D01*
X289531Y88870D01*
X291944Y89870D01*
X292521Y89870D01*
X292556Y89873D01*
X292590Y89871D01*
X292779Y89893D01*
X292970Y89910D01*
X293003Y89919D01*
X293037Y89923D01*
X293220Y89978D01*
X293404Y90028D01*
X293435Y90043D01*
X293468Y90053D01*
X293639Y90140D01*
X293811Y90222D01*
X293839Y90242D01*
X293870Y90257D01*
X294022Y90373D01*
X294177Y90484D01*
X294201Y90509D01*
X294228Y90529D01*
X294357Y90669D01*
X294491Y90806D01*
X294510Y90835D01*
X294534Y90861D01*
X294636Y91022D01*
X294743Y91179D01*
X294757Y91211D01*
X294775Y91240D01*
X294848Y91417D01*
X294925Y91591D01*
X294933Y91625D01*
X294946Y91657D01*
X294986Y91844D01*
X295032Y92029D01*
X295034Y92063D01*
X295041Y92097D01*
X295060Y92409D01*
X295060Y94016D01*
X296060Y96429D01*
X297906Y98275D01*
X300319Y99275D01*
X302931Y99275D01*
X305344Y98275D01*
X307190Y96429D01*
X308190Y94016D01*
X308190Y91404D01*
X307190Y88991D01*
X305344Y87145D01*
X302931Y86145D01*
X302354Y86145D01*
X302319Y86142D01*
X302285Y86144D01*
X302096Y86122D01*
X301905Y86105D01*
X301872Y86096D01*
X301838Y86092D01*
X301655Y86037D01*
X301471Y85987D01*
X301440Y85972D01*
X301407Y85962D01*
X301236Y85875D01*
X301064Y85793D01*
X301036Y85773D01*
X301005Y85758D01*
X300853Y85642D01*
X300698Y85531D01*
X300674Y85506D01*
X300647Y85486D01*
X300518Y85346D01*
X300384Y85209D01*
X300365Y85180D01*
X300341Y85154D01*
X300239Y84993D01*
X300132Y84836D01*
X300118Y84804D01*
X300100Y84775D01*
X300027Y84598D01*
X299950Y84424D01*
X299942Y84390D01*
X299929Y84358D01*
X299889Y84171D01*
X299843Y83986D01*
X299841Y83952D01*
X299834Y83918D01*
X299815Y83606D01*
X299815Y81999D01*
X298815Y79586D01*
X296969Y77740D01*
X294556Y76740D01*
X291944Y76740D01*
G37*
%LPD*%
%LPC*%
G36*
X65369Y48045D02*
X65369Y48045D01*
X62956Y49045D01*
X61110Y50891D01*
X60110Y53304D01*
X60110Y55916D01*
X61110Y58329D01*
X62956Y60175D01*
X65369Y61175D01*
X67981Y61175D01*
X70302Y60213D01*
X70506Y60149D01*
X70706Y60084D01*
X70719Y60082D01*
X70732Y60078D01*
X70943Y60051D01*
X71152Y60023D01*
X71166Y60023D01*
X71179Y60022D01*
X71389Y60032D01*
X71602Y60041D01*
X71615Y60044D01*
X71628Y60045D01*
X71833Y60092D01*
X72042Y60139D01*
X72054Y60144D01*
X72067Y60147D01*
X72262Y60231D01*
X72457Y60312D01*
X72468Y60319D01*
X72480Y60325D01*
X72657Y60441D01*
X72835Y60557D01*
X72847Y60567D01*
X72856Y60573D01*
X72885Y60600D01*
X73070Y60764D01*
X75021Y62715D01*
X77434Y63715D01*
X80046Y63715D01*
X82459Y62715D01*
X84305Y60869D01*
X85305Y58456D01*
X85305Y55844D01*
X84305Y53431D01*
X82459Y51585D01*
X80046Y50585D01*
X77434Y50585D01*
X75113Y51547D01*
X74909Y51611D01*
X74709Y51676D01*
X74696Y51678D01*
X74683Y51682D01*
X74472Y51709D01*
X74263Y51737D01*
X74249Y51737D01*
X74236Y51738D01*
X74026Y51728D01*
X73813Y51719D01*
X73800Y51716D01*
X73787Y51715D01*
X73582Y51668D01*
X73373Y51621D01*
X73361Y51616D01*
X73348Y51613D01*
X73153Y51529D01*
X72958Y51448D01*
X72947Y51441D01*
X72935Y51435D01*
X72758Y51319D01*
X72580Y51203D01*
X72568Y51193D01*
X72559Y51187D01*
X72530Y51160D01*
X72345Y50996D01*
X70394Y49045D01*
X67981Y48045D01*
X65369Y48045D01*
G37*
%LPD*%
%LPC*%
G36*
X332704Y36615D02*
X332704Y36615D01*
X330291Y37615D01*
X328445Y39461D01*
X327445Y41874D01*
X327445Y44486D01*
X328445Y46899D01*
X330291Y48745D01*
X332704Y49745D01*
X335316Y49745D01*
X337735Y48743D01*
X337872Y48634D01*
X338019Y48512D01*
X338049Y48494D01*
X338076Y48473D01*
X338244Y48383D01*
X338410Y48288D01*
X338442Y48277D01*
X338473Y48260D01*
X338654Y48201D01*
X338834Y48137D01*
X338868Y48132D01*
X338901Y48121D01*
X339090Y48095D01*
X339278Y48064D01*
X339313Y48064D01*
X339347Y48060D01*
X339538Y48067D01*
X339728Y48070D01*
X339762Y48077D01*
X339797Y48078D01*
X339984Y48119D01*
X340170Y48155D01*
X340203Y48168D01*
X340237Y48176D01*
X340413Y48249D01*
X340590Y48318D01*
X340620Y48336D01*
X340652Y48349D01*
X340812Y48453D01*
X340975Y48552D01*
X341001Y48575D01*
X341030Y48593D01*
X341265Y48800D01*
X341771Y49307D01*
X344151Y50293D01*
X346729Y50293D01*
X349109Y49307D01*
X350932Y47484D01*
X351918Y45104D01*
X351918Y42526D01*
X350932Y40146D01*
X349109Y38323D01*
X346729Y37337D01*
X344151Y37337D01*
X341723Y38343D01*
X341701Y38361D01*
X341554Y38483D01*
X341524Y38501D01*
X341497Y38522D01*
X341329Y38612D01*
X341163Y38707D01*
X341131Y38718D01*
X341100Y38735D01*
X340918Y38794D01*
X340739Y38858D01*
X340705Y38863D01*
X340672Y38874D01*
X340482Y38900D01*
X340295Y38931D01*
X340260Y38931D01*
X340226Y38935D01*
X340035Y38928D01*
X339845Y38925D01*
X339811Y38918D01*
X339776Y38917D01*
X339589Y38876D01*
X339403Y38840D01*
X339370Y38827D01*
X339336Y38819D01*
X339160Y38746D01*
X338983Y38677D01*
X338953Y38659D01*
X338921Y38646D01*
X338761Y38542D01*
X338598Y38443D01*
X338572Y38420D01*
X338543Y38402D01*
X338308Y38195D01*
X337729Y37615D01*
X335316Y36615D01*
X332704Y36615D01*
G37*
%LPD*%
%LPC*%
G36*
X462150Y54159D02*
X462150Y54159D01*
X459562Y55231D01*
X457581Y57212D01*
X456509Y59799D01*
X456509Y62600D01*
X457581Y65188D01*
X459562Y67169D01*
X462150Y68241D01*
X464950Y68241D01*
X467538Y67169D01*
X469519Y65188D01*
X470591Y62600D01*
X470591Y59799D01*
X469519Y57212D01*
X467538Y55231D01*
X464950Y54159D01*
X462150Y54159D01*
G37*
%LPD*%
%LPC*%
G36*
X462150Y84159D02*
X462150Y84159D01*
X459562Y85231D01*
X457581Y87212D01*
X456509Y89800D01*
X456509Y92600D01*
X457581Y95188D01*
X459562Y97169D01*
X462150Y98241D01*
X464950Y98241D01*
X467538Y97169D01*
X469519Y95188D01*
X470591Y92600D01*
X470591Y89800D01*
X469519Y87212D01*
X467538Y85231D01*
X464950Y84159D01*
X462150Y84159D01*
G37*
%LPD*%
%LPC*%
G36*
X385950Y145359D02*
X385950Y145359D01*
X383362Y146431D01*
X381381Y148412D01*
X380309Y151000D01*
X380309Y153800D01*
X381381Y156388D01*
X383362Y158369D01*
X385950Y159441D01*
X388750Y159441D01*
X391338Y158369D01*
X393319Y156388D01*
X394391Y153800D01*
X394391Y151000D01*
X393319Y148412D01*
X391338Y146431D01*
X388750Y145359D01*
X385950Y145359D01*
G37*
%LPD*%
%LPC*%
G36*
X386036Y107695D02*
X386036Y107695D01*
X383609Y108701D01*
X381751Y110559D01*
X380745Y112986D01*
X380745Y115614D01*
X381751Y118041D01*
X383609Y119899D01*
X386036Y120905D01*
X388664Y120905D01*
X391091Y119899D01*
X392949Y118041D01*
X393955Y115614D01*
X393955Y112986D01*
X392949Y110559D01*
X391091Y108701D01*
X388664Y107695D01*
X386036Y107695D01*
G37*
%LPD*%
%LPC*%
G36*
X368256Y54355D02*
X368256Y54355D01*
X365829Y55361D01*
X363971Y57219D01*
X362965Y59646D01*
X362965Y62274D01*
X363971Y64701D01*
X365829Y66559D01*
X368256Y67565D01*
X370884Y67565D01*
X373311Y66559D01*
X375169Y64701D01*
X376175Y62274D01*
X376175Y59646D01*
X375169Y57219D01*
X373311Y55361D01*
X370884Y54355D01*
X368256Y54355D01*
G37*
%LPD*%
%LPC*%
G36*
X411436Y107695D02*
X411436Y107695D01*
X409009Y108701D01*
X407151Y110559D01*
X406145Y112986D01*
X406145Y115614D01*
X407151Y118041D01*
X409009Y119899D01*
X411436Y120905D01*
X414064Y120905D01*
X416491Y119899D01*
X418349Y118041D01*
X419355Y115614D01*
X419355Y112986D01*
X418349Y110559D01*
X416491Y108701D01*
X414064Y107695D01*
X411436Y107695D01*
G37*
%LPD*%
%LPC*%
G36*
X388576Y86105D02*
X388576Y86105D01*
X386149Y87111D01*
X384291Y88969D01*
X383285Y91396D01*
X383285Y94024D01*
X384291Y96451D01*
X386149Y98309D01*
X388576Y99315D01*
X391204Y99315D01*
X393631Y98309D01*
X395489Y96451D01*
X396495Y94024D01*
X396495Y91396D01*
X395489Y88969D01*
X393631Y87111D01*
X391204Y86105D01*
X388576Y86105D01*
G37*
%LPD*%
%LPC*%
G36*
X93944Y24550D02*
X93944Y24550D01*
X91531Y25550D01*
X89685Y27396D01*
X88685Y29809D01*
X88685Y32421D01*
X89685Y34834D01*
X91531Y36680D01*
X93944Y37680D01*
X96556Y37680D01*
X98969Y36680D01*
X100815Y34834D01*
X101815Y32421D01*
X101815Y29809D01*
X100815Y27396D01*
X98969Y25550D01*
X96556Y24550D01*
X93944Y24550D01*
G37*
%LPD*%
%LPC*%
G36*
X76164Y100115D02*
X76164Y100115D01*
X73751Y101115D01*
X71905Y102961D01*
X70905Y105374D01*
X70905Y107986D01*
X71905Y110399D01*
X73751Y112245D01*
X76164Y113245D01*
X78776Y113245D01*
X81189Y112245D01*
X83035Y110399D01*
X84035Y107986D01*
X84035Y105374D01*
X83035Y102961D01*
X81189Y101115D01*
X78776Y100115D01*
X76164Y100115D01*
G37*
%LPD*%
%LPC*%
G36*
X104739Y91860D02*
X104739Y91860D01*
X102326Y92860D01*
X100480Y94706D01*
X99480Y97119D01*
X99480Y99731D01*
X100480Y102144D01*
X102326Y103990D01*
X104739Y104990D01*
X107351Y104990D01*
X109764Y103990D01*
X111610Y102144D01*
X112610Y99731D01*
X112610Y97119D01*
X111610Y94706D01*
X109764Y92860D01*
X107351Y91860D01*
X104739Y91860D01*
G37*
%LPD*%
%LPC*%
G36*
X119344Y128984D02*
X119344Y128984D01*
X116931Y129984D01*
X115085Y131830D01*
X114085Y134243D01*
X114085Y136855D01*
X115085Y139268D01*
X116931Y141114D01*
X119344Y142114D01*
X121956Y142114D01*
X124369Y141114D01*
X126215Y139268D01*
X127215Y136855D01*
X127215Y134243D01*
X126215Y131830D01*
X124369Y129984D01*
X121956Y128984D01*
X119344Y128984D01*
G37*
%LPD*%
%LPC*%
G36*
X127599Y155360D02*
X127599Y155360D01*
X125186Y156360D01*
X123340Y158206D01*
X122340Y160619D01*
X122340Y163231D01*
X123340Y165644D01*
X125186Y167490D01*
X127599Y168490D01*
X130211Y168490D01*
X132624Y167490D01*
X134470Y165644D01*
X135470Y163231D01*
X135470Y160619D01*
X134470Y158206D01*
X132624Y156360D01*
X130211Y155360D01*
X127599Y155360D01*
G37*
%LPD*%
%LPC*%
G36*
X146649Y28487D02*
X146649Y28487D01*
X144236Y29487D01*
X142390Y31333D01*
X141390Y33746D01*
X141390Y36358D01*
X142390Y38771D01*
X144236Y40617D01*
X146649Y41617D01*
X149261Y41617D01*
X151674Y40617D01*
X153520Y38771D01*
X154520Y36358D01*
X154520Y33746D01*
X153520Y31333D01*
X151674Y29487D01*
X149261Y28487D01*
X146649Y28487D01*
G37*
%LPD*%
%LPC*%
G36*
X93944Y59475D02*
X93944Y59475D01*
X91531Y60475D01*
X89685Y62321D01*
X88685Y64734D01*
X88685Y67346D01*
X89685Y69759D01*
X91531Y71605D01*
X93944Y72605D01*
X96556Y72605D01*
X98969Y71605D01*
X100815Y69759D01*
X101815Y67346D01*
X101815Y64734D01*
X100815Y62321D01*
X98969Y60475D01*
X96556Y59475D01*
X93944Y59475D01*
G37*
%LPD*%
%LPC*%
G36*
X270474Y76620D02*
X270474Y76620D01*
X268061Y77620D01*
X266215Y79466D01*
X265215Y81879D01*
X265215Y84491D01*
X266215Y86904D01*
X268061Y88750D01*
X270474Y89750D01*
X273086Y89750D01*
X275499Y88750D01*
X277345Y86904D01*
X278345Y84491D01*
X278345Y81879D01*
X277345Y79466D01*
X275499Y77620D01*
X273086Y76620D01*
X270474Y76620D01*
G37*
%LPD*%
%LPC*%
G36*
X135854Y65825D02*
X135854Y65825D01*
X133441Y66825D01*
X131595Y68671D01*
X130595Y71084D01*
X130595Y73696D01*
X131595Y76109D01*
X133441Y77955D01*
X135854Y78955D01*
X138466Y78955D01*
X140879Y77955D01*
X142725Y76109D01*
X143725Y73696D01*
X143725Y71084D01*
X142725Y68671D01*
X140879Y66825D01*
X138466Y65825D01*
X135854Y65825D01*
G37*
%LPD*%
%LPC*%
G36*
X182844Y167425D02*
X182844Y167425D01*
X180431Y168425D01*
X178585Y170271D01*
X177585Y172684D01*
X177585Y175296D01*
X178585Y177709D01*
X180431Y179555D01*
X182844Y180555D01*
X185456Y180555D01*
X187869Y179555D01*
X189715Y177709D01*
X190715Y175296D01*
X190715Y172684D01*
X189715Y170271D01*
X187869Y168425D01*
X185456Y167425D01*
X182844Y167425D01*
G37*
%LPD*%
G36*
X300559Y197968D02*
X300559Y197968D01*
X300606Y197966D01*
X300782Y197994D01*
X300958Y198014D01*
X301004Y198028D01*
X301051Y198035D01*
X301219Y198093D01*
X301389Y198144D01*
X301432Y198166D01*
X301477Y198182D01*
X301633Y198268D01*
X301791Y198349D01*
X301829Y198378D01*
X301870Y198401D01*
X302008Y198514D01*
X302149Y198621D01*
X302182Y198656D01*
X302219Y198686D01*
X302334Y198821D01*
X302455Y198952D01*
X302480Y198992D01*
X302511Y199029D01*
X302601Y199182D01*
X302696Y199332D01*
X302715Y199376D01*
X302739Y199417D01*
X302800Y199584D01*
X302867Y199748D01*
X302877Y199795D01*
X302894Y199840D01*
X302925Y200015D01*
X302962Y200188D01*
X302966Y200248D01*
X302972Y200283D01*
X302972Y200346D01*
X302981Y200500D01*
X302981Y208288D01*
X302967Y208452D01*
X302960Y208616D01*
X302947Y208676D01*
X302941Y208737D01*
X302898Y208896D01*
X302862Y209056D01*
X302839Y209112D01*
X302823Y209171D01*
X302752Y209319D01*
X302689Y209471D01*
X302656Y209523D01*
X302629Y209578D01*
X302534Y209711D01*
X302444Y209850D01*
X302393Y209907D01*
X302367Y209944D01*
X302329Y209981D01*
X300796Y213682D01*
X300736Y213797D01*
X300684Y213917D01*
X300632Y213996D01*
X300587Y214081D01*
X300508Y214184D01*
X300436Y214292D01*
X300370Y214361D01*
X300312Y214437D01*
X300215Y214524D01*
X300125Y214618D01*
X300048Y214675D01*
X299977Y214739D01*
X299867Y214807D01*
X299762Y214884D01*
X299676Y214926D01*
X299595Y214976D01*
X299474Y215025D01*
X299358Y215082D01*
X299266Y215108D01*
X299177Y215143D01*
X299049Y215169D01*
X298924Y215205D01*
X298829Y215214D01*
X298736Y215233D01*
X298606Y215236D01*
X298476Y215249D01*
X298381Y215242D01*
X298286Y215244D01*
X298157Y215224D01*
X298027Y215214D01*
X297935Y215190D01*
X297841Y215175D01*
X297718Y215133D01*
X297592Y215100D01*
X297505Y215060D01*
X297415Y215029D01*
X297301Y214965D01*
X297183Y214911D01*
X297105Y214856D01*
X297022Y214809D01*
X296921Y214727D01*
X296814Y214652D01*
X296747Y214585D01*
X296673Y214524D01*
X296589Y214425D01*
X296497Y214333D01*
X296443Y214254D01*
X296381Y214182D01*
X296315Y214070D01*
X296241Y213963D01*
X296184Y213846D01*
X296153Y213793D01*
X296138Y213751D01*
X296104Y213682D01*
X294579Y210001D01*
X292266Y207687D01*
X292213Y207624D01*
X292153Y207567D01*
X292069Y207452D01*
X291977Y207342D01*
X291936Y207270D01*
X291887Y207204D01*
X291825Y207075D01*
X291754Y206951D01*
X291726Y206873D01*
X291690Y206799D01*
X291651Y206662D01*
X291603Y206527D01*
X291589Y206445D01*
X291567Y206366D01*
X291553Y206224D01*
X291529Y206082D01*
X291530Y206000D01*
X291522Y205918D01*
X291533Y205775D01*
X291535Y205632D01*
X291551Y205551D01*
X291558Y205469D01*
X291594Y205331D01*
X291621Y205190D01*
X291651Y205113D01*
X291672Y205034D01*
X291732Y204904D01*
X291783Y204770D01*
X291826Y204700D01*
X291861Y204625D01*
X291943Y204508D01*
X292017Y204385D01*
X292072Y204324D01*
X292119Y204256D01*
X292221Y204155D01*
X292315Y204048D01*
X292380Y203997D01*
X292438Y203939D01*
X292556Y203857D01*
X292668Y203769D01*
X292741Y203730D01*
X292809Y203683D01*
X293031Y203575D01*
X293065Y203556D01*
X293075Y203553D01*
X293090Y203546D01*
X295819Y202415D01*
X297665Y200569D01*
X298096Y199529D01*
X298178Y199371D01*
X298255Y199211D01*
X298282Y199172D01*
X298305Y199130D01*
X298413Y198989D01*
X298517Y198845D01*
X298551Y198811D01*
X298580Y198774D01*
X298712Y198655D01*
X298839Y198531D01*
X298879Y198504D01*
X298915Y198472D01*
X299065Y198378D01*
X299212Y198279D01*
X299256Y198259D01*
X299297Y198234D01*
X299462Y198168D01*
X299624Y198096D01*
X299671Y198085D01*
X299715Y198067D01*
X299889Y198032D01*
X300062Y197990D01*
X300109Y197987D01*
X300156Y197977D01*
X300334Y197973D01*
X300511Y197962D01*
X300559Y197968D01*
G37*
%LPC*%
G36*
X462350Y120967D02*
X462350Y120967D01*
X460132Y121885D01*
X458435Y123582D01*
X457517Y125800D01*
X457517Y128200D01*
X458435Y130418D01*
X460132Y132115D01*
X462350Y133033D01*
X464750Y133033D01*
X466968Y132115D01*
X468665Y130418D01*
X469583Y128200D01*
X469583Y125800D01*
X468665Y123582D01*
X466968Y121885D01*
X464750Y120967D01*
X462350Y120967D01*
G37*
%LPD*%
%LPC*%
G36*
X55950Y192087D02*
X55950Y192087D01*
X53732Y193005D01*
X52035Y194702D01*
X51117Y196920D01*
X51117Y199320D01*
X52035Y201538D01*
X53732Y203235D01*
X55950Y204153D01*
X58350Y204153D01*
X60568Y203235D01*
X62265Y201538D01*
X63183Y199320D01*
X63183Y196920D01*
X62265Y194702D01*
X60568Y193005D01*
X58350Y192087D01*
X55950Y192087D01*
G37*
%LPD*%
%LPC*%
G36*
X50909Y149839D02*
X50909Y149839D01*
X50909Y169103D01*
X51856Y168795D01*
X53129Y168147D01*
X54286Y167306D01*
X55296Y166296D01*
X56137Y165139D01*
X56785Y163866D01*
X57227Y162507D01*
X57451Y161095D01*
X57451Y149839D01*
X50909Y149839D01*
G37*
%LPD*%
%LPC*%
G36*
X50909Y78761D02*
X50909Y78761D01*
X57451Y78761D01*
X57451Y67505D01*
X57227Y66093D01*
X56785Y64734D01*
X56137Y63461D01*
X55296Y62304D01*
X54286Y61294D01*
X53129Y60453D01*
X51856Y59805D01*
X50909Y59497D01*
X50909Y78761D01*
G37*
%LPD*%
%LPC*%
G36*
X50909Y83839D02*
X50909Y83839D01*
X50909Y90023D01*
X51856Y89715D01*
X53129Y89067D01*
X54286Y88226D01*
X55296Y87216D01*
X56137Y86059D01*
X56785Y84786D01*
X57093Y83839D01*
X50909Y83839D01*
G37*
%LPD*%
%LPC*%
G36*
X50909Y144761D02*
X50909Y144761D01*
X57093Y144761D01*
X56785Y143814D01*
X56137Y142541D01*
X55296Y141384D01*
X54286Y140374D01*
X53129Y139533D01*
X51856Y138885D01*
X50909Y138577D01*
X50909Y144761D01*
G37*
%LPD*%
D10*
X438150Y12700D03*
X412750Y12700D03*
X387350Y12700D03*
X361950Y12700D03*
X336550Y12700D03*
X311150Y12700D03*
X285750Y12700D03*
X260350Y12700D03*
X234950Y12700D03*
X209550Y12700D03*
X184150Y12700D03*
X158750Y12700D03*
X133350Y12700D03*
X107950Y12700D03*
X82550Y12700D03*
X57150Y12700D03*
X158750Y215900D03*
X184150Y215900D03*
X209550Y215900D03*
X234950Y215900D03*
X260350Y215900D03*
X285750Y215900D03*
X311150Y215900D03*
X336550Y215900D03*
X361950Y215900D03*
X387350Y215900D03*
X412750Y215900D03*
X438150Y215900D03*
D11*
X48370Y160380D02*
X48370Y147300D01*
X48370Y81300D02*
X48370Y68220D01*
D12*
X20370Y150300D03*
X20370Y78300D03*
D13*
X254000Y90231D03*
X249000Y90231D03*
X244000Y90231D03*
X239000Y90231D03*
X234000Y90231D03*
X229000Y90231D03*
X224000Y90231D03*
X219000Y90231D03*
X214000Y90231D03*
X209000Y90231D03*
X204000Y90231D03*
X199000Y90231D03*
D10*
X92710Y215900D03*
X114300Y215900D03*
D14*
X17780Y114300D03*
X109220Y83820D03*
X41910Y8890D03*
X67310Y161290D03*
X139065Y168275D03*
X94615Y121920D03*
X173355Y165100D03*
D15*
X95250Y19685D03*
D14*
X180340Y62230D03*
X283210Y121920D03*
X221996Y205994D03*
X298450Y207010D03*
D15*
X336296Y139954D03*
D14*
X336296Y86360D03*
X96520Y53975D03*
X361950Y76200D03*
X172283Y127482D03*
D16*
X180340Y62230D02*
X215900Y62230D01*
X217718Y64048D02*
X221868Y64048D01*
X217718Y64048D02*
X215900Y62230D01*
X224000Y66180D02*
X224000Y90231D01*
X224000Y66180D02*
X221868Y64048D01*
D17*
X416560Y182880D03*
D14*
X147955Y35052D03*
X87630Y196850D03*
X186690Y116277D03*
X106045Y98425D03*
X255270Y31750D03*
D18*
X184150Y88900D02*
X158750Y114300D01*
X158750Y165100D02*
X158750Y215900D01*
X158750Y135163D02*
X158750Y114300D01*
X158750Y135163D02*
X148884Y145029D01*
X184150Y88900D02*
X198050Y88900D01*
X148884Y155234D02*
X158750Y165100D01*
X148884Y155234D02*
X148884Y145029D01*
D16*
X199000Y90231D02*
X198050Y88900D01*
D14*
X128905Y161925D03*
X66675Y54610D03*
X78740Y57150D03*
X158750Y151130D03*
X229870Y166624D03*
X292100Y196850D03*
X332359Y180086D03*
X229870Y177165D03*
D17*
X389890Y92710D03*
X412750Y114300D03*
D18*
X184150Y141260D02*
X174280Y151130D01*
X158750Y151130D01*
X184150Y141260D02*
X184150Y133350D01*
D16*
X199450Y123250D02*
X204000Y118699D01*
X204000Y90231D01*
D18*
X194250Y123250D02*
X184150Y133350D01*
X194250Y123250D02*
X198372Y123250D01*
X198911Y122711D01*
D16*
X199450Y123250D02*
X198372Y123250D01*
D14*
X95250Y31115D03*
X271780Y83185D03*
X212725Y133985D03*
X254000Y185420D03*
X95250Y66040D03*
X77470Y106680D03*
X184150Y173990D03*
D17*
X387350Y114300D03*
D14*
X273050Y170180D03*
X247650Y122555D03*
X261620Y170180D03*
D15*
X57150Y198120D03*
D14*
X254000Y161290D03*
X250825Y139065D03*
X137160Y72390D03*
X210185Y43815D03*
X254889Y45720D03*
X217805Y52705D03*
X254889Y59055D03*
D16*
X306284Y211034D02*
X311150Y215900D01*
X306284Y170110D02*
X254000Y117826D01*
X306284Y170110D02*
X306284Y211034D01*
X254000Y117826D02*
X254000Y90231D01*
X167626Y12700D02*
X158750Y12700D01*
X188454Y33528D02*
X217678Y33528D01*
X188454Y33528D02*
X167626Y12700D01*
X217678Y33528D02*
X229000Y44850D01*
X229000Y90231D01*
X234000Y30916D02*
X232040Y28956D01*
X193026Y12700D02*
X184150Y12700D01*
X209282Y28956D02*
X232040Y28956D01*
X209282Y28956D02*
X193026Y12700D01*
X234000Y30916D02*
X234000Y90231D01*
X233934Y24384D02*
X230110Y24384D01*
X233934Y24384D02*
X238802Y29252D01*
X218426Y12700D02*
X209550Y12700D01*
X218426Y12700D02*
X230110Y24384D01*
X238802Y29252D02*
X238802Y89652D01*
X239000Y90231D01*
D15*
X463550Y187960D03*
X463550Y127000D03*
D16*
X244000Y21750D02*
X234950Y12700D01*
X244000Y21750D02*
X244000Y90231D01*
D14*
X334010Y43180D03*
D19*
X345440Y43815D03*
D14*
X335280Y98425D03*
D16*
X285750Y203200D02*
X285750Y215900D01*
X260564Y178014D02*
X258375Y178014D01*
X242149Y161788D01*
X242149Y136669D01*
X260564Y178014D02*
X285750Y203200D01*
X221513Y116033D02*
X221235Y116033D01*
X221513Y116033D02*
X242149Y136669D01*
X221235Y116033D02*
X219000Y113798D01*
X219000Y90231D01*
D14*
X297180Y24130D03*
X293250Y83305D03*
D17*
X222885Y142240D03*
D14*
X327025Y106680D03*
D16*
X214198Y121433D02*
X204891Y130740D01*
X229449Y184999D02*
X260350Y215900D01*
X229449Y184999D02*
X226625Y184999D01*
X204891Y163265D01*
X204891Y130740D01*
X214198Y121433D02*
X214198Y90048D01*
X214000Y90231D01*
D14*
X321564Y116840D03*
D16*
X200319Y128846D02*
X200319Y165159D01*
X234950Y199790D02*
X234950Y215900D01*
X200319Y128846D02*
X209198Y119967D01*
X200319Y165159D02*
X234950Y199790D01*
X209198Y119967D02*
X209198Y114300D01*
X209136Y114238D01*
X209136Y111508D01*
X209000Y111372D01*
X209000Y90231D01*
D14*
X301625Y92710D03*
X234315Y142240D03*
X348869Y183896D03*
X318770Y196215D03*
D17*
X369570Y60960D03*
D14*
X173553Y139700D03*
X143510Y127000D03*
X120650Y135549D03*
M02*
