G04 EAGLE Gerber RS-274X export*
G75*
%MOMM*%
%FSLAX34Y34*%
%LPD*%
%INEAGLE Copper Layer 2*%
%IPPOS*%
%AMOC8*
5,1,8,0,0,1.08239X$1,22.5*%
G01*
%ADD10C,1.508000*%
%ADD11C,1.308000*%
%ADD12C,1.408000*%
%ADD13C,0.906400*%
%ADD14C,0.800100*%
%ADD15C,0.914400*%
%ADD16C,0.406400*%
%ADD17C,0.609600*%
%ADD18C,0.254000*%
%ADD19C,0.889000*%

G36*
X50845Y2558D02*
X50845Y2558D01*
X50984Y2571D01*
X51003Y2578D01*
X51023Y2581D01*
X51152Y2632D01*
X51283Y2679D01*
X51300Y2690D01*
X51318Y2698D01*
X51431Y2779D01*
X51546Y2857D01*
X51559Y2873D01*
X51576Y2884D01*
X51665Y2992D01*
X51756Y3096D01*
X51766Y3114D01*
X51779Y3129D01*
X51838Y3255D01*
X51901Y3379D01*
X51905Y3399D01*
X51914Y3417D01*
X51940Y3553D01*
X51971Y3689D01*
X51970Y3710D01*
X51974Y3729D01*
X51965Y3868D01*
X51961Y4007D01*
X51955Y4027D01*
X51954Y4047D01*
X51911Y4179D01*
X51873Y4313D01*
X51862Y4330D01*
X51856Y4349D01*
X51781Y4467D01*
X51711Y4587D01*
X51693Y4608D01*
X51686Y4618D01*
X51671Y4632D01*
X51605Y4707D01*
X49035Y7278D01*
X47577Y10796D01*
X47577Y14604D01*
X49035Y18122D01*
X51728Y20815D01*
X55246Y22273D01*
X59054Y22273D01*
X62572Y20815D01*
X65265Y18122D01*
X66723Y14604D01*
X66723Y10796D01*
X65265Y7278D01*
X62695Y4707D01*
X62610Y4598D01*
X62521Y4491D01*
X62513Y4472D01*
X62500Y4456D01*
X62445Y4328D01*
X62386Y4203D01*
X62382Y4183D01*
X62374Y4164D01*
X62352Y4026D01*
X62326Y3890D01*
X62327Y3870D01*
X62324Y3850D01*
X62337Y3711D01*
X62346Y3573D01*
X62352Y3554D01*
X62354Y3534D01*
X62401Y3402D01*
X62444Y3271D01*
X62455Y3253D01*
X62462Y3234D01*
X62540Y3119D01*
X62614Y3002D01*
X62629Y2988D01*
X62640Y2971D01*
X62744Y2879D01*
X62846Y2784D01*
X62863Y2774D01*
X62879Y2761D01*
X63003Y2697D01*
X63124Y2630D01*
X63144Y2625D01*
X63162Y2616D01*
X63298Y2586D01*
X63432Y2551D01*
X63460Y2549D01*
X63472Y2546D01*
X63493Y2547D01*
X63593Y2541D01*
X76107Y2541D01*
X76245Y2558D01*
X76384Y2571D01*
X76403Y2578D01*
X76423Y2581D01*
X76552Y2632D01*
X76683Y2679D01*
X76700Y2690D01*
X76718Y2698D01*
X76831Y2779D01*
X76946Y2857D01*
X76959Y2873D01*
X76976Y2884D01*
X77065Y2992D01*
X77156Y3096D01*
X77166Y3114D01*
X77179Y3129D01*
X77238Y3255D01*
X77301Y3379D01*
X77305Y3399D01*
X77314Y3417D01*
X77340Y3553D01*
X77371Y3689D01*
X77370Y3710D01*
X77374Y3729D01*
X77365Y3868D01*
X77361Y4007D01*
X77355Y4027D01*
X77354Y4047D01*
X77311Y4179D01*
X77273Y4313D01*
X77262Y4330D01*
X77256Y4349D01*
X77181Y4467D01*
X77111Y4587D01*
X77093Y4608D01*
X77086Y4618D01*
X77071Y4632D01*
X77005Y4707D01*
X74435Y7278D01*
X72977Y10796D01*
X72977Y14604D01*
X74468Y18204D01*
X74498Y18243D01*
X74538Y18334D01*
X74586Y18420D01*
X74601Y18479D01*
X74625Y18535D01*
X74640Y18632D01*
X74665Y18728D01*
X74671Y18828D01*
X74675Y18849D01*
X74673Y18861D01*
X74675Y18889D01*
X74675Y50389D01*
X74667Y50458D01*
X74668Y50528D01*
X74647Y50615D01*
X74635Y50705D01*
X74610Y50769D01*
X74593Y50837D01*
X74551Y50917D01*
X74518Y51000D01*
X74477Y51057D01*
X74445Y51118D01*
X74384Y51185D01*
X74332Y51258D01*
X74278Y51302D01*
X74231Y51354D01*
X74156Y51403D01*
X74087Y51460D01*
X74023Y51490D01*
X73965Y51529D01*
X73880Y51558D01*
X73799Y51596D01*
X73730Y51609D01*
X73664Y51632D01*
X73575Y51639D01*
X73487Y51656D01*
X73417Y51651D01*
X73347Y51657D01*
X73259Y51641D01*
X73169Y51636D01*
X73103Y51614D01*
X73034Y51602D01*
X72952Y51566D01*
X72867Y51538D01*
X72808Y51501D01*
X72744Y51472D01*
X72674Y51416D01*
X72598Y51368D01*
X72550Y51317D01*
X72495Y51273D01*
X72441Y51201D01*
X72380Y51136D01*
X72346Y51075D01*
X72304Y51019D01*
X72243Y50894D01*
X70394Y49045D01*
X67981Y48045D01*
X65369Y48045D01*
X62956Y49045D01*
X61110Y50891D01*
X60110Y53304D01*
X60110Y55916D01*
X60141Y55989D01*
X60143Y55998D01*
X60148Y56006D01*
X60185Y56151D01*
X60225Y56296D01*
X60225Y56305D01*
X60227Y56314D01*
X60237Y56475D01*
X60237Y126630D01*
X98835Y165228D01*
X122398Y165228D01*
X122496Y165240D01*
X122595Y165243D01*
X122653Y165260D01*
X122714Y165268D01*
X122806Y165304D01*
X122901Y165332D01*
X122953Y165362D01*
X123009Y165385D01*
X123089Y165443D01*
X123175Y165493D01*
X123250Y165559D01*
X123267Y165571D01*
X123274Y165581D01*
X123296Y165599D01*
X125186Y167490D01*
X127599Y168490D01*
X130211Y168490D01*
X132624Y167490D01*
X134470Y165644D01*
X135470Y163231D01*
X135470Y160619D01*
X134470Y158206D01*
X132624Y156360D01*
X130211Y155360D01*
X127599Y155360D01*
X125186Y156360D01*
X123296Y158251D01*
X123217Y158311D01*
X123145Y158379D01*
X123092Y158408D01*
X123044Y158445D01*
X122953Y158485D01*
X122867Y158533D01*
X122808Y158548D01*
X122752Y158572D01*
X122654Y158587D01*
X122559Y158612D01*
X122459Y158618D01*
X122438Y158622D01*
X122426Y158620D01*
X122398Y158622D01*
X102097Y158622D01*
X101999Y158610D01*
X101900Y158607D01*
X101841Y158590D01*
X101781Y158582D01*
X101689Y158546D01*
X101594Y158518D01*
X101542Y158488D01*
X101486Y158465D01*
X101406Y158407D01*
X101320Y158357D01*
X101245Y158291D01*
X101228Y158279D01*
X101220Y158269D01*
X101199Y158251D01*
X93325Y150376D01*
X93240Y150267D01*
X93151Y150160D01*
X93143Y150141D01*
X93130Y150125D01*
X93075Y149997D01*
X93016Y149872D01*
X93012Y149852D01*
X93004Y149833D01*
X92982Y149695D01*
X92956Y149559D01*
X92957Y149539D01*
X92954Y149519D01*
X92967Y149380D01*
X92976Y149242D01*
X92982Y149223D01*
X92984Y149203D01*
X93031Y149071D01*
X93074Y148940D01*
X93085Y148922D01*
X93092Y148903D01*
X93170Y148788D01*
X93244Y148671D01*
X93259Y148657D01*
X93270Y148640D01*
X93374Y148548D01*
X93476Y148453D01*
X93493Y148443D01*
X93509Y148430D01*
X93633Y148366D01*
X93754Y148299D01*
X93774Y148294D01*
X93792Y148285D01*
X93928Y148255D01*
X94062Y148220D01*
X94090Y148218D01*
X94102Y148215D01*
X94123Y148216D01*
X94223Y148210D01*
X150954Y148210D01*
X151004Y148216D01*
X151053Y148214D01*
X151161Y148236D01*
X151270Y148250D01*
X151316Y148268D01*
X151365Y148278D01*
X151463Y148326D01*
X151566Y148367D01*
X151606Y148396D01*
X151650Y148418D01*
X151734Y148489D01*
X151823Y148553D01*
X151855Y148592D01*
X151892Y148624D01*
X151956Y148714D01*
X152026Y148798D01*
X152047Y148843D01*
X152076Y148884D01*
X152115Y148987D01*
X152161Y149086D01*
X152171Y149135D01*
X152188Y149181D01*
X152200Y149291D01*
X152221Y149398D01*
X152218Y149448D01*
X152224Y149497D01*
X152208Y149606D01*
X152201Y149716D01*
X152186Y149763D01*
X152185Y149769D01*
X152185Y152436D01*
X153185Y154849D01*
X154314Y155977D01*
X154374Y156056D01*
X154442Y156128D01*
X154471Y156181D01*
X154508Y156229D01*
X154548Y156320D01*
X154596Y156406D01*
X154611Y156465D01*
X154635Y156521D01*
X154650Y156619D01*
X154675Y156714D01*
X154681Y156814D01*
X154685Y156835D01*
X154683Y156847D01*
X154685Y156875D01*
X154685Y168054D01*
X170824Y184192D01*
X171027Y184395D01*
X171112Y184505D01*
X171201Y184612D01*
X171210Y184631D01*
X171222Y184647D01*
X171277Y184775D01*
X171337Y184900D01*
X171340Y184920D01*
X171348Y184939D01*
X171370Y185076D01*
X171396Y185213D01*
X171395Y185233D01*
X171398Y185253D01*
X171385Y185391D01*
X171377Y185530D01*
X171370Y185549D01*
X171368Y185569D01*
X171321Y185700D01*
X171279Y185832D01*
X171268Y185850D01*
X171261Y185869D01*
X171183Y185983D01*
X171108Y186101D01*
X171094Y186115D01*
X171082Y186132D01*
X170978Y186224D01*
X170877Y186319D01*
X170859Y186329D01*
X170844Y186342D01*
X170720Y186405D01*
X170598Y186473D01*
X170579Y186478D01*
X170561Y186487D01*
X170425Y186517D01*
X170290Y186552D01*
X170262Y186554D01*
X170250Y186557D01*
X170230Y186556D01*
X170130Y186562D01*
X167629Y186562D01*
X167531Y186550D01*
X167432Y186547D01*
X167373Y186530D01*
X167313Y186522D01*
X167221Y186486D01*
X167126Y186458D01*
X167074Y186428D01*
X167018Y186405D01*
X166937Y186347D01*
X166852Y186297D01*
X166777Y186231D01*
X166760Y186219D01*
X166752Y186209D01*
X166731Y186191D01*
X157344Y176804D01*
X155038Y174497D01*
X76102Y174497D01*
X73796Y176803D01*
X73796Y176804D01*
X58884Y191715D01*
X58806Y191776D01*
X58734Y191844D01*
X58681Y191873D01*
X58633Y191910D01*
X58542Y191949D01*
X58455Y191997D01*
X58397Y192012D01*
X58341Y192036D01*
X58243Y192052D01*
X58147Y192077D01*
X58047Y192083D01*
X58027Y192086D01*
X58015Y192085D01*
X57987Y192087D01*
X55950Y192087D01*
X53732Y193005D01*
X52035Y194702D01*
X51117Y196920D01*
X51117Y199320D01*
X52035Y201538D01*
X53732Y203235D01*
X55950Y204153D01*
X58350Y204153D01*
X60568Y203235D01*
X62265Y201538D01*
X63183Y199320D01*
X63183Y197283D01*
X63196Y197185D01*
X63199Y197086D01*
X63215Y197028D01*
X63223Y196968D01*
X63260Y196876D01*
X63287Y196781D01*
X63318Y196728D01*
X63340Y196672D01*
X63398Y196592D01*
X63449Y196507D01*
X63515Y196431D01*
X63527Y196415D01*
X63536Y196407D01*
X63555Y196386D01*
X78466Y181474D01*
X78545Y181414D01*
X78617Y181346D01*
X78670Y181317D01*
X78718Y181280D01*
X78809Y181240D01*
X78895Y181192D01*
X78954Y181177D01*
X79009Y181153D01*
X79107Y181138D01*
X79203Y181113D01*
X79303Y181107D01*
X79323Y181103D01*
X79336Y181105D01*
X79364Y181103D01*
X151776Y181103D01*
X151874Y181115D01*
X151973Y181118D01*
X152032Y181135D01*
X152092Y181143D01*
X152184Y181179D01*
X152279Y181207D01*
X152331Y181237D01*
X152387Y181260D01*
X152467Y181318D01*
X152553Y181368D01*
X152628Y181434D01*
X152645Y181446D01*
X152653Y181456D01*
X152674Y181474D01*
X162061Y190861D01*
X164367Y193168D01*
X215911Y193168D01*
X216009Y193180D01*
X216108Y193183D01*
X216167Y193200D01*
X216227Y193208D01*
X216319Y193244D01*
X216414Y193272D01*
X216466Y193302D01*
X216522Y193325D01*
X216602Y193383D01*
X216688Y193433D01*
X216763Y193499D01*
X216780Y193511D01*
X216788Y193521D01*
X216809Y193539D01*
X220882Y197613D01*
X253122Y197613D01*
X253260Y197630D01*
X253399Y197643D01*
X253418Y197650D01*
X253438Y197653D01*
X253567Y197704D01*
X253698Y197751D01*
X253715Y197762D01*
X253733Y197770D01*
X253846Y197851D01*
X253961Y197929D01*
X253974Y197945D01*
X253991Y197956D01*
X254080Y198064D01*
X254172Y198168D01*
X254181Y198186D01*
X254194Y198201D01*
X254253Y198327D01*
X254316Y198451D01*
X254321Y198471D01*
X254329Y198489D01*
X254355Y198625D01*
X254386Y198761D01*
X254385Y198782D01*
X254389Y198801D01*
X254380Y198940D01*
X254376Y199079D01*
X254370Y199099D01*
X254369Y199119D01*
X254326Y199251D01*
X254288Y199385D01*
X254277Y199402D01*
X254271Y199421D01*
X254197Y199539D01*
X254126Y199659D01*
X254108Y199680D01*
X254101Y199690D01*
X254086Y199704D01*
X254020Y199779D01*
X244091Y209708D01*
X243997Y209781D01*
X243908Y209860D01*
X243872Y209878D01*
X243840Y209903D01*
X243730Y209951D01*
X243624Y210005D01*
X243585Y210013D01*
X243548Y210029D01*
X243430Y210048D01*
X243314Y210074D01*
X243274Y210073D01*
X243234Y210079D01*
X243115Y210068D01*
X242996Y210065D01*
X242957Y210053D01*
X242917Y210050D01*
X242805Y210009D01*
X242691Y209976D01*
X242656Y209956D01*
X242618Y209942D01*
X242519Y209875D01*
X242417Y209815D01*
X242372Y209775D01*
X242355Y209763D01*
X242341Y209748D01*
X242296Y209708D01*
X240372Y207785D01*
X236854Y206327D01*
X233046Y206327D01*
X229528Y207785D01*
X226835Y210478D01*
X225377Y213996D01*
X225377Y217804D01*
X226835Y221322D01*
X229405Y223893D01*
X229490Y224002D01*
X229579Y224109D01*
X229587Y224128D01*
X229600Y224144D01*
X229655Y224272D01*
X229714Y224397D01*
X229718Y224417D01*
X229726Y224436D01*
X229748Y224574D01*
X229774Y224710D01*
X229773Y224730D01*
X229776Y224750D01*
X229763Y224889D01*
X229754Y225027D01*
X229748Y225046D01*
X229746Y225066D01*
X229699Y225198D01*
X229656Y225329D01*
X229645Y225347D01*
X229638Y225366D01*
X229560Y225481D01*
X229486Y225598D01*
X229471Y225612D01*
X229460Y225629D01*
X229356Y225721D01*
X229254Y225816D01*
X229237Y225826D01*
X229221Y225839D01*
X229097Y225903D01*
X228976Y225970D01*
X228956Y225975D01*
X228938Y225984D01*
X228802Y226014D01*
X228668Y226049D01*
X228640Y226051D01*
X228628Y226054D01*
X228607Y226053D01*
X228507Y226059D01*
X215993Y226059D01*
X215855Y226042D01*
X215716Y226029D01*
X215697Y226022D01*
X215677Y226019D01*
X215548Y225968D01*
X215417Y225921D01*
X215400Y225910D01*
X215382Y225902D01*
X215269Y225821D01*
X215154Y225743D01*
X215141Y225727D01*
X215124Y225716D01*
X215035Y225608D01*
X214944Y225504D01*
X214934Y225486D01*
X214921Y225471D01*
X214862Y225345D01*
X214799Y225221D01*
X214795Y225201D01*
X214786Y225183D01*
X214760Y225047D01*
X214729Y224911D01*
X214730Y224890D01*
X214726Y224871D01*
X214735Y224732D01*
X214739Y224593D01*
X214745Y224573D01*
X214746Y224553D01*
X214789Y224421D01*
X214827Y224287D01*
X214838Y224270D01*
X214844Y224251D01*
X214919Y224133D01*
X214989Y224013D01*
X215007Y223992D01*
X215014Y223982D01*
X215029Y223968D01*
X215095Y223893D01*
X217665Y221322D01*
X219123Y217804D01*
X219123Y213996D01*
X217665Y210478D01*
X214972Y207785D01*
X211454Y206327D01*
X207646Y206327D01*
X204128Y207785D01*
X204096Y207816D01*
X204008Y207885D01*
X203974Y207916D01*
X203967Y207920D01*
X203913Y207968D01*
X203877Y207986D01*
X203845Y208011D01*
X203735Y208058D01*
X203630Y208112D01*
X203590Y208121D01*
X203553Y208137D01*
X203435Y208156D01*
X203319Y208182D01*
X203279Y208181D01*
X203239Y208187D01*
X203120Y208176D01*
X203001Y208172D01*
X202963Y208161D01*
X202922Y208157D01*
X202810Y208117D01*
X202696Y208084D01*
X202661Y208063D01*
X202623Y208050D01*
X202524Y207983D01*
X202422Y207922D01*
X202377Y207883D01*
X202360Y207871D01*
X202346Y207856D01*
X202301Y207816D01*
X192108Y197623D01*
X190241Y196849D01*
X95464Y196849D01*
X95346Y196834D01*
X95227Y196827D01*
X95189Y196814D01*
X95148Y196809D01*
X95038Y196766D01*
X94925Y196729D01*
X94890Y196707D01*
X94853Y196692D01*
X94757Y196623D01*
X94656Y196559D01*
X94628Y196529D01*
X94595Y196506D01*
X94519Y196414D01*
X94438Y196327D01*
X94418Y196292D01*
X94393Y196261D01*
X94342Y196153D01*
X94284Y196049D01*
X94274Y196009D01*
X94257Y195973D01*
X94235Y195856D01*
X94205Y195741D01*
X94201Y195681D01*
X94197Y195661D01*
X94199Y195640D01*
X94195Y195580D01*
X94195Y195544D01*
X93195Y193131D01*
X91349Y191285D01*
X88936Y190285D01*
X86324Y190285D01*
X83911Y191285D01*
X82065Y193131D01*
X81065Y195544D01*
X81065Y198156D01*
X82065Y200569D01*
X83911Y202415D01*
X86324Y203415D01*
X86484Y203415D01*
X86582Y203427D01*
X86681Y203430D01*
X86739Y203447D01*
X86799Y203455D01*
X86891Y203491D01*
X86986Y203519D01*
X87039Y203549D01*
X87095Y203572D01*
X87175Y203630D01*
X87260Y203680D01*
X87336Y203746D01*
X87352Y203758D01*
X87360Y203768D01*
X87381Y203786D01*
X88838Y205243D01*
X88868Y205282D01*
X88905Y205316D01*
X88965Y205407D01*
X89033Y205494D01*
X89052Y205540D01*
X89080Y205581D01*
X89115Y205685D01*
X89159Y205786D01*
X89167Y205835D01*
X89183Y205882D01*
X89192Y205991D01*
X89209Y206100D01*
X89204Y206150D01*
X89208Y206199D01*
X89189Y206307D01*
X89179Y206417D01*
X89162Y206464D01*
X89154Y206513D01*
X89109Y206613D01*
X89071Y206716D01*
X89044Y206757D01*
X89023Y206803D01*
X88955Y206888D01*
X88893Y206979D01*
X88856Y207012D01*
X88825Y207051D01*
X88737Y207117D01*
X88654Y207190D01*
X88610Y207212D01*
X88570Y207242D01*
X88426Y207313D01*
X87287Y207785D01*
X84595Y210478D01*
X83137Y213996D01*
X83137Y217804D01*
X84595Y221322D01*
X87165Y223893D01*
X87250Y224002D01*
X87339Y224109D01*
X87347Y224128D01*
X87360Y224144D01*
X87415Y224272D01*
X87474Y224397D01*
X87478Y224417D01*
X87486Y224436D01*
X87508Y224574D01*
X87534Y224710D01*
X87533Y224730D01*
X87536Y224750D01*
X87523Y224889D01*
X87514Y225027D01*
X87508Y225046D01*
X87506Y225066D01*
X87459Y225198D01*
X87416Y225329D01*
X87405Y225347D01*
X87398Y225366D01*
X87320Y225481D01*
X87246Y225598D01*
X87231Y225612D01*
X87220Y225629D01*
X87116Y225721D01*
X87014Y225816D01*
X86997Y225826D01*
X86981Y225839D01*
X86857Y225903D01*
X86736Y225970D01*
X86716Y225975D01*
X86698Y225984D01*
X86562Y226014D01*
X86428Y226049D01*
X86400Y226051D01*
X86388Y226054D01*
X86367Y226053D01*
X86267Y226059D01*
X34290Y226059D01*
X34192Y226047D01*
X34093Y226044D01*
X34035Y226027D01*
X33974Y226019D01*
X33882Y225983D01*
X33787Y225955D01*
X33735Y225925D01*
X33679Y225902D01*
X33599Y225844D01*
X33513Y225794D01*
X33438Y225728D01*
X33421Y225716D01*
X33414Y225706D01*
X33393Y225688D01*
X28625Y220920D01*
X28552Y220826D01*
X28473Y220736D01*
X28455Y220700D01*
X28430Y220668D01*
X28382Y220559D01*
X28328Y220453D01*
X28320Y220414D01*
X28303Y220377D01*
X28285Y220259D01*
X28259Y220143D01*
X28260Y220103D01*
X28254Y220063D01*
X28265Y219944D01*
X28268Y219825D01*
X28280Y219786D01*
X28283Y219746D01*
X28324Y219634D01*
X28357Y219520D01*
X28377Y219485D01*
X28391Y219447D01*
X28458Y219348D01*
X28518Y219246D01*
X28558Y219200D01*
X28570Y219183D01*
X28585Y219170D01*
X28625Y219125D01*
X30529Y217220D01*
X32591Y212243D01*
X32591Y206857D01*
X30529Y201880D01*
X26720Y198071D01*
X21743Y196009D01*
X16357Y196009D01*
X11380Y198071D01*
X9475Y199975D01*
X9381Y200048D01*
X9292Y200127D01*
X9256Y200145D01*
X9224Y200170D01*
X9115Y200218D01*
X9009Y200272D01*
X8969Y200280D01*
X8932Y200297D01*
X8814Y200315D01*
X8698Y200341D01*
X8658Y200340D01*
X8618Y200346D01*
X8499Y200335D01*
X8381Y200332D01*
X8342Y200320D01*
X8301Y200317D01*
X8189Y200276D01*
X8075Y200243D01*
X8040Y200223D01*
X8002Y200209D01*
X7904Y200142D01*
X7801Y200082D01*
X7756Y200042D01*
X7739Y200030D01*
X7726Y200015D01*
X7680Y199975D01*
X2912Y195207D01*
X2852Y195129D01*
X2784Y195057D01*
X2755Y195004D01*
X2718Y194956D01*
X2678Y194865D01*
X2630Y194779D01*
X2615Y194720D01*
X2591Y194664D01*
X2576Y194566D01*
X2551Y194471D01*
X2545Y194371D01*
X2541Y194350D01*
X2543Y194338D01*
X2541Y194310D01*
X2541Y34290D01*
X2553Y34192D01*
X2556Y34093D01*
X2573Y34035D01*
X2581Y33974D01*
X2617Y33882D01*
X2645Y33787D01*
X2675Y33735D01*
X2698Y33679D01*
X2756Y33599D01*
X2806Y33513D01*
X2848Y33465D01*
X2849Y33464D01*
X2852Y33462D01*
X2872Y33438D01*
X2884Y33421D01*
X2894Y33414D01*
X2912Y33393D01*
X7680Y28625D01*
X7774Y28552D01*
X7864Y28473D01*
X7900Y28455D01*
X7932Y28430D01*
X8041Y28382D01*
X8147Y28328D01*
X8186Y28320D01*
X8223Y28303D01*
X8341Y28285D01*
X8457Y28259D01*
X8497Y28260D01*
X8537Y28254D01*
X8656Y28265D01*
X8775Y28268D01*
X8814Y28280D01*
X8854Y28283D01*
X8966Y28324D01*
X9080Y28357D01*
X9115Y28377D01*
X9153Y28391D01*
X9252Y28458D01*
X9354Y28518D01*
X9400Y28558D01*
X9417Y28570D01*
X9430Y28585D01*
X9475Y28625D01*
X11380Y30529D01*
X16357Y32591D01*
X21743Y32591D01*
X26720Y30529D01*
X30529Y26720D01*
X32591Y21743D01*
X32591Y16357D01*
X30529Y11380D01*
X28625Y9475D01*
X28552Y9381D01*
X28473Y9292D01*
X28455Y9256D01*
X28430Y9224D01*
X28382Y9115D01*
X28328Y9009D01*
X28320Y8969D01*
X28303Y8932D01*
X28285Y8814D01*
X28259Y8698D01*
X28260Y8658D01*
X28254Y8618D01*
X28265Y8499D01*
X28268Y8381D01*
X28280Y8342D01*
X28283Y8301D01*
X28324Y8189D01*
X28357Y8075D01*
X28377Y8040D01*
X28391Y8002D01*
X28458Y7904D01*
X28518Y7801D01*
X28558Y7756D01*
X28570Y7739D01*
X28585Y7726D01*
X28625Y7680D01*
X33393Y2912D01*
X33471Y2852D01*
X33543Y2784D01*
X33596Y2755D01*
X33644Y2718D01*
X33735Y2678D01*
X33821Y2630D01*
X33880Y2615D01*
X33936Y2591D01*
X34034Y2576D01*
X34129Y2551D01*
X34229Y2545D01*
X34250Y2541D01*
X34262Y2543D01*
X34290Y2541D01*
X50707Y2541D01*
X50845Y2558D01*
G37*
G36*
X101645Y2558D02*
X101645Y2558D01*
X101784Y2571D01*
X101803Y2578D01*
X101823Y2581D01*
X101952Y2632D01*
X102083Y2679D01*
X102100Y2690D01*
X102118Y2698D01*
X102231Y2779D01*
X102346Y2857D01*
X102359Y2873D01*
X102376Y2884D01*
X102465Y2992D01*
X102556Y3096D01*
X102566Y3114D01*
X102579Y3129D01*
X102638Y3255D01*
X102701Y3379D01*
X102705Y3399D01*
X102714Y3417D01*
X102740Y3553D01*
X102771Y3689D01*
X102770Y3710D01*
X102774Y3729D01*
X102765Y3868D01*
X102761Y4007D01*
X102755Y4027D01*
X102754Y4047D01*
X102711Y4179D01*
X102673Y4313D01*
X102662Y4330D01*
X102656Y4349D01*
X102581Y4467D01*
X102511Y4587D01*
X102493Y4608D01*
X102486Y4618D01*
X102471Y4632D01*
X102405Y4707D01*
X99835Y7278D01*
X98377Y10796D01*
X98377Y14604D01*
X99835Y18122D01*
X102528Y20815D01*
X106046Y22273D01*
X109854Y22273D01*
X113372Y20815D01*
X116065Y18122D01*
X117523Y14604D01*
X117523Y10796D01*
X116065Y7278D01*
X113495Y4707D01*
X113410Y4598D01*
X113321Y4491D01*
X113313Y4472D01*
X113300Y4456D01*
X113245Y4328D01*
X113186Y4203D01*
X113182Y4183D01*
X113174Y4164D01*
X113152Y4026D01*
X113126Y3890D01*
X113127Y3870D01*
X113124Y3850D01*
X113137Y3711D01*
X113146Y3573D01*
X113152Y3554D01*
X113154Y3534D01*
X113201Y3402D01*
X113244Y3271D01*
X113255Y3253D01*
X113262Y3234D01*
X113340Y3119D01*
X113414Y3002D01*
X113429Y2988D01*
X113440Y2971D01*
X113544Y2879D01*
X113646Y2784D01*
X113663Y2774D01*
X113679Y2761D01*
X113803Y2697D01*
X113924Y2630D01*
X113944Y2625D01*
X113962Y2616D01*
X114098Y2586D01*
X114232Y2551D01*
X114260Y2549D01*
X114272Y2546D01*
X114293Y2547D01*
X114393Y2541D01*
X126276Y2541D01*
X126355Y2551D01*
X126435Y2551D01*
X126512Y2571D01*
X126592Y2581D01*
X126666Y2610D01*
X126743Y2630D01*
X126813Y2668D01*
X126888Y2698D01*
X126952Y2744D01*
X127022Y2783D01*
X127080Y2837D01*
X127145Y2884D01*
X127196Y2946D01*
X127254Y3000D01*
X127297Y3068D01*
X127348Y3129D01*
X127382Y3201D01*
X127424Y3269D01*
X127449Y3345D01*
X127483Y3417D01*
X127498Y3495D01*
X127523Y3571D01*
X127528Y3651D01*
X127543Y3729D01*
X127538Y3809D01*
X127543Y3889D01*
X127528Y3967D01*
X127523Y4047D01*
X127499Y4123D01*
X127484Y4201D01*
X127450Y4273D01*
X127425Y4349D01*
X127383Y4417D01*
X127349Y4489D01*
X127298Y4551D01*
X127255Y4618D01*
X127197Y4673D01*
X127146Y4734D01*
X127025Y4835D01*
X127023Y4836D01*
X127022Y4837D01*
X126783Y5011D01*
X125661Y6133D01*
X124728Y7417D01*
X124008Y8830D01*
X123563Y10201D01*
X132120Y10201D01*
X132238Y10216D01*
X132357Y10223D01*
X132395Y10235D01*
X132435Y10241D01*
X132546Y10284D01*
X132659Y10321D01*
X132693Y10343D01*
X132731Y10358D01*
X132827Y10427D01*
X132928Y10491D01*
X132956Y10521D01*
X132988Y10544D01*
X133064Y10636D01*
X133146Y10723D01*
X133165Y10758D01*
X133191Y10789D01*
X133242Y10897D01*
X133299Y11001D01*
X133309Y11041D01*
X133327Y11077D01*
X133347Y11184D01*
X133351Y11154D01*
X133395Y11044D01*
X133431Y10931D01*
X133453Y10896D01*
X133468Y10859D01*
X133538Y10762D01*
X133601Y10662D01*
X133631Y10634D01*
X133655Y10601D01*
X133746Y10525D01*
X133833Y10444D01*
X133868Y10424D01*
X133900Y10399D01*
X134007Y10348D01*
X134112Y10290D01*
X134151Y10280D01*
X134187Y10263D01*
X134304Y10241D01*
X134420Y10211D01*
X134480Y10207D01*
X134500Y10203D01*
X134520Y10205D01*
X134580Y10201D01*
X143137Y10201D01*
X142692Y8830D01*
X141972Y7417D01*
X141039Y6133D01*
X139917Y5011D01*
X139678Y4837D01*
X139620Y4782D01*
X139555Y4736D01*
X139504Y4674D01*
X139446Y4619D01*
X139403Y4552D01*
X139352Y4491D01*
X139318Y4418D01*
X139275Y4351D01*
X139251Y4275D01*
X139217Y4203D01*
X139202Y4124D01*
X139177Y4048D01*
X139172Y3969D01*
X139157Y3890D01*
X139162Y3811D01*
X139157Y3731D01*
X139172Y3653D01*
X139177Y3573D01*
X139201Y3497D01*
X139216Y3418D01*
X139250Y3346D01*
X139275Y3271D01*
X139318Y3203D01*
X139352Y3131D01*
X139402Y3069D01*
X139445Y3002D01*
X139503Y2947D01*
X139554Y2885D01*
X139619Y2839D01*
X139677Y2784D01*
X139746Y2745D01*
X139811Y2698D01*
X139885Y2669D01*
X139955Y2630D01*
X140032Y2610D01*
X140107Y2581D01*
X140186Y2571D01*
X140263Y2551D01*
X140421Y2541D01*
X140422Y2541D01*
X140423Y2541D01*
X140424Y2541D01*
X152307Y2541D01*
X152445Y2558D01*
X152584Y2571D01*
X152603Y2578D01*
X152623Y2581D01*
X152752Y2632D01*
X152883Y2679D01*
X152900Y2690D01*
X152918Y2698D01*
X153031Y2779D01*
X153146Y2857D01*
X153159Y2873D01*
X153176Y2884D01*
X153265Y2992D01*
X153356Y3096D01*
X153366Y3114D01*
X153379Y3129D01*
X153438Y3255D01*
X153501Y3379D01*
X153505Y3399D01*
X153514Y3417D01*
X153540Y3553D01*
X153571Y3689D01*
X153570Y3710D01*
X153574Y3729D01*
X153565Y3868D01*
X153561Y4007D01*
X153555Y4027D01*
X153554Y4047D01*
X153511Y4179D01*
X153473Y4313D01*
X153462Y4330D01*
X153456Y4349D01*
X153381Y4467D01*
X153311Y4587D01*
X153293Y4608D01*
X153286Y4618D01*
X153271Y4632D01*
X153205Y4707D01*
X150635Y7278D01*
X149177Y10796D01*
X149177Y14604D01*
X150635Y18122D01*
X153328Y20815D01*
X156846Y22273D01*
X160654Y22273D01*
X164172Y20815D01*
X166865Y18122D01*
X168323Y14604D01*
X168323Y10796D01*
X166865Y7278D01*
X164295Y4707D01*
X164210Y4598D01*
X164121Y4491D01*
X164113Y4472D01*
X164100Y4456D01*
X164045Y4328D01*
X163986Y4203D01*
X163982Y4183D01*
X163974Y4164D01*
X163952Y4026D01*
X163926Y3890D01*
X163927Y3870D01*
X163924Y3850D01*
X163937Y3711D01*
X163946Y3573D01*
X163952Y3554D01*
X163954Y3534D01*
X164001Y3402D01*
X164044Y3271D01*
X164055Y3253D01*
X164062Y3234D01*
X164140Y3119D01*
X164214Y3002D01*
X164229Y2988D01*
X164240Y2971D01*
X164344Y2879D01*
X164446Y2784D01*
X164463Y2774D01*
X164479Y2761D01*
X164603Y2697D01*
X164724Y2630D01*
X164744Y2625D01*
X164762Y2616D01*
X164898Y2586D01*
X165032Y2551D01*
X165060Y2549D01*
X165072Y2546D01*
X165093Y2547D01*
X165193Y2541D01*
X177707Y2541D01*
X177845Y2558D01*
X177984Y2571D01*
X178003Y2578D01*
X178023Y2581D01*
X178152Y2632D01*
X178283Y2679D01*
X178300Y2690D01*
X178318Y2698D01*
X178431Y2779D01*
X178546Y2857D01*
X178559Y2873D01*
X178576Y2884D01*
X178665Y2992D01*
X178756Y3096D01*
X178766Y3114D01*
X178779Y3129D01*
X178838Y3255D01*
X178901Y3379D01*
X178905Y3399D01*
X178914Y3417D01*
X178940Y3553D01*
X178971Y3689D01*
X178970Y3710D01*
X178974Y3729D01*
X178965Y3868D01*
X178961Y4007D01*
X178955Y4027D01*
X178954Y4047D01*
X178911Y4179D01*
X178873Y4313D01*
X178862Y4330D01*
X178856Y4349D01*
X178781Y4467D01*
X178711Y4587D01*
X178693Y4608D01*
X178686Y4618D01*
X178671Y4632D01*
X178605Y4707D01*
X176035Y7278D01*
X174577Y10796D01*
X174577Y14604D01*
X176035Y18122D01*
X178728Y20815D01*
X182246Y22273D01*
X186054Y22273D01*
X189572Y20815D01*
X192265Y18122D01*
X193723Y14604D01*
X193723Y10796D01*
X192265Y7278D01*
X189695Y4707D01*
X189610Y4598D01*
X189521Y4491D01*
X189513Y4472D01*
X189500Y4456D01*
X189445Y4328D01*
X189386Y4203D01*
X189382Y4183D01*
X189374Y4164D01*
X189352Y4026D01*
X189326Y3890D01*
X189327Y3870D01*
X189324Y3850D01*
X189337Y3711D01*
X189346Y3573D01*
X189352Y3554D01*
X189354Y3534D01*
X189401Y3402D01*
X189444Y3271D01*
X189455Y3253D01*
X189462Y3234D01*
X189540Y3119D01*
X189614Y3002D01*
X189629Y2988D01*
X189640Y2971D01*
X189744Y2879D01*
X189846Y2784D01*
X189863Y2774D01*
X189879Y2761D01*
X190003Y2697D01*
X190124Y2630D01*
X190144Y2625D01*
X190162Y2616D01*
X190298Y2586D01*
X190432Y2551D01*
X190460Y2549D01*
X190472Y2546D01*
X190493Y2547D01*
X190593Y2541D01*
X203107Y2541D01*
X203245Y2558D01*
X203384Y2571D01*
X203403Y2578D01*
X203423Y2581D01*
X203552Y2632D01*
X203683Y2679D01*
X203700Y2690D01*
X203718Y2698D01*
X203831Y2779D01*
X203946Y2857D01*
X203959Y2873D01*
X203976Y2884D01*
X204065Y2992D01*
X204156Y3096D01*
X204166Y3114D01*
X204179Y3129D01*
X204238Y3255D01*
X204301Y3379D01*
X204305Y3399D01*
X204314Y3417D01*
X204340Y3553D01*
X204371Y3689D01*
X204370Y3710D01*
X204374Y3729D01*
X204365Y3868D01*
X204361Y4007D01*
X204355Y4027D01*
X204354Y4047D01*
X204311Y4179D01*
X204273Y4313D01*
X204262Y4330D01*
X204256Y4349D01*
X204181Y4467D01*
X204111Y4587D01*
X204093Y4608D01*
X204086Y4618D01*
X204071Y4632D01*
X204005Y4707D01*
X201435Y7278D01*
X199977Y10796D01*
X199977Y14604D01*
X201435Y18122D01*
X204128Y20815D01*
X207646Y22273D01*
X211454Y22273D01*
X214972Y20815D01*
X217665Y18122D01*
X219123Y14604D01*
X219123Y10796D01*
X217665Y7278D01*
X215095Y4707D01*
X215010Y4598D01*
X214921Y4491D01*
X214913Y4472D01*
X214900Y4456D01*
X214845Y4328D01*
X214786Y4203D01*
X214782Y4183D01*
X214774Y4164D01*
X214752Y4026D01*
X214726Y3890D01*
X214727Y3870D01*
X214724Y3850D01*
X214737Y3711D01*
X214746Y3573D01*
X214752Y3554D01*
X214754Y3534D01*
X214801Y3402D01*
X214844Y3271D01*
X214855Y3253D01*
X214862Y3234D01*
X214940Y3119D01*
X215014Y3002D01*
X215029Y2988D01*
X215040Y2971D01*
X215144Y2879D01*
X215246Y2784D01*
X215263Y2774D01*
X215279Y2761D01*
X215403Y2697D01*
X215524Y2630D01*
X215544Y2625D01*
X215562Y2616D01*
X215698Y2586D01*
X215832Y2551D01*
X215860Y2549D01*
X215872Y2546D01*
X215893Y2547D01*
X215993Y2541D01*
X228507Y2541D01*
X228645Y2558D01*
X228784Y2571D01*
X228803Y2578D01*
X228823Y2581D01*
X228952Y2632D01*
X229083Y2679D01*
X229100Y2690D01*
X229118Y2698D01*
X229231Y2779D01*
X229346Y2857D01*
X229359Y2873D01*
X229376Y2884D01*
X229465Y2992D01*
X229556Y3096D01*
X229566Y3114D01*
X229579Y3129D01*
X229638Y3255D01*
X229701Y3379D01*
X229705Y3399D01*
X229714Y3417D01*
X229740Y3553D01*
X229771Y3689D01*
X229770Y3710D01*
X229774Y3729D01*
X229765Y3868D01*
X229761Y4007D01*
X229755Y4027D01*
X229754Y4047D01*
X229711Y4179D01*
X229673Y4313D01*
X229662Y4330D01*
X229656Y4349D01*
X229581Y4467D01*
X229511Y4587D01*
X229493Y4608D01*
X229486Y4618D01*
X229471Y4632D01*
X229405Y4707D01*
X226835Y7278D01*
X225377Y10796D01*
X225377Y14604D01*
X226835Y18122D01*
X229528Y20815D01*
X233046Y22273D01*
X236854Y22273D01*
X240372Y20815D01*
X243065Y18122D01*
X244523Y14604D01*
X244523Y10796D01*
X243065Y7278D01*
X240495Y4707D01*
X240410Y4598D01*
X240321Y4491D01*
X240313Y4472D01*
X240300Y4456D01*
X240245Y4328D01*
X240186Y4203D01*
X240182Y4183D01*
X240174Y4164D01*
X240152Y4026D01*
X240126Y3890D01*
X240127Y3870D01*
X240124Y3850D01*
X240137Y3711D01*
X240146Y3573D01*
X240152Y3554D01*
X240154Y3534D01*
X240201Y3402D01*
X240244Y3271D01*
X240255Y3253D01*
X240262Y3234D01*
X240340Y3119D01*
X240414Y3002D01*
X240429Y2988D01*
X240440Y2971D01*
X240544Y2879D01*
X240646Y2784D01*
X240663Y2774D01*
X240679Y2761D01*
X240803Y2697D01*
X240924Y2630D01*
X240944Y2625D01*
X240962Y2616D01*
X241098Y2586D01*
X241232Y2551D01*
X241260Y2549D01*
X241272Y2546D01*
X241293Y2547D01*
X241393Y2541D01*
X253907Y2541D01*
X254045Y2558D01*
X254184Y2571D01*
X254203Y2578D01*
X254223Y2581D01*
X254352Y2632D01*
X254483Y2679D01*
X254500Y2690D01*
X254518Y2698D01*
X254631Y2779D01*
X254746Y2857D01*
X254759Y2873D01*
X254776Y2884D01*
X254865Y2992D01*
X254956Y3096D01*
X254966Y3114D01*
X254979Y3129D01*
X255038Y3255D01*
X255101Y3379D01*
X255105Y3399D01*
X255114Y3417D01*
X255140Y3553D01*
X255171Y3689D01*
X255170Y3710D01*
X255174Y3729D01*
X255165Y3868D01*
X255161Y4007D01*
X255155Y4027D01*
X255154Y4047D01*
X255111Y4179D01*
X255073Y4313D01*
X255062Y4330D01*
X255056Y4349D01*
X254981Y4467D01*
X254911Y4587D01*
X254893Y4608D01*
X254886Y4618D01*
X254871Y4632D01*
X254805Y4707D01*
X252235Y7278D01*
X250777Y10796D01*
X250777Y14604D01*
X252235Y18122D01*
X254928Y20815D01*
X258446Y22273D01*
X262254Y22273D01*
X265772Y20815D01*
X267061Y19527D01*
X267155Y19454D01*
X267244Y19375D01*
X267280Y19357D01*
X267312Y19332D01*
X267422Y19285D01*
X267528Y19230D01*
X267567Y19222D01*
X267604Y19206D01*
X267722Y19187D01*
X267838Y19161D01*
X267878Y19162D01*
X267918Y19156D01*
X268037Y19167D01*
X268156Y19170D01*
X268195Y19182D01*
X268235Y19185D01*
X268347Y19226D01*
X268461Y19259D01*
X268496Y19279D01*
X268534Y19293D01*
X268633Y19360D01*
X268735Y19420D01*
X268780Y19460D01*
X268797Y19472D01*
X268811Y19487D01*
X268856Y19527D01*
X276361Y27031D01*
X276421Y27110D01*
X276489Y27182D01*
X276510Y27219D01*
X276531Y27245D01*
X276539Y27261D01*
X276555Y27283D01*
X276595Y27374D01*
X276643Y27460D01*
X276655Y27507D01*
X276667Y27533D01*
X276669Y27546D01*
X276682Y27574D01*
X276697Y27672D01*
X276722Y27768D01*
X276728Y27868D01*
X276732Y27889D01*
X276730Y27901D01*
X276732Y27929D01*
X276732Y67818D01*
X276717Y67936D01*
X276710Y68055D01*
X276697Y68093D01*
X276692Y68134D01*
X276649Y68244D01*
X276612Y68357D01*
X276590Y68392D01*
X276575Y68429D01*
X276506Y68525D01*
X276442Y68626D01*
X276412Y68654D01*
X276389Y68687D01*
X276297Y68763D01*
X276210Y68844D01*
X276175Y68864D01*
X276144Y68889D01*
X276036Y68940D01*
X275932Y68998D01*
X275892Y69008D01*
X275856Y69025D01*
X275739Y69047D01*
X275624Y69077D01*
X275564Y69081D01*
X275544Y69085D01*
X275523Y69083D01*
X275463Y69087D01*
X213262Y69087D01*
X192044Y90306D01*
X191965Y90366D01*
X191893Y90434D01*
X191840Y90463D01*
X191792Y90500D01*
X191701Y90540D01*
X191615Y90588D01*
X191556Y90603D01*
X191501Y90627D01*
X191403Y90642D01*
X191307Y90667D01*
X191207Y90673D01*
X191186Y90677D01*
X191174Y90675D01*
X191146Y90677D01*
X172074Y90677D01*
X171976Y90665D01*
X171877Y90662D01*
X171818Y90645D01*
X171758Y90637D01*
X171666Y90601D01*
X171571Y90573D01*
X171519Y90543D01*
X171463Y90520D01*
X171383Y90462D01*
X171297Y90412D01*
X171222Y90346D01*
X171205Y90334D01*
X171197Y90324D01*
X171176Y90306D01*
X160118Y79247D01*
X149214Y79247D01*
X149116Y79235D01*
X149017Y79232D01*
X148958Y79215D01*
X148898Y79207D01*
X148806Y79171D01*
X148711Y79143D01*
X148659Y79113D01*
X148603Y79090D01*
X148523Y79032D01*
X148437Y78982D01*
X148362Y78916D01*
X148345Y78904D01*
X148337Y78894D01*
X148316Y78876D01*
X144096Y74656D01*
X144036Y74577D01*
X143968Y74505D01*
X143939Y74452D01*
X143902Y74404D01*
X143862Y74313D01*
X143814Y74227D01*
X143799Y74168D01*
X143775Y74113D01*
X143760Y74015D01*
X143735Y73919D01*
X143729Y73819D01*
X143725Y73798D01*
X143727Y73786D01*
X143725Y73758D01*
X143725Y71084D01*
X142725Y68671D01*
X140879Y66825D01*
X138466Y65825D01*
X135854Y65825D01*
X133441Y66825D01*
X131595Y68671D01*
X130595Y71084D01*
X130595Y73696D01*
X131595Y76109D01*
X133441Y77955D01*
X135854Y78955D01*
X138528Y78955D01*
X138626Y78967D01*
X138725Y78970D01*
X138784Y78987D01*
X138844Y78995D01*
X138936Y79031D01*
X139031Y79059D01*
X139083Y79089D01*
X139139Y79112D01*
X139219Y79170D01*
X139305Y79220D01*
X139380Y79286D01*
X139397Y79298D01*
X139405Y79308D01*
X139426Y79326D01*
X145952Y85853D01*
X156856Y85853D01*
X156954Y85865D01*
X157053Y85868D01*
X157112Y85885D01*
X157172Y85893D01*
X157264Y85929D01*
X157359Y85957D01*
X157411Y85987D01*
X157467Y86010D01*
X157547Y86068D01*
X157633Y86118D01*
X157708Y86184D01*
X157725Y86196D01*
X157733Y86206D01*
X157754Y86224D01*
X168812Y97283D01*
X193548Y97283D01*
X193666Y97298D01*
X193785Y97305D01*
X193823Y97318D01*
X193864Y97323D01*
X193974Y97366D01*
X194087Y97403D01*
X194122Y97425D01*
X194159Y97440D01*
X194255Y97509D01*
X194356Y97573D01*
X194384Y97603D01*
X194417Y97626D01*
X194493Y97718D01*
X194574Y97805D01*
X194594Y97840D01*
X194619Y97871D01*
X194670Y97979D01*
X194728Y98083D01*
X194738Y98123D01*
X194755Y98159D01*
X194777Y98276D01*
X194807Y98391D01*
X194811Y98451D01*
X194815Y98471D01*
X194813Y98492D01*
X194817Y98552D01*
X194817Y112363D01*
X194809Y112432D01*
X194810Y112502D01*
X194789Y112589D01*
X194777Y112678D01*
X194752Y112743D01*
X194735Y112811D01*
X194693Y112890D01*
X194660Y112974D01*
X194619Y113030D01*
X194587Y113092D01*
X194526Y113159D01*
X194474Y113231D01*
X194420Y113276D01*
X194373Y113327D01*
X194298Y113377D01*
X194229Y113434D01*
X194165Y113464D01*
X194107Y113502D01*
X194022Y113531D01*
X193941Y113569D01*
X193872Y113583D01*
X193806Y113605D01*
X193717Y113612D01*
X193629Y113629D01*
X193559Y113625D01*
X193489Y113630D01*
X193401Y113615D01*
X193311Y113610D01*
X193245Y113588D01*
X193176Y113576D01*
X193094Y113539D01*
X193009Y113511D01*
X192950Y113474D01*
X192886Y113445D01*
X192816Y113389D01*
X192740Y113341D01*
X192692Y113290D01*
X192638Y113247D01*
X192583Y113175D01*
X192522Y113110D01*
X192488Y113049D01*
X192446Y112993D01*
X192375Y112848D01*
X192255Y112558D01*
X191126Y111430D01*
X191066Y111351D01*
X190998Y111279D01*
X190969Y111226D01*
X190932Y111178D01*
X190892Y111087D01*
X190844Y111001D01*
X190829Y110942D01*
X190805Y110886D01*
X190790Y110788D01*
X190775Y110732D01*
X182659Y102615D01*
X146354Y102615D01*
X146256Y102603D01*
X146157Y102600D01*
X146099Y102583D01*
X146039Y102575D01*
X145947Y102539D01*
X145852Y102511D01*
X145800Y102481D01*
X145743Y102458D01*
X145663Y102400D01*
X145578Y102350D01*
X145502Y102284D01*
X145486Y102272D01*
X145478Y102262D01*
X145457Y102244D01*
X135246Y92033D01*
X132494Y89280D01*
X125984Y89280D01*
X125866Y89265D01*
X125747Y89258D01*
X125709Y89245D01*
X125668Y89240D01*
X125558Y89197D01*
X125445Y89160D01*
X125410Y89138D01*
X125373Y89123D01*
X125277Y89054D01*
X125176Y88990D01*
X125148Y88960D01*
X125115Y88937D01*
X125039Y88845D01*
X124958Y88758D01*
X124938Y88723D01*
X124913Y88692D01*
X124862Y88584D01*
X124804Y88480D01*
X124794Y88440D01*
X124777Y88404D01*
X124755Y88287D01*
X124725Y88172D01*
X124721Y88112D01*
X124717Y88092D01*
X124719Y88071D01*
X124715Y88011D01*
X124715Y62534D01*
X124727Y62436D01*
X124730Y62337D01*
X124747Y62279D01*
X124755Y62219D01*
X124791Y62127D01*
X124819Y62032D01*
X124849Y61980D01*
X124872Y61923D01*
X124930Y61843D01*
X124980Y61758D01*
X125046Y61682D01*
X125058Y61666D01*
X125068Y61658D01*
X125086Y61637D01*
X144959Y41765D01*
X144982Y41747D01*
X145001Y41724D01*
X145107Y41649D01*
X145210Y41570D01*
X145237Y41558D01*
X145261Y41541D01*
X145382Y41495D01*
X145502Y41443D01*
X145531Y41439D01*
X145559Y41428D01*
X145688Y41414D01*
X145816Y41393D01*
X145845Y41396D01*
X145875Y41393D01*
X146003Y41411D01*
X146133Y41423D01*
X146160Y41433D01*
X146190Y41437D01*
X146342Y41489D01*
X146649Y41617D01*
X149261Y41617D01*
X151674Y40617D01*
X153564Y38726D01*
X153643Y38666D01*
X153715Y38598D01*
X153768Y38569D01*
X153816Y38532D01*
X153907Y38492D01*
X153993Y38444D01*
X154052Y38429D01*
X154108Y38405D01*
X154206Y38390D01*
X154301Y38365D01*
X154401Y38359D01*
X154422Y38355D01*
X154434Y38357D01*
X154462Y38355D01*
X162023Y38355D01*
X164953Y35424D01*
X165032Y35364D01*
X165104Y35296D01*
X165157Y35267D01*
X165205Y35230D01*
X165296Y35190D01*
X165382Y35142D01*
X165441Y35127D01*
X165496Y35103D01*
X165594Y35088D01*
X165690Y35063D01*
X165790Y35057D01*
X165811Y35053D01*
X165823Y35055D01*
X165851Y35053D01*
X207804Y35053D01*
X207873Y35061D01*
X207943Y35060D01*
X208030Y35081D01*
X208119Y35093D01*
X208184Y35118D01*
X208252Y35135D01*
X208331Y35177D01*
X208415Y35210D01*
X208471Y35251D01*
X208533Y35283D01*
X208600Y35344D01*
X208672Y35396D01*
X208717Y35450D01*
X208768Y35497D01*
X208818Y35572D01*
X208875Y35641D01*
X208905Y35705D01*
X208943Y35763D01*
X208972Y35848D01*
X209010Y35929D01*
X209024Y35998D01*
X209046Y36064D01*
X209053Y36153D01*
X209070Y36241D01*
X209066Y36311D01*
X209071Y36381D01*
X209056Y36469D01*
X209051Y36559D01*
X209029Y36625D01*
X209017Y36694D01*
X208980Y36776D01*
X208952Y36861D01*
X208915Y36920D01*
X208886Y36984D01*
X208830Y37054D01*
X208782Y37130D01*
X208731Y37178D01*
X208688Y37232D01*
X208616Y37287D01*
X208551Y37348D01*
X208490Y37382D01*
X208434Y37424D01*
X208289Y37495D01*
X206466Y38250D01*
X204620Y40096D01*
X203620Y42509D01*
X203620Y45121D01*
X204620Y47534D01*
X206466Y49380D01*
X208879Y50380D01*
X209971Y50380D01*
X210089Y50395D01*
X210208Y50402D01*
X210246Y50415D01*
X210287Y50420D01*
X210397Y50463D01*
X210510Y50500D01*
X210545Y50522D01*
X210582Y50537D01*
X210678Y50606D01*
X210779Y50670D01*
X210807Y50700D01*
X210840Y50723D01*
X210916Y50815D01*
X210997Y50902D01*
X211017Y50937D01*
X211042Y50968D01*
X211093Y51076D01*
X211151Y51180D01*
X211161Y51220D01*
X211178Y51256D01*
X211200Y51373D01*
X211230Y51488D01*
X211234Y51548D01*
X211238Y51568D01*
X211236Y51589D01*
X211240Y51649D01*
X211240Y54011D01*
X212240Y56424D01*
X214086Y58270D01*
X216499Y59270D01*
X219111Y59270D01*
X220621Y58644D01*
X220630Y58642D01*
X220638Y58637D01*
X220783Y58600D01*
X220927Y58560D01*
X220937Y58560D01*
X220946Y58558D01*
X221106Y58548D01*
X247055Y58548D01*
X247173Y58563D01*
X247292Y58570D01*
X247330Y58583D01*
X247371Y58588D01*
X247481Y58631D01*
X247594Y58668D01*
X247629Y58690D01*
X247666Y58705D01*
X247762Y58774D01*
X247863Y58838D01*
X247891Y58868D01*
X247924Y58891D01*
X248000Y58983D01*
X248081Y59070D01*
X248101Y59105D01*
X248126Y59136D01*
X248177Y59244D01*
X248235Y59348D01*
X248245Y59388D01*
X248262Y59424D01*
X248284Y59541D01*
X248314Y59656D01*
X248318Y59716D01*
X248322Y59736D01*
X248320Y59757D01*
X248324Y59817D01*
X248324Y60361D01*
X249324Y62774D01*
X251170Y64620D01*
X253583Y65620D01*
X256195Y65620D01*
X258608Y64620D01*
X260454Y62774D01*
X261454Y60361D01*
X261454Y57749D01*
X260454Y55336D01*
X258555Y53437D01*
X258534Y53426D01*
X258519Y53412D01*
X258501Y53403D01*
X258401Y53306D01*
X258298Y53212D01*
X258287Y53195D01*
X258273Y53181D01*
X258200Y53062D01*
X258124Y52946D01*
X258117Y52927D01*
X258107Y52910D01*
X258066Y52777D01*
X258021Y52645D01*
X258019Y52625D01*
X258013Y52606D01*
X258007Y52468D01*
X257996Y52328D01*
X257999Y52308D01*
X257998Y52289D01*
X258026Y52152D01*
X258050Y52015D01*
X258058Y51997D01*
X258062Y51977D01*
X258123Y51852D01*
X258181Y51725D01*
X258193Y51709D01*
X258202Y51691D01*
X258292Y51585D01*
X258379Y51477D01*
X258395Y51465D01*
X258408Y51449D01*
X258522Y51369D01*
X258528Y51365D01*
X260454Y49439D01*
X261454Y47026D01*
X261454Y44414D01*
X260454Y42001D01*
X258608Y40155D01*
X258202Y39987D01*
X258081Y39918D01*
X257958Y39853D01*
X257943Y39839D01*
X257925Y39829D01*
X257825Y39732D01*
X257723Y39639D01*
X257712Y39622D01*
X257697Y39608D01*
X257624Y39489D01*
X257548Y39373D01*
X257541Y39354D01*
X257531Y39337D01*
X257490Y39204D01*
X257445Y39072D01*
X257443Y39052D01*
X257437Y39033D01*
X257431Y38894D01*
X257420Y38755D01*
X257423Y38735D01*
X257422Y38715D01*
X257450Y38579D01*
X257474Y38442D01*
X257482Y38423D01*
X257486Y38404D01*
X257547Y38279D01*
X257604Y38152D01*
X257617Y38136D01*
X257626Y38118D01*
X257716Y38012D01*
X257803Y37903D01*
X257819Y37891D01*
X257832Y37876D01*
X257946Y37796D01*
X258057Y37712D01*
X258082Y37700D01*
X258092Y37693D01*
X258111Y37686D01*
X258202Y37641D01*
X258989Y37315D01*
X260835Y35469D01*
X261835Y33056D01*
X261835Y30444D01*
X260835Y28031D01*
X258989Y26185D01*
X256576Y25185D01*
X253964Y25185D01*
X251551Y26185D01*
X249661Y28076D01*
X249582Y28136D01*
X249510Y28204D01*
X249457Y28233D01*
X249409Y28270D01*
X249318Y28310D01*
X249232Y28358D01*
X249173Y28373D01*
X249117Y28397D01*
X249019Y28412D01*
X248924Y28437D01*
X248824Y28443D01*
X248803Y28447D01*
X248791Y28445D01*
X248763Y28447D01*
X162589Y28447D01*
X159659Y31378D01*
X159580Y31438D01*
X159508Y31506D01*
X159455Y31535D01*
X159407Y31572D01*
X159316Y31612D01*
X159230Y31660D01*
X159171Y31675D01*
X159116Y31699D01*
X159018Y31714D01*
X158922Y31739D01*
X158822Y31745D01*
X158801Y31749D01*
X158789Y31747D01*
X158761Y31749D01*
X154462Y31749D01*
X154364Y31737D01*
X154265Y31734D01*
X154206Y31717D01*
X154146Y31709D01*
X154054Y31673D01*
X153959Y31645D01*
X153907Y31615D01*
X153851Y31592D01*
X153771Y31534D01*
X153685Y31484D01*
X153610Y31418D01*
X153593Y31406D01*
X153586Y31396D01*
X153582Y31393D01*
X153578Y31390D01*
X153576Y31387D01*
X153564Y31378D01*
X151674Y29487D01*
X149261Y28487D01*
X146649Y28487D01*
X144236Y29487D01*
X142390Y31333D01*
X141423Y33667D01*
X141419Y33675D01*
X141416Y33684D01*
X141340Y33813D01*
X141266Y33943D01*
X141259Y33950D01*
X141254Y33958D01*
X141148Y34079D01*
X116585Y58641D01*
X116585Y88011D01*
X116570Y88129D01*
X116563Y88248D01*
X116550Y88286D01*
X116545Y88327D01*
X116502Y88437D01*
X116465Y88550D01*
X116443Y88585D01*
X116428Y88622D01*
X116359Y88718D01*
X116295Y88819D01*
X116265Y88847D01*
X116242Y88880D01*
X116150Y88956D01*
X116063Y89037D01*
X116028Y89057D01*
X115997Y89082D01*
X115889Y89133D01*
X115785Y89191D01*
X115745Y89201D01*
X115709Y89218D01*
X115592Y89240D01*
X115477Y89270D01*
X115417Y89274D01*
X115397Y89278D01*
X115376Y89276D01*
X115316Y89280D01*
X109441Y89280D01*
X107233Y91489D01*
X107155Y91549D01*
X107083Y91617D01*
X107030Y91646D01*
X106982Y91683D01*
X106891Y91723D01*
X106804Y91771D01*
X106746Y91786D01*
X106690Y91810D01*
X106592Y91825D01*
X106496Y91850D01*
X106396Y91856D01*
X106376Y91860D01*
X106364Y91858D01*
X106336Y91860D01*
X104739Y91860D01*
X102326Y92860D01*
X100480Y94706D01*
X99480Y97119D01*
X99480Y99731D01*
X100480Y102144D01*
X100817Y102480D01*
X100902Y102590D01*
X100990Y102697D01*
X100999Y102716D01*
X101012Y102732D01*
X101067Y102860D01*
X101126Y102985D01*
X101130Y103005D01*
X101138Y103024D01*
X101160Y103162D01*
X101186Y103298D01*
X101185Y103318D01*
X101188Y103338D01*
X101175Y103477D01*
X101166Y103615D01*
X101160Y103634D01*
X101158Y103654D01*
X101111Y103785D01*
X101068Y103917D01*
X101057Y103935D01*
X101050Y103954D01*
X100972Y104068D01*
X100898Y104186D01*
X100883Y104200D01*
X100872Y104217D01*
X100768Y104309D01*
X100666Y104404D01*
X100648Y104414D01*
X100633Y104427D01*
X100510Y104490D01*
X100388Y104558D01*
X100368Y104563D01*
X100350Y104572D01*
X100214Y104602D01*
X100080Y104637D01*
X100052Y104639D01*
X100040Y104642D01*
X100019Y104641D01*
X99919Y104647D01*
X92837Y104647D01*
X92719Y104632D01*
X92600Y104625D01*
X92562Y104612D01*
X92521Y104607D01*
X92411Y104564D01*
X92298Y104527D01*
X92263Y104505D01*
X92226Y104490D01*
X92130Y104421D01*
X92029Y104357D01*
X92001Y104327D01*
X91968Y104304D01*
X91892Y104212D01*
X91811Y104125D01*
X91791Y104090D01*
X91766Y104059D01*
X91715Y103951D01*
X91657Y103847D01*
X91647Y103807D01*
X91630Y103771D01*
X91608Y103654D01*
X91578Y103539D01*
X91574Y103479D01*
X91570Y103459D01*
X91572Y103438D01*
X91568Y103378D01*
X91568Y87619D01*
X91580Y87521D01*
X91583Y87422D01*
X91600Y87363D01*
X91608Y87303D01*
X91644Y87211D01*
X91672Y87116D01*
X91702Y87064D01*
X91725Y87008D01*
X91783Y86928D01*
X91833Y86842D01*
X91899Y86767D01*
X91911Y86750D01*
X91921Y86742D01*
X91939Y86721D01*
X108713Y69948D01*
X108713Y45622D01*
X106406Y43316D01*
X100267Y37177D01*
X100194Y37082D01*
X100116Y36993D01*
X100097Y36957D01*
X100072Y36925D01*
X100025Y36816D01*
X99971Y36710D01*
X99962Y36671D01*
X99946Y36633D01*
X99927Y36516D01*
X99901Y36400D01*
X99903Y36359D01*
X99896Y36319D01*
X99907Y36201D01*
X99911Y36082D01*
X99922Y36043D01*
X99926Y36003D01*
X99966Y35891D01*
X99999Y35776D01*
X100020Y35742D01*
X100034Y35703D01*
X100100Y35605D01*
X100161Y35502D01*
X100201Y35457D01*
X100212Y35440D01*
X100228Y35427D01*
X100267Y35382D01*
X100815Y34834D01*
X101815Y32421D01*
X101815Y29809D01*
X100815Y27396D01*
X98969Y25550D01*
X96556Y24550D01*
X93944Y24550D01*
X91531Y25550D01*
X89685Y27396D01*
X88685Y29809D01*
X88685Y32421D01*
X89685Y34834D01*
X91576Y36724D01*
X91636Y36803D01*
X91704Y36875D01*
X91733Y36928D01*
X91770Y36976D01*
X91810Y37067D01*
X91858Y37153D01*
X91873Y37212D01*
X91897Y37268D01*
X91912Y37366D01*
X91937Y37461D01*
X91943Y37561D01*
X91947Y37582D01*
X91945Y37594D01*
X91947Y37622D01*
X91947Y38198D01*
X101736Y47986D01*
X101796Y48065D01*
X101864Y48137D01*
X101893Y48190D01*
X101930Y48238D01*
X101970Y48329D01*
X102018Y48415D01*
X102033Y48474D01*
X102057Y48529D01*
X102072Y48627D01*
X102097Y48723D01*
X102103Y48823D01*
X102107Y48844D01*
X102105Y48856D01*
X102107Y48884D01*
X102107Y60549D01*
X102090Y60687D01*
X102077Y60825D01*
X102070Y60844D01*
X102067Y60865D01*
X102016Y60994D01*
X101969Y61125D01*
X101958Y61142D01*
X101950Y61160D01*
X101869Y61273D01*
X101791Y61388D01*
X101775Y61401D01*
X101764Y61418D01*
X101656Y61506D01*
X101552Y61598D01*
X101534Y61608D01*
X101519Y61620D01*
X101393Y61680D01*
X101269Y61743D01*
X101249Y61747D01*
X101231Y61756D01*
X101094Y61782D01*
X100959Y61813D01*
X100938Y61812D01*
X100919Y61816D01*
X100780Y61807D01*
X100641Y61803D01*
X100621Y61797D01*
X100601Y61796D01*
X100469Y61753D01*
X100335Y61715D01*
X100318Y61704D01*
X100299Y61698D01*
X100181Y61624D01*
X100061Y61553D01*
X100040Y61534D01*
X100030Y61528D01*
X100016Y61513D01*
X99941Y61447D01*
X98969Y60475D01*
X96556Y59475D01*
X93944Y59475D01*
X91531Y60475D01*
X89685Y62321D01*
X88685Y64734D01*
X88685Y67408D01*
X88673Y67506D01*
X88670Y67605D01*
X88653Y67664D01*
X88645Y67724D01*
X88609Y67816D01*
X88581Y67911D01*
X88551Y67963D01*
X88528Y68019D01*
X88470Y68099D01*
X88420Y68185D01*
X88354Y68260D01*
X88342Y68277D01*
X88332Y68285D01*
X88314Y68306D01*
X84971Y71648D01*
X84862Y71733D01*
X84755Y71822D01*
X84736Y71830D01*
X84720Y71843D01*
X84592Y71898D01*
X84467Y71957D01*
X84447Y71961D01*
X84428Y71969D01*
X84290Y71991D01*
X84154Y72017D01*
X84134Y72016D01*
X84114Y72019D01*
X83975Y72006D01*
X83837Y71997D01*
X83818Y71991D01*
X83798Y71989D01*
X83666Y71942D01*
X83535Y71899D01*
X83517Y71888D01*
X83498Y71881D01*
X83383Y71803D01*
X83266Y71729D01*
X83252Y71714D01*
X83235Y71703D01*
X83143Y71599D01*
X83048Y71497D01*
X83038Y71480D01*
X83025Y71464D01*
X82961Y71340D01*
X82894Y71219D01*
X82889Y71199D01*
X82880Y71181D01*
X82850Y71045D01*
X82815Y70911D01*
X82813Y70883D01*
X82810Y70871D01*
X82811Y70850D01*
X82805Y70750D01*
X82805Y62895D01*
X82817Y62797D01*
X82820Y62698D01*
X82837Y62640D01*
X82845Y62579D01*
X82881Y62487D01*
X82909Y62392D01*
X82939Y62340D01*
X82962Y62284D01*
X83020Y62204D01*
X83070Y62118D01*
X83136Y62043D01*
X83148Y62026D01*
X83158Y62019D01*
X83176Y61997D01*
X84305Y60869D01*
X85305Y58456D01*
X85305Y55844D01*
X84305Y53431D01*
X83176Y52303D01*
X83116Y52224D01*
X83048Y52152D01*
X83019Y52099D01*
X82982Y52051D01*
X82942Y51960D01*
X82894Y51874D01*
X82879Y51815D01*
X82855Y51759D01*
X82840Y51661D01*
X82815Y51566D01*
X82809Y51466D01*
X82805Y51445D01*
X82807Y51433D01*
X82805Y51405D01*
X82805Y23542D01*
X82820Y23424D01*
X82827Y23305D01*
X82840Y23267D01*
X82845Y23226D01*
X82888Y23116D01*
X82925Y23003D01*
X82947Y22968D01*
X82962Y22931D01*
X83031Y22835D01*
X83095Y22734D01*
X83125Y22706D01*
X83148Y22673D01*
X83240Y22597D01*
X83327Y22516D01*
X83362Y22496D01*
X83393Y22471D01*
X83501Y22420D01*
X83605Y22362D01*
X83645Y22352D01*
X83681Y22335D01*
X83798Y22313D01*
X83913Y22283D01*
X83973Y22279D01*
X83993Y22275D01*
X84014Y22277D01*
X84074Y22273D01*
X84454Y22273D01*
X87972Y20815D01*
X90665Y18122D01*
X92123Y14604D01*
X92123Y10796D01*
X90665Y7278D01*
X88095Y4707D01*
X88010Y4598D01*
X87921Y4491D01*
X87913Y4472D01*
X87900Y4456D01*
X87845Y4328D01*
X87786Y4203D01*
X87782Y4183D01*
X87774Y4164D01*
X87752Y4026D01*
X87726Y3890D01*
X87727Y3870D01*
X87724Y3850D01*
X87737Y3711D01*
X87746Y3573D01*
X87752Y3554D01*
X87754Y3534D01*
X87801Y3402D01*
X87844Y3271D01*
X87855Y3253D01*
X87862Y3234D01*
X87940Y3119D01*
X88014Y3002D01*
X88029Y2988D01*
X88040Y2971D01*
X88144Y2879D01*
X88246Y2784D01*
X88263Y2774D01*
X88279Y2761D01*
X88403Y2697D01*
X88524Y2630D01*
X88544Y2625D01*
X88562Y2616D01*
X88698Y2586D01*
X88832Y2551D01*
X88860Y2549D01*
X88872Y2546D01*
X88893Y2547D01*
X88993Y2541D01*
X101507Y2541D01*
X101645Y2558D01*
G37*
G36*
X127109Y103645D02*
X127109Y103645D01*
X127208Y103648D01*
X127267Y103665D01*
X127327Y103673D01*
X127419Y103709D01*
X127514Y103737D01*
X127566Y103767D01*
X127622Y103790D01*
X127702Y103848D01*
X127788Y103898D01*
X127863Y103964D01*
X127880Y103976D01*
X127888Y103986D01*
X127909Y104004D01*
X139602Y115698D01*
X166381Y115698D01*
X166479Y115710D01*
X166578Y115713D01*
X166637Y115730D01*
X166697Y115738D01*
X166789Y115774D01*
X166884Y115802D01*
X166936Y115832D01*
X166992Y115855D01*
X167072Y115913D01*
X167158Y115963D01*
X167233Y116029D01*
X167250Y116041D01*
X167258Y116051D01*
X167279Y116069D01*
X179607Y128398D01*
X193686Y128398D01*
X193784Y128410D01*
X193883Y128413D01*
X193942Y128430D01*
X194002Y128438D01*
X194094Y128474D01*
X194189Y128502D01*
X194241Y128532D01*
X194297Y128555D01*
X194377Y128613D01*
X194463Y128663D01*
X194538Y128729D01*
X194555Y128741D01*
X194563Y128751D01*
X194584Y128769D01*
X203102Y137288D01*
X206218Y137288D01*
X206316Y137300D01*
X206415Y137303D01*
X206473Y137320D01*
X206534Y137328D01*
X206626Y137364D01*
X206721Y137392D01*
X206773Y137422D01*
X206829Y137445D01*
X206909Y137503D01*
X206995Y137553D01*
X207070Y137619D01*
X207087Y137631D01*
X207094Y137641D01*
X207116Y137659D01*
X209051Y139594D01*
X209111Y139673D01*
X209179Y139745D01*
X209208Y139798D01*
X209245Y139846D01*
X209285Y139937D01*
X209333Y140023D01*
X209348Y140082D01*
X209372Y140138D01*
X209387Y140236D01*
X209412Y140331D01*
X209418Y140431D01*
X209422Y140452D01*
X209420Y140464D01*
X209422Y140492D01*
X209422Y151863D01*
X211729Y154169D01*
X217306Y159746D01*
X219612Y162053D01*
X222758Y162053D01*
X222808Y162059D01*
X222857Y162057D01*
X222965Y162079D01*
X223074Y162093D01*
X223120Y162111D01*
X223169Y162121D01*
X223267Y162169D01*
X223370Y162210D01*
X223410Y162239D01*
X223454Y162261D01*
X223538Y162332D01*
X223627Y162396D01*
X223659Y162435D01*
X223696Y162467D01*
X223760Y162557D01*
X223830Y162641D01*
X223851Y162686D01*
X223879Y162727D01*
X223918Y162830D01*
X223965Y162929D01*
X223975Y162978D01*
X223992Y163024D01*
X224004Y163134D01*
X224025Y163241D01*
X224022Y163291D01*
X224027Y163340D01*
X224012Y163449D01*
X224005Y163559D01*
X223990Y163606D01*
X223983Y163655D01*
X223931Y163808D01*
X223305Y165318D01*
X223305Y167930D01*
X224305Y170343D01*
X224959Y170997D01*
X225032Y171091D01*
X225111Y171180D01*
X225129Y171216D01*
X225154Y171248D01*
X225201Y171357D01*
X225255Y171464D01*
X225264Y171503D01*
X225280Y171540D01*
X225299Y171658D01*
X225325Y171774D01*
X225324Y171814D01*
X225330Y171854D01*
X225319Y171973D01*
X225315Y172092D01*
X225304Y172131D01*
X225300Y172171D01*
X225260Y172283D01*
X225227Y172397D01*
X225206Y172432D01*
X225193Y172470D01*
X225126Y172568D01*
X225065Y172671D01*
X225026Y172716D01*
X225014Y172733D01*
X224999Y172747D01*
X224959Y172792D01*
X224305Y173446D01*
X223305Y175859D01*
X223305Y177456D01*
X223293Y177554D01*
X223290Y177653D01*
X223273Y177711D01*
X223265Y177771D01*
X223229Y177863D01*
X223201Y177958D01*
X223171Y178011D01*
X223148Y178067D01*
X223090Y178147D01*
X223040Y178232D01*
X222974Y178308D01*
X222962Y178324D01*
X222952Y178332D01*
X222934Y178353D01*
X222843Y178444D01*
X222765Y178504D01*
X222693Y178572D01*
X222640Y178601D01*
X222592Y178638D01*
X222501Y178678D01*
X222414Y178726D01*
X222356Y178741D01*
X222300Y178765D01*
X222202Y178780D01*
X222106Y178805D01*
X222006Y178811D01*
X221986Y178815D01*
X221974Y178813D01*
X221946Y178815D01*
X191156Y178815D01*
X191107Y178809D01*
X191058Y178811D01*
X190950Y178789D01*
X190841Y178775D01*
X190795Y178757D01*
X190746Y178747D01*
X190648Y178699D01*
X190545Y178658D01*
X190505Y178629D01*
X190460Y178607D01*
X190377Y178536D01*
X190288Y178472D01*
X190256Y178433D01*
X190218Y178401D01*
X190155Y178311D01*
X190085Y178227D01*
X190064Y178182D01*
X190035Y178141D01*
X189996Y178038D01*
X189950Y177939D01*
X189940Y177890D01*
X189923Y177844D01*
X189910Y177734D01*
X189890Y177627D01*
X189893Y177577D01*
X189887Y177528D01*
X189903Y177419D01*
X189910Y177309D01*
X189925Y177262D01*
X189932Y177213D01*
X189984Y177060D01*
X190715Y175296D01*
X190715Y172684D01*
X189715Y170271D01*
X187869Y168425D01*
X185456Y167425D01*
X182844Y167425D01*
X180431Y168425D01*
X178585Y170271D01*
X177585Y172684D01*
X177585Y175296D01*
X178086Y176504D01*
X178104Y176571D01*
X178132Y176635D01*
X178146Y176724D01*
X178170Y176811D01*
X178171Y176880D01*
X178182Y176949D01*
X178173Y177039D01*
X178175Y177129D01*
X178158Y177197D01*
X178152Y177266D01*
X178121Y177351D01*
X178101Y177438D01*
X178068Y177500D01*
X178044Y177565D01*
X177994Y177640D01*
X177952Y177719D01*
X177905Y177771D01*
X177866Y177828D01*
X177798Y177888D01*
X177738Y177954D01*
X177680Y177993D01*
X177627Y178039D01*
X177547Y178080D01*
X177472Y178129D01*
X177406Y178152D01*
X177344Y178184D01*
X177256Y178203D01*
X177171Y178232D01*
X177102Y178238D01*
X177034Y178253D01*
X176944Y178250D01*
X176854Y178258D01*
X176786Y178246D01*
X176716Y178244D01*
X176630Y178219D01*
X176541Y178203D01*
X176477Y178175D01*
X176410Y178155D01*
X176333Y178110D01*
X176251Y178073D01*
X176197Y178029D01*
X176136Y177994D01*
X176016Y177887D01*
X163186Y165058D01*
X163126Y164980D01*
X163058Y164908D01*
X163029Y164855D01*
X162992Y164807D01*
X162952Y164716D01*
X162904Y164629D01*
X162889Y164571D01*
X162865Y164515D01*
X162850Y164417D01*
X162825Y164321D01*
X162819Y164221D01*
X162815Y164201D01*
X162817Y164189D01*
X162815Y164161D01*
X162815Y156875D01*
X162827Y156777D01*
X162830Y156678D01*
X162847Y156620D01*
X162855Y156559D01*
X162891Y156467D01*
X162919Y156372D01*
X162949Y156320D01*
X162972Y156264D01*
X163030Y156184D01*
X163080Y156098D01*
X163146Y156023D01*
X163158Y156006D01*
X163168Y155999D01*
X163186Y155977D01*
X164315Y154849D01*
X165315Y152436D01*
X165315Y149824D01*
X164315Y147411D01*
X162469Y145565D01*
X161002Y144957D01*
X160994Y144953D01*
X160985Y144950D01*
X160856Y144874D01*
X160726Y144800D01*
X160719Y144793D01*
X160711Y144789D01*
X160591Y144682D01*
X160062Y144153D01*
X158741Y142833D01*
X158030Y142121D01*
X157945Y142012D01*
X157856Y141905D01*
X157847Y141886D01*
X157835Y141870D01*
X157780Y141742D01*
X157720Y141617D01*
X157717Y141597D01*
X157709Y141578D01*
X157687Y141440D01*
X157661Y141304D01*
X157662Y141284D01*
X157659Y141264D01*
X157672Y141125D01*
X157680Y140987D01*
X157687Y140968D01*
X157689Y140948D01*
X157736Y140817D01*
X157778Y140685D01*
X157789Y140667D01*
X157796Y140648D01*
X157874Y140534D01*
X157949Y140416D01*
X157963Y140402D01*
X157975Y140385D01*
X158079Y140293D01*
X158180Y140198D01*
X158198Y140188D01*
X158213Y140175D01*
X158337Y140112D01*
X158459Y140044D01*
X158478Y140039D01*
X158496Y140030D01*
X158632Y140000D01*
X158767Y139965D01*
X158795Y139963D01*
X158807Y139960D01*
X158827Y139961D01*
X158927Y139955D01*
X165719Y139955D01*
X165837Y139970D01*
X165956Y139977D01*
X165994Y139990D01*
X166035Y139995D01*
X166145Y140038D01*
X166258Y140075D01*
X166293Y140097D01*
X166330Y140112D01*
X166426Y140181D01*
X166527Y140245D01*
X166555Y140275D01*
X166588Y140298D01*
X166664Y140390D01*
X166745Y140477D01*
X166765Y140512D01*
X166790Y140543D01*
X166841Y140651D01*
X166899Y140755D01*
X166909Y140795D01*
X166926Y140831D01*
X166935Y140876D01*
X167988Y143419D01*
X169834Y145265D01*
X172247Y146265D01*
X174859Y146265D01*
X177272Y145265D01*
X179118Y143419D01*
X180118Y141006D01*
X180118Y138394D01*
X179118Y135981D01*
X177272Y134135D01*
X174859Y133135D01*
X173262Y133135D01*
X173164Y133123D01*
X173065Y133120D01*
X173007Y133103D01*
X172947Y133095D01*
X172855Y133059D01*
X172760Y133031D01*
X172708Y133001D01*
X172651Y132978D01*
X172571Y132920D01*
X172486Y132870D01*
X172410Y132804D01*
X172394Y132792D01*
X172386Y132782D01*
X172365Y132764D01*
X171615Y132013D01*
X170932Y132013D01*
X170834Y132001D01*
X170735Y131998D01*
X170676Y131981D01*
X170616Y131973D01*
X170524Y131937D01*
X170429Y131909D01*
X170377Y131879D01*
X170321Y131856D01*
X170278Y131825D01*
X154609Y131825D01*
X154511Y131813D01*
X154412Y131810D01*
X154354Y131793D01*
X154294Y131785D01*
X154202Y131749D01*
X154107Y131721D01*
X154055Y131691D01*
X153998Y131668D01*
X153918Y131610D01*
X153833Y131560D01*
X153757Y131494D01*
X153741Y131482D01*
X153733Y131472D01*
X153712Y131454D01*
X150446Y128188D01*
X150386Y128110D01*
X150318Y128038D01*
X150289Y127985D01*
X150252Y127937D01*
X150212Y127846D01*
X150164Y127759D01*
X150149Y127701D01*
X150125Y127645D01*
X150110Y127547D01*
X150085Y127451D01*
X150079Y127351D01*
X150075Y127331D01*
X150077Y127319D01*
X150075Y127291D01*
X150075Y125694D01*
X149075Y123281D01*
X147229Y121435D01*
X144816Y120435D01*
X142204Y120435D01*
X139791Y121435D01*
X137945Y123281D01*
X136945Y125694D01*
X136945Y127291D01*
X136933Y127389D01*
X136930Y127488D01*
X136913Y127546D01*
X136905Y127606D01*
X136869Y127698D01*
X136841Y127793D01*
X136811Y127845D01*
X136788Y127902D01*
X136730Y127982D01*
X136680Y128067D01*
X136614Y128143D01*
X136602Y128159D01*
X136592Y128167D01*
X136574Y128188D01*
X133649Y131113D01*
X133571Y131173D01*
X133499Y131241D01*
X133446Y131270D01*
X133398Y131307D01*
X133307Y131347D01*
X133220Y131395D01*
X133162Y131410D01*
X133106Y131434D01*
X133008Y131449D01*
X132912Y131474D01*
X132812Y131480D01*
X132792Y131484D01*
X132780Y131482D01*
X132752Y131484D01*
X126395Y131484D01*
X126297Y131472D01*
X126198Y131469D01*
X126140Y131452D01*
X126079Y131444D01*
X125987Y131408D01*
X125892Y131380D01*
X125840Y131350D01*
X125784Y131327D01*
X125704Y131269D01*
X125618Y131219D01*
X125543Y131153D01*
X125526Y131141D01*
X125519Y131131D01*
X125497Y131113D01*
X124369Y129984D01*
X121956Y128984D01*
X119344Y128984D01*
X116931Y129984D01*
X115085Y131830D01*
X114085Y134243D01*
X114085Y136855D01*
X114694Y138325D01*
X114707Y138373D01*
X114729Y138418D01*
X114749Y138526D01*
X114778Y138632D01*
X114779Y138682D01*
X114788Y138731D01*
X114782Y138840D01*
X114783Y138950D01*
X114772Y138998D01*
X114769Y139048D01*
X114735Y139152D01*
X114709Y139259D01*
X114686Y139303D01*
X114671Y139350D01*
X114612Y139443D01*
X114560Y139540D01*
X114527Y139577D01*
X114500Y139619D01*
X114420Y139694D01*
X114347Y139776D01*
X114305Y139803D01*
X114269Y139837D01*
X114173Y139890D01*
X114081Y139950D01*
X114034Y139967D01*
X113990Y139991D01*
X113884Y140018D01*
X113780Y140054D01*
X113730Y140058D01*
X113682Y140070D01*
X113522Y140080D01*
X93014Y140080D01*
X92916Y140068D01*
X92817Y140065D01*
X92759Y140048D01*
X92699Y140040D01*
X92607Y140004D01*
X92512Y139976D01*
X92459Y139946D01*
X92403Y139923D01*
X92323Y139865D01*
X92238Y139815D01*
X92162Y139749D01*
X92146Y139737D01*
X92138Y139727D01*
X92117Y139709D01*
X73310Y120902D01*
X73250Y120824D01*
X73182Y120752D01*
X73153Y120699D01*
X73116Y120651D01*
X73076Y120560D01*
X73028Y120473D01*
X73013Y120415D01*
X72989Y120359D01*
X72974Y120261D01*
X72949Y120165D01*
X72943Y120065D01*
X72939Y120045D01*
X72941Y120033D01*
X72939Y120005D01*
X72939Y113808D01*
X72945Y113759D01*
X72943Y113709D01*
X72965Y113602D01*
X72979Y113493D01*
X72997Y113446D01*
X73007Y113398D01*
X73055Y113299D01*
X73096Y113197D01*
X73125Y113157D01*
X73147Y113112D01*
X73218Y113029D01*
X73282Y112940D01*
X73321Y112908D01*
X73353Y112870D01*
X73443Y112807D01*
X73527Y112737D01*
X73572Y112716D01*
X73613Y112687D01*
X73716Y112648D01*
X73815Y112601D01*
X73864Y112592D01*
X73910Y112574D01*
X74020Y112562D01*
X74127Y112542D01*
X74177Y112545D01*
X74226Y112539D01*
X74335Y112555D01*
X74445Y112561D01*
X74492Y112577D01*
X74541Y112584D01*
X74694Y112636D01*
X76164Y113245D01*
X78776Y113245D01*
X81189Y112245D01*
X83035Y110399D01*
X83189Y110027D01*
X83214Y109984D01*
X83231Y109937D01*
X83292Y109846D01*
X83347Y109751D01*
X83381Y109715D01*
X83409Y109674D01*
X83492Y109601D01*
X83568Y109522D01*
X83610Y109496D01*
X83648Y109463D01*
X83746Y109413D01*
X83839Y109356D01*
X83887Y109341D01*
X83931Y109319D01*
X84038Y109295D01*
X84143Y109262D01*
X84193Y109260D01*
X84241Y109249D01*
X84351Y109253D01*
X84461Y109247D01*
X84509Y109257D01*
X84559Y109259D01*
X84665Y109289D01*
X84772Y109312D01*
X84817Y109333D01*
X84865Y109347D01*
X84959Y109403D01*
X85058Y109451D01*
X85096Y109483D01*
X85139Y109509D01*
X85259Y109615D01*
X86897Y111253D01*
X113128Y111253D01*
X115434Y108947D01*
X115434Y108946D01*
X120376Y104004D01*
X120455Y103944D01*
X120527Y103876D01*
X120580Y103847D01*
X120628Y103810D01*
X120719Y103770D01*
X120805Y103722D01*
X120864Y103707D01*
X120919Y103683D01*
X121017Y103668D01*
X121113Y103643D01*
X121213Y103637D01*
X121233Y103633D01*
X121246Y103635D01*
X121274Y103633D01*
X127011Y103633D01*
X127109Y103645D01*
G37*
G36*
X339627Y103856D02*
X339627Y103856D01*
X339737Y103854D01*
X339785Y103866D01*
X339835Y103869D01*
X339939Y103903D01*
X340046Y103928D01*
X340090Y103952D01*
X340137Y103967D01*
X340230Y104026D01*
X340327Y104077D01*
X340364Y104110D01*
X340406Y104137D01*
X340481Y104217D01*
X340563Y104291D01*
X340590Y104333D01*
X340624Y104369D01*
X340677Y104465D01*
X340737Y104557D01*
X340754Y104604D01*
X340778Y104647D01*
X340805Y104754D01*
X340841Y104858D01*
X340845Y104907D01*
X340857Y104955D01*
X340867Y105116D01*
X340867Y167854D01*
X348187Y175173D01*
X348217Y175213D01*
X348254Y175246D01*
X348314Y175338D01*
X348382Y175425D01*
X348402Y175470D01*
X348429Y175512D01*
X348464Y175616D01*
X348508Y175717D01*
X348516Y175766D01*
X348532Y175813D01*
X348541Y175922D01*
X348558Y176031D01*
X348553Y176080D01*
X348557Y176130D01*
X348538Y176238D01*
X348528Y176347D01*
X348511Y176394D01*
X348503Y176443D01*
X348458Y176543D01*
X348421Y176647D01*
X348393Y176688D01*
X348372Y176733D01*
X348304Y176819D01*
X348242Y176910D01*
X348205Y176943D01*
X348174Y176981D01*
X348086Y177047D01*
X348004Y177120D01*
X347959Y177143D01*
X347920Y177173D01*
X347775Y177244D01*
X345150Y178331D01*
X343304Y180177D01*
X342304Y182590D01*
X342304Y184629D01*
X342292Y184727D01*
X342289Y184826D01*
X342272Y184885D01*
X342264Y184945D01*
X342228Y185037D01*
X342200Y185132D01*
X342170Y185184D01*
X342147Y185240D01*
X342089Y185320D01*
X342039Y185406D01*
X341973Y185481D01*
X341961Y185498D01*
X341951Y185506D01*
X341933Y185527D01*
X334919Y192541D01*
X334840Y192601D01*
X334768Y192669D01*
X334715Y192698D01*
X334667Y192735D01*
X334576Y192775D01*
X334490Y192823D01*
X334431Y192838D01*
X334376Y192862D01*
X334278Y192877D01*
X334182Y192902D01*
X334082Y192908D01*
X334061Y192912D01*
X334049Y192910D01*
X334021Y192912D01*
X327268Y192912D01*
X327130Y192895D01*
X326991Y192882D01*
X326972Y192875D01*
X326952Y192872D01*
X326823Y192821D01*
X326692Y192774D01*
X326675Y192763D01*
X326657Y192755D01*
X326544Y192674D01*
X326429Y192596D01*
X326416Y192580D01*
X326399Y192569D01*
X326310Y192461D01*
X326218Y192357D01*
X326209Y192339D01*
X326196Y192324D01*
X326137Y192198D01*
X326074Y192074D01*
X326069Y192054D01*
X326061Y192036D01*
X326035Y191899D01*
X326004Y191764D01*
X326005Y191743D01*
X326001Y191724D01*
X326010Y191585D01*
X326014Y191446D01*
X326020Y191426D01*
X326021Y191406D01*
X326064Y191274D01*
X326102Y191140D01*
X326113Y191123D01*
X326119Y191104D01*
X326193Y190986D01*
X326264Y190866D01*
X326282Y190845D01*
X326289Y190835D01*
X326304Y190821D01*
X326370Y190746D01*
X327738Y189377D01*
X330093Y187022D01*
X330172Y186962D01*
X330244Y186894D01*
X330297Y186865D01*
X330345Y186828D01*
X330436Y186788D01*
X330522Y186740D01*
X330581Y186725D01*
X330636Y186701D01*
X330734Y186686D01*
X330830Y186661D01*
X330930Y186655D01*
X330951Y186651D01*
X330963Y186653D01*
X330991Y186651D01*
X333665Y186651D01*
X336078Y185651D01*
X337924Y183805D01*
X338924Y181392D01*
X338924Y178780D01*
X337924Y176367D01*
X336078Y174521D01*
X333665Y173521D01*
X331053Y173521D01*
X328640Y174521D01*
X326794Y176367D01*
X325794Y178780D01*
X325794Y181454D01*
X325782Y181552D01*
X325779Y181651D01*
X325762Y181710D01*
X325754Y181770D01*
X325718Y181862D01*
X325690Y181957D01*
X325660Y182009D01*
X325637Y182065D01*
X325579Y182145D01*
X325529Y182231D01*
X325463Y182306D01*
X325451Y182323D01*
X325441Y182331D01*
X325423Y182352D01*
X323068Y184707D01*
X322989Y184767D01*
X322917Y184835D01*
X322864Y184864D01*
X322816Y184901D01*
X322725Y184941D01*
X322639Y184989D01*
X322580Y185004D01*
X322525Y185028D01*
X322427Y185043D01*
X322331Y185068D01*
X322231Y185074D01*
X322210Y185078D01*
X322198Y185076D01*
X322170Y185078D01*
X314157Y185078D01*
X306060Y193176D01*
X305981Y193236D01*
X305909Y193304D01*
X305856Y193333D01*
X305808Y193370D01*
X305717Y193410D01*
X305631Y193458D01*
X305572Y193473D01*
X305517Y193497D01*
X305419Y193512D01*
X305323Y193537D01*
X305223Y193543D01*
X305202Y193547D01*
X305190Y193545D01*
X305162Y193547D01*
X298607Y193547D01*
X298509Y193535D01*
X298410Y193532D01*
X298351Y193515D01*
X298291Y193507D01*
X298199Y193471D01*
X298104Y193443D01*
X298052Y193413D01*
X297996Y193390D01*
X297916Y193332D01*
X297830Y193282D01*
X297755Y193216D01*
X297738Y193204D01*
X297731Y193194D01*
X297709Y193176D01*
X295819Y191285D01*
X294100Y190573D01*
X294057Y190548D01*
X294010Y190531D01*
X293919Y190470D01*
X293824Y190415D01*
X293788Y190381D01*
X293747Y190353D01*
X293674Y190270D01*
X293595Y190194D01*
X293569Y190152D01*
X293536Y190114D01*
X293486Y190016D01*
X293429Y189923D01*
X293414Y189875D01*
X293392Y189831D01*
X293368Y189724D01*
X293335Y189619D01*
X293333Y189569D01*
X293322Y189521D01*
X293325Y189411D01*
X293320Y189301D01*
X293330Y189253D01*
X293332Y189203D01*
X293362Y189097D01*
X293385Y188990D01*
X293406Y188945D01*
X293420Y188897D01*
X293476Y188803D01*
X293524Y188704D01*
X293557Y188666D01*
X293582Y188623D01*
X293688Y188503D01*
X298176Y184014D01*
X300483Y181708D01*
X300483Y175884D01*
X300495Y175786D01*
X300498Y175687D01*
X300515Y175628D01*
X300523Y175568D01*
X300559Y175476D01*
X300587Y175381D01*
X300617Y175329D01*
X300640Y175273D01*
X300698Y175193D01*
X300748Y175107D01*
X300814Y175032D01*
X300826Y175015D01*
X300836Y175007D01*
X300854Y174986D01*
X332233Y143608D01*
X332233Y133974D01*
X332245Y133876D01*
X332248Y133777D01*
X332265Y133718D01*
X332273Y133658D01*
X332309Y133566D01*
X332337Y133471D01*
X332367Y133419D01*
X332390Y133363D01*
X332448Y133283D01*
X332498Y133197D01*
X332564Y133122D01*
X332576Y133105D01*
X332586Y133097D01*
X332604Y133076D01*
X338162Y127519D01*
X338162Y105185D01*
X338165Y105156D01*
X338163Y105126D01*
X338185Y104998D01*
X338202Y104870D01*
X338212Y104842D01*
X338217Y104813D01*
X338271Y104694D01*
X338319Y104574D01*
X338336Y104550D01*
X338348Y104523D01*
X338429Y104422D01*
X338505Y104316D01*
X338528Y104298D01*
X338547Y104275D01*
X338650Y104197D01*
X338750Y104114D01*
X338777Y104101D01*
X338801Y104083D01*
X338945Y104012D01*
X339112Y103943D01*
X339160Y103930D01*
X339205Y103909D01*
X339313Y103888D01*
X339419Y103859D01*
X339469Y103859D01*
X339518Y103849D01*
X339627Y103856D01*
G37*
G36*
X351819Y189906D02*
X351819Y189906D01*
X351929Y189904D01*
X351977Y189915D01*
X352027Y189919D01*
X352131Y189952D01*
X352238Y189978D01*
X352282Y190001D01*
X352329Y190017D01*
X352422Y190075D01*
X352519Y190127D01*
X352556Y190160D01*
X352598Y190187D01*
X352673Y190267D01*
X352755Y190341D01*
X352782Y190382D01*
X352816Y190418D01*
X352869Y190515D01*
X352929Y190606D01*
X352946Y190653D01*
X352970Y190697D01*
X352997Y190803D01*
X353033Y190907D01*
X353037Y190957D01*
X353049Y191005D01*
X353059Y191166D01*
X353059Y212097D01*
X353058Y212106D01*
X353059Y212115D01*
X353038Y212264D01*
X353019Y212412D01*
X353016Y212421D01*
X353015Y212430D01*
X352963Y212583D01*
X352377Y213996D01*
X352377Y217804D01*
X352963Y219217D01*
X352965Y219226D01*
X352970Y219234D01*
X353007Y219379D01*
X353047Y219524D01*
X353047Y219533D01*
X353049Y219542D01*
X353059Y219703D01*
X353059Y224790D01*
X353044Y224908D01*
X353037Y225027D01*
X353024Y225065D01*
X353019Y225106D01*
X352976Y225216D01*
X352939Y225329D01*
X352917Y225364D01*
X352902Y225401D01*
X352833Y225497D01*
X352769Y225598D01*
X352739Y225626D01*
X352716Y225659D01*
X352624Y225735D01*
X352537Y225816D01*
X352502Y225836D01*
X352471Y225861D01*
X352363Y225912D01*
X352259Y225970D01*
X352219Y225980D01*
X352183Y225997D01*
X352066Y226019D01*
X351951Y226049D01*
X351891Y226053D01*
X351871Y226057D01*
X351850Y226055D01*
X351790Y226059D01*
X342993Y226059D01*
X342855Y226042D01*
X342716Y226029D01*
X342697Y226022D01*
X342677Y226019D01*
X342548Y225968D01*
X342417Y225921D01*
X342400Y225910D01*
X342382Y225902D01*
X342269Y225821D01*
X342154Y225743D01*
X342141Y225727D01*
X342124Y225716D01*
X342035Y225608D01*
X341944Y225504D01*
X341934Y225486D01*
X341921Y225471D01*
X341862Y225345D01*
X341799Y225221D01*
X341795Y225201D01*
X341786Y225183D01*
X341760Y225047D01*
X341729Y224911D01*
X341730Y224890D01*
X341726Y224871D01*
X341735Y224732D01*
X341739Y224593D01*
X341745Y224573D01*
X341746Y224553D01*
X341789Y224421D01*
X341827Y224287D01*
X341838Y224270D01*
X341844Y224251D01*
X341919Y224133D01*
X341989Y224013D01*
X342007Y223992D01*
X342014Y223982D01*
X342029Y223968D01*
X342095Y223893D01*
X344665Y221322D01*
X346123Y217804D01*
X346123Y213996D01*
X344665Y210478D01*
X341972Y207785D01*
X338454Y206327D01*
X334646Y206327D01*
X331128Y207785D01*
X328435Y210478D01*
X326977Y213996D01*
X326977Y217804D01*
X328435Y221322D01*
X331005Y223893D01*
X331090Y224002D01*
X331179Y224109D01*
X331187Y224128D01*
X331200Y224144D01*
X331255Y224272D01*
X331314Y224397D01*
X331318Y224417D01*
X331326Y224436D01*
X331348Y224574D01*
X331374Y224710D01*
X331373Y224730D01*
X331376Y224750D01*
X331363Y224889D01*
X331354Y225027D01*
X331348Y225046D01*
X331346Y225066D01*
X331299Y225198D01*
X331256Y225329D01*
X331245Y225347D01*
X331238Y225366D01*
X331160Y225481D01*
X331086Y225598D01*
X331071Y225612D01*
X331060Y225629D01*
X330956Y225721D01*
X330854Y225816D01*
X330837Y225826D01*
X330821Y225839D01*
X330697Y225903D01*
X330576Y225970D01*
X330556Y225975D01*
X330538Y225984D01*
X330402Y226014D01*
X330268Y226049D01*
X330240Y226051D01*
X330228Y226054D01*
X330207Y226053D01*
X330107Y226059D01*
X317593Y226059D01*
X317455Y226042D01*
X317316Y226029D01*
X317297Y226022D01*
X317277Y226019D01*
X317148Y225968D01*
X317017Y225921D01*
X317000Y225910D01*
X316982Y225902D01*
X316869Y225821D01*
X316754Y225743D01*
X316741Y225727D01*
X316724Y225716D01*
X316635Y225608D01*
X316544Y225504D01*
X316534Y225486D01*
X316521Y225471D01*
X316462Y225345D01*
X316399Y225221D01*
X316395Y225201D01*
X316386Y225183D01*
X316360Y225047D01*
X316329Y224911D01*
X316330Y224890D01*
X316326Y224871D01*
X316335Y224732D01*
X316339Y224593D01*
X316345Y224573D01*
X316346Y224553D01*
X316389Y224421D01*
X316427Y224287D01*
X316438Y224270D01*
X316444Y224251D01*
X316519Y224133D01*
X316589Y224013D01*
X316607Y223992D01*
X316614Y223982D01*
X316629Y223968D01*
X316695Y223893D01*
X319265Y221322D01*
X320723Y217804D01*
X320723Y213996D01*
X319265Y210478D01*
X316572Y207785D01*
X313054Y206327D01*
X309246Y206327D01*
X305728Y207785D01*
X303035Y210478D01*
X301577Y213996D01*
X301577Y217804D01*
X303035Y221322D01*
X305605Y223893D01*
X305690Y224002D01*
X305779Y224109D01*
X305787Y224128D01*
X305800Y224144D01*
X305855Y224272D01*
X305914Y224397D01*
X305918Y224417D01*
X305926Y224436D01*
X305948Y224574D01*
X305974Y224710D01*
X305973Y224730D01*
X305976Y224750D01*
X305963Y224889D01*
X305954Y225027D01*
X305948Y225046D01*
X305946Y225066D01*
X305899Y225198D01*
X305856Y225329D01*
X305845Y225347D01*
X305838Y225366D01*
X305760Y225481D01*
X305686Y225598D01*
X305671Y225612D01*
X305660Y225629D01*
X305556Y225721D01*
X305454Y225816D01*
X305437Y225826D01*
X305421Y225839D01*
X305297Y225903D01*
X305176Y225970D01*
X305156Y225975D01*
X305138Y225984D01*
X305002Y226014D01*
X304868Y226049D01*
X304840Y226051D01*
X304828Y226054D01*
X304807Y226053D01*
X304707Y226059D01*
X292193Y226059D01*
X292055Y226042D01*
X291916Y226029D01*
X291897Y226022D01*
X291877Y226019D01*
X291748Y225968D01*
X291617Y225921D01*
X291600Y225910D01*
X291582Y225902D01*
X291469Y225821D01*
X291354Y225743D01*
X291341Y225727D01*
X291324Y225716D01*
X291235Y225608D01*
X291144Y225504D01*
X291134Y225486D01*
X291121Y225471D01*
X291062Y225345D01*
X290999Y225221D01*
X290995Y225201D01*
X290986Y225183D01*
X290960Y225047D01*
X290929Y224911D01*
X290930Y224890D01*
X290926Y224871D01*
X290935Y224732D01*
X290939Y224593D01*
X290945Y224573D01*
X290946Y224553D01*
X290989Y224421D01*
X291027Y224287D01*
X291038Y224270D01*
X291044Y224251D01*
X291119Y224133D01*
X291189Y224013D01*
X291207Y223992D01*
X291214Y223982D01*
X291229Y223968D01*
X291295Y223893D01*
X293865Y221322D01*
X295323Y217804D01*
X295323Y213996D01*
X293865Y210478D01*
X291172Y207785D01*
X287654Y206327D01*
X283914Y206327D01*
X283816Y206315D01*
X283717Y206312D01*
X283658Y206295D01*
X283598Y206287D01*
X283506Y206251D01*
X283411Y206223D01*
X283359Y206193D01*
X283303Y206170D01*
X283223Y206112D01*
X283137Y206062D01*
X283062Y205996D01*
X283045Y205984D01*
X283037Y205974D01*
X283016Y205956D01*
X281804Y204744D01*
X281744Y204665D01*
X281676Y204593D01*
X281647Y204540D01*
X281610Y204492D01*
X281570Y204401D01*
X281522Y204315D01*
X281507Y204256D01*
X281483Y204201D01*
X281468Y204103D01*
X281443Y204007D01*
X281437Y203907D01*
X281433Y203886D01*
X281435Y203874D01*
X281433Y203846D01*
X281433Y201284D01*
X281445Y201186D01*
X281448Y201087D01*
X281465Y201028D01*
X281473Y200968D01*
X281509Y200876D01*
X281537Y200781D01*
X281567Y200729D01*
X281590Y200673D01*
X281648Y200593D01*
X281698Y200507D01*
X281764Y200432D01*
X281776Y200415D01*
X281786Y200407D01*
X281804Y200386D01*
X283753Y198438D01*
X283792Y198408D01*
X283825Y198371D01*
X283917Y198311D01*
X284004Y198243D01*
X284050Y198223D01*
X284091Y198196D01*
X284195Y198160D01*
X284296Y198117D01*
X284345Y198109D01*
X284392Y198093D01*
X284501Y198084D01*
X284610Y198067D01*
X284659Y198072D01*
X284709Y198068D01*
X284817Y198086D01*
X284926Y198097D01*
X284973Y198114D01*
X285022Y198122D01*
X285122Y198167D01*
X285226Y198204D01*
X285267Y198232D01*
X285312Y198253D01*
X285398Y198321D01*
X285489Y198383D01*
X285522Y198420D01*
X285561Y198451D01*
X285627Y198539D01*
X285699Y198621D01*
X285722Y198666D01*
X285752Y198705D01*
X285823Y198850D01*
X286535Y200569D01*
X288381Y202415D01*
X290794Y203415D01*
X293406Y203415D01*
X295819Y202415D01*
X297709Y200524D01*
X297788Y200464D01*
X297860Y200396D01*
X297913Y200367D01*
X297961Y200330D01*
X298052Y200290D01*
X298138Y200242D01*
X298197Y200227D01*
X298253Y200203D01*
X298351Y200188D01*
X298446Y200163D01*
X298546Y200157D01*
X298567Y200153D01*
X298579Y200155D01*
X298607Y200153D01*
X308424Y200153D01*
X310525Y198051D01*
X310565Y198021D01*
X310598Y197984D01*
X310690Y197924D01*
X310777Y197856D01*
X310822Y197837D01*
X310864Y197809D01*
X310968Y197774D01*
X311069Y197730D01*
X311118Y197722D01*
X311165Y197706D01*
X311274Y197697D01*
X311383Y197680D01*
X311432Y197685D01*
X311482Y197681D01*
X311590Y197700D01*
X311699Y197710D01*
X311746Y197727D01*
X311795Y197735D01*
X311895Y197780D01*
X311999Y197818D01*
X312040Y197845D01*
X312085Y197866D01*
X312171Y197935D01*
X312262Y197996D01*
X312295Y198033D01*
X312333Y198064D01*
X312399Y198152D01*
X312472Y198235D01*
X312495Y198279D01*
X312525Y198319D01*
X312596Y198463D01*
X313205Y199934D01*
X315051Y201780D01*
X317464Y202780D01*
X320076Y202780D01*
X322489Y201780D01*
X324379Y199889D01*
X324458Y199829D01*
X324530Y199761D01*
X324583Y199732D01*
X324631Y199695D01*
X324722Y199655D01*
X324808Y199607D01*
X324867Y199592D01*
X324923Y199568D01*
X325021Y199553D01*
X325116Y199528D01*
X325216Y199522D01*
X325237Y199518D01*
X325249Y199520D01*
X325277Y199518D01*
X337283Y199518D01*
X339589Y197211D01*
X346099Y190702D01*
X346122Y190684D01*
X346141Y190662D01*
X346247Y190587D01*
X346350Y190507D01*
X346377Y190495D01*
X346401Y190478D01*
X346523Y190432D01*
X346642Y190381D01*
X346671Y190376D01*
X346699Y190366D01*
X346828Y190351D01*
X346956Y190331D01*
X346985Y190334D01*
X347015Y190331D01*
X347143Y190349D01*
X347272Y190361D01*
X347300Y190371D01*
X347330Y190375D01*
X347482Y190427D01*
X347563Y190461D01*
X350175Y190461D01*
X351304Y189993D01*
X351352Y189980D01*
X351397Y189959D01*
X351505Y189938D01*
X351611Y189909D01*
X351661Y189908D01*
X351710Y189899D01*
X351819Y189906D01*
G37*
G36*
X351889Y20450D02*
X351889Y20450D01*
X352027Y20459D01*
X352046Y20465D01*
X352066Y20467D01*
X352198Y20514D01*
X352329Y20557D01*
X352347Y20568D01*
X352366Y20575D01*
X352481Y20653D01*
X352598Y20727D01*
X352612Y20742D01*
X352629Y20753D01*
X352721Y20857D01*
X352816Y20959D01*
X352826Y20976D01*
X352839Y20992D01*
X352903Y21115D01*
X352970Y21237D01*
X352975Y21257D01*
X352984Y21275D01*
X353014Y21411D01*
X353049Y21545D01*
X353051Y21573D01*
X353054Y21585D01*
X353053Y21606D01*
X353059Y21706D01*
X353059Y32269D01*
X353042Y32407D01*
X353029Y32546D01*
X353022Y32565D01*
X353019Y32585D01*
X352969Y32713D01*
X352921Y32845D01*
X352910Y32862D01*
X352902Y32880D01*
X352821Y32993D01*
X352743Y33108D01*
X352727Y33121D01*
X352716Y33138D01*
X352608Y33227D01*
X352504Y33318D01*
X352486Y33328D01*
X352471Y33341D01*
X352345Y33400D01*
X352221Y33463D01*
X352201Y33468D01*
X352183Y33476D01*
X352047Y33502D01*
X351911Y33533D01*
X351890Y33532D01*
X351871Y33536D01*
X351732Y33527D01*
X351593Y33523D01*
X351573Y33517D01*
X351553Y33516D01*
X351421Y33473D01*
X351287Y33435D01*
X351270Y33424D01*
X351251Y33418D01*
X351133Y33344D01*
X351013Y33273D01*
X350992Y33255D01*
X350982Y33248D01*
X350968Y33233D01*
X350893Y33167D01*
X349983Y32257D01*
X338992Y32257D01*
X335006Y36244D01*
X334927Y36304D01*
X334855Y36372D01*
X334802Y36401D01*
X334754Y36438D01*
X334663Y36478D01*
X334577Y36526D01*
X334518Y36541D01*
X334463Y36565D01*
X334365Y36580D01*
X334269Y36605D01*
X334169Y36611D01*
X334148Y36615D01*
X334136Y36613D01*
X334108Y36615D01*
X332704Y36615D01*
X330291Y37615D01*
X328445Y39461D01*
X327445Y41874D01*
X327445Y44486D01*
X328445Y46899D01*
X330291Y48745D01*
X332704Y49745D01*
X335316Y49745D01*
X337729Y48745D01*
X338572Y47902D01*
X338665Y47830D01*
X338755Y47751D01*
X338791Y47732D01*
X338823Y47707D01*
X338932Y47660D01*
X339038Y47606D01*
X339078Y47597D01*
X339115Y47581D01*
X339232Y47562D01*
X339349Y47536D01*
X339389Y47538D01*
X339429Y47531D01*
X339547Y47542D01*
X339666Y47546D01*
X339705Y47557D01*
X339745Y47561D01*
X339858Y47601D01*
X339972Y47635D01*
X340007Y47655D01*
X340045Y47669D01*
X340143Y47736D01*
X340246Y47796D01*
X340291Y47836D01*
X340308Y47847D01*
X340321Y47863D01*
X340367Y47903D01*
X340496Y48032D01*
X340556Y48110D01*
X340624Y48182D01*
X340653Y48235D01*
X340691Y48283D01*
X340730Y48374D01*
X340778Y48460D01*
X340793Y48519D01*
X340817Y48575D01*
X340832Y48672D01*
X340857Y48768D01*
X340863Y48869D01*
X340867Y48889D01*
X340865Y48901D01*
X340867Y48929D01*
X340867Y91734D01*
X340861Y91784D01*
X340863Y91833D01*
X340841Y91940D01*
X340827Y92050D01*
X340809Y92096D01*
X340799Y92145D01*
X340751Y92243D01*
X340710Y92345D01*
X340681Y92385D01*
X340659Y92430D01*
X340588Y92514D01*
X340524Y92603D01*
X340485Y92634D01*
X340453Y92672D01*
X340363Y92735D01*
X340279Y92806D01*
X340234Y92827D01*
X340193Y92855D01*
X340090Y92894D01*
X339991Y92941D01*
X339942Y92950D01*
X339896Y92968D01*
X339786Y92980D01*
X339679Y93001D01*
X339629Y92998D01*
X339580Y93003D01*
X339471Y92988D01*
X339361Y92981D01*
X339314Y92966D01*
X339265Y92959D01*
X339112Y92907D01*
X336586Y91860D01*
X333974Y91860D01*
X331561Y92860D01*
X329715Y94706D01*
X328715Y97119D01*
X328715Y98846D01*
X328700Y98964D01*
X328693Y99083D01*
X328680Y99121D01*
X328675Y99162D01*
X328632Y99272D01*
X328595Y99385D01*
X328573Y99420D01*
X328558Y99457D01*
X328489Y99553D01*
X328425Y99654D01*
X328395Y99682D01*
X328372Y99715D01*
X328280Y99791D01*
X328193Y99872D01*
X328158Y99892D01*
X328127Y99917D01*
X328019Y99968D01*
X327915Y100026D01*
X327875Y100036D01*
X327839Y100053D01*
X327722Y100075D01*
X327607Y100105D01*
X327547Y100109D01*
X327527Y100113D01*
X327506Y100111D01*
X327446Y100115D01*
X325719Y100115D01*
X325098Y100373D01*
X325050Y100386D01*
X325005Y100407D01*
X324897Y100428D01*
X324791Y100457D01*
X324741Y100457D01*
X324692Y100467D01*
X324583Y100460D01*
X324473Y100462D01*
X324425Y100450D01*
X324375Y100447D01*
X324271Y100413D01*
X324164Y100388D01*
X324120Y100364D01*
X324073Y100349D01*
X323980Y100290D01*
X323883Y100239D01*
X323846Y100205D01*
X323804Y100179D01*
X323728Y100099D01*
X323647Y100025D01*
X323620Y99983D01*
X323586Y99947D01*
X323533Y99851D01*
X323473Y99759D01*
X323456Y99712D01*
X323432Y99669D01*
X323405Y99562D01*
X323369Y99458D01*
X323365Y99409D01*
X323353Y99361D01*
X323343Y99200D01*
X323343Y92064D01*
X323355Y91966D01*
X323358Y91867D01*
X323375Y91808D01*
X323383Y91748D01*
X323419Y91656D01*
X323447Y91561D01*
X323477Y91509D01*
X323500Y91453D01*
X323558Y91373D01*
X323608Y91287D01*
X323674Y91212D01*
X323686Y91195D01*
X323696Y91187D01*
X323714Y91166D01*
X334773Y80108D01*
X334773Y61497D01*
X324984Y51709D01*
X324924Y51630D01*
X324856Y51558D01*
X324827Y51505D01*
X324790Y51457D01*
X324750Y51366D01*
X324702Y51280D01*
X324687Y51221D01*
X324663Y51166D01*
X324648Y51068D01*
X324623Y50972D01*
X324617Y50872D01*
X324613Y50851D01*
X324615Y50839D01*
X324613Y50811D01*
X324613Y37454D01*
X324625Y37356D01*
X324628Y37257D01*
X324645Y37198D01*
X324653Y37138D01*
X324689Y37046D01*
X324717Y36951D01*
X324747Y36899D01*
X324770Y36843D01*
X324828Y36763D01*
X324878Y36677D01*
X324944Y36602D01*
X324956Y36585D01*
X324966Y36577D01*
X324984Y36556D01*
X333101Y28439D01*
X333180Y28379D01*
X333252Y28311D01*
X333305Y28282D01*
X333353Y28245D01*
X333444Y28205D01*
X333530Y28157D01*
X333589Y28142D01*
X333644Y28118D01*
X333742Y28103D01*
X333838Y28078D01*
X333938Y28072D01*
X333959Y28068D01*
X333971Y28070D01*
X333999Y28068D01*
X343633Y28068D01*
X350893Y20808D01*
X351002Y20723D01*
X351109Y20634D01*
X351128Y20626D01*
X351144Y20613D01*
X351272Y20558D01*
X351397Y20499D01*
X351417Y20495D01*
X351436Y20487D01*
X351574Y20465D01*
X351710Y20439D01*
X351730Y20440D01*
X351750Y20437D01*
X351889Y20450D01*
G37*
G36*
X288777Y107692D02*
X288777Y107692D01*
X288915Y107701D01*
X288934Y107707D01*
X288954Y107709D01*
X289086Y107756D01*
X289217Y107799D01*
X289235Y107810D01*
X289254Y107817D01*
X289369Y107895D01*
X289486Y107969D01*
X289500Y107984D01*
X289517Y107995D01*
X289609Y108099D01*
X289704Y108201D01*
X289714Y108218D01*
X289727Y108234D01*
X289791Y108358D01*
X289858Y108479D01*
X289863Y108499D01*
X289872Y108517D01*
X289902Y108653D01*
X289937Y108787D01*
X289939Y108815D01*
X289942Y108827D01*
X289941Y108848D01*
X289947Y108948D01*
X289947Y123956D01*
X289935Y124054D01*
X289932Y124153D01*
X289915Y124212D01*
X289907Y124272D01*
X289871Y124364D01*
X289843Y124459D01*
X289813Y124511D01*
X289790Y124567D01*
X289732Y124647D01*
X289682Y124733D01*
X289616Y124808D01*
X289604Y124825D01*
X289594Y124833D01*
X289576Y124854D01*
X270784Y143646D01*
X270705Y143706D01*
X270633Y143774D01*
X270580Y143803D01*
X270532Y143840D01*
X270441Y143880D01*
X270355Y143928D01*
X270296Y143943D01*
X270241Y143967D01*
X270143Y143982D01*
X270047Y144007D01*
X269947Y144013D01*
X269926Y144017D01*
X269914Y144015D01*
X269886Y144017D01*
X257779Y144017D01*
X257729Y144011D01*
X257680Y144013D01*
X257572Y143991D01*
X257463Y143977D01*
X257417Y143959D01*
X257368Y143949D01*
X257270Y143901D01*
X257168Y143860D01*
X257127Y143831D01*
X257083Y143809D01*
X256999Y143738D01*
X256910Y143674D01*
X256879Y143635D01*
X256841Y143603D01*
X256778Y143513D01*
X256707Y143429D01*
X256686Y143384D01*
X256658Y143343D01*
X256619Y143240D01*
X256572Y143141D01*
X256563Y143092D01*
X256545Y143046D01*
X256533Y142936D01*
X256512Y142829D01*
X256515Y142779D01*
X256510Y142730D01*
X256525Y142621D01*
X256532Y142511D01*
X256547Y142464D01*
X256554Y142415D01*
X256606Y142262D01*
X257390Y140371D01*
X257390Y137759D01*
X256390Y135346D01*
X254544Y133500D01*
X254490Y133477D01*
X254482Y133473D01*
X254473Y133470D01*
X254345Y133395D01*
X254214Y133320D01*
X254207Y133313D01*
X254199Y133309D01*
X254078Y133202D01*
X251821Y130946D01*
X251821Y130945D01*
X251034Y130158D01*
X251004Y130119D01*
X250967Y130086D01*
X250907Y129994D01*
X250839Y129907D01*
X250820Y129862D01*
X250792Y129820D01*
X250757Y129716D01*
X250713Y129615D01*
X250705Y129566D01*
X250689Y129519D01*
X250680Y129410D01*
X250663Y129301D01*
X250668Y129252D01*
X250664Y129202D01*
X250683Y129094D01*
X250693Y128985D01*
X250710Y128938D01*
X250718Y128889D01*
X250763Y128789D01*
X250800Y128685D01*
X250828Y128644D01*
X250849Y128599D01*
X250917Y128513D01*
X250979Y128422D01*
X251016Y128389D01*
X251047Y128350D01*
X251135Y128284D01*
X251217Y128212D01*
X251262Y128189D01*
X251301Y128159D01*
X251357Y128132D01*
X253259Y126229D01*
X253338Y126169D01*
X253410Y126101D01*
X253463Y126072D01*
X253511Y126035D01*
X253602Y125995D01*
X253688Y125947D01*
X253747Y125932D01*
X253803Y125908D01*
X253901Y125893D01*
X253996Y125868D01*
X254096Y125862D01*
X254117Y125858D01*
X254129Y125860D01*
X254157Y125858D01*
X269973Y125858D01*
X272279Y123552D01*
X272279Y123551D01*
X286111Y109719D01*
X287781Y108050D01*
X287890Y107965D01*
X287997Y107876D01*
X288016Y107868D01*
X288032Y107855D01*
X288160Y107800D01*
X288285Y107741D01*
X288305Y107737D01*
X288324Y107729D01*
X288462Y107707D01*
X288598Y107681D01*
X288618Y107682D01*
X288638Y107679D01*
X288777Y107692D01*
G37*
%LPC*%
G36*
X22619Y69990D02*
X22619Y69990D01*
X22604Y70108D01*
X22597Y70227D01*
X22584Y70265D01*
X22579Y70306D01*
X22536Y70416D01*
X22499Y70529D01*
X22477Y70564D01*
X22462Y70601D01*
X22393Y70697D01*
X22329Y70798D01*
X22299Y70826D01*
X22276Y70859D01*
X22184Y70935D01*
X22097Y71016D01*
X22062Y71036D01*
X22031Y71061D01*
X21923Y71112D01*
X21819Y71170D01*
X21779Y71180D01*
X21743Y71197D01*
X21626Y71219D01*
X21511Y71249D01*
X21451Y71253D01*
X21431Y71257D01*
X21410Y71255D01*
X21350Y71259D01*
X19390Y71259D01*
X19272Y71244D01*
X19153Y71237D01*
X19115Y71224D01*
X19074Y71219D01*
X18964Y71176D01*
X18851Y71139D01*
X18816Y71117D01*
X18779Y71102D01*
X18682Y71033D01*
X18582Y70969D01*
X18554Y70939D01*
X18521Y70916D01*
X18445Y70824D01*
X18364Y70737D01*
X18344Y70702D01*
X18319Y70671D01*
X18268Y70563D01*
X18210Y70459D01*
X18200Y70419D01*
X18183Y70383D01*
X18161Y70266D01*
X18131Y70151D01*
X18127Y70091D01*
X18123Y70071D01*
X18125Y70050D01*
X18121Y69990D01*
X18121Y68957D01*
X16692Y69421D01*
X15349Y70106D01*
X14129Y70992D01*
X13062Y72059D01*
X12176Y73279D01*
X11491Y74622D01*
X11025Y76056D01*
X10940Y76592D01*
X10979Y76639D01*
X10996Y76676D01*
X11020Y76709D01*
X11064Y76820D01*
X11115Y76927D01*
X11122Y76967D01*
X11137Y77004D01*
X11167Y77163D01*
X11290Y78143D01*
X11290Y78220D01*
X11300Y78297D01*
X11290Y78457D01*
X11289Y78460D01*
X11289Y78461D01*
X11167Y79437D01*
X11157Y79477D01*
X11155Y79517D01*
X11118Y79630D01*
X11089Y79746D01*
X11069Y79781D01*
X11057Y79819D01*
X10993Y79920D01*
X10941Y80014D01*
X11025Y80544D01*
X11491Y81978D01*
X12176Y83321D01*
X13062Y84541D01*
X14129Y85608D01*
X15349Y86494D01*
X16692Y87179D01*
X18121Y87643D01*
X18121Y86610D01*
X18136Y86492D01*
X18143Y86373D01*
X18155Y86335D01*
X18161Y86294D01*
X18204Y86184D01*
X18241Y86071D01*
X18263Y86036D01*
X18278Y85999D01*
X18347Y85903D01*
X18411Y85802D01*
X18441Y85774D01*
X18464Y85741D01*
X18556Y85665D01*
X18643Y85584D01*
X18678Y85564D01*
X18709Y85539D01*
X18817Y85488D01*
X18921Y85430D01*
X18961Y85420D01*
X18997Y85403D01*
X19114Y85381D01*
X19229Y85351D01*
X19289Y85347D01*
X19309Y85343D01*
X19330Y85345D01*
X19390Y85341D01*
X21350Y85341D01*
X21468Y85356D01*
X21587Y85363D01*
X21625Y85376D01*
X21666Y85381D01*
X21776Y85424D01*
X21889Y85461D01*
X21924Y85483D01*
X21961Y85498D01*
X22057Y85567D01*
X22158Y85631D01*
X22186Y85661D01*
X22219Y85684D01*
X22295Y85776D01*
X22376Y85863D01*
X22396Y85898D01*
X22421Y85929D01*
X22472Y86037D01*
X22530Y86141D01*
X22540Y86181D01*
X22557Y86217D01*
X22579Y86334D01*
X22609Y86449D01*
X22613Y86509D01*
X22617Y86529D01*
X22615Y86550D01*
X22619Y86610D01*
X22619Y87643D01*
X24048Y87179D01*
X25391Y86494D01*
X26611Y85608D01*
X27678Y84541D01*
X28564Y83321D01*
X29249Y81978D01*
X29715Y80544D01*
X29800Y80008D01*
X29761Y79961D01*
X29744Y79924D01*
X29720Y79891D01*
X29676Y79780D01*
X29625Y79673D01*
X29618Y79633D01*
X29603Y79596D01*
X29573Y79437D01*
X29450Y78457D01*
X29450Y78380D01*
X29440Y78303D01*
X29450Y78143D01*
X29451Y78140D01*
X29451Y78139D01*
X29573Y77163D01*
X29583Y77123D01*
X29585Y77083D01*
X29622Y76970D01*
X29651Y76854D01*
X29671Y76819D01*
X29683Y76781D01*
X29747Y76680D01*
X29799Y76586D01*
X29715Y76056D01*
X29249Y74622D01*
X28564Y73279D01*
X27678Y72059D01*
X26611Y70992D01*
X25391Y70106D01*
X24048Y69421D01*
X22619Y68957D01*
X22619Y69990D01*
G37*
%LPD*%
%LPC*%
G36*
X22619Y141990D02*
X22619Y141990D01*
X22604Y142108D01*
X22597Y142227D01*
X22584Y142265D01*
X22579Y142306D01*
X22536Y142416D01*
X22499Y142529D01*
X22477Y142564D01*
X22462Y142601D01*
X22393Y142697D01*
X22329Y142798D01*
X22299Y142826D01*
X22276Y142859D01*
X22184Y142935D01*
X22097Y143016D01*
X22062Y143036D01*
X22031Y143061D01*
X21923Y143112D01*
X21819Y143170D01*
X21779Y143180D01*
X21743Y143197D01*
X21626Y143219D01*
X21511Y143249D01*
X21451Y143253D01*
X21431Y143257D01*
X21410Y143255D01*
X21350Y143259D01*
X19390Y143259D01*
X19272Y143244D01*
X19153Y143237D01*
X19115Y143224D01*
X19074Y143219D01*
X18964Y143176D01*
X18851Y143139D01*
X18816Y143117D01*
X18779Y143102D01*
X18682Y143033D01*
X18582Y142969D01*
X18554Y142939D01*
X18521Y142916D01*
X18445Y142824D01*
X18364Y142737D01*
X18344Y142702D01*
X18319Y142671D01*
X18268Y142563D01*
X18210Y142459D01*
X18200Y142419D01*
X18183Y142383D01*
X18161Y142266D01*
X18131Y142151D01*
X18127Y142091D01*
X18123Y142071D01*
X18125Y142050D01*
X18121Y141990D01*
X18121Y140957D01*
X16692Y141421D01*
X15349Y142106D01*
X14129Y142992D01*
X13062Y144059D01*
X12176Y145279D01*
X11491Y146622D01*
X11025Y148056D01*
X10963Y148448D01*
X11020Y148517D01*
X11122Y148639D01*
X11122Y148641D01*
X11124Y148643D01*
X11192Y148789D01*
X11257Y148927D01*
X11257Y148929D01*
X11258Y148931D01*
X11288Y149086D01*
X11317Y149239D01*
X11317Y149241D01*
X11317Y149243D01*
X11317Y149404D01*
X11276Y150010D01*
X11273Y150025D01*
X11274Y150040D01*
X11248Y150160D01*
X11251Y150216D01*
X11251Y150220D01*
X11252Y150224D01*
X11251Y150385D01*
X11250Y150406D01*
X11251Y150416D01*
X11255Y150430D01*
X11276Y150590D01*
X11317Y151196D01*
X11317Y151198D01*
X11317Y151200D01*
X11307Y151354D01*
X11298Y151513D01*
X11297Y151515D01*
X11297Y151517D01*
X11249Y151665D01*
X11201Y151816D01*
X11200Y151818D01*
X11199Y151819D01*
X11115Y151953D01*
X11031Y152085D01*
X11030Y152086D01*
X11029Y152088D01*
X10963Y152150D01*
X11025Y152544D01*
X11491Y153978D01*
X12176Y155321D01*
X13062Y156541D01*
X14129Y157608D01*
X15349Y158494D01*
X16692Y159179D01*
X18121Y159643D01*
X18121Y158610D01*
X18136Y158492D01*
X18143Y158373D01*
X18155Y158335D01*
X18161Y158294D01*
X18204Y158184D01*
X18241Y158071D01*
X18263Y158036D01*
X18278Y157999D01*
X18347Y157903D01*
X18411Y157802D01*
X18441Y157774D01*
X18464Y157741D01*
X18556Y157665D01*
X18643Y157584D01*
X18678Y157564D01*
X18709Y157539D01*
X18817Y157488D01*
X18921Y157430D01*
X18961Y157420D01*
X18997Y157403D01*
X19114Y157381D01*
X19229Y157351D01*
X19289Y157347D01*
X19309Y157343D01*
X19330Y157345D01*
X19390Y157341D01*
X21350Y157341D01*
X21468Y157356D01*
X21587Y157363D01*
X21625Y157376D01*
X21666Y157381D01*
X21776Y157424D01*
X21889Y157461D01*
X21924Y157483D01*
X21961Y157498D01*
X22057Y157567D01*
X22158Y157631D01*
X22186Y157661D01*
X22219Y157684D01*
X22295Y157776D01*
X22376Y157863D01*
X22396Y157898D01*
X22421Y157929D01*
X22472Y158037D01*
X22530Y158141D01*
X22540Y158181D01*
X22557Y158217D01*
X22579Y158334D01*
X22609Y158449D01*
X22613Y158509D01*
X22617Y158529D01*
X22615Y158550D01*
X22619Y158610D01*
X22619Y159643D01*
X24048Y159179D01*
X25391Y158494D01*
X26611Y157608D01*
X27678Y156541D01*
X28564Y155321D01*
X29249Y153978D01*
X29715Y152544D01*
X29775Y152162D01*
X29735Y152114D01*
X29654Y152027D01*
X29634Y151992D01*
X29609Y151961D01*
X29558Y151853D01*
X29500Y151749D01*
X29490Y151709D01*
X29473Y151673D01*
X29451Y151556D01*
X29421Y151441D01*
X29417Y151381D01*
X29413Y151361D01*
X29415Y151340D01*
X29411Y151280D01*
X29411Y149320D01*
X29426Y149202D01*
X29433Y149083D01*
X29446Y149045D01*
X29451Y149004D01*
X29494Y148894D01*
X29531Y148781D01*
X29553Y148746D01*
X29568Y148709D01*
X29637Y148612D01*
X29701Y148512D01*
X29731Y148484D01*
X29754Y148451D01*
X29775Y148435D01*
X29715Y148056D01*
X29249Y146622D01*
X28564Y145279D01*
X27678Y144059D01*
X26611Y142992D01*
X25391Y142106D01*
X24048Y141421D01*
X22619Y140957D01*
X22619Y141990D01*
G37*
%LPD*%
%LPC*%
G36*
X39493Y83299D02*
X39493Y83299D01*
X39513Y83426D01*
X39955Y84786D01*
X40603Y86059D01*
X41101Y86744D01*
X41120Y86779D01*
X41145Y86809D01*
X41196Y86918D01*
X41254Y87023D01*
X41264Y87061D01*
X41281Y87097D01*
X41303Y87214D01*
X41333Y87331D01*
X41333Y87371D01*
X41341Y87410D01*
X41333Y87529D01*
X41333Y87649D01*
X41323Y87687D01*
X41321Y87727D01*
X41284Y87841D01*
X41254Y87957D01*
X41235Y87992D01*
X41223Y88029D01*
X41159Y88131D01*
X41101Y88235D01*
X41074Y88264D01*
X41053Y88298D01*
X40965Y88380D01*
X40884Y88467D01*
X40850Y88489D01*
X40821Y88516D01*
X40716Y88574D01*
X40615Y88638D01*
X40577Y88650D01*
X40543Y88670D01*
X40427Y88699D01*
X40313Y88737D01*
X40273Y88739D01*
X40235Y88749D01*
X40074Y88759D01*
X38168Y88759D01*
X35948Y89679D01*
X34249Y91378D01*
X33329Y93598D01*
X33329Y96002D01*
X34249Y98222D01*
X35948Y99921D01*
X38168Y100841D01*
X40572Y100841D01*
X42792Y99921D01*
X44491Y98222D01*
X45411Y96002D01*
X45411Y93598D01*
X44688Y91853D01*
X44676Y91811D01*
X44662Y91781D01*
X44655Y91743D01*
X44631Y91683D01*
X44622Y91614D01*
X44604Y91546D01*
X44603Y91470D01*
X44602Y91469D01*
X44602Y91467D01*
X44602Y91457D01*
X44591Y91368D01*
X44600Y91298D01*
X44599Y91228D01*
X44620Y91141D01*
X44631Y91052D01*
X44657Y90987D01*
X44673Y90919D01*
X44715Y90840D01*
X44748Y90756D01*
X44789Y90700D01*
X44822Y90638D01*
X44882Y90571D01*
X44934Y90499D01*
X44988Y90454D01*
X45035Y90402D01*
X45110Y90353D01*
X45179Y90296D01*
X45243Y90266D01*
X45301Y90228D01*
X45386Y90199D01*
X45467Y90160D01*
X45536Y90147D01*
X45602Y90124D01*
X45691Y90117D01*
X45779Y90101D01*
X45849Y90105D01*
X45919Y90099D01*
X46007Y90115D01*
X46097Y90120D01*
X46218Y90151D01*
X46232Y90154D01*
X46238Y90156D01*
X46371Y90177D01*
X46371Y83299D01*
X39493Y83299D01*
G37*
%LPD*%
%LPC*%
G36*
X38168Y127759D02*
X38168Y127759D01*
X35948Y128679D01*
X34249Y130378D01*
X33329Y132598D01*
X33329Y135002D01*
X34249Y137222D01*
X35948Y138921D01*
X38168Y139841D01*
X40074Y139841D01*
X40114Y139846D01*
X40153Y139843D01*
X40271Y139866D01*
X40390Y139881D01*
X40427Y139895D01*
X40466Y139903D01*
X40574Y139954D01*
X40685Y139998D01*
X40717Y140021D01*
X40753Y140038D01*
X40846Y140114D01*
X40943Y140184D01*
X40968Y140215D01*
X40999Y140240D01*
X41069Y140337D01*
X41145Y140429D01*
X41162Y140465D01*
X41186Y140498D01*
X41230Y140609D01*
X41281Y140717D01*
X41288Y140756D01*
X41303Y140793D01*
X41318Y140912D01*
X41341Y141029D01*
X41338Y141069D01*
X41343Y141109D01*
X41328Y141227D01*
X41321Y141347D01*
X41309Y141385D01*
X41304Y141424D01*
X41260Y141536D01*
X41223Y141649D01*
X41202Y141683D01*
X41187Y141720D01*
X41101Y141856D01*
X40603Y142541D01*
X39955Y143814D01*
X39513Y145174D01*
X39493Y145301D01*
X46371Y145301D01*
X46371Y138423D01*
X46206Y138449D01*
X46165Y138457D01*
X46079Y138483D01*
X46009Y138486D01*
X45940Y138500D01*
X45851Y138494D01*
X45761Y138498D01*
X45693Y138484D01*
X45623Y138480D01*
X45538Y138452D01*
X45450Y138434D01*
X45387Y138403D01*
X45320Y138382D01*
X45245Y138333D01*
X45164Y138294D01*
X45111Y138249D01*
X45052Y138211D01*
X44990Y138146D01*
X44922Y138088D01*
X44882Y138031D01*
X44834Y137980D01*
X44791Y137901D01*
X44739Y137828D01*
X44714Y137762D01*
X44681Y137701D01*
X44658Y137614D01*
X44626Y137530D01*
X44619Y137461D01*
X44601Y137393D01*
X44601Y137304D01*
X44591Y137214D01*
X44601Y137145D01*
X44601Y137075D01*
X44623Y136988D01*
X44636Y136899D01*
X44676Y136781D01*
X44680Y136767D01*
X44683Y136761D01*
X44688Y136747D01*
X45411Y135002D01*
X45411Y132598D01*
X44491Y130378D01*
X42792Y128679D01*
X40572Y127759D01*
X38168Y127759D01*
G37*
%LPD*%
%LPC*%
G36*
X135849Y15199D02*
X135849Y15199D01*
X135849Y22487D01*
X137220Y22042D01*
X138633Y21322D01*
X139917Y20389D01*
X141039Y19267D01*
X141972Y17983D01*
X142692Y16570D01*
X143137Y15199D01*
X135849Y15199D01*
G37*
%LPD*%
%LPC*%
G36*
X123563Y15199D02*
X123563Y15199D01*
X124008Y16570D01*
X124728Y17983D01*
X125661Y19267D01*
X126783Y20389D01*
X128067Y21322D01*
X129480Y22042D01*
X130851Y22487D01*
X130851Y15199D01*
X123563Y15199D01*
G37*
%LPD*%
%LPC*%
G36*
X50369Y83299D02*
X50369Y83299D01*
X50369Y90177D01*
X50496Y90157D01*
X51856Y89715D01*
X53129Y89067D01*
X54286Y88226D01*
X55296Y87216D01*
X56137Y86059D01*
X56785Y84786D01*
X57227Y83426D01*
X57247Y83299D01*
X50369Y83299D01*
G37*
%LPD*%
%LPC*%
G36*
X50369Y149299D02*
X50369Y149299D01*
X50369Y156177D01*
X50496Y156157D01*
X51856Y155715D01*
X53129Y155067D01*
X54286Y154226D01*
X55296Y153216D01*
X56137Y152059D01*
X56785Y150786D01*
X57227Y149426D01*
X57247Y149299D01*
X50369Y149299D01*
G37*
%LPD*%
%LPC*%
G36*
X39493Y149299D02*
X39493Y149299D01*
X39513Y149426D01*
X39955Y150786D01*
X40603Y152059D01*
X41444Y153216D01*
X42454Y154226D01*
X43611Y155067D01*
X44884Y155715D01*
X46244Y156157D01*
X46371Y156177D01*
X46371Y149299D01*
X39493Y149299D01*
G37*
%LPD*%
%LPC*%
G36*
X50369Y79301D02*
X50369Y79301D01*
X57247Y79301D01*
X57227Y79174D01*
X56785Y77814D01*
X56137Y76541D01*
X55296Y75384D01*
X54286Y74374D01*
X53129Y73533D01*
X51856Y72885D01*
X50496Y72443D01*
X50369Y72423D01*
X50369Y79301D01*
G37*
%LPD*%
%LPC*%
G36*
X50369Y145301D02*
X50369Y145301D01*
X57247Y145301D01*
X57227Y145174D01*
X56785Y143814D01*
X56137Y142541D01*
X55296Y141384D01*
X54286Y140374D01*
X53129Y139533D01*
X51856Y138885D01*
X50496Y138443D01*
X50369Y138423D01*
X50369Y145301D01*
G37*
%LPD*%
%LPC*%
G36*
X46244Y72443D02*
X46244Y72443D01*
X44884Y72885D01*
X43611Y73533D01*
X42454Y74374D01*
X41444Y75384D01*
X40603Y76541D01*
X39955Y77814D01*
X39513Y79174D01*
X39493Y79301D01*
X46371Y79301D01*
X46371Y72423D01*
X46244Y72443D01*
G37*
%LPD*%
D10*
X438150Y12700D03*
X412750Y12700D03*
X387350Y12700D03*
X361950Y12700D03*
X336550Y12700D03*
X311150Y12700D03*
X285750Y12700D03*
X260350Y12700D03*
X234950Y12700D03*
X209550Y12700D03*
X184150Y12700D03*
X158750Y12700D03*
X133350Y12700D03*
X107950Y12700D03*
X82550Y12700D03*
X57150Y12700D03*
X158750Y215900D03*
X184150Y215900D03*
X209550Y215900D03*
X234950Y215900D03*
X260350Y215900D03*
X285750Y215900D03*
X311150Y215900D03*
X336550Y215900D03*
X361950Y215900D03*
X387350Y215900D03*
X412750Y215900D03*
X438150Y215900D03*
D11*
X48370Y147300D03*
X48370Y81300D03*
D12*
X20370Y150300D03*
X20370Y78300D03*
D10*
X92710Y215900D03*
X114300Y215900D03*
D13*
X17780Y114300D03*
X109220Y83820D03*
X41910Y8890D03*
X67310Y161290D03*
X139065Y168275D03*
X94615Y121920D03*
X173355Y165100D03*
D14*
X95250Y19685D03*
D13*
X180340Y62230D03*
X283210Y121920D03*
X221996Y205994D03*
X298450Y207010D03*
D14*
X336296Y139954D03*
D13*
X336296Y86360D03*
X96520Y53975D03*
X361950Y76200D03*
X172283Y127482D03*
D15*
X416560Y182880D03*
D13*
X147955Y35052D03*
D16*
X144145Y106680D02*
X180975Y106680D01*
D13*
X87630Y196850D03*
D17*
X92710Y201930D02*
X189230Y201930D01*
X203200Y215900D01*
X209550Y215900D01*
D16*
X144145Y106680D02*
X130810Y93345D01*
D13*
X186690Y116277D03*
D17*
X92710Y201930D02*
X87630Y196850D01*
D13*
X106045Y98425D03*
X255270Y31750D03*
D18*
X163957Y31750D01*
D16*
X145923Y35052D02*
X120650Y60325D01*
X145923Y35052D02*
X147955Y35052D01*
D18*
X160655Y35052D02*
X163957Y31750D01*
X160655Y35052D02*
X147955Y35052D01*
D16*
X120650Y93345D02*
X111125Y93345D01*
X120650Y93345D02*
X130810Y93345D01*
X120650Y93345D02*
X120650Y60325D01*
X111125Y93345D02*
X106045Y98425D01*
X180975Y106680D02*
X186690Y112395D01*
X186690Y116277D01*
D13*
X128905Y161925D03*
X66675Y54610D03*
D18*
X100203Y161925D02*
X128905Y161925D01*
X63540Y57745D02*
X66675Y54610D01*
X63540Y57745D02*
X63540Y125262D01*
X100203Y161925D01*
D16*
X90805Y144145D02*
X154305Y144145D01*
D13*
X78740Y57150D03*
X158750Y151130D03*
D16*
X175260Y182880D02*
X224155Y182880D01*
X158750Y166370D02*
X158750Y151130D01*
D13*
X229870Y166624D03*
X292100Y196850D03*
X332359Y180086D03*
D16*
X158750Y148590D02*
X154305Y144145D01*
X158750Y148590D02*
X158750Y151130D01*
X158750Y166370D02*
X175260Y182880D01*
X224155Y182880D02*
X229870Y177165D01*
X229870Y166624D01*
X78740Y16510D02*
X82550Y12700D01*
X78740Y16510D02*
X78740Y57150D01*
D18*
X292100Y196850D02*
X307056Y196850D01*
X324064Y188381D02*
X332359Y180086D01*
X315525Y188381D02*
X307056Y196850D01*
X315525Y188381D02*
X324064Y188381D01*
D13*
X229870Y177165D03*
D15*
X389890Y92710D03*
X412750Y114300D03*
D16*
X78740Y75007D02*
X78740Y57150D01*
X68874Y84873D02*
X68874Y122214D01*
X68874Y84873D02*
X78740Y75007D01*
X68874Y122214D02*
X90805Y144145D01*
D13*
X95250Y31115D03*
X271780Y83185D03*
X212725Y133985D03*
D18*
X220980Y158750D02*
X237490Y158750D01*
D13*
X254000Y185420D03*
D18*
X95250Y36830D02*
X95250Y31115D01*
X95250Y36830D02*
X105410Y46990D01*
X105410Y68580D01*
X88265Y85725D01*
X88265Y107950D01*
X237490Y158750D02*
X242570Y163830D01*
X242570Y173990D01*
X254000Y185420D01*
X111760Y107950D02*
X88265Y107950D01*
X111760Y107950D02*
X119380Y100330D01*
X128905Y100330D01*
X140970Y112395D01*
X168275Y112395D01*
X213995Y83185D02*
X271780Y83185D01*
X180975Y125095D02*
X168275Y112395D01*
X180975Y125095D02*
X195580Y125095D01*
X198120Y121920D02*
X198120Y99060D01*
X198120Y121920D02*
X195580Y124460D01*
X195580Y125095D01*
X212725Y150495D02*
X220980Y158750D01*
X198120Y99060D02*
X213995Y83185D01*
X195580Y125095D02*
X204470Y133985D01*
X212725Y133985D01*
X212725Y150495D01*
D13*
X95250Y66040D03*
X77470Y106680D03*
D18*
X77470Y83820D01*
X95250Y66040D01*
D13*
X184150Y173990D03*
D15*
X387350Y114300D03*
D13*
X273050Y170180D03*
D18*
X273050Y167640D01*
X308610Y132080D01*
X308610Y104140D01*
X314960Y97790D01*
X314960Y88265D01*
X326390Y76835D01*
X326390Y64770D01*
X316230Y54610D01*
X316230Y33020D01*
X336550Y12700D01*
X285750Y12700D02*
X285115Y13335D01*
X285115Y106045D01*
D13*
X247650Y122555D03*
D18*
X268605Y122555D01*
X285115Y106045D01*
D13*
X261620Y170180D03*
D18*
X281940Y172720D02*
X281940Y166370D01*
X281940Y172720D02*
X275590Y179070D01*
X267970Y179070D01*
X261620Y172720D01*
X261620Y170180D01*
X281940Y166370D02*
X313690Y134620D01*
X313690Y106680D01*
X320040Y100330D01*
X320040Y90170D01*
X331470Y78740D01*
X331470Y62865D01*
X321310Y52705D01*
X321310Y35560D01*
X332105Y24765D01*
X342265Y24765D01*
X354330Y12700D01*
X361950Y12700D01*
D14*
X57150Y198120D03*
D18*
X153670Y177800D02*
X165735Y189865D01*
X153670Y177800D02*
X77470Y177800D01*
D13*
X254000Y161290D03*
D18*
X251460Y163830D02*
X251460Y171450D01*
X262890Y182880D01*
X262890Y187960D01*
X256540Y194310D01*
X222250Y194310D01*
X217805Y189865D01*
X165735Y189865D01*
X271780Y161290D02*
X303530Y129540D01*
X303530Y102235D01*
X254000Y161290D02*
X251460Y163830D01*
X254000Y161290D02*
X271780Y161290D01*
X311150Y57785D02*
X311150Y12700D01*
X311150Y57785D02*
X321310Y67945D01*
X321310Y74295D01*
X309880Y95885D02*
X303530Y102235D01*
X309880Y95885D02*
X309880Y81915D01*
X311785Y80010D01*
X315595Y80010D01*
X321310Y74295D01*
X77470Y177800D02*
X57150Y198120D01*
D13*
X250825Y139065D03*
D18*
X280035Y103505D02*
X280035Y72390D01*
X280035Y26035D01*
X266700Y12700D01*
X260350Y12700D01*
X269240Y114300D02*
X243205Y114300D01*
X239395Y118110D01*
X239395Y126365D01*
X243840Y130810D01*
X247015Y130810D01*
X250825Y134620D01*
X269240Y114300D02*
X280035Y103505D01*
D13*
X137160Y72390D03*
D18*
X170180Y93980D02*
X193040Y93980D01*
X214630Y72390D01*
X280035Y72390D01*
X170180Y93980D02*
X158750Y82550D01*
X250825Y134620D02*
X250825Y139065D01*
X158750Y82550D02*
X147320Y82550D01*
X137160Y72390D01*
D13*
X210185Y43815D03*
X254889Y45720D03*
D18*
X252984Y43815D02*
X210185Y43815D01*
X252984Y43815D02*
X254889Y45720D01*
D13*
X217805Y52705D03*
X254889Y59055D03*
D18*
X251079Y55245D01*
X220345Y55245D01*
X217805Y52705D01*
D14*
X463550Y187960D03*
X463550Y127000D03*
D18*
X463550Y187960D01*
D13*
X334010Y43180D03*
D18*
X349250Y51435D02*
X349250Y165100D01*
X406516Y203200D02*
X425450Y203200D01*
X438150Y215900D01*
X349250Y51435D02*
X353695Y46990D01*
X353695Y40640D01*
X348615Y35560D01*
X340360Y35560D01*
X334010Y41910D01*
X334010Y43180D01*
X370078Y185928D02*
X389244Y185928D01*
X406516Y203200D01*
X370078Y185928D02*
X349250Y165100D01*
D19*
X345440Y43815D03*
D18*
X344170Y45085D02*
X344170Y166486D01*
X344170Y45085D02*
X345440Y43815D01*
X387350Y190500D02*
X412750Y215900D01*
X387350Y190500D02*
X368184Y190500D01*
X344170Y166486D01*
D13*
X335280Y98425D03*
D18*
X328930Y132080D02*
X328930Y142240D01*
X297180Y173990D01*
X278130Y199390D02*
X278130Y205740D01*
X285750Y213360D01*
X285750Y215900D01*
X278130Y199390D02*
X297180Y180340D01*
X297180Y173990D01*
X334645Y99060D02*
X335280Y98425D01*
X334645Y99060D02*
X334645Y103221D01*
X334859Y103435D01*
X334859Y126151D01*
X328930Y132080D01*
X293250Y28060D02*
X297180Y24130D01*
D13*
X297180Y24130D03*
X293250Y83305D03*
D18*
X293250Y28060D01*
X293250Y83305D02*
X293250Y125850D01*
X271780Y147320D01*
X246380Y147320D01*
X242570Y143510D01*
X242570Y136525D01*
X238760Y132715D01*
X232410Y132715D01*
X222885Y142240D01*
D15*
X222885Y142240D03*
D13*
X327025Y106680D03*
D18*
X260350Y205740D02*
X260350Y215900D01*
X292100Y177800D02*
X292100Y171450D01*
X275590Y190500D02*
X260350Y205740D01*
X275590Y190500D02*
X279400Y190500D01*
X292100Y177800D01*
X292100Y171450D02*
X323850Y139700D01*
X323850Y128905D01*
X329565Y123190D02*
X329565Y109220D01*
X329565Y123190D02*
X323850Y128905D01*
X329565Y109220D02*
X327025Y106680D01*
D13*
X321564Y116840D03*
D18*
X287020Y168910D02*
X287020Y175260D01*
X276860Y185420D01*
X287020Y168910D02*
X318770Y137160D01*
X318770Y119634D01*
X273050Y185420D02*
X242570Y215900D01*
X234950Y215900D01*
X273050Y185420D02*
X276860Y185420D01*
X318770Y119634D02*
X321564Y116840D01*
D13*
X301625Y92710D03*
X234315Y142240D03*
D18*
X241935Y153035D02*
X273050Y153035D01*
X241935Y153035D02*
X234315Y145415D01*
X234315Y142240D01*
X298958Y127127D02*
X298958Y100341D01*
X301625Y97674D01*
X301625Y92710D01*
X298958Y127127D02*
X273050Y153035D01*
D13*
X348869Y183896D03*
X318770Y196215D03*
D18*
X335915Y196215D02*
X348234Y183896D01*
X348869Y183896D01*
X335915Y196215D02*
X318770Y196215D01*
X389890Y60960D02*
X438150Y12700D01*
X389890Y60960D02*
X369570Y60960D01*
D15*
X369570Y60960D03*
D13*
X173553Y139700D03*
X143510Y127000D03*
D16*
X134961Y135549D01*
X120650Y135549D01*
D13*
X120650Y135549D03*
D16*
X143510Y127000D02*
X152400Y135890D01*
X168534Y135890D02*
X168722Y136078D01*
X169931Y136078D01*
X173553Y139700D01*
X168534Y135890D02*
X152400Y135890D01*
M02*
