G04 EAGLE Gerber RS-274X export*
G75*
%MOMM*%
%FSLAX34Y34*%
%LPD*%
%INEAGLE Copper Layer 15*%
%IPPOS*%
%AMOC8*
5,1,8,0,0,1.08239X$1,22.5*%
G01*
%ADD10C,1.508000*%
%ADD11C,1.308000*%
%ADD12C,1.408000*%
%ADD13C,0.906400*%
%ADD14C,0.800100*%
%ADD15C,0.914400*%
%ADD16C,0.254000*%
%ADD17C,0.304800*%
%ADD18C,0.889000*%

G36*
X50845Y2558D02*
X50845Y2558D01*
X50984Y2571D01*
X51003Y2578D01*
X51023Y2581D01*
X51152Y2632D01*
X51283Y2679D01*
X51300Y2690D01*
X51318Y2698D01*
X51431Y2779D01*
X51546Y2857D01*
X51559Y2873D01*
X51576Y2884D01*
X51665Y2992D01*
X51756Y3096D01*
X51766Y3114D01*
X51779Y3129D01*
X51838Y3255D01*
X51901Y3379D01*
X51905Y3399D01*
X51914Y3417D01*
X51940Y3553D01*
X51971Y3689D01*
X51970Y3710D01*
X51974Y3729D01*
X51965Y3868D01*
X51961Y4007D01*
X51955Y4027D01*
X51954Y4047D01*
X51911Y4179D01*
X51873Y4313D01*
X51862Y4330D01*
X51856Y4349D01*
X51781Y4467D01*
X51711Y4587D01*
X51693Y4608D01*
X51686Y4618D01*
X51671Y4632D01*
X51605Y4707D01*
X49035Y7278D01*
X47577Y10796D01*
X47577Y14604D01*
X49035Y18122D01*
X51728Y20815D01*
X55246Y22273D01*
X59054Y22273D01*
X62572Y20815D01*
X65265Y18122D01*
X66723Y14604D01*
X66723Y10796D01*
X65265Y7278D01*
X62695Y4707D01*
X62610Y4598D01*
X62521Y4491D01*
X62513Y4472D01*
X62500Y4456D01*
X62445Y4328D01*
X62386Y4203D01*
X62382Y4183D01*
X62374Y4164D01*
X62352Y4026D01*
X62326Y3890D01*
X62327Y3870D01*
X62324Y3850D01*
X62337Y3711D01*
X62346Y3573D01*
X62352Y3554D01*
X62354Y3534D01*
X62401Y3402D01*
X62444Y3271D01*
X62455Y3253D01*
X62462Y3234D01*
X62540Y3119D01*
X62614Y3002D01*
X62629Y2988D01*
X62640Y2971D01*
X62744Y2879D01*
X62846Y2784D01*
X62863Y2774D01*
X62879Y2761D01*
X63003Y2697D01*
X63124Y2630D01*
X63144Y2625D01*
X63162Y2616D01*
X63298Y2586D01*
X63432Y2551D01*
X63460Y2549D01*
X63472Y2546D01*
X63493Y2547D01*
X63593Y2541D01*
X76107Y2541D01*
X76245Y2558D01*
X76384Y2571D01*
X76403Y2578D01*
X76423Y2581D01*
X76552Y2632D01*
X76683Y2679D01*
X76700Y2690D01*
X76718Y2698D01*
X76831Y2779D01*
X76946Y2857D01*
X76959Y2873D01*
X76976Y2884D01*
X77065Y2992D01*
X77156Y3096D01*
X77166Y3114D01*
X77179Y3129D01*
X77238Y3255D01*
X77301Y3379D01*
X77305Y3399D01*
X77314Y3417D01*
X77340Y3553D01*
X77371Y3689D01*
X77370Y3710D01*
X77374Y3729D01*
X77365Y3868D01*
X77361Y4007D01*
X77355Y4027D01*
X77354Y4047D01*
X77311Y4179D01*
X77273Y4313D01*
X77262Y4330D01*
X77256Y4349D01*
X77181Y4467D01*
X77111Y4587D01*
X77093Y4608D01*
X77086Y4618D01*
X77071Y4632D01*
X77005Y4707D01*
X74435Y7278D01*
X72977Y10796D01*
X72977Y14604D01*
X74435Y18122D01*
X77128Y20815D01*
X80646Y22273D01*
X84454Y22273D01*
X87972Y20815D01*
X90665Y18122D01*
X92123Y14604D01*
X92123Y10796D01*
X90665Y7278D01*
X88095Y4707D01*
X88010Y4598D01*
X87921Y4491D01*
X87913Y4472D01*
X87900Y4456D01*
X87845Y4328D01*
X87786Y4203D01*
X87782Y4183D01*
X87774Y4164D01*
X87752Y4026D01*
X87726Y3890D01*
X87727Y3870D01*
X87724Y3850D01*
X87737Y3711D01*
X87746Y3573D01*
X87752Y3554D01*
X87754Y3534D01*
X87801Y3402D01*
X87844Y3271D01*
X87855Y3253D01*
X87862Y3234D01*
X87940Y3119D01*
X88014Y3002D01*
X88029Y2988D01*
X88040Y2971D01*
X88144Y2879D01*
X88246Y2784D01*
X88263Y2774D01*
X88279Y2761D01*
X88403Y2697D01*
X88524Y2630D01*
X88544Y2625D01*
X88562Y2616D01*
X88698Y2586D01*
X88832Y2551D01*
X88860Y2549D01*
X88872Y2546D01*
X88893Y2547D01*
X88993Y2541D01*
X101507Y2541D01*
X101645Y2558D01*
X101784Y2571D01*
X101803Y2578D01*
X101823Y2581D01*
X101952Y2632D01*
X102083Y2679D01*
X102100Y2690D01*
X102118Y2698D01*
X102231Y2779D01*
X102346Y2857D01*
X102359Y2873D01*
X102376Y2884D01*
X102465Y2992D01*
X102556Y3096D01*
X102566Y3114D01*
X102579Y3129D01*
X102638Y3255D01*
X102701Y3379D01*
X102705Y3399D01*
X102714Y3417D01*
X102740Y3553D01*
X102771Y3689D01*
X102770Y3710D01*
X102774Y3729D01*
X102765Y3868D01*
X102761Y4007D01*
X102755Y4027D01*
X102754Y4047D01*
X102711Y4179D01*
X102673Y4313D01*
X102662Y4330D01*
X102656Y4349D01*
X102581Y4467D01*
X102511Y4587D01*
X102493Y4608D01*
X102486Y4618D01*
X102471Y4632D01*
X102405Y4707D01*
X99835Y7278D01*
X98377Y10796D01*
X98377Y14604D01*
X99835Y18122D01*
X102528Y20815D01*
X106046Y22273D01*
X109854Y22273D01*
X113372Y20815D01*
X116065Y18122D01*
X117523Y14604D01*
X117523Y10796D01*
X116065Y7278D01*
X113495Y4707D01*
X113410Y4598D01*
X113321Y4491D01*
X113313Y4472D01*
X113300Y4456D01*
X113245Y4328D01*
X113186Y4203D01*
X113182Y4183D01*
X113174Y4164D01*
X113152Y4026D01*
X113126Y3890D01*
X113127Y3870D01*
X113124Y3850D01*
X113137Y3711D01*
X113146Y3573D01*
X113152Y3554D01*
X113154Y3534D01*
X113201Y3402D01*
X113244Y3271D01*
X113255Y3253D01*
X113262Y3234D01*
X113340Y3119D01*
X113414Y3002D01*
X113429Y2988D01*
X113440Y2971D01*
X113544Y2879D01*
X113646Y2784D01*
X113663Y2774D01*
X113679Y2761D01*
X113803Y2697D01*
X113924Y2630D01*
X113944Y2625D01*
X113962Y2616D01*
X114098Y2586D01*
X114232Y2551D01*
X114260Y2549D01*
X114272Y2546D01*
X114293Y2547D01*
X114393Y2541D01*
X126276Y2541D01*
X126355Y2551D01*
X126435Y2551D01*
X126512Y2571D01*
X126592Y2581D01*
X126666Y2610D01*
X126743Y2630D01*
X126813Y2668D01*
X126888Y2698D01*
X126952Y2744D01*
X127022Y2783D01*
X127080Y2837D01*
X127145Y2884D01*
X127196Y2946D01*
X127254Y3000D01*
X127297Y3068D01*
X127348Y3129D01*
X127382Y3201D01*
X127424Y3269D01*
X127449Y3345D01*
X127483Y3417D01*
X127498Y3495D01*
X127523Y3571D01*
X127528Y3651D01*
X127543Y3729D01*
X127538Y3809D01*
X127543Y3889D01*
X127528Y3967D01*
X127523Y4047D01*
X127499Y4123D01*
X127484Y4201D01*
X127450Y4273D01*
X127425Y4349D01*
X127383Y4417D01*
X127349Y4489D01*
X127298Y4551D01*
X127255Y4618D01*
X127197Y4673D01*
X127146Y4734D01*
X127025Y4835D01*
X127023Y4836D01*
X127022Y4837D01*
X126783Y5011D01*
X125661Y6133D01*
X124728Y7417D01*
X124008Y8830D01*
X123563Y10201D01*
X132120Y10201D01*
X132238Y10216D01*
X132357Y10223D01*
X132395Y10235D01*
X132435Y10241D01*
X132546Y10284D01*
X132659Y10321D01*
X132693Y10343D01*
X132731Y10358D01*
X132827Y10427D01*
X132928Y10491D01*
X132956Y10521D01*
X132988Y10544D01*
X133064Y10636D01*
X133146Y10723D01*
X133165Y10758D01*
X133191Y10789D01*
X133242Y10897D01*
X133299Y11001D01*
X133309Y11041D01*
X133327Y11077D01*
X133347Y11184D01*
X133351Y11154D01*
X133395Y11044D01*
X133431Y10931D01*
X133453Y10896D01*
X133468Y10859D01*
X133538Y10762D01*
X133601Y10662D01*
X133631Y10634D01*
X133655Y10601D01*
X133746Y10525D01*
X133833Y10444D01*
X133868Y10424D01*
X133900Y10399D01*
X134007Y10348D01*
X134112Y10290D01*
X134151Y10280D01*
X134187Y10263D01*
X134304Y10241D01*
X134420Y10211D01*
X134480Y10207D01*
X134500Y10203D01*
X134520Y10205D01*
X134580Y10201D01*
X143137Y10201D01*
X142692Y8830D01*
X141972Y7417D01*
X141039Y6133D01*
X139917Y5011D01*
X139678Y4837D01*
X139620Y4782D01*
X139555Y4736D01*
X139504Y4674D01*
X139446Y4619D01*
X139403Y4552D01*
X139352Y4491D01*
X139318Y4418D01*
X139275Y4351D01*
X139251Y4275D01*
X139217Y4203D01*
X139202Y4124D01*
X139177Y4048D01*
X139172Y3969D01*
X139157Y3890D01*
X139162Y3811D01*
X139157Y3731D01*
X139172Y3653D01*
X139177Y3573D01*
X139201Y3497D01*
X139216Y3418D01*
X139250Y3346D01*
X139275Y3271D01*
X139318Y3203D01*
X139352Y3131D01*
X139402Y3069D01*
X139445Y3002D01*
X139503Y2947D01*
X139554Y2885D01*
X139619Y2839D01*
X139677Y2784D01*
X139746Y2745D01*
X139811Y2698D01*
X139885Y2669D01*
X139955Y2630D01*
X140032Y2610D01*
X140107Y2581D01*
X140186Y2571D01*
X140263Y2551D01*
X140421Y2541D01*
X140422Y2541D01*
X140423Y2541D01*
X140424Y2541D01*
X152307Y2541D01*
X152445Y2558D01*
X152584Y2571D01*
X152603Y2578D01*
X152623Y2581D01*
X152752Y2632D01*
X152883Y2679D01*
X152900Y2690D01*
X152918Y2698D01*
X153031Y2779D01*
X153146Y2857D01*
X153159Y2873D01*
X153176Y2884D01*
X153265Y2992D01*
X153356Y3096D01*
X153366Y3114D01*
X153379Y3129D01*
X153438Y3255D01*
X153501Y3379D01*
X153505Y3399D01*
X153514Y3417D01*
X153540Y3553D01*
X153571Y3689D01*
X153570Y3710D01*
X153574Y3729D01*
X153565Y3868D01*
X153561Y4007D01*
X153555Y4027D01*
X153554Y4047D01*
X153511Y4179D01*
X153473Y4313D01*
X153462Y4330D01*
X153456Y4349D01*
X153381Y4467D01*
X153311Y4587D01*
X153293Y4608D01*
X153286Y4618D01*
X153271Y4632D01*
X153205Y4707D01*
X150635Y7278D01*
X149177Y10796D01*
X149177Y14604D01*
X150635Y18122D01*
X153328Y20815D01*
X156846Y22273D01*
X160654Y22273D01*
X164172Y20815D01*
X166865Y18122D01*
X168323Y14604D01*
X168323Y10796D01*
X166865Y7278D01*
X164295Y4707D01*
X164210Y4598D01*
X164121Y4491D01*
X164113Y4472D01*
X164100Y4456D01*
X164045Y4328D01*
X163986Y4203D01*
X163982Y4183D01*
X163974Y4164D01*
X163952Y4026D01*
X163926Y3890D01*
X163927Y3870D01*
X163924Y3850D01*
X163937Y3711D01*
X163946Y3573D01*
X163952Y3554D01*
X163954Y3534D01*
X164001Y3402D01*
X164044Y3271D01*
X164055Y3253D01*
X164062Y3234D01*
X164140Y3119D01*
X164214Y3002D01*
X164229Y2988D01*
X164240Y2971D01*
X164344Y2879D01*
X164446Y2784D01*
X164463Y2774D01*
X164479Y2761D01*
X164603Y2697D01*
X164724Y2630D01*
X164744Y2625D01*
X164762Y2616D01*
X164898Y2586D01*
X165032Y2551D01*
X165060Y2549D01*
X165072Y2546D01*
X165093Y2547D01*
X165193Y2541D01*
X177707Y2541D01*
X177845Y2558D01*
X177984Y2571D01*
X178003Y2578D01*
X178023Y2581D01*
X178152Y2632D01*
X178283Y2679D01*
X178300Y2690D01*
X178318Y2698D01*
X178431Y2779D01*
X178546Y2857D01*
X178559Y2873D01*
X178576Y2884D01*
X178665Y2992D01*
X178756Y3096D01*
X178766Y3114D01*
X178779Y3129D01*
X178838Y3255D01*
X178901Y3379D01*
X178905Y3399D01*
X178914Y3417D01*
X178940Y3553D01*
X178971Y3689D01*
X178970Y3710D01*
X178974Y3729D01*
X178965Y3868D01*
X178961Y4007D01*
X178955Y4027D01*
X178954Y4047D01*
X178911Y4179D01*
X178873Y4313D01*
X178862Y4330D01*
X178856Y4349D01*
X178781Y4467D01*
X178711Y4587D01*
X178693Y4608D01*
X178686Y4618D01*
X178671Y4632D01*
X178605Y4707D01*
X176035Y7278D01*
X174577Y10796D01*
X174577Y14604D01*
X176035Y18122D01*
X178728Y20815D01*
X182246Y22273D01*
X186054Y22273D01*
X189572Y20815D01*
X192265Y18122D01*
X193723Y14604D01*
X193723Y10796D01*
X192265Y7278D01*
X189695Y4707D01*
X189610Y4598D01*
X189521Y4491D01*
X189513Y4472D01*
X189500Y4456D01*
X189445Y4328D01*
X189386Y4203D01*
X189382Y4183D01*
X189374Y4164D01*
X189352Y4026D01*
X189326Y3890D01*
X189327Y3870D01*
X189324Y3850D01*
X189337Y3711D01*
X189346Y3573D01*
X189352Y3554D01*
X189354Y3534D01*
X189401Y3402D01*
X189444Y3271D01*
X189455Y3253D01*
X189462Y3234D01*
X189540Y3119D01*
X189614Y3002D01*
X189629Y2988D01*
X189640Y2971D01*
X189744Y2879D01*
X189846Y2784D01*
X189863Y2774D01*
X189879Y2761D01*
X190003Y2697D01*
X190124Y2630D01*
X190144Y2625D01*
X190162Y2616D01*
X190298Y2586D01*
X190432Y2551D01*
X190460Y2549D01*
X190472Y2546D01*
X190493Y2547D01*
X190593Y2541D01*
X203107Y2541D01*
X203245Y2558D01*
X203384Y2571D01*
X203403Y2578D01*
X203423Y2581D01*
X203552Y2632D01*
X203683Y2679D01*
X203700Y2690D01*
X203718Y2698D01*
X203831Y2779D01*
X203946Y2857D01*
X203959Y2873D01*
X203976Y2884D01*
X204065Y2992D01*
X204156Y3096D01*
X204166Y3114D01*
X204179Y3129D01*
X204238Y3255D01*
X204301Y3379D01*
X204305Y3399D01*
X204314Y3417D01*
X204340Y3553D01*
X204371Y3689D01*
X204370Y3710D01*
X204374Y3729D01*
X204365Y3868D01*
X204361Y4007D01*
X204355Y4027D01*
X204354Y4047D01*
X204311Y4179D01*
X204273Y4313D01*
X204262Y4330D01*
X204256Y4349D01*
X204181Y4467D01*
X204111Y4587D01*
X204093Y4608D01*
X204086Y4618D01*
X204071Y4632D01*
X204005Y4707D01*
X201435Y7278D01*
X199977Y10796D01*
X199977Y14604D01*
X201435Y18122D01*
X204128Y20815D01*
X207646Y22273D01*
X211454Y22273D01*
X214972Y20815D01*
X217665Y18122D01*
X219123Y14604D01*
X219123Y10796D01*
X217665Y7278D01*
X215095Y4707D01*
X215010Y4598D01*
X214921Y4491D01*
X214913Y4472D01*
X214900Y4456D01*
X214845Y4328D01*
X214786Y4203D01*
X214782Y4183D01*
X214774Y4164D01*
X214752Y4026D01*
X214726Y3890D01*
X214727Y3870D01*
X214724Y3850D01*
X214737Y3711D01*
X214746Y3573D01*
X214752Y3554D01*
X214754Y3534D01*
X214801Y3402D01*
X214844Y3271D01*
X214855Y3253D01*
X214862Y3234D01*
X214940Y3119D01*
X215014Y3002D01*
X215029Y2988D01*
X215040Y2971D01*
X215144Y2879D01*
X215246Y2784D01*
X215263Y2774D01*
X215279Y2761D01*
X215403Y2697D01*
X215524Y2630D01*
X215544Y2625D01*
X215562Y2616D01*
X215698Y2586D01*
X215832Y2551D01*
X215860Y2549D01*
X215872Y2546D01*
X215893Y2547D01*
X215993Y2541D01*
X228507Y2541D01*
X228645Y2558D01*
X228784Y2571D01*
X228803Y2578D01*
X228823Y2581D01*
X228952Y2632D01*
X229083Y2679D01*
X229100Y2690D01*
X229118Y2698D01*
X229231Y2779D01*
X229346Y2857D01*
X229359Y2873D01*
X229376Y2884D01*
X229465Y2992D01*
X229556Y3096D01*
X229566Y3114D01*
X229579Y3129D01*
X229638Y3255D01*
X229701Y3379D01*
X229705Y3399D01*
X229714Y3417D01*
X229740Y3553D01*
X229771Y3689D01*
X229770Y3710D01*
X229774Y3729D01*
X229765Y3868D01*
X229761Y4007D01*
X229755Y4027D01*
X229754Y4047D01*
X229711Y4179D01*
X229673Y4313D01*
X229662Y4330D01*
X229656Y4349D01*
X229581Y4467D01*
X229511Y4587D01*
X229493Y4608D01*
X229486Y4618D01*
X229471Y4632D01*
X229405Y4707D01*
X226835Y7278D01*
X225377Y10796D01*
X225377Y14604D01*
X226835Y18122D01*
X229528Y20815D01*
X233046Y22273D01*
X236854Y22273D01*
X240372Y20815D01*
X243065Y18122D01*
X243130Y17966D01*
X243155Y17923D01*
X243172Y17876D01*
X243233Y17785D01*
X243288Y17690D01*
X243322Y17654D01*
X243350Y17613D01*
X243433Y17540D01*
X243509Y17461D01*
X243551Y17435D01*
X243589Y17402D01*
X243687Y17352D01*
X243780Y17295D01*
X243828Y17280D01*
X243872Y17258D01*
X243979Y17234D01*
X244084Y17201D01*
X244134Y17199D01*
X244182Y17188D01*
X244292Y17191D01*
X244402Y17186D01*
X244450Y17196D01*
X244500Y17198D01*
X244606Y17228D01*
X244713Y17250D01*
X244758Y17272D01*
X244806Y17286D01*
X244900Y17342D01*
X244999Y17390D01*
X245037Y17423D01*
X245080Y17448D01*
X245200Y17554D01*
X251820Y24174D01*
X251851Y24213D01*
X251888Y24247D01*
X251948Y24338D01*
X252015Y24425D01*
X252035Y24471D01*
X252062Y24512D01*
X252098Y24616D01*
X252141Y24717D01*
X252149Y24766D01*
X252165Y24813D01*
X252174Y24923D01*
X252191Y25031D01*
X252187Y25081D01*
X252190Y25130D01*
X252172Y25238D01*
X252161Y25348D01*
X252145Y25395D01*
X252136Y25444D01*
X252091Y25544D01*
X252054Y25647D01*
X252026Y25688D01*
X252005Y25734D01*
X251937Y25819D01*
X251875Y25910D01*
X251838Y25943D01*
X251807Y25982D01*
X251719Y26048D01*
X251637Y26121D01*
X251593Y26143D01*
X249705Y28031D01*
X248705Y30444D01*
X248705Y33056D01*
X249705Y35469D01*
X251551Y37315D01*
X251957Y37483D01*
X252078Y37552D01*
X252201Y37617D01*
X252216Y37631D01*
X252234Y37641D01*
X252333Y37738D01*
X252436Y37831D01*
X252447Y37848D01*
X252462Y37862D01*
X252534Y37980D01*
X252611Y38097D01*
X252618Y38116D01*
X252628Y38133D01*
X252669Y38266D01*
X252714Y38398D01*
X252716Y38418D01*
X252722Y38437D01*
X252729Y38576D01*
X252740Y38715D01*
X252736Y38735D01*
X252737Y38755D01*
X252709Y38891D01*
X252685Y39028D01*
X252677Y39047D01*
X252673Y39066D01*
X252612Y39191D01*
X252555Y39318D01*
X252542Y39334D01*
X252533Y39352D01*
X252443Y39458D01*
X252356Y39567D01*
X252340Y39579D01*
X252327Y39594D01*
X252213Y39674D01*
X252102Y39758D01*
X252077Y39770D01*
X252067Y39777D01*
X252048Y39784D01*
X251957Y39829D01*
X251170Y40155D01*
X249324Y42001D01*
X248324Y44414D01*
X248324Y47026D01*
X249324Y49439D01*
X251222Y51337D01*
X251244Y51349D01*
X251259Y51362D01*
X251276Y51372D01*
X251376Y51469D01*
X251479Y51563D01*
X251490Y51579D01*
X251505Y51593D01*
X251578Y51712D01*
X251654Y51828D01*
X251661Y51847D01*
X251671Y51864D01*
X251712Y51997D01*
X251757Y52129D01*
X251759Y52149D01*
X251765Y52168D01*
X251771Y52307D01*
X251783Y52446D01*
X251779Y52466D01*
X251780Y52486D01*
X251752Y52622D01*
X251728Y52760D01*
X251720Y52778D01*
X251716Y52797D01*
X251655Y52923D01*
X251598Y53049D01*
X251585Y53065D01*
X251576Y53083D01*
X251486Y53189D01*
X251399Y53298D01*
X251383Y53310D01*
X251370Y53325D01*
X251256Y53406D01*
X251250Y53410D01*
X249324Y55336D01*
X248324Y57749D01*
X248324Y60361D01*
X249324Y62774D01*
X251170Y64620D01*
X253583Y65620D01*
X256195Y65620D01*
X258608Y64620D01*
X260454Y62774D01*
X261454Y60361D01*
X261454Y57749D01*
X260454Y55336D01*
X258555Y53437D01*
X258534Y53426D01*
X258519Y53412D01*
X258501Y53403D01*
X258401Y53306D01*
X258298Y53212D01*
X258287Y53195D01*
X258273Y53181D01*
X258200Y53062D01*
X258124Y52946D01*
X258117Y52927D01*
X258107Y52910D01*
X258066Y52777D01*
X258021Y52645D01*
X258019Y52625D01*
X258013Y52606D01*
X258007Y52468D01*
X257996Y52328D01*
X257999Y52308D01*
X257998Y52289D01*
X258026Y52152D01*
X258050Y52015D01*
X258058Y51997D01*
X258062Y51977D01*
X258123Y51852D01*
X258181Y51725D01*
X258193Y51709D01*
X258202Y51691D01*
X258292Y51585D01*
X258379Y51477D01*
X258395Y51465D01*
X258408Y51449D01*
X258522Y51369D01*
X258528Y51365D01*
X260454Y49439D01*
X261454Y47026D01*
X261454Y44414D01*
X260454Y42001D01*
X258608Y40155D01*
X258202Y39987D01*
X258081Y39918D01*
X257958Y39853D01*
X257943Y39839D01*
X257925Y39829D01*
X257826Y39732D01*
X257723Y39639D01*
X257712Y39622D01*
X257697Y39608D01*
X257624Y39489D01*
X257548Y39373D01*
X257541Y39354D01*
X257531Y39337D01*
X257490Y39204D01*
X257445Y39072D01*
X257443Y39052D01*
X257437Y39033D01*
X257430Y38894D01*
X257419Y38755D01*
X257423Y38735D01*
X257422Y38715D01*
X257450Y38579D01*
X257474Y38442D01*
X257482Y38423D01*
X257486Y38404D01*
X257547Y38279D01*
X257604Y38152D01*
X257617Y38136D01*
X257626Y38118D01*
X257716Y38012D01*
X257803Y37903D01*
X257819Y37891D01*
X257832Y37876D01*
X257946Y37796D01*
X258057Y37712D01*
X258082Y37700D01*
X258092Y37693D01*
X258111Y37686D01*
X258202Y37641D01*
X258989Y37315D01*
X260835Y35469D01*
X261835Y33056D01*
X261835Y30444D01*
X261071Y28600D01*
X261058Y28552D01*
X261036Y28507D01*
X261016Y28399D01*
X260987Y28293D01*
X260986Y28243D01*
X260977Y28194D01*
X260983Y28085D01*
X260982Y27975D01*
X260993Y27927D01*
X260996Y27877D01*
X261030Y27773D01*
X261056Y27666D01*
X261079Y27622D01*
X261094Y27575D01*
X261153Y27482D01*
X261205Y27385D01*
X261238Y27348D01*
X261265Y27306D01*
X261345Y27231D01*
X261418Y27149D01*
X261460Y27122D01*
X261496Y27088D01*
X261592Y27035D01*
X261684Y26975D01*
X261731Y26958D01*
X261775Y26934D01*
X261881Y26907D01*
X261985Y26871D01*
X262035Y26867D01*
X262083Y26855D01*
X262243Y26845D01*
X279365Y26845D01*
X279463Y26857D01*
X279562Y26860D01*
X279621Y26877D01*
X279681Y26885D01*
X279773Y26921D01*
X279868Y26949D01*
X279920Y26979D01*
X279976Y27002D01*
X280057Y27060D01*
X280142Y27110D01*
X280217Y27176D01*
X280234Y27188D01*
X280242Y27198D01*
X280263Y27216D01*
X288313Y35267D01*
X329579Y35267D01*
X329650Y35276D01*
X329721Y35275D01*
X329807Y35296D01*
X329819Y35297D01*
X329849Y35300D01*
X329853Y35301D01*
X329894Y35307D01*
X329961Y35333D01*
X330030Y35350D01*
X330108Y35391D01*
X330190Y35424D01*
X330248Y35465D01*
X330311Y35499D01*
X330376Y35559D01*
X330447Y35610D01*
X330493Y35665D01*
X330546Y35713D01*
X330594Y35787D01*
X330650Y35855D01*
X330681Y35920D01*
X330720Y35980D01*
X330748Y36063D01*
X330786Y36143D01*
X330799Y36213D01*
X330822Y36281D01*
X330829Y36369D01*
X330846Y36455D01*
X330841Y36527D01*
X330847Y36598D01*
X330831Y36685D01*
X330826Y36773D01*
X330804Y36841D01*
X330792Y36911D01*
X330755Y36991D01*
X330728Y37075D01*
X330690Y37136D01*
X330660Y37201D01*
X330605Y37269D01*
X330582Y37306D01*
X330576Y37315D01*
X330575Y37317D01*
X330558Y37344D01*
X330519Y37381D01*
X330483Y37421D01*
X330461Y37448D01*
X330447Y37459D01*
X328445Y39461D01*
X327445Y41874D01*
X327445Y44486D01*
X328445Y46899D01*
X330291Y48745D01*
X332704Y49745D01*
X335316Y49745D01*
X337729Y48745D01*
X338572Y47902D01*
X338665Y47830D01*
X338755Y47751D01*
X338791Y47732D01*
X338823Y47707D01*
X338932Y47660D01*
X339038Y47606D01*
X339077Y47597D01*
X339115Y47581D01*
X339232Y47562D01*
X339348Y47536D01*
X339389Y47538D01*
X339429Y47531D01*
X339547Y47542D01*
X339666Y47546D01*
X339705Y47557D01*
X339745Y47561D01*
X339857Y47601D01*
X339972Y47634D01*
X340007Y47655D01*
X340045Y47669D01*
X340143Y47736D01*
X340246Y47796D01*
X340291Y47836D01*
X340308Y47847D01*
X340321Y47863D01*
X340367Y47902D01*
X341771Y49307D01*
X344151Y50293D01*
X346729Y50293D01*
X349109Y49307D01*
X350932Y47484D01*
X351918Y45104D01*
X351918Y42526D01*
X350932Y40146D01*
X349109Y38323D01*
X347625Y37709D01*
X347564Y37674D01*
X347499Y37648D01*
X347427Y37596D01*
X347349Y37551D01*
X347299Y37503D01*
X347242Y37462D01*
X347185Y37392D01*
X347120Y37330D01*
X347084Y37270D01*
X347039Y37217D01*
X347001Y37135D01*
X346954Y37059D01*
X346934Y36992D01*
X346904Y36929D01*
X346887Y36841D01*
X346860Y36755D01*
X346857Y36685D01*
X346844Y36616D01*
X346850Y36527D01*
X346845Y36437D01*
X346859Y36369D01*
X346864Y36299D01*
X346891Y36214D01*
X346910Y36126D01*
X346940Y36063D01*
X346962Y35997D01*
X347010Y35921D01*
X347049Y35840D01*
X347095Y35787D01*
X347132Y35728D01*
X347197Y35666D01*
X347256Y35598D01*
X347313Y35558D01*
X347364Y35510D01*
X347442Y35467D01*
X347516Y35415D01*
X347581Y35390D01*
X347642Y35356D01*
X347729Y35334D01*
X347813Y35302D01*
X347883Y35294D01*
X347950Y35277D01*
X348111Y35267D01*
X411070Y35267D01*
X411168Y35279D01*
X411267Y35282D01*
X411326Y35299D01*
X411386Y35307D01*
X411478Y35343D01*
X411573Y35371D01*
X411625Y35401D01*
X411681Y35424D01*
X411761Y35482D01*
X411847Y35532D01*
X411922Y35598D01*
X411939Y35610D01*
X411947Y35620D01*
X411968Y35638D01*
X440826Y64496D01*
X440886Y64575D01*
X440954Y64647D01*
X440983Y64700D01*
X441020Y64748D01*
X441060Y64839D01*
X441108Y64925D01*
X441123Y64984D01*
X441147Y65039D01*
X441162Y65137D01*
X441187Y65233D01*
X441193Y65333D01*
X441197Y65354D01*
X441195Y65366D01*
X441197Y65394D01*
X441197Y109318D01*
X457145Y125266D01*
X457206Y125344D01*
X457274Y125416D01*
X457303Y125469D01*
X457340Y125517D01*
X457379Y125608D01*
X457427Y125695D01*
X457442Y125753D01*
X457466Y125809D01*
X457482Y125907D01*
X457507Y126003D01*
X457513Y126103D01*
X457516Y126123D01*
X457515Y126135D01*
X457517Y126163D01*
X457517Y128200D01*
X458435Y130418D01*
X460132Y132115D01*
X462350Y133033D01*
X464750Y133033D01*
X466968Y132115D01*
X468665Y130418D01*
X469583Y128200D01*
X469583Y125800D01*
X468665Y123582D01*
X466968Y121885D01*
X464750Y120967D01*
X462713Y120967D01*
X462615Y120954D01*
X462516Y120951D01*
X462458Y120935D01*
X462398Y120927D01*
X462306Y120890D01*
X462211Y120863D01*
X462158Y120832D01*
X462102Y120810D01*
X462022Y120752D01*
X461937Y120701D01*
X461861Y120635D01*
X461845Y120623D01*
X461837Y120614D01*
X461816Y120595D01*
X448174Y106954D01*
X448114Y106875D01*
X448046Y106803D01*
X448017Y106750D01*
X447980Y106702D01*
X447940Y106611D01*
X447892Y106525D01*
X447877Y106466D01*
X447853Y106411D01*
X447838Y106313D01*
X447813Y106217D01*
X447807Y106117D01*
X447803Y106096D01*
X447805Y106084D01*
X447803Y106056D01*
X447803Y62132D01*
X414332Y28661D01*
X304308Y28661D01*
X304259Y28655D01*
X304209Y28657D01*
X304102Y28635D01*
X303993Y28621D01*
X303946Y28603D01*
X303898Y28593D01*
X303799Y28545D01*
X303697Y28504D01*
X303657Y28475D01*
X303612Y28453D01*
X303529Y28382D01*
X303440Y28318D01*
X303408Y28279D01*
X303370Y28247D01*
X303307Y28157D01*
X303237Y28073D01*
X303216Y28028D01*
X303187Y27987D01*
X303148Y27884D01*
X303101Y27785D01*
X303092Y27736D01*
X303074Y27690D01*
X303062Y27580D01*
X303042Y27473D01*
X303045Y27423D01*
X303039Y27374D01*
X303055Y27265D01*
X303061Y27155D01*
X303077Y27108D01*
X303084Y27059D01*
X303136Y26906D01*
X303745Y25436D01*
X303745Y22824D01*
X303364Y21905D01*
X303346Y21838D01*
X303318Y21774D01*
X303304Y21685D01*
X303280Y21599D01*
X303279Y21529D01*
X303268Y21460D01*
X303277Y21370D01*
X303275Y21281D01*
X303291Y21213D01*
X303298Y21143D01*
X303328Y21059D01*
X303349Y20971D01*
X303382Y20909D01*
X303406Y20844D01*
X303456Y20770D01*
X303498Y20690D01*
X303545Y20639D01*
X303584Y20581D01*
X303652Y20521D01*
X303712Y20455D01*
X303770Y20417D01*
X303823Y20370D01*
X303903Y20329D01*
X303978Y20280D01*
X304044Y20257D01*
X304106Y20226D01*
X304194Y20206D01*
X304278Y20177D01*
X304348Y20171D01*
X304416Y20156D01*
X304506Y20159D01*
X304595Y20152D01*
X304664Y20164D01*
X304734Y20166D01*
X304820Y20191D01*
X304909Y20206D01*
X304972Y20235D01*
X305040Y20254D01*
X305117Y20300D01*
X305199Y20337D01*
X305253Y20380D01*
X305313Y20416D01*
X305434Y20522D01*
X305728Y20815D01*
X309246Y22273D01*
X313054Y22273D01*
X316572Y20815D01*
X319265Y18122D01*
X320723Y14604D01*
X320723Y10796D01*
X319265Y7278D01*
X316695Y4707D01*
X316610Y4598D01*
X316521Y4491D01*
X316513Y4472D01*
X316500Y4456D01*
X316445Y4328D01*
X316386Y4203D01*
X316382Y4183D01*
X316374Y4164D01*
X316352Y4026D01*
X316326Y3890D01*
X316327Y3870D01*
X316324Y3850D01*
X316337Y3711D01*
X316346Y3573D01*
X316352Y3554D01*
X316354Y3534D01*
X316401Y3402D01*
X316444Y3271D01*
X316455Y3253D01*
X316462Y3234D01*
X316540Y3119D01*
X316614Y3002D01*
X316629Y2988D01*
X316640Y2971D01*
X316744Y2879D01*
X316846Y2784D01*
X316863Y2774D01*
X316879Y2761D01*
X317003Y2697D01*
X317124Y2630D01*
X317144Y2625D01*
X317162Y2616D01*
X317298Y2586D01*
X317432Y2551D01*
X317460Y2549D01*
X317472Y2546D01*
X317493Y2547D01*
X317593Y2541D01*
X330107Y2541D01*
X330245Y2558D01*
X330384Y2571D01*
X330403Y2578D01*
X330423Y2581D01*
X330552Y2632D01*
X330683Y2679D01*
X330700Y2690D01*
X330718Y2698D01*
X330831Y2779D01*
X330946Y2857D01*
X330959Y2873D01*
X330976Y2884D01*
X331065Y2992D01*
X331156Y3096D01*
X331166Y3114D01*
X331179Y3129D01*
X331238Y3255D01*
X331301Y3379D01*
X331305Y3399D01*
X331314Y3417D01*
X331340Y3553D01*
X331371Y3689D01*
X331370Y3710D01*
X331374Y3729D01*
X331365Y3868D01*
X331361Y4007D01*
X331355Y4027D01*
X331354Y4047D01*
X331311Y4179D01*
X331273Y4313D01*
X331262Y4330D01*
X331256Y4349D01*
X331181Y4467D01*
X331111Y4587D01*
X331093Y4608D01*
X331086Y4618D01*
X331071Y4632D01*
X331005Y4707D01*
X328435Y7278D01*
X326977Y10796D01*
X326977Y14604D01*
X328435Y18122D01*
X331128Y20815D01*
X334646Y22273D01*
X338454Y22273D01*
X341972Y20815D01*
X344665Y18122D01*
X346123Y14604D01*
X346123Y10796D01*
X344665Y7278D01*
X342095Y4707D01*
X342010Y4598D01*
X341921Y4491D01*
X341913Y4472D01*
X341900Y4456D01*
X341845Y4328D01*
X341786Y4203D01*
X341782Y4183D01*
X341774Y4164D01*
X341752Y4026D01*
X341726Y3890D01*
X341727Y3870D01*
X341724Y3850D01*
X341737Y3711D01*
X341746Y3573D01*
X341752Y3554D01*
X341754Y3534D01*
X341801Y3402D01*
X341844Y3271D01*
X341855Y3253D01*
X341862Y3234D01*
X341940Y3119D01*
X342014Y3002D01*
X342029Y2988D01*
X342040Y2971D01*
X342144Y2879D01*
X342246Y2784D01*
X342263Y2774D01*
X342279Y2761D01*
X342403Y2697D01*
X342524Y2630D01*
X342544Y2625D01*
X342562Y2616D01*
X342698Y2586D01*
X342832Y2551D01*
X342860Y2549D01*
X342872Y2546D01*
X342893Y2547D01*
X342993Y2541D01*
X355507Y2541D01*
X355645Y2558D01*
X355784Y2571D01*
X355803Y2578D01*
X355823Y2581D01*
X355952Y2632D01*
X356083Y2679D01*
X356100Y2690D01*
X356118Y2698D01*
X356231Y2779D01*
X356346Y2857D01*
X356359Y2873D01*
X356376Y2884D01*
X356465Y2992D01*
X356556Y3096D01*
X356566Y3114D01*
X356579Y3129D01*
X356638Y3255D01*
X356701Y3379D01*
X356705Y3399D01*
X356714Y3417D01*
X356740Y3553D01*
X356771Y3689D01*
X356770Y3710D01*
X356774Y3729D01*
X356765Y3868D01*
X356761Y4007D01*
X356755Y4027D01*
X356754Y4047D01*
X356711Y4179D01*
X356673Y4313D01*
X356662Y4330D01*
X356656Y4349D01*
X356581Y4467D01*
X356511Y4587D01*
X356493Y4608D01*
X356486Y4618D01*
X356471Y4632D01*
X356405Y4707D01*
X353835Y7278D01*
X352377Y10796D01*
X352377Y14604D01*
X353835Y18122D01*
X356528Y20815D01*
X360046Y22273D01*
X363854Y22273D01*
X367372Y20815D01*
X370065Y18122D01*
X371523Y14604D01*
X371523Y10796D01*
X370065Y7278D01*
X367495Y4707D01*
X367410Y4598D01*
X367321Y4491D01*
X367313Y4472D01*
X367300Y4456D01*
X367245Y4328D01*
X367186Y4203D01*
X367182Y4183D01*
X367174Y4164D01*
X367152Y4026D01*
X367126Y3890D01*
X367127Y3870D01*
X367124Y3850D01*
X367137Y3711D01*
X367146Y3573D01*
X367152Y3554D01*
X367154Y3534D01*
X367201Y3402D01*
X367244Y3271D01*
X367255Y3253D01*
X367262Y3234D01*
X367340Y3119D01*
X367414Y3002D01*
X367429Y2988D01*
X367440Y2971D01*
X367544Y2879D01*
X367646Y2784D01*
X367663Y2774D01*
X367679Y2761D01*
X367803Y2697D01*
X367924Y2630D01*
X367944Y2625D01*
X367962Y2616D01*
X368098Y2586D01*
X368232Y2551D01*
X368260Y2549D01*
X368272Y2546D01*
X368293Y2547D01*
X368393Y2541D01*
X380907Y2541D01*
X381045Y2558D01*
X381184Y2571D01*
X381203Y2578D01*
X381223Y2581D01*
X381352Y2632D01*
X381483Y2679D01*
X381500Y2690D01*
X381518Y2698D01*
X381631Y2779D01*
X381746Y2857D01*
X381759Y2873D01*
X381776Y2884D01*
X381865Y2992D01*
X381956Y3096D01*
X381966Y3114D01*
X381979Y3129D01*
X382038Y3255D01*
X382101Y3379D01*
X382105Y3399D01*
X382114Y3417D01*
X382140Y3553D01*
X382171Y3689D01*
X382170Y3710D01*
X382174Y3729D01*
X382165Y3868D01*
X382161Y4007D01*
X382155Y4027D01*
X382154Y4047D01*
X382111Y4179D01*
X382073Y4313D01*
X382062Y4330D01*
X382056Y4349D01*
X381981Y4467D01*
X381911Y4587D01*
X381893Y4608D01*
X381886Y4618D01*
X381871Y4632D01*
X381805Y4707D01*
X379235Y7278D01*
X377777Y10796D01*
X377777Y14604D01*
X379235Y18122D01*
X381928Y20815D01*
X385446Y22273D01*
X389254Y22273D01*
X392772Y20815D01*
X395465Y18122D01*
X396923Y14604D01*
X396923Y10796D01*
X395465Y7278D01*
X392895Y4707D01*
X392810Y4598D01*
X392721Y4491D01*
X392713Y4472D01*
X392700Y4456D01*
X392645Y4328D01*
X392586Y4203D01*
X392582Y4183D01*
X392574Y4164D01*
X392552Y4026D01*
X392526Y3890D01*
X392527Y3870D01*
X392524Y3850D01*
X392537Y3711D01*
X392546Y3573D01*
X392552Y3554D01*
X392554Y3534D01*
X392601Y3402D01*
X392644Y3271D01*
X392655Y3253D01*
X392662Y3234D01*
X392740Y3119D01*
X392814Y3002D01*
X392829Y2988D01*
X392840Y2971D01*
X392944Y2879D01*
X393046Y2784D01*
X393063Y2774D01*
X393079Y2761D01*
X393203Y2697D01*
X393324Y2630D01*
X393344Y2625D01*
X393362Y2616D01*
X393498Y2586D01*
X393632Y2551D01*
X393660Y2549D01*
X393672Y2546D01*
X393693Y2547D01*
X393793Y2541D01*
X406307Y2541D01*
X406445Y2558D01*
X406584Y2571D01*
X406603Y2578D01*
X406623Y2581D01*
X406752Y2632D01*
X406883Y2679D01*
X406900Y2690D01*
X406918Y2698D01*
X407031Y2779D01*
X407146Y2857D01*
X407159Y2873D01*
X407176Y2884D01*
X407265Y2992D01*
X407356Y3096D01*
X407366Y3114D01*
X407379Y3129D01*
X407438Y3255D01*
X407501Y3379D01*
X407505Y3399D01*
X407514Y3417D01*
X407540Y3553D01*
X407571Y3689D01*
X407570Y3710D01*
X407574Y3729D01*
X407565Y3868D01*
X407561Y4007D01*
X407555Y4027D01*
X407554Y4047D01*
X407511Y4179D01*
X407473Y4313D01*
X407462Y4330D01*
X407456Y4349D01*
X407381Y4467D01*
X407311Y4587D01*
X407293Y4608D01*
X407286Y4618D01*
X407271Y4632D01*
X407205Y4707D01*
X404635Y7278D01*
X403177Y10796D01*
X403177Y14604D01*
X404635Y18122D01*
X407328Y20815D01*
X410846Y22273D01*
X414654Y22273D01*
X418172Y20815D01*
X420865Y18122D01*
X422323Y14604D01*
X422323Y10796D01*
X420865Y7278D01*
X418295Y4707D01*
X418210Y4598D01*
X418121Y4491D01*
X418113Y4472D01*
X418100Y4456D01*
X418045Y4328D01*
X417986Y4203D01*
X417982Y4183D01*
X417974Y4164D01*
X417952Y4026D01*
X417926Y3890D01*
X417927Y3870D01*
X417924Y3850D01*
X417937Y3711D01*
X417946Y3573D01*
X417952Y3554D01*
X417954Y3534D01*
X418001Y3402D01*
X418044Y3271D01*
X418055Y3253D01*
X418062Y3234D01*
X418140Y3119D01*
X418214Y3002D01*
X418229Y2988D01*
X418240Y2971D01*
X418344Y2879D01*
X418446Y2784D01*
X418463Y2774D01*
X418479Y2761D01*
X418603Y2697D01*
X418724Y2630D01*
X418744Y2625D01*
X418762Y2616D01*
X418898Y2586D01*
X419032Y2551D01*
X419060Y2549D01*
X419072Y2546D01*
X419093Y2547D01*
X419193Y2541D01*
X431707Y2541D01*
X431845Y2558D01*
X431984Y2571D01*
X432003Y2578D01*
X432023Y2581D01*
X432152Y2632D01*
X432283Y2679D01*
X432300Y2690D01*
X432318Y2698D01*
X432431Y2779D01*
X432546Y2857D01*
X432559Y2873D01*
X432576Y2884D01*
X432665Y2992D01*
X432756Y3096D01*
X432766Y3114D01*
X432779Y3129D01*
X432838Y3255D01*
X432901Y3379D01*
X432905Y3399D01*
X432914Y3417D01*
X432940Y3553D01*
X432971Y3689D01*
X432970Y3710D01*
X432974Y3729D01*
X432965Y3868D01*
X432961Y4007D01*
X432955Y4027D01*
X432954Y4047D01*
X432911Y4179D01*
X432873Y4313D01*
X432862Y4330D01*
X432856Y4349D01*
X432781Y4467D01*
X432711Y4587D01*
X432693Y4608D01*
X432686Y4618D01*
X432671Y4632D01*
X432605Y4707D01*
X430035Y7278D01*
X428577Y10796D01*
X428577Y14604D01*
X430035Y18122D01*
X432728Y20815D01*
X436246Y22273D01*
X440054Y22273D01*
X443572Y20815D01*
X446265Y18122D01*
X447723Y14604D01*
X447723Y10796D01*
X446265Y7278D01*
X443695Y4707D01*
X443610Y4598D01*
X443521Y4491D01*
X443513Y4472D01*
X443500Y4456D01*
X443445Y4328D01*
X443386Y4203D01*
X443382Y4183D01*
X443374Y4164D01*
X443352Y4026D01*
X443326Y3890D01*
X443327Y3870D01*
X443324Y3850D01*
X443337Y3711D01*
X443346Y3573D01*
X443352Y3554D01*
X443354Y3534D01*
X443401Y3402D01*
X443444Y3271D01*
X443455Y3253D01*
X443462Y3234D01*
X443540Y3119D01*
X443614Y3002D01*
X443629Y2988D01*
X443640Y2971D01*
X443744Y2879D01*
X443846Y2784D01*
X443863Y2774D01*
X443879Y2761D01*
X444003Y2697D01*
X444124Y2630D01*
X444144Y2625D01*
X444162Y2616D01*
X444298Y2586D01*
X444432Y2551D01*
X444460Y2549D01*
X444472Y2546D01*
X444493Y2547D01*
X444593Y2541D01*
X449580Y2541D01*
X449678Y2553D01*
X449777Y2556D01*
X449835Y2573D01*
X449896Y2581D01*
X449988Y2617D01*
X450083Y2645D01*
X450135Y2675D01*
X450191Y2698D01*
X450271Y2756D01*
X450357Y2806D01*
X450432Y2872D01*
X450449Y2884D01*
X450456Y2894D01*
X450477Y2912D01*
X454610Y7045D01*
X454683Y7139D01*
X454762Y7229D01*
X454780Y7265D01*
X454805Y7297D01*
X454853Y7406D01*
X454907Y7512D01*
X454915Y7551D01*
X454932Y7588D01*
X454950Y7706D01*
X454976Y7822D01*
X454975Y7862D01*
X454981Y7902D01*
X454970Y8021D01*
X454967Y8140D01*
X454955Y8179D01*
X454952Y8219D01*
X454911Y8331D01*
X454878Y8445D01*
X454858Y8480D01*
X454844Y8518D01*
X454777Y8617D01*
X454717Y8719D01*
X454677Y8765D01*
X454665Y8782D01*
X454650Y8795D01*
X454610Y8840D01*
X452071Y11380D01*
X450009Y16357D01*
X450009Y21743D01*
X452071Y26720D01*
X455880Y30529D01*
X460857Y32591D01*
X466243Y32591D01*
X471220Y30529D01*
X473760Y27990D01*
X473854Y27917D01*
X473943Y27838D01*
X473979Y27820D01*
X474011Y27795D01*
X474120Y27747D01*
X474226Y27693D01*
X474266Y27685D01*
X474303Y27668D01*
X474421Y27650D01*
X474537Y27624D01*
X474577Y27625D01*
X474617Y27619D01*
X474736Y27630D01*
X474854Y27633D01*
X474893Y27645D01*
X474934Y27648D01*
X475046Y27689D01*
X475160Y27722D01*
X475195Y27742D01*
X475233Y27756D01*
X475331Y27823D01*
X475434Y27883D01*
X475479Y27923D01*
X475496Y27935D01*
X475509Y27950D01*
X475555Y27990D01*
X479688Y32123D01*
X479748Y32201D01*
X479816Y32273D01*
X479842Y32319D01*
X479844Y32322D01*
X479847Y32328D01*
X479882Y32374D01*
X479922Y32465D01*
X479970Y32551D01*
X479985Y32610D01*
X480009Y32666D01*
X480024Y32764D01*
X480049Y32859D01*
X480055Y32959D01*
X480059Y32980D01*
X480057Y32992D01*
X480059Y33020D01*
X480059Y195580D01*
X480047Y195678D01*
X480044Y195777D01*
X480027Y195835D01*
X480019Y195896D01*
X479983Y195988D01*
X479955Y196083D01*
X479925Y196135D01*
X479902Y196191D01*
X479844Y196271D01*
X479794Y196357D01*
X479728Y196432D01*
X479716Y196449D01*
X479706Y196456D01*
X479688Y196477D01*
X475555Y200610D01*
X475461Y200683D01*
X475371Y200762D01*
X475335Y200780D01*
X475303Y200805D01*
X475194Y200853D01*
X475088Y200907D01*
X475049Y200915D01*
X475012Y200932D01*
X474894Y200950D01*
X474778Y200976D01*
X474738Y200975D01*
X474698Y200981D01*
X474579Y200970D01*
X474460Y200967D01*
X474421Y200955D01*
X474381Y200952D01*
X474269Y200911D01*
X474155Y200878D01*
X474120Y200858D01*
X474082Y200844D01*
X473983Y200777D01*
X473881Y200717D01*
X473835Y200677D01*
X473818Y200665D01*
X473805Y200650D01*
X473760Y200610D01*
X471220Y198071D01*
X466234Y196006D01*
X466195Y196001D01*
X466125Y196002D01*
X466037Y195981D01*
X465948Y195969D01*
X465883Y195944D01*
X465816Y195927D01*
X465736Y195885D01*
X465653Y195852D01*
X465596Y195811D01*
X465534Y195779D01*
X465468Y195718D01*
X465395Y195666D01*
X465351Y195612D01*
X465299Y195565D01*
X465250Y195490D01*
X465192Y195421D01*
X465163Y195357D01*
X465124Y195299D01*
X465095Y195214D01*
X465057Y195133D01*
X465044Y195064D01*
X465021Y194998D01*
X465014Y194909D01*
X464997Y194821D01*
X465002Y194751D01*
X464996Y194681D01*
X465011Y194593D01*
X465017Y194503D01*
X465038Y194437D01*
X465050Y194368D01*
X465087Y194286D01*
X465115Y194201D01*
X465152Y194142D01*
X465181Y194078D01*
X465237Y194008D01*
X465285Y193932D01*
X465336Y193884D01*
X465380Y193830D01*
X465451Y193775D01*
X465517Y193714D01*
X465578Y193680D01*
X465634Y193638D01*
X465778Y193567D01*
X466968Y193075D01*
X468665Y191378D01*
X469583Y189160D01*
X469583Y186760D01*
X468665Y184542D01*
X466968Y182845D01*
X464750Y181927D01*
X462350Y181927D01*
X460132Y182845D01*
X458435Y184542D01*
X457517Y186760D01*
X457517Y189160D01*
X458435Y191378D01*
X460132Y193075D01*
X461322Y193567D01*
X461382Y193602D01*
X461447Y193628D01*
X461520Y193680D01*
X461598Y193725D01*
X461648Y193773D01*
X461705Y193814D01*
X461762Y193884D01*
X461827Y193946D01*
X461863Y194006D01*
X461908Y194059D01*
X461946Y194141D01*
X461993Y194217D01*
X462013Y194284D01*
X462043Y194347D01*
X462060Y194435D01*
X462086Y194521D01*
X462090Y194591D01*
X462103Y194660D01*
X462097Y194749D01*
X462102Y194839D01*
X462087Y194907D01*
X462083Y194977D01*
X462055Y195062D01*
X462037Y195150D01*
X462007Y195213D01*
X461985Y195279D01*
X461937Y195355D01*
X461898Y195436D01*
X461852Y195489D01*
X461815Y195548D01*
X461749Y195610D01*
X461691Y195678D01*
X461634Y195718D01*
X461583Y195766D01*
X461505Y195809D01*
X461431Y195861D01*
X461366Y195886D01*
X461305Y195920D01*
X461218Y195942D01*
X461134Y195974D01*
X461064Y195982D01*
X460997Y195999D01*
X460860Y196008D01*
X455880Y198071D01*
X452071Y201880D01*
X450009Y206857D01*
X450009Y212243D01*
X452071Y217220D01*
X454610Y219760D01*
X454683Y219854D01*
X454762Y219943D01*
X454780Y219979D01*
X454805Y220011D01*
X454853Y220120D01*
X454907Y220226D01*
X454915Y220266D01*
X454932Y220303D01*
X454950Y220421D01*
X454976Y220537D01*
X454975Y220577D01*
X454981Y220617D01*
X454970Y220736D01*
X454967Y220854D01*
X454955Y220893D01*
X454952Y220934D01*
X454911Y221046D01*
X454878Y221160D01*
X454858Y221195D01*
X454844Y221233D01*
X454777Y221331D01*
X454717Y221434D01*
X454677Y221479D01*
X454665Y221496D01*
X454650Y221509D01*
X454610Y221555D01*
X450477Y225688D01*
X450399Y225748D01*
X450327Y225816D01*
X450274Y225845D01*
X450226Y225882D01*
X450135Y225922D01*
X450049Y225970D01*
X449990Y225985D01*
X449934Y226009D01*
X449836Y226024D01*
X449741Y226049D01*
X449641Y226055D01*
X449620Y226059D01*
X449608Y226057D01*
X449580Y226059D01*
X444593Y226059D01*
X444455Y226042D01*
X444316Y226029D01*
X444297Y226022D01*
X444277Y226019D01*
X444148Y225968D01*
X444017Y225921D01*
X444000Y225910D01*
X443982Y225902D01*
X443869Y225821D01*
X443754Y225743D01*
X443741Y225727D01*
X443724Y225716D01*
X443635Y225608D01*
X443544Y225504D01*
X443534Y225486D01*
X443521Y225471D01*
X443462Y225345D01*
X443399Y225221D01*
X443395Y225201D01*
X443386Y225183D01*
X443360Y225047D01*
X443329Y224911D01*
X443330Y224890D01*
X443326Y224871D01*
X443335Y224732D01*
X443339Y224593D01*
X443345Y224573D01*
X443346Y224553D01*
X443389Y224421D01*
X443427Y224287D01*
X443438Y224270D01*
X443444Y224251D01*
X443519Y224133D01*
X443589Y224013D01*
X443607Y223992D01*
X443614Y223982D01*
X443629Y223968D01*
X443695Y223893D01*
X446265Y221322D01*
X447723Y217804D01*
X447723Y213996D01*
X446265Y210478D01*
X443572Y207785D01*
X440054Y206327D01*
X436246Y206327D01*
X432728Y207785D01*
X430035Y210478D01*
X428577Y213996D01*
X428577Y217804D01*
X430035Y221322D01*
X432605Y223893D01*
X432690Y224002D01*
X432779Y224109D01*
X432787Y224128D01*
X432800Y224144D01*
X432855Y224272D01*
X432914Y224397D01*
X432918Y224417D01*
X432926Y224436D01*
X432948Y224574D01*
X432974Y224710D01*
X432973Y224730D01*
X432976Y224750D01*
X432963Y224889D01*
X432954Y225027D01*
X432948Y225046D01*
X432946Y225066D01*
X432899Y225198D01*
X432856Y225329D01*
X432845Y225347D01*
X432838Y225366D01*
X432760Y225481D01*
X432686Y225598D01*
X432671Y225612D01*
X432660Y225629D01*
X432556Y225721D01*
X432454Y225816D01*
X432437Y225826D01*
X432421Y225839D01*
X432297Y225903D01*
X432176Y225970D01*
X432156Y225975D01*
X432138Y225984D01*
X432002Y226014D01*
X431868Y226049D01*
X431840Y226051D01*
X431828Y226054D01*
X431807Y226053D01*
X431707Y226059D01*
X419193Y226059D01*
X419055Y226042D01*
X418916Y226029D01*
X418897Y226022D01*
X418877Y226019D01*
X418748Y225968D01*
X418617Y225921D01*
X418600Y225910D01*
X418582Y225902D01*
X418469Y225821D01*
X418354Y225743D01*
X418341Y225727D01*
X418324Y225716D01*
X418235Y225608D01*
X418144Y225504D01*
X418134Y225486D01*
X418121Y225471D01*
X418062Y225345D01*
X417999Y225221D01*
X417995Y225201D01*
X417986Y225183D01*
X417960Y225047D01*
X417929Y224911D01*
X417930Y224890D01*
X417926Y224871D01*
X417935Y224732D01*
X417939Y224593D01*
X417945Y224573D01*
X417946Y224553D01*
X417989Y224421D01*
X418027Y224287D01*
X418038Y224270D01*
X418044Y224251D01*
X418119Y224133D01*
X418189Y224013D01*
X418207Y223992D01*
X418214Y223982D01*
X418229Y223968D01*
X418295Y223893D01*
X420865Y221322D01*
X422323Y217804D01*
X422323Y213996D01*
X420865Y210478D01*
X418172Y207785D01*
X414654Y206327D01*
X410846Y206327D01*
X407328Y207785D01*
X404635Y210478D01*
X403177Y213996D01*
X403177Y217804D01*
X404635Y221322D01*
X407205Y223893D01*
X407290Y224002D01*
X407379Y224109D01*
X407387Y224128D01*
X407400Y224144D01*
X407455Y224272D01*
X407514Y224397D01*
X407518Y224417D01*
X407526Y224436D01*
X407548Y224574D01*
X407574Y224710D01*
X407573Y224730D01*
X407576Y224750D01*
X407563Y224889D01*
X407554Y225027D01*
X407548Y225046D01*
X407546Y225066D01*
X407499Y225198D01*
X407456Y225329D01*
X407445Y225347D01*
X407438Y225366D01*
X407360Y225481D01*
X407286Y225598D01*
X407271Y225612D01*
X407260Y225629D01*
X407156Y225721D01*
X407054Y225816D01*
X407037Y225826D01*
X407021Y225839D01*
X406897Y225903D01*
X406776Y225970D01*
X406756Y225975D01*
X406738Y225984D01*
X406602Y226014D01*
X406468Y226049D01*
X406440Y226051D01*
X406428Y226054D01*
X406407Y226053D01*
X406307Y226059D01*
X393793Y226059D01*
X393655Y226042D01*
X393516Y226029D01*
X393497Y226022D01*
X393477Y226019D01*
X393348Y225968D01*
X393217Y225921D01*
X393200Y225910D01*
X393182Y225902D01*
X393069Y225821D01*
X392954Y225743D01*
X392941Y225727D01*
X392924Y225716D01*
X392835Y225608D01*
X392744Y225504D01*
X392734Y225486D01*
X392721Y225471D01*
X392662Y225345D01*
X392599Y225221D01*
X392595Y225201D01*
X392586Y225183D01*
X392560Y225047D01*
X392529Y224911D01*
X392530Y224890D01*
X392526Y224871D01*
X392535Y224732D01*
X392539Y224593D01*
X392545Y224573D01*
X392546Y224553D01*
X392589Y224421D01*
X392627Y224287D01*
X392638Y224270D01*
X392644Y224251D01*
X392719Y224133D01*
X392789Y224013D01*
X392807Y223992D01*
X392814Y223982D01*
X392829Y223968D01*
X392895Y223893D01*
X395465Y221322D01*
X396923Y217804D01*
X396923Y213996D01*
X395465Y210478D01*
X392772Y207785D01*
X389254Y206327D01*
X385446Y206327D01*
X381928Y207785D01*
X379235Y210478D01*
X377777Y213996D01*
X377777Y217804D01*
X379235Y221322D01*
X381805Y223893D01*
X381890Y224002D01*
X381979Y224109D01*
X381987Y224128D01*
X382000Y224144D01*
X382055Y224272D01*
X382114Y224397D01*
X382118Y224417D01*
X382126Y224436D01*
X382148Y224574D01*
X382174Y224710D01*
X382173Y224730D01*
X382176Y224750D01*
X382163Y224889D01*
X382154Y225027D01*
X382148Y225046D01*
X382146Y225066D01*
X382099Y225198D01*
X382056Y225329D01*
X382045Y225347D01*
X382038Y225366D01*
X381960Y225481D01*
X381886Y225598D01*
X381871Y225612D01*
X381860Y225629D01*
X381756Y225721D01*
X381654Y225816D01*
X381637Y225826D01*
X381621Y225839D01*
X381497Y225903D01*
X381376Y225970D01*
X381356Y225975D01*
X381338Y225984D01*
X381202Y226014D01*
X381068Y226049D01*
X381040Y226051D01*
X381028Y226054D01*
X381007Y226053D01*
X380907Y226059D01*
X368393Y226059D01*
X368255Y226042D01*
X368116Y226029D01*
X368097Y226022D01*
X368077Y226019D01*
X367948Y225968D01*
X367817Y225921D01*
X367800Y225910D01*
X367782Y225902D01*
X367669Y225821D01*
X367554Y225743D01*
X367541Y225727D01*
X367524Y225716D01*
X367435Y225608D01*
X367344Y225504D01*
X367334Y225486D01*
X367321Y225471D01*
X367262Y225345D01*
X367199Y225221D01*
X367195Y225201D01*
X367186Y225183D01*
X367160Y225047D01*
X367129Y224911D01*
X367130Y224890D01*
X367126Y224871D01*
X367135Y224732D01*
X367139Y224593D01*
X367145Y224573D01*
X367146Y224553D01*
X367189Y224421D01*
X367227Y224287D01*
X367238Y224270D01*
X367244Y224251D01*
X367319Y224133D01*
X367389Y224013D01*
X367407Y223992D01*
X367414Y223982D01*
X367429Y223968D01*
X367495Y223893D01*
X370065Y221322D01*
X371523Y217804D01*
X371523Y213996D01*
X370065Y210478D01*
X367372Y207785D01*
X363854Y206327D01*
X360046Y206327D01*
X356528Y207785D01*
X353835Y210478D01*
X352377Y213996D01*
X352377Y217804D01*
X353835Y221322D01*
X356405Y223893D01*
X356490Y224002D01*
X356579Y224109D01*
X356587Y224128D01*
X356600Y224144D01*
X356655Y224272D01*
X356714Y224397D01*
X356718Y224417D01*
X356726Y224436D01*
X356748Y224574D01*
X356774Y224710D01*
X356773Y224730D01*
X356776Y224750D01*
X356763Y224889D01*
X356754Y225027D01*
X356748Y225046D01*
X356746Y225066D01*
X356699Y225198D01*
X356656Y225329D01*
X356645Y225347D01*
X356638Y225366D01*
X356560Y225481D01*
X356486Y225598D01*
X356471Y225612D01*
X356460Y225629D01*
X356356Y225721D01*
X356254Y225816D01*
X356237Y225826D01*
X356221Y225839D01*
X356097Y225903D01*
X355976Y225970D01*
X355956Y225975D01*
X355938Y225984D01*
X355802Y226014D01*
X355668Y226049D01*
X355640Y226051D01*
X355628Y226054D01*
X355607Y226053D01*
X355507Y226059D01*
X342993Y226059D01*
X342855Y226042D01*
X342716Y226029D01*
X342697Y226022D01*
X342677Y226019D01*
X342548Y225968D01*
X342417Y225921D01*
X342400Y225910D01*
X342382Y225902D01*
X342269Y225821D01*
X342154Y225743D01*
X342141Y225727D01*
X342124Y225716D01*
X342035Y225608D01*
X341944Y225504D01*
X341934Y225486D01*
X341921Y225471D01*
X341862Y225345D01*
X341799Y225221D01*
X341795Y225201D01*
X341786Y225183D01*
X341760Y225047D01*
X341729Y224911D01*
X341730Y224890D01*
X341726Y224871D01*
X341735Y224732D01*
X341739Y224593D01*
X341745Y224573D01*
X341746Y224553D01*
X341789Y224421D01*
X341827Y224287D01*
X341838Y224270D01*
X341844Y224251D01*
X341919Y224133D01*
X341989Y224013D01*
X342007Y223992D01*
X342014Y223982D01*
X342029Y223968D01*
X342095Y223893D01*
X344665Y221322D01*
X346123Y217804D01*
X346123Y213996D01*
X344665Y210478D01*
X341972Y207785D01*
X338454Y206327D01*
X334646Y206327D01*
X331128Y207785D01*
X328435Y210478D01*
X326977Y213996D01*
X326977Y217804D01*
X328435Y221322D01*
X331005Y223893D01*
X331090Y224002D01*
X331179Y224109D01*
X331187Y224128D01*
X331200Y224144D01*
X331255Y224272D01*
X331314Y224397D01*
X331318Y224417D01*
X331326Y224436D01*
X331348Y224574D01*
X331374Y224710D01*
X331373Y224730D01*
X331376Y224750D01*
X331363Y224889D01*
X331354Y225027D01*
X331348Y225046D01*
X331346Y225066D01*
X331299Y225198D01*
X331256Y225329D01*
X331245Y225347D01*
X331238Y225366D01*
X331160Y225481D01*
X331086Y225598D01*
X331071Y225612D01*
X331060Y225629D01*
X330956Y225721D01*
X330854Y225816D01*
X330837Y225826D01*
X330821Y225839D01*
X330697Y225903D01*
X330576Y225970D01*
X330556Y225975D01*
X330538Y225984D01*
X330402Y226014D01*
X330268Y226049D01*
X330240Y226051D01*
X330228Y226054D01*
X330207Y226053D01*
X330107Y226059D01*
X317593Y226059D01*
X317455Y226042D01*
X317316Y226029D01*
X317297Y226022D01*
X317277Y226019D01*
X317148Y225968D01*
X317017Y225921D01*
X317000Y225910D01*
X316982Y225902D01*
X316869Y225821D01*
X316754Y225743D01*
X316741Y225727D01*
X316724Y225716D01*
X316635Y225608D01*
X316544Y225504D01*
X316534Y225486D01*
X316521Y225471D01*
X316462Y225345D01*
X316399Y225221D01*
X316395Y225201D01*
X316386Y225183D01*
X316360Y225047D01*
X316329Y224911D01*
X316330Y224890D01*
X316326Y224871D01*
X316335Y224732D01*
X316339Y224593D01*
X316345Y224573D01*
X316346Y224553D01*
X316389Y224421D01*
X316427Y224287D01*
X316438Y224270D01*
X316444Y224251D01*
X316519Y224133D01*
X316589Y224013D01*
X316607Y223992D01*
X316614Y223982D01*
X316629Y223968D01*
X316695Y223893D01*
X319265Y221322D01*
X320723Y217804D01*
X320723Y213996D01*
X319265Y210478D01*
X316572Y207785D01*
X313054Y206327D01*
X309246Y206327D01*
X305728Y207785D01*
X303035Y210478D01*
X301577Y213996D01*
X301577Y217804D01*
X303035Y221322D01*
X305605Y223893D01*
X305690Y224002D01*
X305779Y224109D01*
X305787Y224128D01*
X305800Y224144D01*
X305855Y224272D01*
X305914Y224397D01*
X305918Y224417D01*
X305926Y224436D01*
X305948Y224574D01*
X305974Y224710D01*
X305973Y224730D01*
X305976Y224750D01*
X305963Y224889D01*
X305954Y225027D01*
X305948Y225046D01*
X305946Y225066D01*
X305899Y225198D01*
X305856Y225329D01*
X305845Y225347D01*
X305838Y225366D01*
X305760Y225481D01*
X305686Y225598D01*
X305671Y225612D01*
X305660Y225629D01*
X305556Y225721D01*
X305454Y225816D01*
X305437Y225826D01*
X305421Y225839D01*
X305297Y225903D01*
X305176Y225970D01*
X305156Y225975D01*
X305138Y225984D01*
X305002Y226014D01*
X304868Y226049D01*
X304840Y226051D01*
X304828Y226054D01*
X304807Y226053D01*
X304707Y226059D01*
X292193Y226059D01*
X292055Y226042D01*
X291916Y226029D01*
X291897Y226022D01*
X291877Y226019D01*
X291748Y225968D01*
X291617Y225921D01*
X291600Y225910D01*
X291582Y225902D01*
X291469Y225821D01*
X291354Y225743D01*
X291341Y225727D01*
X291324Y225716D01*
X291235Y225608D01*
X291144Y225504D01*
X291134Y225486D01*
X291121Y225471D01*
X291062Y225345D01*
X290999Y225221D01*
X290995Y225201D01*
X290986Y225183D01*
X290960Y225047D01*
X290929Y224911D01*
X290930Y224890D01*
X290926Y224871D01*
X290935Y224732D01*
X290939Y224593D01*
X290945Y224573D01*
X290946Y224553D01*
X290989Y224421D01*
X291027Y224287D01*
X291038Y224270D01*
X291044Y224251D01*
X291119Y224133D01*
X291189Y224013D01*
X291207Y223992D01*
X291214Y223982D01*
X291229Y223968D01*
X291295Y223893D01*
X293865Y221322D01*
X295323Y217804D01*
X295323Y213996D01*
X293865Y210478D01*
X291172Y207785D01*
X287654Y206327D01*
X283846Y206327D01*
X280328Y207785D01*
X277635Y210478D01*
X276177Y213996D01*
X276177Y217804D01*
X277635Y221322D01*
X280205Y223893D01*
X280290Y224002D01*
X280379Y224109D01*
X280387Y224128D01*
X280400Y224144D01*
X280455Y224272D01*
X280514Y224397D01*
X280518Y224417D01*
X280526Y224436D01*
X280548Y224574D01*
X280574Y224710D01*
X280573Y224730D01*
X280576Y224750D01*
X280563Y224889D01*
X280554Y225027D01*
X280548Y225046D01*
X280546Y225066D01*
X280499Y225198D01*
X280456Y225329D01*
X280445Y225347D01*
X280438Y225366D01*
X280360Y225481D01*
X280286Y225598D01*
X280271Y225612D01*
X280260Y225629D01*
X280156Y225721D01*
X280054Y225816D01*
X280037Y225826D01*
X280021Y225839D01*
X279897Y225903D01*
X279776Y225970D01*
X279756Y225975D01*
X279738Y225984D01*
X279602Y226014D01*
X279468Y226049D01*
X279440Y226051D01*
X279428Y226054D01*
X279407Y226053D01*
X279307Y226059D01*
X266793Y226059D01*
X266655Y226042D01*
X266516Y226029D01*
X266497Y226022D01*
X266477Y226019D01*
X266348Y225968D01*
X266217Y225921D01*
X266200Y225910D01*
X266182Y225902D01*
X266069Y225821D01*
X265954Y225743D01*
X265941Y225727D01*
X265924Y225716D01*
X265835Y225608D01*
X265744Y225504D01*
X265734Y225486D01*
X265721Y225471D01*
X265662Y225345D01*
X265599Y225221D01*
X265595Y225201D01*
X265586Y225183D01*
X265560Y225047D01*
X265529Y224911D01*
X265530Y224890D01*
X265526Y224871D01*
X265535Y224732D01*
X265539Y224593D01*
X265545Y224573D01*
X265546Y224553D01*
X265589Y224421D01*
X265627Y224287D01*
X265638Y224270D01*
X265644Y224251D01*
X265719Y224133D01*
X265789Y224013D01*
X265807Y223992D01*
X265814Y223982D01*
X265829Y223968D01*
X265895Y223893D01*
X268465Y221322D01*
X269923Y217804D01*
X269923Y213996D01*
X268465Y210478D01*
X265772Y207785D01*
X262254Y206327D01*
X258446Y206327D01*
X254928Y207785D01*
X252235Y210478D01*
X250777Y213996D01*
X250777Y217804D01*
X252235Y221322D01*
X254805Y223893D01*
X254890Y224002D01*
X254979Y224109D01*
X254987Y224128D01*
X255000Y224144D01*
X255055Y224272D01*
X255114Y224397D01*
X255118Y224417D01*
X255126Y224436D01*
X255148Y224574D01*
X255174Y224710D01*
X255173Y224730D01*
X255176Y224750D01*
X255163Y224889D01*
X255154Y225027D01*
X255148Y225046D01*
X255146Y225066D01*
X255099Y225198D01*
X255056Y225329D01*
X255045Y225347D01*
X255038Y225366D01*
X254960Y225481D01*
X254886Y225598D01*
X254871Y225612D01*
X254860Y225629D01*
X254756Y225721D01*
X254654Y225816D01*
X254637Y225826D01*
X254621Y225839D01*
X254497Y225903D01*
X254376Y225970D01*
X254356Y225975D01*
X254338Y225984D01*
X254202Y226014D01*
X254068Y226049D01*
X254040Y226051D01*
X254028Y226054D01*
X254007Y226053D01*
X253907Y226059D01*
X241393Y226059D01*
X241255Y226042D01*
X241116Y226029D01*
X241097Y226022D01*
X241077Y226019D01*
X240948Y225968D01*
X240817Y225921D01*
X240800Y225910D01*
X240782Y225902D01*
X240669Y225821D01*
X240554Y225743D01*
X240541Y225727D01*
X240524Y225716D01*
X240435Y225608D01*
X240344Y225504D01*
X240334Y225486D01*
X240321Y225471D01*
X240262Y225345D01*
X240199Y225221D01*
X240195Y225201D01*
X240186Y225183D01*
X240160Y225047D01*
X240129Y224911D01*
X240130Y224890D01*
X240126Y224871D01*
X240135Y224732D01*
X240139Y224593D01*
X240145Y224573D01*
X240146Y224553D01*
X240189Y224421D01*
X240227Y224287D01*
X240238Y224270D01*
X240244Y224251D01*
X240319Y224133D01*
X240389Y224013D01*
X240407Y223992D01*
X240414Y223982D01*
X240429Y223968D01*
X240495Y223893D01*
X243065Y221322D01*
X244523Y217804D01*
X244523Y213996D01*
X243065Y210478D01*
X240372Y207785D01*
X236854Y206327D01*
X233046Y206327D01*
X229528Y207785D01*
X226835Y210478D01*
X225377Y213996D01*
X225377Y217804D01*
X226835Y221322D01*
X229405Y223893D01*
X229490Y224002D01*
X229579Y224109D01*
X229587Y224128D01*
X229600Y224144D01*
X229655Y224272D01*
X229714Y224397D01*
X229718Y224417D01*
X229726Y224436D01*
X229748Y224574D01*
X229774Y224710D01*
X229773Y224730D01*
X229776Y224750D01*
X229763Y224889D01*
X229754Y225027D01*
X229748Y225046D01*
X229746Y225066D01*
X229699Y225198D01*
X229656Y225329D01*
X229645Y225347D01*
X229638Y225366D01*
X229560Y225481D01*
X229486Y225598D01*
X229471Y225612D01*
X229460Y225629D01*
X229356Y225721D01*
X229254Y225816D01*
X229237Y225826D01*
X229221Y225839D01*
X229097Y225903D01*
X228976Y225970D01*
X228956Y225975D01*
X228938Y225984D01*
X228802Y226014D01*
X228668Y226049D01*
X228640Y226051D01*
X228628Y226054D01*
X228607Y226053D01*
X228507Y226059D01*
X215993Y226059D01*
X215855Y226042D01*
X215716Y226029D01*
X215697Y226022D01*
X215677Y226019D01*
X215548Y225968D01*
X215417Y225921D01*
X215400Y225910D01*
X215382Y225902D01*
X215269Y225821D01*
X215154Y225743D01*
X215141Y225727D01*
X215124Y225716D01*
X215035Y225608D01*
X214944Y225504D01*
X214934Y225486D01*
X214921Y225471D01*
X214862Y225345D01*
X214799Y225221D01*
X214795Y225201D01*
X214786Y225183D01*
X214760Y225047D01*
X214729Y224911D01*
X214730Y224890D01*
X214726Y224871D01*
X214735Y224732D01*
X214739Y224593D01*
X214745Y224573D01*
X214746Y224553D01*
X214789Y224421D01*
X214827Y224287D01*
X214838Y224270D01*
X214844Y224251D01*
X214919Y224133D01*
X214989Y224013D01*
X215007Y223992D01*
X215014Y223982D01*
X215029Y223968D01*
X215095Y223893D01*
X217665Y221322D01*
X219123Y217804D01*
X219123Y213996D01*
X217665Y210478D01*
X214972Y207785D01*
X211454Y206327D01*
X207646Y206327D01*
X204128Y207785D01*
X201435Y210478D01*
X199977Y213996D01*
X199977Y217804D01*
X201435Y221322D01*
X204005Y223893D01*
X204090Y224002D01*
X204179Y224109D01*
X204187Y224128D01*
X204200Y224144D01*
X204255Y224272D01*
X204314Y224397D01*
X204318Y224417D01*
X204326Y224436D01*
X204348Y224574D01*
X204374Y224710D01*
X204373Y224730D01*
X204376Y224750D01*
X204363Y224889D01*
X204354Y225027D01*
X204348Y225046D01*
X204346Y225066D01*
X204299Y225198D01*
X204256Y225329D01*
X204245Y225347D01*
X204238Y225366D01*
X204160Y225481D01*
X204086Y225598D01*
X204071Y225612D01*
X204060Y225629D01*
X203956Y225721D01*
X203854Y225816D01*
X203837Y225826D01*
X203821Y225839D01*
X203697Y225903D01*
X203576Y225970D01*
X203556Y225975D01*
X203538Y225984D01*
X203402Y226014D01*
X203268Y226049D01*
X203240Y226051D01*
X203228Y226054D01*
X203207Y226053D01*
X203107Y226059D01*
X190593Y226059D01*
X190455Y226042D01*
X190316Y226029D01*
X190297Y226022D01*
X190277Y226019D01*
X190148Y225968D01*
X190017Y225921D01*
X190000Y225910D01*
X189982Y225902D01*
X189869Y225821D01*
X189754Y225743D01*
X189741Y225727D01*
X189724Y225716D01*
X189635Y225608D01*
X189544Y225504D01*
X189534Y225486D01*
X189521Y225471D01*
X189462Y225345D01*
X189399Y225221D01*
X189395Y225201D01*
X189386Y225183D01*
X189360Y225047D01*
X189329Y224911D01*
X189330Y224890D01*
X189326Y224871D01*
X189335Y224732D01*
X189339Y224593D01*
X189345Y224573D01*
X189346Y224553D01*
X189389Y224421D01*
X189427Y224287D01*
X189438Y224270D01*
X189444Y224251D01*
X189519Y224133D01*
X189589Y224013D01*
X189607Y223992D01*
X189614Y223982D01*
X189629Y223968D01*
X189695Y223893D01*
X192265Y221322D01*
X193723Y217804D01*
X193723Y213996D01*
X193169Y212660D01*
X193161Y212631D01*
X193148Y212605D01*
X193120Y212478D01*
X193085Y212353D01*
X193085Y212323D01*
X193078Y212295D01*
X193082Y212165D01*
X193080Y212035D01*
X193087Y212006D01*
X193088Y211977D01*
X193124Y211852D01*
X193154Y211726D01*
X193168Y211699D01*
X193176Y211671D01*
X193242Y211560D01*
X193303Y211445D01*
X193323Y211423D01*
X193338Y211397D01*
X193444Y211276D01*
X202886Y201834D01*
X202965Y201774D01*
X203037Y201706D01*
X203090Y201677D01*
X203138Y201640D01*
X203229Y201600D01*
X203315Y201552D01*
X203374Y201537D01*
X203429Y201513D01*
X203527Y201498D01*
X203623Y201473D01*
X203723Y201467D01*
X203744Y201463D01*
X203756Y201465D01*
X203784Y201463D01*
X281079Y201463D01*
X283855Y198686D01*
X283895Y198656D01*
X283928Y198619D01*
X284020Y198559D01*
X284107Y198491D01*
X284152Y198472D01*
X284194Y198444D01*
X284298Y198409D01*
X284399Y198365D01*
X284448Y198357D01*
X284495Y198341D01*
X284604Y198332D01*
X284713Y198315D01*
X284762Y198320D01*
X284812Y198316D01*
X284920Y198335D01*
X285029Y198345D01*
X285076Y198362D01*
X285125Y198370D01*
X285225Y198415D01*
X285329Y198453D01*
X285370Y198481D01*
X285415Y198501D01*
X285501Y198569D01*
X285592Y198631D01*
X285625Y198668D01*
X285663Y198699D01*
X285730Y198787D01*
X285802Y198870D01*
X285825Y198914D01*
X285855Y198954D01*
X285926Y199098D01*
X286535Y200569D01*
X288381Y202415D01*
X290794Y203415D01*
X293406Y203415D01*
X295819Y202415D01*
X297665Y200569D01*
X298665Y198156D01*
X298665Y195544D01*
X297665Y193131D01*
X295819Y191285D01*
X294348Y190676D01*
X294305Y190651D01*
X294258Y190634D01*
X294167Y190572D01*
X294072Y190518D01*
X294036Y190483D01*
X293995Y190456D01*
X293922Y190373D01*
X293843Y190297D01*
X293817Y190254D01*
X293785Y190217D01*
X293735Y190119D01*
X293677Y190026D01*
X293663Y189978D01*
X293640Y189934D01*
X293616Y189827D01*
X293584Y189722D01*
X293581Y189672D01*
X293570Y189624D01*
X293574Y189513D01*
X293568Y189404D01*
X293578Y189355D01*
X293580Y189306D01*
X293611Y189200D01*
X293633Y189093D01*
X293655Y189048D01*
X293668Y189000D01*
X293724Y188906D01*
X293772Y188807D01*
X293805Y188769D01*
X293830Y188726D01*
X293936Y188605D01*
X306615Y175926D01*
X306694Y175866D01*
X306766Y175798D01*
X306819Y175769D01*
X306867Y175732D01*
X306958Y175692D01*
X307044Y175644D01*
X307103Y175629D01*
X307158Y175605D01*
X307256Y175590D01*
X307352Y175565D01*
X307452Y175559D01*
X307473Y175555D01*
X307485Y175557D01*
X307513Y175555D01*
X325231Y175555D01*
X325280Y175561D01*
X325330Y175559D01*
X325437Y175581D01*
X325546Y175595D01*
X325593Y175613D01*
X325641Y175623D01*
X325740Y175671D01*
X325842Y175712D01*
X325882Y175741D01*
X325927Y175763D01*
X326010Y175834D01*
X326099Y175898D01*
X326131Y175937D01*
X326169Y175969D01*
X326232Y176059D01*
X326302Y176143D01*
X326323Y176188D01*
X326352Y176229D01*
X326391Y176332D01*
X326438Y176431D01*
X326447Y176480D01*
X326465Y176526D01*
X326477Y176636D01*
X326497Y176743D01*
X326494Y176793D01*
X326500Y176842D01*
X326484Y176951D01*
X326478Y177061D01*
X326462Y177108D01*
X326455Y177157D01*
X326403Y177310D01*
X325794Y178780D01*
X325794Y181392D01*
X326794Y183805D01*
X328640Y185651D01*
X331053Y186651D01*
X333665Y186651D01*
X336078Y185651D01*
X337924Y183805D01*
X338924Y181392D01*
X338924Y178780D01*
X337924Y176367D01*
X336078Y174521D01*
X334808Y173995D01*
X334765Y173970D01*
X334718Y173953D01*
X334627Y173892D01*
X334532Y173837D01*
X334496Y173803D01*
X334455Y173775D01*
X334382Y173692D01*
X334303Y173616D01*
X334277Y173574D01*
X334244Y173536D01*
X334194Y173438D01*
X334137Y173345D01*
X334122Y173297D01*
X334100Y173253D01*
X334076Y173146D01*
X334043Y173041D01*
X334041Y172991D01*
X334030Y172943D01*
X334033Y172833D01*
X334028Y172723D01*
X334038Y172675D01*
X334040Y172625D01*
X334070Y172519D01*
X334093Y172412D01*
X334114Y172367D01*
X334128Y172319D01*
X334184Y172225D01*
X334232Y172126D01*
X334265Y172088D01*
X334290Y172045D01*
X334396Y171925D01*
X385044Y121276D01*
X385123Y121216D01*
X385195Y121148D01*
X385248Y121119D01*
X385296Y121082D01*
X385387Y121042D01*
X385473Y120994D01*
X385532Y120979D01*
X385587Y120955D01*
X385685Y120940D01*
X385781Y120915D01*
X385881Y120909D01*
X385902Y120905D01*
X385914Y120907D01*
X385942Y120905D01*
X388664Y120905D01*
X391091Y119899D01*
X392949Y118041D01*
X393955Y115614D01*
X393955Y112986D01*
X392949Y110559D01*
X391091Y108701D01*
X388664Y107695D01*
X386036Y107695D01*
X383609Y108701D01*
X381751Y110559D01*
X380745Y112986D01*
X380745Y115708D01*
X380733Y115806D01*
X380730Y115905D01*
X380713Y115964D01*
X380705Y116024D01*
X380669Y116116D01*
X380641Y116211D01*
X380611Y116263D01*
X380588Y116319D01*
X380530Y116399D01*
X380480Y116485D01*
X380414Y116560D01*
X380402Y116577D01*
X380392Y116585D01*
X380374Y116606D01*
X328402Y168578D01*
X328323Y168638D01*
X328251Y168706D01*
X328198Y168735D01*
X328150Y168772D01*
X328059Y168812D01*
X327973Y168860D01*
X327914Y168875D01*
X327859Y168899D01*
X327761Y168914D01*
X327665Y168939D01*
X327565Y168945D01*
X327544Y168949D01*
X327532Y168947D01*
X327504Y168949D01*
X304251Y168949D01*
X278715Y194486D01*
X278636Y194546D01*
X278564Y194614D01*
X278511Y194643D01*
X278463Y194680D01*
X278372Y194720D01*
X278286Y194768D01*
X278227Y194783D01*
X278172Y194807D01*
X278074Y194822D01*
X277978Y194847D01*
X277878Y194853D01*
X277857Y194857D01*
X277845Y194855D01*
X277817Y194857D01*
X200522Y194857D01*
X198216Y197164D01*
X189873Y205506D01*
X189764Y205591D01*
X189657Y205680D01*
X189638Y205688D01*
X189622Y205701D01*
X189494Y205756D01*
X189369Y205815D01*
X189349Y205819D01*
X189330Y205827D01*
X189192Y205849D01*
X189056Y205875D01*
X189036Y205874D01*
X189016Y205877D01*
X188877Y205864D01*
X188739Y205855D01*
X188720Y205849D01*
X188700Y205847D01*
X188568Y205800D01*
X188437Y205757D01*
X188419Y205746D01*
X188400Y205739D01*
X188285Y205661D01*
X188168Y205587D01*
X188154Y205572D01*
X188137Y205561D01*
X188045Y205457D01*
X187950Y205355D01*
X187940Y205338D01*
X187927Y205322D01*
X187863Y205198D01*
X187796Y205077D01*
X187791Y205057D01*
X187782Y205039D01*
X187752Y204903D01*
X187717Y204769D01*
X187715Y204741D01*
X187712Y204729D01*
X187713Y204708D01*
X187707Y204608D01*
X187707Y180243D01*
X187719Y180145D01*
X187722Y180046D01*
X187739Y179988D01*
X187747Y179927D01*
X187783Y179835D01*
X187811Y179740D01*
X187832Y179704D01*
X187834Y179696D01*
X187844Y179680D01*
X187864Y179632D01*
X187922Y179552D01*
X187972Y179466D01*
X188000Y179434D01*
X188004Y179428D01*
X188014Y179418D01*
X188038Y179391D01*
X188050Y179374D01*
X188060Y179367D01*
X188078Y179345D01*
X189715Y177709D01*
X190715Y175296D01*
X190715Y172684D01*
X189715Y170271D01*
X187869Y168425D01*
X185456Y167425D01*
X182844Y167425D01*
X180431Y168425D01*
X178585Y170271D01*
X177585Y172684D01*
X177585Y175296D01*
X178585Y177709D01*
X180222Y179345D01*
X180282Y179424D01*
X180350Y179496D01*
X180372Y179536D01*
X180388Y179555D01*
X180394Y179568D01*
X180416Y179597D01*
X180456Y179688D01*
X180504Y179774D01*
X180518Y179831D01*
X180524Y179843D01*
X180524Y179846D01*
X180543Y179889D01*
X180558Y179987D01*
X180583Y180082D01*
X180589Y180182D01*
X180593Y180203D01*
X180591Y180215D01*
X180593Y180243D01*
X180593Y206164D01*
X180590Y206193D01*
X180592Y206222D01*
X180570Y206350D01*
X180553Y206479D01*
X180543Y206507D01*
X180538Y206536D01*
X180484Y206654D01*
X180436Y206775D01*
X180419Y206799D01*
X180407Y206826D01*
X180326Y206927D01*
X180250Y207032D01*
X180227Y207051D01*
X180208Y207074D01*
X180105Y207152D01*
X180005Y207235D01*
X179978Y207248D01*
X179954Y207265D01*
X179810Y207336D01*
X178727Y207785D01*
X176035Y210478D01*
X174577Y213996D01*
X174577Y217804D01*
X176035Y221322D01*
X178605Y223893D01*
X178690Y224002D01*
X178779Y224109D01*
X178787Y224128D01*
X178800Y224144D01*
X178855Y224272D01*
X178914Y224397D01*
X178918Y224417D01*
X178926Y224436D01*
X178948Y224574D01*
X178974Y224710D01*
X178973Y224730D01*
X178976Y224750D01*
X178963Y224889D01*
X178954Y225027D01*
X178948Y225046D01*
X178946Y225066D01*
X178899Y225198D01*
X178856Y225329D01*
X178845Y225347D01*
X178838Y225366D01*
X178760Y225481D01*
X178686Y225598D01*
X178671Y225612D01*
X178660Y225629D01*
X178556Y225721D01*
X178454Y225816D01*
X178437Y225826D01*
X178421Y225839D01*
X178297Y225903D01*
X178176Y225970D01*
X178156Y225975D01*
X178138Y225984D01*
X178002Y226014D01*
X177868Y226049D01*
X177840Y226051D01*
X177828Y226054D01*
X177807Y226053D01*
X177707Y226059D01*
X165193Y226059D01*
X165055Y226042D01*
X164916Y226029D01*
X164897Y226022D01*
X164877Y226019D01*
X164748Y225968D01*
X164617Y225921D01*
X164600Y225910D01*
X164582Y225902D01*
X164469Y225821D01*
X164354Y225743D01*
X164341Y225727D01*
X164324Y225716D01*
X164235Y225608D01*
X164144Y225504D01*
X164134Y225486D01*
X164121Y225471D01*
X164062Y225345D01*
X163999Y225221D01*
X163995Y225201D01*
X163986Y225183D01*
X163960Y225047D01*
X163929Y224911D01*
X163930Y224890D01*
X163926Y224871D01*
X163935Y224732D01*
X163939Y224593D01*
X163945Y224573D01*
X163946Y224553D01*
X163989Y224421D01*
X164027Y224287D01*
X164038Y224270D01*
X164044Y224251D01*
X164119Y224133D01*
X164189Y224013D01*
X164207Y223992D01*
X164214Y223982D01*
X164229Y223968D01*
X164295Y223893D01*
X166865Y221322D01*
X168323Y217804D01*
X168323Y213996D01*
X166865Y210478D01*
X164172Y207785D01*
X160654Y206327D01*
X156846Y206327D01*
X153328Y207785D01*
X150635Y210478D01*
X149177Y213996D01*
X149177Y217804D01*
X150635Y221322D01*
X153205Y223893D01*
X153290Y224002D01*
X153379Y224109D01*
X153387Y224128D01*
X153400Y224144D01*
X153455Y224272D01*
X153514Y224397D01*
X153518Y224417D01*
X153526Y224436D01*
X153548Y224574D01*
X153574Y224710D01*
X153573Y224730D01*
X153576Y224750D01*
X153563Y224889D01*
X153554Y225027D01*
X153548Y225046D01*
X153546Y225066D01*
X153499Y225198D01*
X153456Y225329D01*
X153445Y225347D01*
X153438Y225366D01*
X153360Y225481D01*
X153286Y225598D01*
X153271Y225612D01*
X153260Y225629D01*
X153156Y225721D01*
X153054Y225816D01*
X153037Y225826D01*
X153021Y225839D01*
X152897Y225903D01*
X152776Y225970D01*
X152756Y225975D01*
X152738Y225984D01*
X152602Y226014D01*
X152468Y226049D01*
X152440Y226051D01*
X152428Y226054D01*
X152407Y226053D01*
X152307Y226059D01*
X120743Y226059D01*
X120605Y226042D01*
X120466Y226029D01*
X120447Y226022D01*
X120427Y226019D01*
X120298Y225968D01*
X120167Y225921D01*
X120150Y225910D01*
X120132Y225902D01*
X120019Y225821D01*
X119904Y225743D01*
X119891Y225727D01*
X119874Y225716D01*
X119785Y225608D01*
X119694Y225504D01*
X119684Y225486D01*
X119671Y225471D01*
X119612Y225345D01*
X119549Y225221D01*
X119545Y225201D01*
X119536Y225183D01*
X119510Y225047D01*
X119479Y224911D01*
X119480Y224890D01*
X119476Y224871D01*
X119485Y224732D01*
X119489Y224593D01*
X119495Y224573D01*
X119496Y224553D01*
X119539Y224421D01*
X119577Y224287D01*
X119588Y224270D01*
X119594Y224251D01*
X119669Y224133D01*
X119739Y224013D01*
X119757Y223992D01*
X119764Y223982D01*
X119779Y223968D01*
X119845Y223893D01*
X122415Y221322D01*
X123873Y217804D01*
X123873Y213996D01*
X122415Y210478D01*
X119722Y207785D01*
X118386Y207231D01*
X118361Y207217D01*
X118333Y207207D01*
X118223Y207138D01*
X118110Y207074D01*
X118089Y207053D01*
X118064Y207037D01*
X117975Y206943D01*
X117882Y206852D01*
X117866Y206827D01*
X117846Y206806D01*
X117783Y206692D01*
X117715Y206581D01*
X117707Y206553D01*
X117692Y206527D01*
X117660Y206401D01*
X117622Y206277D01*
X117620Y206248D01*
X117613Y206219D01*
X117603Y206059D01*
X117603Y151032D01*
X115297Y148726D01*
X115296Y148726D01*
X105274Y138704D01*
X105214Y138625D01*
X105146Y138553D01*
X105117Y138500D01*
X105080Y138452D01*
X105040Y138361D01*
X104992Y138275D01*
X104977Y138216D01*
X104953Y138161D01*
X104938Y138063D01*
X104913Y137967D01*
X104907Y137867D01*
X104903Y137847D01*
X104905Y137834D01*
X104903Y137806D01*
X104903Y128894D01*
X104915Y128796D01*
X104918Y128697D01*
X104935Y128638D01*
X104943Y128578D01*
X104979Y128486D01*
X105007Y128391D01*
X105037Y128339D01*
X105060Y128283D01*
X105118Y128203D01*
X105168Y128117D01*
X105234Y128042D01*
X105246Y128025D01*
X105256Y128017D01*
X105274Y127996D01*
X127996Y105274D01*
X128075Y105214D01*
X128147Y105146D01*
X128200Y105117D01*
X128248Y105080D01*
X128339Y105040D01*
X128425Y104992D01*
X128484Y104977D01*
X128539Y104953D01*
X128637Y104938D01*
X128733Y104913D01*
X128833Y104907D01*
X128853Y104903D01*
X128866Y104905D01*
X128894Y104903D01*
X306168Y104903D01*
X346436Y64634D01*
X346515Y64574D01*
X346587Y64506D01*
X346640Y64477D01*
X346688Y64440D01*
X346779Y64400D01*
X346865Y64352D01*
X346924Y64337D01*
X346979Y64313D01*
X347077Y64298D01*
X347173Y64273D01*
X347273Y64267D01*
X347294Y64263D01*
X347306Y64265D01*
X347334Y64263D01*
X363006Y64263D01*
X363105Y64275D01*
X363204Y64278D01*
X363262Y64295D01*
X363322Y64303D01*
X363414Y64339D01*
X363509Y64367D01*
X363561Y64397D01*
X363618Y64420D01*
X363698Y64478D01*
X363783Y64528D01*
X363859Y64594D01*
X363875Y64606D01*
X363883Y64616D01*
X363904Y64634D01*
X365829Y66559D01*
X368256Y67565D01*
X370884Y67565D01*
X373311Y66559D01*
X375169Y64701D01*
X376175Y62274D01*
X376175Y59646D01*
X375169Y57219D01*
X373311Y55361D01*
X370884Y54355D01*
X368256Y54355D01*
X365829Y55361D01*
X363904Y57286D01*
X363826Y57346D01*
X363754Y57414D01*
X363701Y57443D01*
X363653Y57480D01*
X363562Y57520D01*
X363475Y57568D01*
X363417Y57583D01*
X363361Y57607D01*
X363263Y57622D01*
X363167Y57647D01*
X363067Y57653D01*
X363047Y57657D01*
X363034Y57655D01*
X363006Y57657D01*
X344072Y57657D01*
X310158Y91571D01*
X310119Y91601D01*
X310086Y91638D01*
X309994Y91698D01*
X309907Y91766D01*
X309861Y91786D01*
X309820Y91813D01*
X309716Y91849D01*
X309615Y91892D01*
X309566Y91900D01*
X309519Y91916D01*
X309410Y91925D01*
X309301Y91942D01*
X309252Y91937D01*
X309202Y91941D01*
X309094Y91923D01*
X308985Y91912D01*
X308938Y91895D01*
X308889Y91887D01*
X308789Y91842D01*
X308685Y91805D01*
X308644Y91777D01*
X308599Y91756D01*
X308513Y91688D01*
X308422Y91626D01*
X308389Y91589D01*
X308350Y91558D01*
X308284Y91470D01*
X308212Y91388D01*
X308189Y91343D01*
X308159Y91304D01*
X308088Y91159D01*
X307190Y88991D01*
X305344Y87145D01*
X302931Y86145D01*
X301079Y86145D01*
X301029Y86139D01*
X300979Y86141D01*
X300872Y86119D01*
X300763Y86105D01*
X300716Y86087D01*
X300667Y86077D01*
X300569Y86029D01*
X300467Y85988D01*
X300427Y85959D01*
X300382Y85937D01*
X300299Y85866D01*
X300210Y85802D01*
X300178Y85763D01*
X300140Y85730D01*
X300077Y85641D01*
X300007Y85557D01*
X299986Y85511D01*
X299957Y85470D01*
X299918Y85368D01*
X299872Y85269D01*
X299862Y85220D01*
X299845Y85173D01*
X299833Y85064D01*
X299812Y84957D01*
X299815Y84906D01*
X299810Y84856D01*
X299815Y84820D01*
X299815Y81999D01*
X298815Y79586D01*
X296969Y77740D01*
X294556Y76740D01*
X291944Y76740D01*
X289531Y77740D01*
X287685Y79586D01*
X286685Y81999D01*
X286685Y84611D01*
X287685Y87024D01*
X289531Y88870D01*
X291944Y89870D01*
X293796Y89870D01*
X293846Y89876D01*
X293896Y89874D01*
X294003Y89896D01*
X294112Y89910D01*
X294159Y89928D01*
X294208Y89938D01*
X294306Y89986D01*
X294408Y90027D01*
X294448Y90056D01*
X294493Y90078D01*
X294576Y90149D01*
X294665Y90213D01*
X294697Y90252D01*
X294735Y90285D01*
X294798Y90374D01*
X294868Y90458D01*
X294889Y90504D01*
X294918Y90545D01*
X294957Y90647D01*
X295003Y90746D01*
X295013Y90795D01*
X295030Y90842D01*
X295042Y90951D01*
X295063Y91058D01*
X295060Y91109D01*
X295065Y91159D01*
X295060Y91195D01*
X295060Y94016D01*
X296107Y96542D01*
X296120Y96590D01*
X296141Y96635D01*
X296162Y96743D01*
X296191Y96849D01*
X296191Y96899D01*
X296201Y96948D01*
X296194Y97057D01*
X296196Y97167D01*
X296184Y97215D01*
X296181Y97265D01*
X296147Y97369D01*
X296122Y97476D01*
X296098Y97520D01*
X296083Y97567D01*
X296024Y97660D01*
X295973Y97757D01*
X295940Y97794D01*
X295913Y97836D01*
X295833Y97911D01*
X295759Y97993D01*
X295717Y98020D01*
X295681Y98054D01*
X295585Y98107D01*
X295493Y98167D01*
X295446Y98184D01*
X295403Y98208D01*
X295296Y98235D01*
X295192Y98271D01*
X295143Y98275D01*
X295095Y98287D01*
X294934Y98297D01*
X125632Y98297D01*
X123326Y100603D01*
X123326Y100604D01*
X98297Y125632D01*
X98297Y141068D01*
X100603Y143374D01*
X100604Y143374D01*
X110626Y153396D01*
X110686Y153475D01*
X110754Y153547D01*
X110783Y153600D01*
X110820Y153648D01*
X110860Y153739D01*
X110908Y153825D01*
X110923Y153884D01*
X110947Y153939D01*
X110962Y154037D01*
X110987Y154133D01*
X110993Y154233D01*
X110997Y154253D01*
X110995Y154266D01*
X110997Y154294D01*
X110997Y206059D01*
X110994Y206088D01*
X110996Y206117D01*
X110974Y206245D01*
X110957Y206374D01*
X110947Y206401D01*
X110942Y206431D01*
X110888Y206549D01*
X110840Y206670D01*
X110823Y206694D01*
X110811Y206721D01*
X110730Y206822D01*
X110654Y206927D01*
X110631Y206946D01*
X110612Y206969D01*
X110509Y207047D01*
X110409Y207130D01*
X110382Y207142D01*
X110358Y207160D01*
X110214Y207231D01*
X108878Y207785D01*
X106185Y210478D01*
X104678Y214116D01*
X104609Y214236D01*
X104544Y214359D01*
X104530Y214374D01*
X104520Y214392D01*
X104423Y214492D01*
X104330Y214595D01*
X104313Y214606D01*
X104299Y214620D01*
X104180Y214693D01*
X104064Y214769D01*
X104045Y214776D01*
X104028Y214787D01*
X103895Y214828D01*
X103763Y214873D01*
X103743Y214874D01*
X103724Y214880D01*
X103585Y214887D01*
X103446Y214898D01*
X103426Y214894D01*
X103406Y214895D01*
X103270Y214867D01*
X103133Y214844D01*
X103114Y214835D01*
X103095Y214831D01*
X102969Y214770D01*
X102843Y214713D01*
X102827Y214700D01*
X102809Y214691D01*
X102703Y214601D01*
X102595Y214514D01*
X102582Y214498D01*
X102567Y214485D01*
X102487Y214371D01*
X102403Y214260D01*
X102391Y214235D01*
X102384Y214225D01*
X102377Y214206D01*
X102332Y214116D01*
X100825Y210478D01*
X98132Y207785D01*
X94614Y206327D01*
X90806Y206327D01*
X87288Y207785D01*
X84595Y210478D01*
X83137Y213996D01*
X83137Y217804D01*
X84595Y221322D01*
X87165Y223893D01*
X87250Y224002D01*
X87339Y224109D01*
X87347Y224128D01*
X87360Y224144D01*
X87415Y224272D01*
X87474Y224397D01*
X87478Y224417D01*
X87486Y224436D01*
X87508Y224574D01*
X87534Y224710D01*
X87533Y224730D01*
X87536Y224750D01*
X87523Y224889D01*
X87514Y225027D01*
X87508Y225046D01*
X87506Y225066D01*
X87459Y225198D01*
X87416Y225329D01*
X87405Y225347D01*
X87398Y225366D01*
X87320Y225481D01*
X87246Y225598D01*
X87231Y225612D01*
X87220Y225629D01*
X87116Y225721D01*
X87014Y225816D01*
X86997Y225826D01*
X86981Y225839D01*
X86857Y225903D01*
X86736Y225970D01*
X86716Y225975D01*
X86698Y225984D01*
X86562Y226014D01*
X86428Y226049D01*
X86400Y226051D01*
X86388Y226054D01*
X86367Y226053D01*
X86267Y226059D01*
X34290Y226059D01*
X34192Y226047D01*
X34093Y226044D01*
X34035Y226027D01*
X33974Y226019D01*
X33882Y225983D01*
X33787Y225955D01*
X33735Y225925D01*
X33679Y225902D01*
X33599Y225844D01*
X33513Y225794D01*
X33438Y225728D01*
X33421Y225716D01*
X33414Y225706D01*
X33393Y225688D01*
X28625Y220920D01*
X28552Y220826D01*
X28473Y220736D01*
X28455Y220700D01*
X28430Y220668D01*
X28382Y220559D01*
X28328Y220453D01*
X28320Y220414D01*
X28303Y220377D01*
X28285Y220259D01*
X28259Y220143D01*
X28260Y220103D01*
X28254Y220063D01*
X28265Y219944D01*
X28268Y219825D01*
X28280Y219786D01*
X28283Y219746D01*
X28324Y219634D01*
X28357Y219520D01*
X28377Y219485D01*
X28391Y219447D01*
X28458Y219348D01*
X28518Y219246D01*
X28558Y219200D01*
X28570Y219183D01*
X28585Y219170D01*
X28625Y219125D01*
X30529Y217220D01*
X32591Y212243D01*
X32591Y206857D01*
X30529Y201880D01*
X26720Y198071D01*
X21743Y196009D01*
X16357Y196009D01*
X11380Y198071D01*
X9475Y199975D01*
X9381Y200048D01*
X9292Y200127D01*
X9256Y200145D01*
X9224Y200170D01*
X9115Y200218D01*
X9009Y200272D01*
X8969Y200280D01*
X8932Y200297D01*
X8814Y200315D01*
X8698Y200341D01*
X8658Y200340D01*
X8618Y200346D01*
X8499Y200335D01*
X8381Y200332D01*
X8342Y200320D01*
X8301Y200317D01*
X8189Y200276D01*
X8075Y200243D01*
X8040Y200223D01*
X8002Y200209D01*
X7904Y200142D01*
X7801Y200082D01*
X7756Y200042D01*
X7739Y200030D01*
X7726Y200015D01*
X7680Y199975D01*
X2912Y195207D01*
X2852Y195129D01*
X2784Y195057D01*
X2755Y195004D01*
X2718Y194956D01*
X2678Y194865D01*
X2630Y194779D01*
X2615Y194720D01*
X2591Y194664D01*
X2576Y194566D01*
X2551Y194471D01*
X2545Y194371D01*
X2541Y194350D01*
X2543Y194338D01*
X2541Y194310D01*
X2541Y34290D01*
X2553Y34192D01*
X2556Y34093D01*
X2573Y34035D01*
X2581Y33974D01*
X2617Y33882D01*
X2645Y33787D01*
X2675Y33735D01*
X2698Y33679D01*
X2756Y33599D01*
X2806Y33513D01*
X2848Y33465D01*
X2849Y33464D01*
X2852Y33462D01*
X2872Y33438D01*
X2884Y33421D01*
X2894Y33414D01*
X2912Y33393D01*
X7680Y28625D01*
X7774Y28552D01*
X7864Y28473D01*
X7900Y28455D01*
X7932Y28430D01*
X8041Y28382D01*
X8147Y28328D01*
X8186Y28320D01*
X8223Y28303D01*
X8341Y28285D01*
X8457Y28259D01*
X8497Y28260D01*
X8537Y28254D01*
X8656Y28265D01*
X8775Y28268D01*
X8814Y28280D01*
X8854Y28283D01*
X8966Y28324D01*
X9080Y28357D01*
X9115Y28377D01*
X9153Y28391D01*
X9252Y28458D01*
X9354Y28518D01*
X9400Y28558D01*
X9417Y28570D01*
X9430Y28585D01*
X9475Y28625D01*
X11380Y30529D01*
X16357Y32591D01*
X21743Y32591D01*
X26720Y30529D01*
X30529Y26720D01*
X32591Y21743D01*
X32591Y16357D01*
X30529Y11380D01*
X28625Y9475D01*
X28552Y9381D01*
X28473Y9292D01*
X28455Y9256D01*
X28430Y9224D01*
X28382Y9115D01*
X28328Y9009D01*
X28320Y8969D01*
X28303Y8932D01*
X28285Y8814D01*
X28259Y8698D01*
X28260Y8658D01*
X28254Y8618D01*
X28265Y8499D01*
X28268Y8381D01*
X28280Y8342D01*
X28283Y8301D01*
X28324Y8189D01*
X28357Y8075D01*
X28377Y8040D01*
X28391Y8002D01*
X28458Y7904D01*
X28518Y7801D01*
X28558Y7756D01*
X28570Y7739D01*
X28585Y7726D01*
X28625Y7680D01*
X33393Y2912D01*
X33471Y2852D01*
X33543Y2784D01*
X33596Y2755D01*
X33644Y2718D01*
X33735Y2678D01*
X33821Y2630D01*
X33880Y2615D01*
X33936Y2591D01*
X34034Y2576D01*
X34129Y2551D01*
X34229Y2545D01*
X34250Y2541D01*
X34262Y2543D01*
X34290Y2541D01*
X50707Y2541D01*
X50845Y2558D01*
G37*
%LPC*%
G36*
X211419Y127420D02*
X211419Y127420D01*
X209006Y128420D01*
X207160Y130266D01*
X206160Y132679D01*
X206160Y135291D01*
X207160Y137704D01*
X209006Y139550D01*
X211419Y140550D01*
X214031Y140550D01*
X214525Y140345D01*
X214573Y140332D01*
X214618Y140311D01*
X214726Y140290D01*
X214832Y140261D01*
X214882Y140260D01*
X214931Y140251D01*
X215040Y140258D01*
X215150Y140256D01*
X215198Y140268D01*
X215248Y140271D01*
X215352Y140304D01*
X215459Y140330D01*
X215503Y140353D01*
X215550Y140369D01*
X215643Y140427D01*
X215740Y140479D01*
X215777Y140512D01*
X215819Y140539D01*
X215894Y140619D01*
X215976Y140693D01*
X216003Y140734D01*
X216037Y140770D01*
X216090Y140867D01*
X216150Y140958D01*
X216167Y141005D01*
X216191Y141049D01*
X216218Y141155D01*
X216254Y141259D01*
X216258Y141309D01*
X216270Y141357D01*
X216280Y141518D01*
X216280Y143554D01*
X217286Y145981D01*
X219144Y147839D01*
X221571Y148845D01*
X224199Y148845D01*
X226626Y147839D01*
X227731Y146735D01*
X227825Y146662D01*
X227914Y146583D01*
X227950Y146565D01*
X227982Y146540D01*
X228091Y146493D01*
X228197Y146438D01*
X228237Y146430D01*
X228274Y146413D01*
X228392Y146395D01*
X228508Y146369D01*
X228548Y146370D01*
X228588Y146364D01*
X228707Y146375D01*
X228825Y146378D01*
X228864Y146390D01*
X228905Y146393D01*
X229017Y146434D01*
X229131Y146467D01*
X229166Y146487D01*
X229204Y146501D01*
X229302Y146568D01*
X229405Y146628D01*
X229450Y146668D01*
X229467Y146680D01*
X229480Y146695D01*
X229526Y146735D01*
X230596Y147805D01*
X233009Y148805D01*
X235621Y148805D01*
X238034Y147805D01*
X239880Y145959D01*
X240880Y143546D01*
X240880Y140934D01*
X239880Y138521D01*
X238034Y136675D01*
X235621Y135675D01*
X233009Y135675D01*
X230596Y136675D01*
X229526Y137745D01*
X229432Y137818D01*
X229342Y137897D01*
X229306Y137915D01*
X229274Y137940D01*
X229165Y137988D01*
X229059Y138042D01*
X229020Y138050D01*
X228983Y138067D01*
X228865Y138085D01*
X228749Y138111D01*
X228709Y138110D01*
X228669Y138116D01*
X228550Y138105D01*
X228431Y138102D01*
X228392Y138090D01*
X228352Y138087D01*
X228240Y138046D01*
X228126Y138013D01*
X228091Y137993D01*
X228053Y137979D01*
X227954Y137912D01*
X227852Y137852D01*
X227806Y137812D01*
X227790Y137800D01*
X227776Y137785D01*
X227731Y137745D01*
X226626Y136641D01*
X224199Y135635D01*
X221571Y135635D01*
X221045Y135853D01*
X220997Y135866D01*
X220952Y135888D01*
X220844Y135908D01*
X220738Y135937D01*
X220688Y135938D01*
X220639Y135947D01*
X220530Y135941D01*
X220420Y135942D01*
X220372Y135931D01*
X220322Y135928D01*
X220218Y135894D01*
X220111Y135868D01*
X220067Y135845D01*
X220020Y135830D01*
X219927Y135771D01*
X219830Y135719D01*
X219793Y135686D01*
X219751Y135659D01*
X219676Y135579D01*
X219594Y135506D01*
X219567Y135464D01*
X219533Y135428D01*
X219480Y135332D01*
X219420Y135240D01*
X219403Y135193D01*
X219379Y135149D01*
X219352Y135043D01*
X219316Y134939D01*
X219312Y134889D01*
X219300Y134841D01*
X219290Y134681D01*
X219290Y132679D01*
X218290Y130266D01*
X216444Y128420D01*
X214031Y127420D01*
X211419Y127420D01*
G37*
%LPD*%
%LPC*%
G36*
X388576Y86105D02*
X388576Y86105D01*
X386149Y87111D01*
X384291Y88969D01*
X383285Y91396D01*
X383285Y94024D01*
X384291Y96451D01*
X386149Y98309D01*
X388576Y99315D01*
X391204Y99315D01*
X391757Y99086D01*
X391785Y99078D01*
X391812Y99064D01*
X391938Y99036D01*
X392064Y99002D01*
X392093Y99001D01*
X392122Y98995D01*
X392252Y98999D01*
X392381Y98997D01*
X392410Y99004D01*
X392440Y99004D01*
X392564Y99041D01*
X392691Y99071D01*
X392717Y99085D01*
X392745Y99093D01*
X392843Y99151D01*
X392868Y99161D01*
X392890Y99176D01*
X392972Y99219D01*
X392994Y99239D01*
X393019Y99254D01*
X393121Y99344D01*
X393126Y99347D01*
X393128Y99350D01*
X393140Y99361D01*
X405774Y111994D01*
X405834Y112073D01*
X405902Y112145D01*
X405931Y112198D01*
X405968Y112246D01*
X406008Y112337D01*
X406056Y112423D01*
X406071Y112482D01*
X406095Y112537D01*
X406110Y112635D01*
X406135Y112731D01*
X406141Y112831D01*
X406145Y112852D01*
X406143Y112864D01*
X406145Y112892D01*
X406145Y115614D01*
X407151Y118041D01*
X409009Y119899D01*
X411436Y120905D01*
X414064Y120905D01*
X416491Y119899D01*
X418349Y118041D01*
X419355Y115614D01*
X419355Y112986D01*
X418349Y110559D01*
X416491Y108701D01*
X414064Y107695D01*
X411342Y107695D01*
X411244Y107683D01*
X411145Y107680D01*
X411086Y107663D01*
X411026Y107655D01*
X410934Y107619D01*
X410839Y107591D01*
X410787Y107561D01*
X410731Y107538D01*
X410651Y107480D01*
X410565Y107430D01*
X410490Y107364D01*
X410473Y107352D01*
X410465Y107342D01*
X410444Y107324D01*
X396866Y93746D01*
X396806Y93667D01*
X396738Y93595D01*
X396709Y93542D01*
X396672Y93494D01*
X396632Y93403D01*
X396584Y93317D01*
X396569Y93258D01*
X396545Y93203D01*
X396530Y93105D01*
X396505Y93009D01*
X396499Y92909D01*
X396495Y92888D01*
X396497Y92876D01*
X396495Y92848D01*
X396495Y91396D01*
X395489Y88969D01*
X393631Y87111D01*
X391204Y86105D01*
X388576Y86105D01*
G37*
%LPD*%
%LPC*%
G36*
X333974Y91860D02*
X333974Y91860D01*
X331561Y92860D01*
X329715Y94706D01*
X328715Y97119D01*
X328715Y98846D01*
X328700Y98964D01*
X328693Y99083D01*
X328680Y99121D01*
X328675Y99162D01*
X328632Y99272D01*
X328595Y99385D01*
X328573Y99420D01*
X328558Y99457D01*
X328489Y99553D01*
X328425Y99654D01*
X328395Y99682D01*
X328372Y99715D01*
X328280Y99791D01*
X328193Y99872D01*
X328158Y99892D01*
X328127Y99917D01*
X328019Y99968D01*
X327915Y100026D01*
X327875Y100036D01*
X327839Y100053D01*
X327722Y100075D01*
X327607Y100105D01*
X327547Y100109D01*
X327527Y100113D01*
X327506Y100111D01*
X327446Y100115D01*
X325719Y100115D01*
X323306Y101115D01*
X321460Y102961D01*
X320460Y105374D01*
X320460Y107986D01*
X320754Y108696D01*
X320766Y108737D01*
X320779Y108765D01*
X320790Y108822D01*
X320824Y108923D01*
X320828Y108964D01*
X320838Y109003D01*
X320840Y109122D01*
X320850Y109240D01*
X320843Y109280D01*
X320843Y109321D01*
X320816Y109436D01*
X320795Y109554D01*
X320779Y109591D01*
X320769Y109630D01*
X320713Y109735D01*
X320665Y109844D01*
X320639Y109875D01*
X320621Y109911D01*
X320540Y109999D01*
X320466Y110092D01*
X320434Y110116D01*
X320407Y110146D01*
X320307Y110212D01*
X320212Y110283D01*
X320158Y110310D01*
X320141Y110321D01*
X320122Y110328D01*
X320067Y110354D01*
X317845Y111275D01*
X315999Y113121D01*
X314999Y115534D01*
X314999Y118146D01*
X315999Y120559D01*
X317845Y122405D01*
X320258Y123405D01*
X322870Y123405D01*
X325283Y122405D01*
X327129Y120559D01*
X328129Y118146D01*
X328129Y115534D01*
X327835Y114824D01*
X327803Y114709D01*
X327765Y114597D01*
X327761Y114556D01*
X327751Y114517D01*
X327749Y114398D01*
X327739Y114280D01*
X327746Y114240D01*
X327746Y114199D01*
X327773Y114084D01*
X327794Y113966D01*
X327810Y113929D01*
X327820Y113890D01*
X327876Y113785D01*
X327924Y113676D01*
X327950Y113645D01*
X327968Y113609D01*
X328049Y113521D01*
X328123Y113428D01*
X328155Y113404D01*
X328182Y113374D01*
X328282Y113308D01*
X328377Y113237D01*
X328431Y113210D01*
X328448Y113199D01*
X328467Y113192D01*
X328522Y113166D01*
X330744Y112245D01*
X332590Y110399D01*
X333590Y107986D01*
X333590Y106259D01*
X333605Y106141D01*
X333612Y106022D01*
X333625Y105984D01*
X333630Y105943D01*
X333673Y105833D01*
X333710Y105720D01*
X333732Y105685D01*
X333747Y105648D01*
X333816Y105552D01*
X333880Y105451D01*
X333910Y105423D01*
X333933Y105390D01*
X334025Y105314D01*
X334112Y105233D01*
X334147Y105213D01*
X334178Y105188D01*
X334286Y105137D01*
X334390Y105079D01*
X334430Y105069D01*
X334466Y105052D01*
X334583Y105030D01*
X334698Y105000D01*
X334758Y104996D01*
X334778Y104992D01*
X334799Y104994D01*
X334859Y104990D01*
X336586Y104990D01*
X338999Y103990D01*
X340845Y102144D01*
X341845Y99731D01*
X341845Y97119D01*
X340845Y94706D01*
X338999Y92860D01*
X336586Y91860D01*
X333974Y91860D01*
G37*
%LPD*%
%LPC*%
G36*
X252694Y154725D02*
X252694Y154725D01*
X250281Y155725D01*
X248435Y157571D01*
X247435Y159984D01*
X247435Y162596D01*
X248435Y165009D01*
X250281Y166855D01*
X252694Y167855D01*
X253786Y167855D01*
X253904Y167870D01*
X254023Y167877D01*
X254061Y167890D01*
X254102Y167895D01*
X254212Y167938D01*
X254325Y167975D01*
X254360Y167997D01*
X254397Y168012D01*
X254493Y168081D01*
X254594Y168145D01*
X254622Y168175D01*
X254655Y168198D01*
X254731Y168290D01*
X254812Y168377D01*
X254832Y168412D01*
X254857Y168443D01*
X254908Y168551D01*
X254966Y168655D01*
X254976Y168695D01*
X254993Y168731D01*
X255015Y168848D01*
X255045Y168963D01*
X255049Y169023D01*
X255053Y169043D01*
X255051Y169064D01*
X255055Y169124D01*
X255055Y171486D01*
X256055Y173899D01*
X257901Y175745D01*
X260314Y176745D01*
X262926Y176745D01*
X265339Y175745D01*
X266437Y174646D01*
X266531Y174574D01*
X266621Y174495D01*
X266657Y174476D01*
X266689Y174452D01*
X266798Y174404D01*
X266904Y174350D01*
X266943Y174341D01*
X266981Y174325D01*
X267098Y174306D01*
X267214Y174280D01*
X267255Y174282D01*
X267295Y174275D01*
X267413Y174286D01*
X267532Y174290D01*
X267571Y174301D01*
X267611Y174305D01*
X267724Y174345D01*
X267838Y174378D01*
X267872Y174399D01*
X267911Y174413D01*
X268009Y174480D01*
X268112Y174540D01*
X268157Y174580D01*
X268174Y174591D01*
X268187Y174607D01*
X268232Y174646D01*
X269331Y175745D01*
X271744Y176745D01*
X274356Y176745D01*
X276769Y175745D01*
X278615Y173899D01*
X279615Y171486D01*
X279615Y168874D01*
X278615Y166461D01*
X276769Y164615D01*
X274356Y163615D01*
X271744Y163615D01*
X269331Y164615D01*
X268232Y165714D01*
X268138Y165787D01*
X268049Y165865D01*
X268013Y165884D01*
X267981Y165909D01*
X267872Y165956D01*
X267766Y166010D01*
X267727Y166019D01*
X267689Y166035D01*
X267572Y166054D01*
X267456Y166080D01*
X267415Y166078D01*
X267375Y166085D01*
X267257Y166074D01*
X267138Y166070D01*
X267099Y166059D01*
X267059Y166055D01*
X266947Y166015D01*
X266832Y165982D01*
X266797Y165961D01*
X266759Y165947D01*
X266661Y165880D01*
X266558Y165820D01*
X266513Y165780D01*
X266496Y165769D01*
X266483Y165753D01*
X266437Y165714D01*
X265339Y164615D01*
X262926Y163615D01*
X261834Y163615D01*
X261716Y163600D01*
X261597Y163593D01*
X261559Y163580D01*
X261518Y163575D01*
X261408Y163532D01*
X261295Y163495D01*
X261260Y163473D01*
X261223Y163458D01*
X261127Y163389D01*
X261026Y163325D01*
X260998Y163295D01*
X260965Y163272D01*
X260889Y163180D01*
X260808Y163093D01*
X260788Y163058D01*
X260763Y163027D01*
X260712Y162919D01*
X260654Y162815D01*
X260644Y162775D01*
X260627Y162739D01*
X260605Y162622D01*
X260575Y162507D01*
X260571Y162447D01*
X260567Y162427D01*
X260569Y162406D01*
X260565Y162346D01*
X260565Y159984D01*
X259565Y157571D01*
X257719Y155725D01*
X255306Y154725D01*
X252694Y154725D01*
G37*
%LPD*%
%LPC*%
G36*
X65369Y48045D02*
X65369Y48045D01*
X62956Y49045D01*
X61110Y50891D01*
X60110Y53304D01*
X60110Y55916D01*
X61110Y58329D01*
X62956Y60175D01*
X65369Y61175D01*
X67981Y61175D01*
X70394Y60175D01*
X70814Y59755D01*
X70853Y59725D01*
X70887Y59688D01*
X70978Y59627D01*
X71065Y59560D01*
X71111Y59540D01*
X71152Y59513D01*
X71256Y59477D01*
X71357Y59434D01*
X71406Y59426D01*
X71453Y59410D01*
X71562Y59401D01*
X71671Y59384D01*
X71721Y59389D01*
X71770Y59385D01*
X71878Y59403D01*
X71988Y59414D01*
X72034Y59431D01*
X72083Y59439D01*
X72184Y59484D01*
X72287Y59521D01*
X72328Y59549D01*
X72373Y59570D01*
X72459Y59638D01*
X72550Y59700D01*
X72583Y59737D01*
X72622Y59768D01*
X72688Y59856D01*
X72761Y59938D01*
X72783Y59983D01*
X72813Y60022D01*
X72884Y60167D01*
X73175Y60869D01*
X75021Y62715D01*
X77434Y63715D01*
X80046Y63715D01*
X82459Y62715D01*
X84305Y60869D01*
X85305Y58456D01*
X85305Y55844D01*
X84305Y53431D01*
X82459Y51585D01*
X80046Y50585D01*
X77434Y50585D01*
X75021Y51585D01*
X74601Y52005D01*
X74562Y52035D01*
X74528Y52072D01*
X74437Y52133D01*
X74350Y52200D01*
X74304Y52220D01*
X74263Y52247D01*
X74159Y52283D01*
X74058Y52326D01*
X74009Y52334D01*
X73962Y52350D01*
X73853Y52359D01*
X73744Y52376D01*
X73694Y52371D01*
X73645Y52375D01*
X73537Y52357D01*
X73427Y52346D01*
X73381Y52329D01*
X73332Y52321D01*
X73231Y52276D01*
X73128Y52239D01*
X73087Y52211D01*
X73042Y52190D01*
X72956Y52122D01*
X72865Y52060D01*
X72832Y52023D01*
X72793Y51992D01*
X72727Y51904D01*
X72654Y51822D01*
X72632Y51777D01*
X72602Y51738D01*
X72531Y51593D01*
X72240Y50891D01*
X70394Y49045D01*
X67981Y48045D01*
X65369Y48045D01*
G37*
%LPD*%
%LPC*%
G36*
X208879Y37250D02*
X208879Y37250D01*
X206466Y38250D01*
X204620Y40096D01*
X203620Y42509D01*
X203620Y45121D01*
X204620Y47534D01*
X206466Y49380D01*
X208879Y50380D01*
X209971Y50380D01*
X210089Y50395D01*
X210208Y50402D01*
X210246Y50415D01*
X210287Y50420D01*
X210397Y50463D01*
X210510Y50500D01*
X210545Y50522D01*
X210582Y50537D01*
X210678Y50606D01*
X210779Y50670D01*
X210807Y50700D01*
X210840Y50723D01*
X210916Y50815D01*
X210997Y50902D01*
X211017Y50937D01*
X211042Y50968D01*
X211093Y51076D01*
X211151Y51180D01*
X211161Y51220D01*
X211178Y51256D01*
X211200Y51373D01*
X211230Y51488D01*
X211234Y51548D01*
X211238Y51568D01*
X211236Y51589D01*
X211240Y51649D01*
X211240Y54011D01*
X212240Y56424D01*
X214086Y58270D01*
X216499Y59270D01*
X219111Y59270D01*
X221524Y58270D01*
X223370Y56424D01*
X224370Y54011D01*
X224370Y51399D01*
X223370Y48986D01*
X221524Y47140D01*
X219111Y46140D01*
X218019Y46140D01*
X217901Y46125D01*
X217782Y46118D01*
X217744Y46105D01*
X217703Y46100D01*
X217593Y46057D01*
X217480Y46020D01*
X217445Y45998D01*
X217408Y45983D01*
X217312Y45914D01*
X217211Y45850D01*
X217183Y45820D01*
X217150Y45797D01*
X217074Y45705D01*
X216993Y45618D01*
X216973Y45583D01*
X216948Y45552D01*
X216897Y45444D01*
X216839Y45340D01*
X216829Y45300D01*
X216812Y45264D01*
X216790Y45147D01*
X216760Y45032D01*
X216756Y44972D01*
X216752Y44952D01*
X216754Y44931D01*
X216750Y44871D01*
X216750Y42509D01*
X215750Y40096D01*
X213904Y38250D01*
X211491Y37250D01*
X208879Y37250D01*
G37*
%LPD*%
%LPC*%
G36*
X22619Y69990D02*
X22619Y69990D01*
X22604Y70108D01*
X22597Y70227D01*
X22584Y70265D01*
X22579Y70306D01*
X22536Y70416D01*
X22499Y70529D01*
X22477Y70564D01*
X22462Y70601D01*
X22393Y70697D01*
X22329Y70798D01*
X22299Y70826D01*
X22276Y70859D01*
X22184Y70935D01*
X22097Y71016D01*
X22062Y71036D01*
X22031Y71061D01*
X21923Y71112D01*
X21819Y71170D01*
X21779Y71180D01*
X21743Y71197D01*
X21626Y71219D01*
X21511Y71249D01*
X21451Y71253D01*
X21431Y71257D01*
X21410Y71255D01*
X21350Y71259D01*
X19390Y71259D01*
X19272Y71244D01*
X19153Y71237D01*
X19115Y71224D01*
X19074Y71219D01*
X18964Y71176D01*
X18851Y71139D01*
X18816Y71117D01*
X18779Y71102D01*
X18682Y71033D01*
X18582Y70969D01*
X18554Y70939D01*
X18521Y70916D01*
X18445Y70824D01*
X18364Y70737D01*
X18344Y70702D01*
X18319Y70671D01*
X18268Y70563D01*
X18210Y70459D01*
X18200Y70419D01*
X18183Y70383D01*
X18161Y70266D01*
X18131Y70151D01*
X18127Y70091D01*
X18123Y70071D01*
X18125Y70050D01*
X18121Y69990D01*
X18121Y68957D01*
X16692Y69421D01*
X15349Y70106D01*
X14129Y70992D01*
X13062Y72059D01*
X12176Y73279D01*
X11491Y74622D01*
X11025Y76056D01*
X10940Y76592D01*
X10979Y76639D01*
X10996Y76676D01*
X11020Y76709D01*
X11064Y76820D01*
X11115Y76927D01*
X11122Y76967D01*
X11137Y77004D01*
X11167Y77163D01*
X11290Y78143D01*
X11290Y78220D01*
X11300Y78297D01*
X11290Y78457D01*
X11289Y78460D01*
X11289Y78461D01*
X11167Y79437D01*
X11157Y79477D01*
X11155Y79517D01*
X11118Y79630D01*
X11089Y79746D01*
X11069Y79781D01*
X11057Y79819D01*
X10993Y79920D01*
X10941Y80014D01*
X11025Y80544D01*
X11491Y81978D01*
X12176Y83321D01*
X13062Y84541D01*
X14129Y85608D01*
X15349Y86494D01*
X16692Y87179D01*
X18121Y87643D01*
X18121Y86610D01*
X18136Y86492D01*
X18143Y86373D01*
X18155Y86335D01*
X18161Y86294D01*
X18204Y86184D01*
X18241Y86071D01*
X18263Y86036D01*
X18278Y85999D01*
X18347Y85903D01*
X18411Y85802D01*
X18441Y85774D01*
X18464Y85741D01*
X18556Y85665D01*
X18643Y85584D01*
X18678Y85564D01*
X18709Y85539D01*
X18817Y85488D01*
X18921Y85430D01*
X18961Y85420D01*
X18997Y85403D01*
X19114Y85381D01*
X19229Y85351D01*
X19289Y85347D01*
X19309Y85343D01*
X19330Y85345D01*
X19390Y85341D01*
X21350Y85341D01*
X21468Y85356D01*
X21587Y85363D01*
X21625Y85376D01*
X21666Y85381D01*
X21776Y85424D01*
X21889Y85461D01*
X21924Y85483D01*
X21961Y85498D01*
X22057Y85567D01*
X22158Y85631D01*
X22186Y85661D01*
X22219Y85684D01*
X22295Y85776D01*
X22376Y85863D01*
X22396Y85898D01*
X22421Y85929D01*
X22472Y86037D01*
X22530Y86141D01*
X22540Y86181D01*
X22557Y86217D01*
X22579Y86334D01*
X22609Y86449D01*
X22613Y86509D01*
X22617Y86529D01*
X22615Y86550D01*
X22619Y86610D01*
X22619Y87643D01*
X24048Y87179D01*
X25391Y86494D01*
X26611Y85608D01*
X27678Y84541D01*
X28564Y83321D01*
X29249Y81978D01*
X29715Y80544D01*
X29800Y80008D01*
X29761Y79961D01*
X29744Y79924D01*
X29720Y79891D01*
X29676Y79780D01*
X29625Y79673D01*
X29618Y79633D01*
X29603Y79596D01*
X29573Y79437D01*
X29450Y78457D01*
X29450Y78380D01*
X29440Y78303D01*
X29450Y78143D01*
X29451Y78140D01*
X29451Y78139D01*
X29573Y77163D01*
X29583Y77123D01*
X29585Y77083D01*
X29622Y76970D01*
X29651Y76854D01*
X29671Y76819D01*
X29683Y76781D01*
X29747Y76680D01*
X29799Y76586D01*
X29715Y76056D01*
X29249Y74622D01*
X28564Y73279D01*
X27678Y72059D01*
X26611Y70992D01*
X25391Y70106D01*
X24048Y69421D01*
X22619Y68957D01*
X22619Y69990D01*
G37*
%LPD*%
%LPC*%
G36*
X22619Y141990D02*
X22619Y141990D01*
X22604Y142108D01*
X22597Y142227D01*
X22584Y142265D01*
X22579Y142306D01*
X22536Y142416D01*
X22499Y142529D01*
X22477Y142564D01*
X22462Y142601D01*
X22393Y142697D01*
X22329Y142798D01*
X22299Y142826D01*
X22276Y142859D01*
X22184Y142935D01*
X22097Y143016D01*
X22062Y143036D01*
X22031Y143061D01*
X21923Y143112D01*
X21819Y143170D01*
X21779Y143180D01*
X21743Y143197D01*
X21626Y143219D01*
X21511Y143249D01*
X21451Y143253D01*
X21431Y143257D01*
X21410Y143255D01*
X21350Y143259D01*
X19390Y143259D01*
X19272Y143244D01*
X19153Y143237D01*
X19115Y143224D01*
X19074Y143219D01*
X18964Y143176D01*
X18851Y143139D01*
X18816Y143117D01*
X18779Y143102D01*
X18682Y143033D01*
X18582Y142969D01*
X18554Y142939D01*
X18521Y142916D01*
X18445Y142824D01*
X18364Y142737D01*
X18344Y142702D01*
X18319Y142671D01*
X18268Y142563D01*
X18210Y142459D01*
X18200Y142419D01*
X18183Y142383D01*
X18161Y142266D01*
X18131Y142151D01*
X18127Y142091D01*
X18123Y142071D01*
X18125Y142050D01*
X18121Y141990D01*
X18121Y140957D01*
X16692Y141421D01*
X15349Y142106D01*
X14129Y142992D01*
X13062Y144059D01*
X12176Y145279D01*
X11491Y146622D01*
X11025Y148056D01*
X10963Y148448D01*
X11020Y148517D01*
X11122Y148639D01*
X11122Y148641D01*
X11124Y148643D01*
X11192Y148789D01*
X11257Y148927D01*
X11257Y148929D01*
X11258Y148931D01*
X11288Y149086D01*
X11317Y149239D01*
X11317Y149241D01*
X11317Y149243D01*
X11317Y149404D01*
X11276Y150010D01*
X11273Y150025D01*
X11274Y150040D01*
X11248Y150160D01*
X11251Y150216D01*
X11251Y150220D01*
X11252Y150224D01*
X11251Y150385D01*
X11250Y150406D01*
X11251Y150416D01*
X11255Y150430D01*
X11276Y150590D01*
X11317Y151196D01*
X11317Y151198D01*
X11317Y151200D01*
X11307Y151354D01*
X11298Y151513D01*
X11297Y151515D01*
X11297Y151517D01*
X11249Y151665D01*
X11201Y151816D01*
X11200Y151818D01*
X11199Y151819D01*
X11115Y151953D01*
X11031Y152085D01*
X11030Y152086D01*
X11029Y152088D01*
X10963Y152150D01*
X11025Y152544D01*
X11491Y153978D01*
X12176Y155321D01*
X13062Y156541D01*
X14129Y157608D01*
X15349Y158494D01*
X16692Y159179D01*
X18121Y159643D01*
X18121Y158610D01*
X18136Y158492D01*
X18143Y158373D01*
X18155Y158335D01*
X18161Y158294D01*
X18204Y158184D01*
X18241Y158071D01*
X18263Y158036D01*
X18278Y157999D01*
X18347Y157903D01*
X18411Y157802D01*
X18441Y157774D01*
X18464Y157741D01*
X18556Y157665D01*
X18643Y157584D01*
X18678Y157564D01*
X18709Y157539D01*
X18817Y157488D01*
X18921Y157430D01*
X18961Y157420D01*
X18997Y157403D01*
X19114Y157381D01*
X19229Y157351D01*
X19289Y157347D01*
X19309Y157343D01*
X19330Y157345D01*
X19390Y157341D01*
X21350Y157341D01*
X21468Y157356D01*
X21587Y157363D01*
X21625Y157376D01*
X21666Y157381D01*
X21776Y157424D01*
X21889Y157461D01*
X21924Y157483D01*
X21961Y157498D01*
X22057Y157567D01*
X22158Y157631D01*
X22186Y157661D01*
X22219Y157684D01*
X22295Y157776D01*
X22376Y157863D01*
X22396Y157898D01*
X22421Y157929D01*
X22472Y158037D01*
X22530Y158141D01*
X22540Y158181D01*
X22557Y158217D01*
X22579Y158334D01*
X22609Y158449D01*
X22613Y158509D01*
X22617Y158529D01*
X22615Y158550D01*
X22619Y158610D01*
X22619Y159643D01*
X24048Y159179D01*
X25391Y158494D01*
X26611Y157608D01*
X27678Y156541D01*
X28564Y155321D01*
X29249Y153978D01*
X29715Y152544D01*
X29775Y152162D01*
X29735Y152114D01*
X29654Y152027D01*
X29634Y151992D01*
X29609Y151961D01*
X29558Y151853D01*
X29500Y151749D01*
X29490Y151709D01*
X29473Y151673D01*
X29451Y151556D01*
X29421Y151441D01*
X29417Y151381D01*
X29413Y151361D01*
X29415Y151340D01*
X29411Y151280D01*
X29411Y149320D01*
X29426Y149202D01*
X29433Y149083D01*
X29446Y149045D01*
X29451Y149004D01*
X29494Y148894D01*
X29531Y148781D01*
X29553Y148746D01*
X29568Y148709D01*
X29637Y148612D01*
X29701Y148512D01*
X29731Y148484D01*
X29754Y148451D01*
X29775Y148435D01*
X29715Y148056D01*
X29249Y146622D01*
X28564Y145279D01*
X27678Y144059D01*
X26611Y142992D01*
X25391Y142106D01*
X24048Y141421D01*
X22619Y140957D01*
X22619Y141990D01*
G37*
%LPD*%
%LPC*%
G36*
X228564Y160059D02*
X228564Y160059D01*
X226151Y161059D01*
X224305Y162905D01*
X223305Y165318D01*
X223305Y167930D01*
X224305Y170343D01*
X224959Y170997D01*
X225032Y171091D01*
X225111Y171180D01*
X225129Y171216D01*
X225154Y171248D01*
X225201Y171357D01*
X225255Y171464D01*
X225264Y171503D01*
X225280Y171540D01*
X225299Y171658D01*
X225325Y171774D01*
X225324Y171814D01*
X225330Y171854D01*
X225319Y171973D01*
X225315Y172092D01*
X225304Y172131D01*
X225300Y172171D01*
X225260Y172283D01*
X225227Y172397D01*
X225206Y172432D01*
X225193Y172470D01*
X225126Y172568D01*
X225065Y172671D01*
X225026Y172716D01*
X225014Y172733D01*
X224999Y172747D01*
X224959Y172792D01*
X224305Y173446D01*
X223305Y175859D01*
X223305Y178471D01*
X224305Y180884D01*
X226151Y182730D01*
X228564Y183730D01*
X231176Y183730D01*
X233589Y182730D01*
X235435Y180884D01*
X236435Y178471D01*
X236435Y175859D01*
X235435Y173446D01*
X234781Y172792D01*
X234708Y172698D01*
X234629Y172609D01*
X234611Y172573D01*
X234586Y172541D01*
X234539Y172431D01*
X234485Y172325D01*
X234476Y172286D01*
X234460Y172249D01*
X234441Y172131D01*
X234415Y172015D01*
X234416Y171975D01*
X234410Y171935D01*
X234421Y171816D01*
X234425Y171697D01*
X234436Y171658D01*
X234440Y171618D01*
X234480Y171506D01*
X234513Y171392D01*
X234534Y171357D01*
X234547Y171319D01*
X234614Y171220D01*
X234675Y171118D01*
X234714Y171073D01*
X234726Y171056D01*
X234741Y171042D01*
X234781Y170997D01*
X235435Y170343D01*
X236435Y167930D01*
X236435Y165318D01*
X235435Y162905D01*
X233589Y161059D01*
X231176Y160059D01*
X228564Y160059D01*
G37*
%LPD*%
%LPC*%
G36*
X385949Y145359D02*
X385949Y145359D01*
X383362Y146431D01*
X381381Y148412D01*
X380309Y150999D01*
X380309Y153801D01*
X381381Y156388D01*
X383362Y158369D01*
X385949Y159441D01*
X388751Y159441D01*
X391338Y158369D01*
X393319Y156388D01*
X394391Y153801D01*
X394391Y150999D01*
X393319Y148412D01*
X391338Y146431D01*
X388751Y145359D01*
X385949Y145359D01*
G37*
%LPD*%
%LPC*%
G36*
X462149Y84159D02*
X462149Y84159D01*
X459562Y85231D01*
X457581Y87212D01*
X456509Y89799D01*
X456509Y92601D01*
X457581Y95188D01*
X459562Y97169D01*
X462149Y98241D01*
X464951Y98241D01*
X467538Y97169D01*
X469519Y95188D01*
X470591Y92601D01*
X470591Y89799D01*
X469519Y87212D01*
X467538Y85231D01*
X464951Y84159D01*
X462149Y84159D01*
G37*
%LPD*%
%LPC*%
G36*
X462149Y54159D02*
X462149Y54159D01*
X459562Y55231D01*
X457581Y57212D01*
X456509Y59799D01*
X456509Y62601D01*
X457581Y65188D01*
X459562Y67169D01*
X462149Y68241D01*
X464951Y68241D01*
X467538Y67169D01*
X469519Y65188D01*
X470591Y62601D01*
X470591Y59799D01*
X469519Y57212D01*
X467538Y55231D01*
X464951Y54159D01*
X462149Y54159D01*
G37*
%LPD*%
%LPC*%
G36*
X39493Y83299D02*
X39493Y83299D01*
X39513Y83426D01*
X39955Y84786D01*
X40603Y86059D01*
X41101Y86744D01*
X41120Y86779D01*
X41145Y86809D01*
X41196Y86918D01*
X41254Y87023D01*
X41264Y87061D01*
X41281Y87097D01*
X41303Y87214D01*
X41333Y87331D01*
X41333Y87371D01*
X41341Y87410D01*
X41333Y87529D01*
X41333Y87649D01*
X41323Y87687D01*
X41321Y87727D01*
X41284Y87841D01*
X41254Y87957D01*
X41235Y87992D01*
X41223Y88029D01*
X41159Y88131D01*
X41101Y88235D01*
X41074Y88264D01*
X41053Y88298D01*
X40965Y88380D01*
X40884Y88467D01*
X40850Y88489D01*
X40821Y88516D01*
X40716Y88574D01*
X40615Y88638D01*
X40577Y88650D01*
X40543Y88670D01*
X40427Y88699D01*
X40313Y88737D01*
X40273Y88739D01*
X40235Y88749D01*
X40074Y88759D01*
X38168Y88759D01*
X35948Y89679D01*
X34249Y91378D01*
X33329Y93598D01*
X33329Y96002D01*
X34249Y98222D01*
X35948Y99921D01*
X38168Y100841D01*
X40572Y100841D01*
X42792Y99921D01*
X44491Y98222D01*
X45411Y96002D01*
X45411Y93598D01*
X44688Y91853D01*
X44676Y91811D01*
X44662Y91781D01*
X44655Y91743D01*
X44631Y91683D01*
X44622Y91614D01*
X44604Y91546D01*
X44603Y91470D01*
X44602Y91469D01*
X44602Y91467D01*
X44602Y91457D01*
X44591Y91368D01*
X44600Y91298D01*
X44599Y91228D01*
X44620Y91141D01*
X44631Y91052D01*
X44657Y90987D01*
X44673Y90919D01*
X44715Y90840D01*
X44748Y90756D01*
X44789Y90700D01*
X44822Y90638D01*
X44882Y90571D01*
X44934Y90499D01*
X44988Y90454D01*
X45035Y90402D01*
X45110Y90353D01*
X45179Y90296D01*
X45243Y90266D01*
X45301Y90228D01*
X45386Y90199D01*
X45467Y90160D01*
X45536Y90147D01*
X45602Y90124D01*
X45691Y90117D01*
X45779Y90101D01*
X45849Y90105D01*
X45919Y90099D01*
X46007Y90115D01*
X46097Y90120D01*
X46218Y90151D01*
X46232Y90154D01*
X46238Y90156D01*
X46371Y90177D01*
X46371Y83299D01*
X39493Y83299D01*
G37*
%LPD*%
%LPC*%
G36*
X38168Y127759D02*
X38168Y127759D01*
X35948Y128679D01*
X34249Y130378D01*
X33329Y132598D01*
X33329Y135002D01*
X34249Y137222D01*
X35948Y138921D01*
X38168Y139841D01*
X40074Y139841D01*
X40114Y139846D01*
X40153Y139843D01*
X40271Y139866D01*
X40390Y139881D01*
X40427Y139895D01*
X40466Y139903D01*
X40574Y139954D01*
X40685Y139998D01*
X40717Y140021D01*
X40753Y140038D01*
X40846Y140114D01*
X40943Y140184D01*
X40968Y140215D01*
X40999Y140240D01*
X41069Y140337D01*
X41145Y140429D01*
X41162Y140465D01*
X41186Y140498D01*
X41230Y140609D01*
X41281Y140717D01*
X41288Y140756D01*
X41303Y140793D01*
X41318Y140912D01*
X41341Y141029D01*
X41338Y141069D01*
X41343Y141109D01*
X41328Y141227D01*
X41321Y141347D01*
X41309Y141385D01*
X41304Y141424D01*
X41260Y141536D01*
X41223Y141649D01*
X41202Y141683D01*
X41187Y141720D01*
X41101Y141856D01*
X40603Y142541D01*
X39955Y143814D01*
X39513Y145174D01*
X39493Y145301D01*
X46371Y145301D01*
X46371Y138423D01*
X46206Y138449D01*
X46165Y138457D01*
X46079Y138483D01*
X46009Y138486D01*
X45940Y138500D01*
X45851Y138494D01*
X45761Y138498D01*
X45693Y138484D01*
X45623Y138480D01*
X45538Y138452D01*
X45450Y138434D01*
X45387Y138403D01*
X45320Y138382D01*
X45245Y138333D01*
X45164Y138294D01*
X45111Y138249D01*
X45052Y138211D01*
X44990Y138146D01*
X44922Y138088D01*
X44882Y138031D01*
X44834Y137980D01*
X44791Y137901D01*
X44739Y137828D01*
X44714Y137762D01*
X44681Y137701D01*
X44658Y137614D01*
X44626Y137530D01*
X44619Y137461D01*
X44601Y137393D01*
X44601Y137304D01*
X44591Y137214D01*
X44601Y137145D01*
X44601Y137075D01*
X44623Y136988D01*
X44636Y136899D01*
X44676Y136781D01*
X44680Y136767D01*
X44683Y136761D01*
X44688Y136747D01*
X45411Y135002D01*
X45411Y132598D01*
X44491Y130378D01*
X42792Y128679D01*
X40572Y127759D01*
X38168Y127759D01*
G37*
%LPD*%
%LPC*%
G36*
X172247Y133135D02*
X172247Y133135D01*
X169834Y134135D01*
X167988Y135981D01*
X166988Y138394D01*
X166988Y141006D01*
X167988Y143419D01*
X169834Y145265D01*
X172247Y146265D01*
X174859Y146265D01*
X177272Y145265D01*
X179118Y143419D01*
X180118Y141006D01*
X180118Y138394D01*
X179118Y135981D01*
X177272Y134135D01*
X174859Y133135D01*
X172247Y133135D01*
G37*
%LPD*%
%LPC*%
G36*
X249519Y132500D02*
X249519Y132500D01*
X247106Y133500D01*
X245260Y135346D01*
X244260Y137759D01*
X244260Y140371D01*
X245260Y142784D01*
X247106Y144630D01*
X249519Y145630D01*
X252131Y145630D01*
X254544Y144630D01*
X256390Y142784D01*
X257390Y140371D01*
X257390Y137759D01*
X256390Y135346D01*
X254544Y133500D01*
X252131Y132500D01*
X249519Y132500D01*
G37*
%LPD*%
%LPC*%
G36*
X93944Y24550D02*
X93944Y24550D01*
X91531Y25550D01*
X89685Y27396D01*
X88685Y29809D01*
X88685Y32421D01*
X89685Y34834D01*
X91531Y36680D01*
X93944Y37680D01*
X96556Y37680D01*
X98969Y36680D01*
X100815Y34834D01*
X101815Y32421D01*
X101815Y29809D01*
X100815Y27396D01*
X98969Y25550D01*
X96556Y24550D01*
X93944Y24550D01*
G37*
%LPD*%
%LPC*%
G36*
X146649Y28487D02*
X146649Y28487D01*
X144236Y29487D01*
X142390Y31333D01*
X141390Y33746D01*
X141390Y36358D01*
X142390Y38771D01*
X144236Y40617D01*
X146649Y41617D01*
X149261Y41617D01*
X151674Y40617D01*
X153520Y38771D01*
X154520Y36358D01*
X154520Y33746D01*
X153520Y31333D01*
X151674Y29487D01*
X149261Y28487D01*
X146649Y28487D01*
G37*
%LPD*%
%LPC*%
G36*
X119344Y128984D02*
X119344Y128984D01*
X116931Y129984D01*
X115085Y131830D01*
X114085Y134243D01*
X114085Y136855D01*
X115085Y139268D01*
X116931Y141114D01*
X119344Y142114D01*
X121956Y142114D01*
X124369Y141114D01*
X126215Y139268D01*
X127215Y136855D01*
X127215Y134243D01*
X126215Y131830D01*
X124369Y129984D01*
X121956Y128984D01*
X119344Y128984D01*
G37*
%LPD*%
%LPC*%
G36*
X142204Y120435D02*
X142204Y120435D01*
X139791Y121435D01*
X137945Y123281D01*
X136945Y125694D01*
X136945Y128306D01*
X137945Y130719D01*
X139791Y132565D01*
X142204Y133565D01*
X144816Y133565D01*
X147229Y132565D01*
X149075Y130719D01*
X150075Y128306D01*
X150075Y125694D01*
X149075Y123281D01*
X147229Y121435D01*
X144816Y120435D01*
X142204Y120435D01*
G37*
%LPD*%
%LPC*%
G36*
X246344Y115990D02*
X246344Y115990D01*
X243931Y116990D01*
X242085Y118836D01*
X241085Y121249D01*
X241085Y123861D01*
X242085Y126274D01*
X243931Y128120D01*
X246344Y129120D01*
X248956Y129120D01*
X251369Y128120D01*
X253215Y126274D01*
X254215Y123861D01*
X254215Y121249D01*
X253215Y118836D01*
X251369Y116990D01*
X248956Y115990D01*
X246344Y115990D01*
G37*
%LPD*%
%LPC*%
G36*
X135854Y65825D02*
X135854Y65825D01*
X133441Y66825D01*
X131595Y68671D01*
X130595Y71084D01*
X130595Y73696D01*
X131595Y76109D01*
X133441Y77955D01*
X135854Y78955D01*
X138466Y78955D01*
X140879Y77955D01*
X142725Y76109D01*
X143725Y73696D01*
X143725Y71084D01*
X142725Y68671D01*
X140879Y66825D01*
X138466Y65825D01*
X135854Y65825D01*
G37*
%LPD*%
%LPC*%
G36*
X185384Y109712D02*
X185384Y109712D01*
X182971Y110712D01*
X181125Y112558D01*
X180125Y114971D01*
X180125Y117583D01*
X181125Y119996D01*
X182971Y121842D01*
X185384Y122842D01*
X187996Y122842D01*
X190409Y121842D01*
X192255Y119996D01*
X193255Y117583D01*
X193255Y114971D01*
X192255Y112558D01*
X190409Y110712D01*
X187996Y109712D01*
X185384Y109712D01*
G37*
%LPD*%
%LPC*%
G36*
X157444Y144565D02*
X157444Y144565D01*
X155031Y145565D01*
X153185Y147411D01*
X152185Y149824D01*
X152185Y152436D01*
X153185Y154849D01*
X155031Y156695D01*
X157444Y157695D01*
X160056Y157695D01*
X162469Y156695D01*
X164315Y154849D01*
X165315Y152436D01*
X165315Y149824D01*
X164315Y147411D01*
X162469Y145565D01*
X160056Y144565D01*
X157444Y144565D01*
G37*
%LPD*%
%LPC*%
G36*
X76164Y100115D02*
X76164Y100115D01*
X73751Y101115D01*
X71905Y102961D01*
X70905Y105374D01*
X70905Y107986D01*
X71905Y110399D01*
X73751Y112245D01*
X76164Y113245D01*
X78776Y113245D01*
X81189Y112245D01*
X83035Y110399D01*
X84035Y107986D01*
X84035Y105374D01*
X83035Y102961D01*
X81189Y101115D01*
X78776Y100115D01*
X76164Y100115D01*
G37*
%LPD*%
%LPC*%
G36*
X104739Y91860D02*
X104739Y91860D01*
X102326Y92860D01*
X100480Y94706D01*
X99480Y97119D01*
X99480Y99731D01*
X100480Y102144D01*
X102326Y103990D01*
X104739Y104990D01*
X107351Y104990D01*
X109764Y103990D01*
X111610Y102144D01*
X112610Y99731D01*
X112610Y97119D01*
X111610Y94706D01*
X109764Y92860D01*
X107351Y91860D01*
X104739Y91860D01*
G37*
%LPD*%
%LPC*%
G36*
X127599Y155360D02*
X127599Y155360D01*
X125186Y156360D01*
X123340Y158206D01*
X122340Y160619D01*
X122340Y163231D01*
X123340Y165644D01*
X125186Y167490D01*
X127599Y168490D01*
X130211Y168490D01*
X132624Y167490D01*
X134470Y165644D01*
X135470Y163231D01*
X135470Y160619D01*
X134470Y158206D01*
X132624Y156360D01*
X130211Y155360D01*
X127599Y155360D01*
G37*
%LPD*%
%LPC*%
G36*
X347563Y177331D02*
X347563Y177331D01*
X345150Y178331D01*
X343304Y180177D01*
X342304Y182590D01*
X342304Y185202D01*
X343304Y187615D01*
X345150Y189461D01*
X347563Y190461D01*
X350175Y190461D01*
X352588Y189461D01*
X354434Y187615D01*
X355434Y185202D01*
X355434Y182590D01*
X354434Y180177D01*
X352588Y178331D01*
X350175Y177331D01*
X347563Y177331D01*
G37*
%LPD*%
%LPC*%
G36*
X86324Y190285D02*
X86324Y190285D01*
X83911Y191285D01*
X82065Y193131D01*
X81065Y195544D01*
X81065Y198156D01*
X82065Y200569D01*
X83911Y202415D01*
X86324Y203415D01*
X88936Y203415D01*
X91349Y202415D01*
X93195Y200569D01*
X94195Y198156D01*
X94195Y195544D01*
X93195Y193131D01*
X91349Y191285D01*
X88936Y190285D01*
X86324Y190285D01*
G37*
%LPD*%
%LPC*%
G36*
X270474Y76620D02*
X270474Y76620D01*
X268061Y77620D01*
X266215Y79466D01*
X265215Y81879D01*
X265215Y84491D01*
X266215Y86904D01*
X268061Y88750D01*
X270474Y89750D01*
X273086Y89750D01*
X275499Y88750D01*
X277345Y86904D01*
X278345Y84491D01*
X278345Y81879D01*
X277345Y79466D01*
X275499Y77620D01*
X273086Y76620D01*
X270474Y76620D01*
G37*
%LPD*%
%LPC*%
G36*
X252694Y178855D02*
X252694Y178855D01*
X250281Y179855D01*
X248435Y181701D01*
X247435Y184114D01*
X247435Y186726D01*
X248435Y189139D01*
X250281Y190985D01*
X252694Y191985D01*
X255306Y191985D01*
X257719Y190985D01*
X259565Y189139D01*
X260565Y186726D01*
X260565Y184114D01*
X259565Y181701D01*
X257719Y179855D01*
X255306Y178855D01*
X252694Y178855D01*
G37*
%LPD*%
%LPC*%
G36*
X317464Y189650D02*
X317464Y189650D01*
X315051Y190650D01*
X313205Y192496D01*
X312205Y194909D01*
X312205Y197521D01*
X313205Y199934D01*
X315051Y201780D01*
X317464Y202780D01*
X320076Y202780D01*
X322489Y201780D01*
X324335Y199934D01*
X325335Y197521D01*
X325335Y194909D01*
X324335Y192496D01*
X322489Y190650D01*
X320076Y189650D01*
X317464Y189650D01*
G37*
%LPD*%
%LPC*%
G36*
X93944Y59475D02*
X93944Y59475D01*
X91531Y60475D01*
X89685Y62321D01*
X88685Y64734D01*
X88685Y67346D01*
X89685Y69759D01*
X91531Y71605D01*
X93944Y72605D01*
X96556Y72605D01*
X98969Y71605D01*
X100815Y69759D01*
X101815Y67346D01*
X101815Y64734D01*
X100815Y62321D01*
X98969Y60475D01*
X96556Y59475D01*
X93944Y59475D01*
G37*
%LPD*%
%LPC*%
G36*
X55950Y192087D02*
X55950Y192087D01*
X53732Y193005D01*
X52035Y194702D01*
X51117Y196920D01*
X51117Y199320D01*
X52035Y201538D01*
X53732Y203235D01*
X55950Y204153D01*
X58350Y204153D01*
X60568Y203235D01*
X62265Y201538D01*
X63183Y199320D01*
X63183Y196920D01*
X62265Y194702D01*
X60568Y193005D01*
X58350Y192087D01*
X55950Y192087D01*
G37*
%LPD*%
%LPC*%
G36*
X135849Y15199D02*
X135849Y15199D01*
X135849Y22487D01*
X137220Y22042D01*
X138633Y21322D01*
X139917Y20389D01*
X141039Y19267D01*
X141972Y17983D01*
X142692Y16570D01*
X143137Y15199D01*
X135849Y15199D01*
G37*
%LPD*%
%LPC*%
G36*
X123563Y15199D02*
X123563Y15199D01*
X124008Y16570D01*
X124728Y17983D01*
X125661Y19267D01*
X126783Y20389D01*
X128067Y21322D01*
X129480Y22042D01*
X130851Y22487D01*
X130851Y15199D01*
X123563Y15199D01*
G37*
%LPD*%
%LPC*%
G36*
X50369Y83299D02*
X50369Y83299D01*
X50369Y90177D01*
X50496Y90157D01*
X51856Y89715D01*
X53129Y89067D01*
X54286Y88226D01*
X55296Y87216D01*
X56137Y86059D01*
X56785Y84786D01*
X57227Y83426D01*
X57247Y83299D01*
X50369Y83299D01*
G37*
%LPD*%
%LPC*%
G36*
X50369Y149299D02*
X50369Y149299D01*
X50369Y156177D01*
X50496Y156157D01*
X51856Y155715D01*
X53129Y155067D01*
X54286Y154226D01*
X55296Y153216D01*
X56137Y152059D01*
X56785Y150786D01*
X57227Y149426D01*
X57247Y149299D01*
X50369Y149299D01*
G37*
%LPD*%
%LPC*%
G36*
X50369Y145301D02*
X50369Y145301D01*
X57247Y145301D01*
X57227Y145174D01*
X56785Y143814D01*
X56137Y142541D01*
X55296Y141384D01*
X54286Y140374D01*
X53129Y139533D01*
X51856Y138885D01*
X50496Y138443D01*
X50369Y138423D01*
X50369Y145301D01*
G37*
%LPD*%
%LPC*%
G36*
X39493Y149299D02*
X39493Y149299D01*
X39513Y149426D01*
X39955Y150786D01*
X40603Y152059D01*
X41444Y153216D01*
X42454Y154226D01*
X43611Y155067D01*
X44884Y155715D01*
X46244Y156157D01*
X46371Y156177D01*
X46371Y149299D01*
X39493Y149299D01*
G37*
%LPD*%
%LPC*%
G36*
X50369Y79301D02*
X50369Y79301D01*
X57247Y79301D01*
X57227Y79174D01*
X56785Y77814D01*
X56137Y76541D01*
X55296Y75384D01*
X54286Y74374D01*
X53129Y73533D01*
X51856Y72885D01*
X50496Y72443D01*
X50369Y72423D01*
X50369Y79301D01*
G37*
%LPD*%
%LPC*%
G36*
X46244Y72443D02*
X46244Y72443D01*
X44884Y72885D01*
X43611Y73533D01*
X42454Y74374D01*
X41444Y75384D01*
X40603Y76541D01*
X39955Y77814D01*
X39513Y79174D01*
X39493Y79301D01*
X46371Y79301D01*
X46371Y72423D01*
X46244Y72443D01*
G37*
%LPD*%
D10*
X438150Y12700D03*
X412750Y12700D03*
X387350Y12700D03*
X361950Y12700D03*
X336550Y12700D03*
X311150Y12700D03*
X285750Y12700D03*
X260350Y12700D03*
X234950Y12700D03*
X209550Y12700D03*
X184150Y12700D03*
X158750Y12700D03*
X133350Y12700D03*
X107950Y12700D03*
X82550Y12700D03*
X57150Y12700D03*
X158750Y215900D03*
X184150Y215900D03*
X209550Y215900D03*
X234950Y215900D03*
X260350Y215900D03*
X285750Y215900D03*
X311150Y215900D03*
X336550Y215900D03*
X361950Y215900D03*
X387350Y215900D03*
X412750Y215900D03*
X438150Y215900D03*
D11*
X48370Y147300D03*
X48370Y81300D03*
D12*
X20370Y150300D03*
X20370Y78300D03*
D10*
X92710Y215900D03*
X114300Y215900D03*
D13*
X17780Y114300D03*
X109220Y83820D03*
X41910Y8890D03*
X67310Y161290D03*
X139065Y168275D03*
X94615Y121920D03*
X173355Y165100D03*
D14*
X95250Y19685D03*
D13*
X180340Y62230D03*
X283210Y121920D03*
X221996Y205994D03*
X298450Y207010D03*
D14*
X336296Y139954D03*
D13*
X336296Y86360D03*
X96520Y53975D03*
X361950Y76200D03*
X172283Y127482D03*
D15*
X416560Y182880D03*
D16*
X419100Y185420D01*
D13*
X147955Y35052D03*
X87630Y196850D03*
X186690Y116277D03*
X106045Y98425D03*
X255270Y31750D03*
X128905Y161925D03*
X66675Y54610D03*
X78740Y57150D03*
X158750Y151130D03*
X229870Y166624D03*
X292100Y196850D03*
X332359Y180086D03*
X229870Y177165D03*
D15*
X389890Y92710D03*
D16*
X391160Y92710D01*
X412750Y114300D01*
D15*
X412750Y114300D03*
D13*
X95250Y31115D03*
X271780Y83185D03*
X212725Y133985D03*
X254000Y185420D03*
X95250Y66040D03*
X77470Y106680D03*
X184150Y173990D03*
D17*
X184150Y215900D01*
D15*
X387350Y114300D03*
D16*
X329398Y172252D01*
X305619Y172252D01*
X279711Y198160D01*
X201890Y198160D02*
X184150Y215900D01*
X201890Y198160D02*
X279711Y198160D01*
D13*
X273050Y170180D03*
X247650Y122555D03*
X261620Y170180D03*
D14*
X57150Y198120D03*
D13*
X254000Y161290D03*
X250825Y139065D03*
X137160Y72390D03*
X210185Y43815D03*
X254889Y45720D03*
X217805Y52705D03*
X254889Y59055D03*
D14*
X463550Y187960D03*
X463550Y127000D03*
D16*
X245017Y12700D02*
X234950Y12700D01*
X245017Y12700D02*
X255859Y23542D01*
X281259Y23542D02*
X289681Y31964D01*
X281259Y23542D02*
X255859Y23542D01*
X368300Y31964D02*
X368514Y31964D01*
X368300Y31964D02*
X289681Y31964D01*
X368514Y31964D02*
X412964Y31964D01*
X444500Y63500D01*
X444500Y107950D02*
X463550Y127000D01*
X444500Y107950D02*
X444500Y63500D01*
D13*
X334010Y43180D03*
D18*
X345440Y43815D03*
D13*
X335280Y98425D03*
X297180Y24130D03*
X293250Y83305D03*
D15*
X222885Y142240D03*
D13*
X327025Y106680D03*
X321564Y116840D03*
X301625Y92710D03*
X234315Y142240D03*
X348869Y183896D03*
X318770Y196215D03*
D15*
X369570Y60960D03*
D16*
X114300Y152400D02*
X114300Y215900D01*
X114300Y152400D02*
X101600Y139700D01*
X101600Y127000D01*
X127000Y101600D01*
X345440Y60960D02*
X369570Y60960D01*
X345440Y60960D02*
X304800Y101600D01*
X127000Y101600D01*
D13*
X173553Y139700D03*
X143510Y127000D03*
X120650Y135549D03*
M02*
