G04 EAGLE Gerber RS-274X export*
G75*
%MOMM*%
%FSLAX34Y34*%
%LPD*%
%INSilkscreen Top*%
%IPPOS*%
%AMOC8*
5,1,8,0,0,1.08239X$1,22.5*%
G01*
%ADD10C,0.127000*%
%ADD11C,0.076200*%
%ADD12C,0.254000*%
%ADD13C,0.203200*%
%ADD14C,0.101600*%
%ADD15R,0.200000X0.800000*%
%ADD16R,0.127000X0.762000*%
%ADD17C,0.220000*%
%ADD18C,0.025400*%
%ADD19C,0.050800*%

G36*
X24013Y170058D02*
X24013Y170058D01*
X24042Y170055D01*
X24134Y170075D01*
X24227Y170088D01*
X24254Y170101D01*
X24283Y170107D01*
X24363Y170155D01*
X24447Y170197D01*
X24468Y170218D01*
X24494Y170233D01*
X24555Y170305D01*
X24621Y170371D01*
X24634Y170397D01*
X24654Y170420D01*
X24689Y170507D01*
X24731Y170591D01*
X24735Y170621D01*
X24746Y170648D01*
X24764Y170815D01*
X24764Y175895D01*
X24759Y175924D01*
X24762Y175954D01*
X24740Y176045D01*
X24725Y176138D01*
X24711Y176164D01*
X24704Y176193D01*
X24653Y176272D01*
X24609Y176355D01*
X24588Y176376D01*
X24572Y176401D01*
X24499Y176460D01*
X24431Y176525D01*
X24404Y176537D01*
X24381Y176556D01*
X24293Y176589D01*
X24208Y176628D01*
X24178Y176631D01*
X24151Y176642D01*
X24057Y176645D01*
X23964Y176655D01*
X23934Y176649D01*
X23905Y176650D01*
X23815Y176623D01*
X23723Y176603D01*
X23698Y176588D01*
X23669Y176579D01*
X23527Y176489D01*
X20352Y173949D01*
X20283Y173872D01*
X20210Y173799D01*
X20201Y173782D01*
X20188Y173767D01*
X20146Y173671D01*
X20100Y173579D01*
X20098Y173559D01*
X20090Y173541D01*
X20081Y173438D01*
X20067Y173335D01*
X20071Y173316D01*
X20069Y173296D01*
X20094Y173195D01*
X20113Y173093D01*
X20123Y173076D01*
X20127Y173057D01*
X20183Y172970D01*
X20234Y172879D01*
X20251Y172862D01*
X20259Y172849D01*
X20284Y172829D01*
X20352Y172761D01*
X23527Y170221D01*
X23553Y170206D01*
X23575Y170186D01*
X23660Y170146D01*
X23742Y170100D01*
X23771Y170094D01*
X23798Y170082D01*
X23891Y170072D01*
X23983Y170054D01*
X24013Y170058D01*
G37*
G36*
X279918Y57028D02*
X279918Y57028D01*
X279947Y57025D01*
X280039Y57045D01*
X280132Y57058D01*
X280159Y57071D01*
X280188Y57077D01*
X280268Y57125D01*
X280352Y57167D01*
X280373Y57188D01*
X280399Y57203D01*
X280460Y57275D01*
X280526Y57341D01*
X280539Y57367D01*
X280559Y57390D01*
X280594Y57477D01*
X280636Y57561D01*
X280640Y57591D01*
X280651Y57618D01*
X280669Y57785D01*
X280669Y62865D01*
X280664Y62894D01*
X280667Y62924D01*
X280645Y63015D01*
X280630Y63108D01*
X280616Y63134D01*
X280609Y63163D01*
X280558Y63242D01*
X280514Y63325D01*
X280493Y63346D01*
X280477Y63371D01*
X280404Y63430D01*
X280336Y63495D01*
X280309Y63507D01*
X280286Y63526D01*
X280198Y63559D01*
X280113Y63598D01*
X280083Y63601D01*
X280056Y63612D01*
X279962Y63615D01*
X279869Y63625D01*
X279839Y63619D01*
X279810Y63620D01*
X279720Y63593D01*
X279628Y63573D01*
X279603Y63558D01*
X279574Y63549D01*
X279432Y63459D01*
X276257Y60919D01*
X276188Y60842D01*
X276115Y60769D01*
X276106Y60752D01*
X276093Y60737D01*
X276051Y60641D01*
X276005Y60549D01*
X276003Y60529D01*
X275995Y60511D01*
X275986Y60408D01*
X275972Y60305D01*
X275976Y60286D01*
X275974Y60266D01*
X275999Y60165D01*
X276018Y60063D01*
X276028Y60046D01*
X276032Y60027D01*
X276088Y59940D01*
X276139Y59849D01*
X276156Y59832D01*
X276164Y59819D01*
X276189Y59799D01*
X276257Y59731D01*
X279432Y57191D01*
X279458Y57176D01*
X279480Y57156D01*
X279565Y57116D01*
X279647Y57070D01*
X279676Y57064D01*
X279703Y57052D01*
X279796Y57042D01*
X279888Y57024D01*
X279918Y57028D01*
G37*
G36*
X17341Y52586D02*
X17341Y52586D01*
X17370Y52585D01*
X17460Y52612D01*
X17552Y52632D01*
X17577Y52647D01*
X17606Y52656D01*
X17748Y52746D01*
X20923Y55286D01*
X20992Y55363D01*
X21065Y55436D01*
X21074Y55454D01*
X21087Y55468D01*
X21129Y55564D01*
X21175Y55656D01*
X21177Y55676D01*
X21185Y55694D01*
X21194Y55797D01*
X21208Y55900D01*
X21204Y55919D01*
X21206Y55939D01*
X21181Y56040D01*
X21162Y56142D01*
X21152Y56159D01*
X21148Y56178D01*
X21092Y56266D01*
X21041Y56356D01*
X21024Y56373D01*
X21016Y56386D01*
X20991Y56406D01*
X20923Y56474D01*
X17748Y59014D01*
X17722Y59029D01*
X17700Y59050D01*
X17615Y59089D01*
X17533Y59135D01*
X17504Y59141D01*
X17477Y59153D01*
X17384Y59163D01*
X17292Y59181D01*
X17262Y59177D01*
X17233Y59180D01*
X17141Y59160D01*
X17048Y59148D01*
X17021Y59134D01*
X16992Y59128D01*
X16912Y59080D01*
X16828Y59038D01*
X16807Y59017D01*
X16781Y59002D01*
X16720Y58930D01*
X16654Y58864D01*
X16641Y58838D01*
X16621Y58815D01*
X16586Y58728D01*
X16544Y58644D01*
X16540Y58614D01*
X16529Y58587D01*
X16511Y58420D01*
X16511Y53340D01*
X16516Y53311D01*
X16513Y53281D01*
X16535Y53190D01*
X16551Y53097D01*
X16564Y53071D01*
X16571Y53042D01*
X16622Y52963D01*
X16666Y52880D01*
X16687Y52859D01*
X16703Y52834D01*
X16776Y52775D01*
X16844Y52711D01*
X16871Y52698D01*
X16894Y52679D01*
X16982Y52646D01*
X17067Y52607D01*
X17097Y52604D01*
X17124Y52593D01*
X17218Y52590D01*
X17311Y52580D01*
X17341Y52586D01*
G37*
G36*
X279918Y40518D02*
X279918Y40518D01*
X279947Y40515D01*
X280039Y40535D01*
X280132Y40548D01*
X280159Y40561D01*
X280188Y40567D01*
X280268Y40615D01*
X280352Y40657D01*
X280373Y40678D01*
X280399Y40693D01*
X280460Y40765D01*
X280526Y40831D01*
X280539Y40857D01*
X280559Y40880D01*
X280594Y40967D01*
X280636Y41051D01*
X280640Y41081D01*
X280651Y41108D01*
X280669Y41275D01*
X280669Y46355D01*
X280664Y46384D01*
X280667Y46414D01*
X280645Y46505D01*
X280630Y46598D01*
X280616Y46624D01*
X280609Y46653D01*
X280558Y46732D01*
X280514Y46815D01*
X280493Y46836D01*
X280477Y46861D01*
X280404Y46920D01*
X280336Y46985D01*
X280309Y46997D01*
X280286Y47016D01*
X280198Y47049D01*
X280113Y47088D01*
X280083Y47091D01*
X280056Y47102D01*
X279962Y47105D01*
X279869Y47115D01*
X279839Y47109D01*
X279810Y47110D01*
X279720Y47083D01*
X279628Y47063D01*
X279603Y47048D01*
X279574Y47039D01*
X279432Y46949D01*
X276257Y44409D01*
X276188Y44332D01*
X276115Y44259D01*
X276106Y44242D01*
X276093Y44227D01*
X276051Y44131D01*
X276005Y44039D01*
X276003Y44019D01*
X275995Y44001D01*
X275986Y43898D01*
X275972Y43795D01*
X275976Y43776D01*
X275974Y43756D01*
X275999Y43655D01*
X276018Y43553D01*
X276028Y43536D01*
X276032Y43517D01*
X276088Y43430D01*
X276139Y43339D01*
X276156Y43322D01*
X276164Y43309D01*
X276189Y43289D01*
X276257Y43221D01*
X279432Y40681D01*
X279458Y40666D01*
X279480Y40646D01*
X279565Y40606D01*
X279647Y40560D01*
X279676Y40554D01*
X279703Y40542D01*
X279796Y40532D01*
X279888Y40514D01*
X279918Y40518D01*
G37*
G36*
X98332Y132508D02*
X98332Y132508D01*
X98361Y132504D01*
X98401Y132521D01*
X98443Y132528D01*
X98478Y132554D01*
X98490Y132559D01*
X98495Y132566D01*
X98509Y132576D01*
X101009Y135076D01*
X101017Y135090D01*
X101029Y135099D01*
X101050Y135151D01*
X101077Y135199D01*
X101076Y135215D01*
X101082Y135230D01*
X101072Y135284D01*
X101069Y135340D01*
X101059Y135353D01*
X101057Y135368D01*
X101009Y135434D01*
X98509Y137934D01*
X98471Y137955D01*
X98439Y137984D01*
X98410Y137988D01*
X98386Y138002D01*
X98342Y137999D01*
X98299Y138006D01*
X98273Y137995D01*
X98245Y137994D01*
X98210Y137968D01*
X98170Y137951D01*
X98154Y137928D01*
X98131Y137911D01*
X98114Y137871D01*
X98090Y137835D01*
X98083Y137792D01*
X98078Y137780D01*
X98080Y137772D01*
X98077Y137755D01*
X98077Y132755D01*
X98089Y132713D01*
X98091Y132670D01*
X98108Y132647D01*
X98116Y132620D01*
X98148Y132591D01*
X98174Y132556D01*
X98200Y132545D01*
X98221Y132526D01*
X98264Y132519D01*
X98305Y132503D01*
X98332Y132508D01*
G37*
D10*
X198057Y205113D02*
X198057Y197698D01*
X199540Y196215D01*
X202506Y196215D01*
X203989Y197698D01*
X203989Y205113D01*
X211861Y205113D02*
X213344Y203630D01*
X211861Y205113D02*
X208895Y205113D01*
X207412Y203630D01*
X207412Y202147D01*
X208895Y200664D01*
X211861Y200664D01*
X213344Y199181D01*
X213344Y197698D01*
X211861Y196215D01*
X208895Y196215D01*
X207412Y197698D01*
X216768Y196215D02*
X216768Y205113D01*
X221216Y205113D01*
X222699Y203630D01*
X222699Y202147D01*
X221216Y200664D01*
X222699Y199181D01*
X222699Y197698D01*
X221216Y196215D01*
X216768Y196215D01*
X216768Y200664D02*
X221216Y200664D01*
X43752Y34933D02*
X43752Y26035D01*
X43752Y34933D02*
X48201Y34933D01*
X49684Y33450D01*
X49684Y30484D01*
X48201Y29001D01*
X43752Y29001D01*
X46718Y29001D02*
X49684Y26035D01*
X57556Y34933D02*
X59039Y33450D01*
X57556Y34933D02*
X54590Y34933D01*
X53107Y33450D01*
X53107Y31967D01*
X54590Y30484D01*
X57556Y30484D01*
X59039Y29001D01*
X59039Y27518D01*
X57556Y26035D01*
X54590Y26035D01*
X53107Y27518D01*
X65428Y26035D02*
X65428Y34933D01*
X62463Y34933D02*
X68394Y34933D01*
X99230Y31967D02*
X99230Y26035D01*
X99230Y31967D02*
X102196Y34933D01*
X105162Y31967D01*
X105162Y26035D01*
X105162Y30484D02*
X99230Y30484D01*
X108585Y26035D02*
X108585Y34933D01*
X113034Y34933D01*
X114517Y33450D01*
X114517Y30484D01*
X113034Y29001D01*
X108585Y29001D01*
X111551Y29001D02*
X114517Y26035D01*
X75313Y34933D02*
X73830Y33450D01*
X75313Y34933D02*
X78279Y34933D01*
X79762Y33450D01*
X79762Y31967D01*
X78279Y30484D01*
X76796Y30484D01*
X78279Y30484D02*
X79762Y29001D01*
X79762Y27518D01*
X78279Y26035D01*
X75313Y26035D01*
X73830Y27518D01*
X83185Y29001D02*
X83185Y34933D01*
X83185Y29001D02*
X86151Y26035D01*
X89117Y29001D01*
X89117Y34933D01*
X175430Y31967D02*
X175430Y26035D01*
X175430Y31967D02*
X178396Y34933D01*
X181362Y31967D01*
X181362Y26035D01*
X181362Y30484D02*
X175430Y30484D01*
X184785Y31967D02*
X187751Y34933D01*
X187751Y26035D01*
X184785Y26035D02*
X190717Y26035D01*
X150030Y26035D02*
X150030Y31967D01*
X152996Y34933D01*
X155962Y31967D01*
X155962Y26035D01*
X155962Y30484D02*
X150030Y30484D01*
X159385Y27518D02*
X159385Y33450D01*
X160868Y34933D01*
X163834Y34933D01*
X165317Y33450D01*
X165317Y27518D01*
X163834Y26035D01*
X160868Y26035D01*
X159385Y27518D01*
X165317Y33450D01*
X306011Y38743D02*
X307494Y37260D01*
X306011Y38743D02*
X303045Y38743D01*
X301562Y37260D01*
X301562Y35777D01*
X303045Y34294D01*
X306011Y34294D01*
X307494Y32811D01*
X307494Y31328D01*
X306011Y29845D01*
X303045Y29845D01*
X301562Y31328D01*
X315366Y38743D02*
X316849Y37260D01*
X315366Y38743D02*
X312400Y38743D01*
X310917Y37260D01*
X310917Y31328D01*
X312400Y29845D01*
X315366Y29845D01*
X316849Y31328D01*
X320273Y29845D02*
X320273Y38743D01*
X326204Y38743D02*
X320273Y32811D01*
X321756Y34294D02*
X326204Y29845D01*
X354324Y36428D02*
X361950Y36428D01*
X356866Y38970D02*
X354324Y36428D01*
X356866Y38970D02*
X354324Y41512D01*
X361950Y41512D01*
X354324Y45885D02*
X354324Y48427D01*
X354324Y45885D02*
X355595Y44614D01*
X360679Y44614D01*
X361950Y45885D01*
X361950Y48427D01*
X360679Y49698D01*
X355595Y49698D01*
X354324Y48427D01*
X354324Y56613D02*
X355595Y57884D01*
X354324Y56613D02*
X354324Y54070D01*
X355595Y52799D01*
X356866Y52799D01*
X358137Y54070D01*
X358137Y56613D01*
X359408Y57884D01*
X360679Y57884D01*
X361950Y56613D01*
X361950Y54070D01*
X360679Y52799D01*
X361950Y60985D02*
X361950Y63527D01*
X361950Y62256D02*
X354324Y62256D01*
X354324Y60985D02*
X354324Y63527D01*
X147892Y196215D02*
X147892Y205113D01*
X152341Y205113D01*
X153824Y203630D01*
X153824Y202147D01*
X152341Y200664D01*
X153824Y199181D01*
X153824Y197698D01*
X152341Y196215D01*
X147892Y196215D01*
X147892Y200664D02*
X152341Y200664D01*
X157247Y202147D02*
X157247Y196215D01*
X157247Y202147D02*
X160213Y205113D01*
X163179Y202147D01*
X163179Y196215D01*
X163179Y200664D02*
X157247Y200664D01*
X169568Y196215D02*
X169568Y205113D01*
X166603Y205113D02*
X172534Y205113D01*
X124401Y34933D02*
X125884Y33450D01*
X124401Y34933D02*
X121435Y34933D01*
X119952Y33450D01*
X119952Y27518D01*
X121435Y26035D01*
X124401Y26035D01*
X125884Y27518D01*
X125884Y30484D01*
X122918Y30484D01*
X129307Y26035D02*
X129307Y34933D01*
X135239Y26035D01*
X135239Y34933D01*
X138663Y34933D02*
X138663Y26035D01*
X143111Y26035D01*
X144594Y27518D01*
X144594Y33450D01*
X143111Y34933D01*
X138663Y34933D01*
X51435Y170965D02*
X42537Y170965D01*
X42537Y173931D02*
X51435Y173931D01*
X45503Y173931D02*
X45503Y169482D01*
X45503Y173931D02*
X45503Y175414D01*
X48469Y175414D02*
X48469Y169482D01*
X45503Y178837D02*
X42537Y181803D01*
X51435Y181803D01*
X51435Y178837D02*
X51435Y184769D01*
X44020Y188193D02*
X42537Y189676D01*
X42537Y192641D01*
X44020Y194124D01*
X45503Y194124D01*
X46986Y192641D01*
X46986Y191158D01*
X46986Y192641D02*
X48469Y194124D01*
X49952Y194124D01*
X51435Y192641D01*
X51435Y189676D01*
X49952Y188193D01*
X62898Y101309D02*
X62898Y95377D01*
X62898Y98343D02*
X65864Y101309D01*
X67347Y101309D01*
X72177Y95377D02*
X75143Y95377D01*
X72177Y95377D02*
X70694Y96860D01*
X70694Y99826D01*
X72177Y101309D01*
X75143Y101309D01*
X76626Y99826D01*
X76626Y98343D01*
X70694Y98343D01*
X80049Y95377D02*
X84498Y95377D01*
X85981Y96860D01*
X84498Y98343D01*
X81532Y98343D01*
X80049Y99826D01*
X81532Y101309D01*
X85981Y101309D01*
X90887Y95377D02*
X93853Y95377D01*
X90887Y95377D02*
X89404Y96860D01*
X89404Y99826D01*
X90887Y101309D01*
X93853Y101309D01*
X95336Y99826D01*
X95336Y98343D01*
X89404Y98343D01*
X100242Y96860D02*
X100242Y102792D01*
X100242Y96860D02*
X101725Y95377D01*
X101725Y101309D02*
X98759Y101309D01*
X43334Y57580D02*
X41851Y59063D01*
X38885Y59063D01*
X37402Y57580D01*
X37402Y51648D01*
X38885Y50165D01*
X41851Y50165D01*
X43334Y51648D01*
X46757Y50165D02*
X46757Y59063D01*
X46757Y54614D02*
X52689Y54614D01*
X52689Y59063D02*
X52689Y50165D01*
X60561Y59063D02*
X62044Y57580D01*
X60561Y59063D02*
X57596Y59063D01*
X56113Y57580D01*
X56113Y51648D01*
X57596Y50165D01*
X60561Y50165D01*
X62044Y51648D01*
X62044Y54614D01*
X59078Y54614D01*
X200830Y31967D02*
X200830Y26035D01*
X200830Y31967D02*
X203796Y34933D01*
X206762Y31967D01*
X206762Y26035D01*
X206762Y30484D02*
X200830Y30484D01*
X210185Y26035D02*
X216117Y26035D01*
X210185Y26035D02*
X216117Y31967D01*
X216117Y33450D01*
X214634Y34933D01*
X211668Y34933D01*
X210185Y33450D01*
X226230Y31967D02*
X226230Y26035D01*
X226230Y31967D02*
X229196Y34933D01*
X232162Y31967D01*
X232162Y26035D01*
X232162Y30484D02*
X226230Y30484D01*
X235585Y33450D02*
X237068Y34933D01*
X240034Y34933D01*
X241517Y33450D01*
X241517Y31967D01*
X240034Y30484D01*
X238551Y30484D01*
X240034Y30484D02*
X241517Y29001D01*
X241517Y27518D01*
X240034Y26035D01*
X237068Y26035D01*
X235585Y27518D01*
D11*
X262738Y28832D02*
X262738Y25273D01*
X262738Y28832D02*
X264517Y30612D01*
X266297Y28832D01*
X266297Y25273D01*
X266297Y27942D02*
X262738Y27942D01*
X270131Y29722D02*
X271910Y30612D01*
X270131Y29722D02*
X268351Y27942D01*
X268351Y26163D01*
X269241Y25273D01*
X271020Y25273D01*
X271910Y26163D01*
X271910Y27053D01*
X271020Y27942D01*
X268351Y27942D01*
D10*
X277030Y26035D02*
X277030Y31967D01*
X279996Y34933D01*
X282962Y31967D01*
X282962Y26035D01*
X282962Y30484D02*
X277030Y30484D01*
X286385Y34933D02*
X292317Y34933D01*
X292317Y33450D01*
X286385Y27518D01*
X286385Y26035D01*
X365754Y36428D02*
X373380Y36428D01*
X368296Y38970D02*
X365754Y36428D01*
X368296Y38970D02*
X365754Y41512D01*
X373380Y41512D01*
X373380Y44614D02*
X373380Y47156D01*
X373380Y45885D02*
X365754Y45885D01*
X365754Y44614D02*
X365754Y47156D01*
X365754Y53884D02*
X367025Y55155D01*
X365754Y53884D02*
X365754Y51342D01*
X367025Y50071D01*
X368296Y50071D01*
X369567Y51342D01*
X369567Y53884D01*
X370838Y55155D01*
X372109Y55155D01*
X373380Y53884D01*
X373380Y51342D01*
X372109Y50071D01*
X365754Y59528D02*
X365754Y62070D01*
X365754Y59528D02*
X367025Y58256D01*
X372109Y58256D01*
X373380Y59528D01*
X373380Y62070D01*
X372109Y63341D01*
X367025Y63341D01*
X365754Y62070D01*
X378630Y34933D02*
X378630Y26035D01*
X378630Y34933D02*
X383079Y34933D01*
X384562Y33450D01*
X384562Y30484D01*
X383079Y29001D01*
X378630Y29001D01*
X381596Y29001D02*
X384562Y26035D01*
X393917Y26035D02*
X387985Y34933D01*
X393917Y34933D02*
X387985Y26035D01*
X406996Y26035D02*
X406996Y34933D01*
X404030Y34933D02*
X409962Y34933D01*
X413385Y34933D02*
X419317Y26035D01*
X413385Y26035D02*
X419317Y34933D01*
X360873Y202360D02*
X363839Y203843D01*
X360873Y202360D02*
X357907Y199394D01*
X357907Y196428D01*
X359390Y194945D01*
X362356Y194945D01*
X363839Y196428D01*
X363839Y197911D01*
X362356Y199394D01*
X357907Y199394D01*
X333990Y194945D02*
X332507Y196428D01*
X333990Y194945D02*
X336956Y194945D01*
X338439Y196428D01*
X338439Y202360D01*
X336956Y203843D01*
X333990Y203843D01*
X332507Y202360D01*
X332507Y200877D01*
X333990Y199394D01*
X338439Y199394D01*
X300316Y189873D02*
X297350Y186907D01*
X300316Y189873D02*
X300316Y180975D01*
X297350Y180975D02*
X303282Y180975D01*
X306705Y182458D02*
X306705Y188390D01*
X308188Y189873D01*
X311154Y189873D01*
X312637Y188390D01*
X312637Y182458D01*
X311154Y180975D01*
X308188Y180975D01*
X306705Y182458D01*
X312637Y188390D01*
X280019Y194945D02*
X274087Y194945D01*
X280019Y200877D01*
X280019Y202360D01*
X278536Y203843D01*
X275570Y203843D01*
X274087Y202360D01*
X257790Y203843D02*
X256307Y202360D01*
X257790Y203843D02*
X260756Y203843D01*
X262239Y202360D01*
X262239Y200877D01*
X260756Y199394D01*
X259273Y199394D01*
X260756Y199394D02*
X262239Y197911D01*
X262239Y196428D01*
X260756Y194945D01*
X257790Y194945D01*
X256307Y196428D01*
X235356Y194945D02*
X235356Y203843D01*
X230907Y199394D01*
X236839Y199394D01*
X421407Y60333D02*
X427339Y60333D01*
X427339Y58850D01*
X421407Y52918D01*
X421407Y51435D01*
X237451Y49538D02*
X237451Y40640D01*
X234485Y49538D02*
X240417Y49538D01*
X243840Y49538D02*
X249772Y40640D01*
X243840Y40640D02*
X249772Y49538D01*
X234485Y55245D02*
X234485Y64143D01*
X238934Y64143D01*
X240417Y62660D01*
X240417Y59694D01*
X238934Y58211D01*
X234485Y58211D01*
X237451Y58211D02*
X240417Y55245D01*
X249772Y55245D02*
X243840Y64143D01*
X249772Y64143D02*
X243840Y55245D01*
D12*
X229870Y48895D02*
X224155Y43815D01*
X229870Y39370D01*
X229870Y48895D01*
X224155Y54610D02*
X229870Y59690D01*
X224155Y64770D01*
X224155Y54610D01*
D13*
X425450Y46990D02*
X425450Y25400D01*
X429260Y21590D01*
X304800Y190500D02*
X308610Y194310D01*
X308610Y204470D01*
D10*
X183902Y205113D02*
X177970Y205113D01*
X177970Y196215D01*
X183902Y196215D01*
X180936Y200664D02*
X177970Y200664D01*
X187325Y196215D02*
X187325Y205113D01*
X193257Y196215D01*
X193257Y205113D01*
D13*
X351790Y34290D02*
X342900Y25400D01*
X363220Y24130D02*
X369570Y30480D01*
X369570Y33020D01*
X202800Y167690D02*
X197720Y167690D01*
D14*
X207929Y173586D02*
X208776Y172739D01*
X207929Y173586D02*
X206234Y173586D01*
X205387Y172739D01*
X205387Y169349D01*
X206234Y168502D01*
X207929Y168502D01*
X208776Y169349D01*
X213542Y168502D02*
X213542Y173586D01*
X211000Y171044D01*
X214389Y171044D01*
D13*
X181990Y134630D02*
X165990Y134630D01*
X165990Y167630D02*
X181990Y167630D01*
X163490Y155130D02*
X163490Y147130D01*
D14*
X167622Y150199D02*
X167622Y154436D01*
X167622Y150199D02*
X168469Y149352D01*
X170164Y149352D01*
X171011Y150199D01*
X171011Y154436D01*
X173235Y149352D02*
X176624Y149352D01*
X173235Y149352D02*
X176624Y152742D01*
X176624Y153589D01*
X175777Y154436D01*
X174082Y154436D01*
X173235Y153589D01*
D10*
X106330Y131001D02*
X94330Y131001D01*
X94330Y139509D02*
X106330Y139509D01*
X100830Y135255D02*
X98330Y132755D01*
X98330Y137755D01*
X100830Y135255D01*
D15*
X102076Y135255D03*
D14*
X97663Y144018D02*
X97663Y149102D01*
X97663Y144018D02*
X100205Y144018D01*
X101053Y144865D01*
X101053Y148255D01*
X100205Y149102D01*
X97663Y149102D01*
X103276Y144018D02*
X106666Y144018D01*
X103276Y144018D02*
X106666Y147408D01*
X106666Y148255D01*
X105818Y149102D01*
X104123Y149102D01*
X103276Y148255D01*
D13*
X164720Y132705D02*
X180720Y132705D01*
X180720Y99705D02*
X164720Y99705D01*
X183220Y112205D02*
X183220Y120205D01*
D14*
X169513Y119892D02*
X169513Y115655D01*
X170360Y114808D01*
X172055Y114808D01*
X172903Y115655D01*
X172903Y119892D01*
X175126Y118198D02*
X176821Y119892D01*
X176821Y114808D01*
X175126Y114808D02*
X178516Y114808D01*
D16*
X21082Y55880D03*
D14*
X8128Y48772D02*
X8128Y43688D01*
X10670Y43688D01*
X11518Y44535D01*
X11518Y47925D01*
X10670Y48772D01*
X8128Y48772D01*
X13741Y47078D02*
X15436Y48772D01*
X15436Y43688D01*
X13741Y43688D02*
X17131Y43688D01*
D13*
X53340Y44450D02*
X53340Y39370D01*
D14*
X41148Y34802D02*
X41148Y29718D01*
X41148Y34802D02*
X43690Y34802D01*
X44538Y33955D01*
X44538Y32260D01*
X43690Y31413D01*
X41148Y31413D01*
X42843Y31413D02*
X44538Y29718D01*
X46761Y29718D02*
X50151Y29718D01*
X46761Y29718D02*
X50151Y33108D01*
X50151Y33955D01*
X49303Y34802D01*
X47608Y34802D01*
X46761Y33955D01*
D13*
X152400Y179070D02*
X157480Y179070D01*
D14*
X166880Y177042D02*
X167728Y176195D01*
X166880Y177042D02*
X165185Y177042D01*
X164338Y176195D01*
X164338Y172805D01*
X165185Y171958D01*
X166880Y171958D01*
X167728Y172805D01*
X169951Y177042D02*
X173341Y177042D01*
X173341Y176195D01*
X169951Y172805D01*
X169951Y171958D01*
D13*
X104789Y83865D02*
X104789Y41865D01*
X74281Y41865D02*
X74281Y83865D01*
D16*
X20193Y173355D03*
D14*
X7697Y181737D02*
X7697Y186821D01*
X7697Y181737D02*
X10239Y181737D01*
X11086Y182584D01*
X11086Y185974D01*
X10239Y186821D01*
X7697Y186821D01*
X13310Y185974D02*
X14157Y186821D01*
X15852Y186821D01*
X16699Y185974D01*
X16699Y185127D01*
X15852Y184279D01*
X15005Y184279D01*
X15852Y184279D02*
X16699Y183432D01*
X16699Y182584D01*
X15852Y181737D01*
X14157Y181737D01*
X13310Y182584D01*
D13*
X41910Y191770D02*
X46990Y191770D01*
D14*
X28448Y191008D02*
X28448Y196092D01*
X30990Y196092D01*
X31838Y195245D01*
X31838Y193550D01*
X30990Y192703D01*
X28448Y192703D01*
X30143Y192703D02*
X31838Y191008D01*
X34061Y195245D02*
X34908Y196092D01*
X36603Y196092D01*
X37451Y195245D01*
X37451Y194398D01*
X36603Y193550D01*
X37451Y192703D01*
X37451Y191855D01*
X36603Y191008D01*
X34908Y191008D01*
X34061Y191855D01*
X34061Y192703D01*
X34908Y193550D01*
X34061Y194398D01*
X34061Y195245D01*
X34908Y193550D02*
X36603Y193550D01*
D13*
X157607Y80518D02*
X157609Y80589D01*
X157615Y80660D01*
X157625Y80731D01*
X157639Y80801D01*
X157657Y80870D01*
X157678Y80937D01*
X157704Y81004D01*
X157733Y81069D01*
X157765Y81132D01*
X157802Y81194D01*
X157841Y81253D01*
X157884Y81310D01*
X157930Y81364D01*
X157979Y81416D01*
X158031Y81465D01*
X158085Y81511D01*
X158142Y81554D01*
X158201Y81593D01*
X158263Y81630D01*
X158326Y81662D01*
X158391Y81691D01*
X158458Y81717D01*
X158525Y81738D01*
X158594Y81756D01*
X158664Y81770D01*
X158735Y81780D01*
X158806Y81786D01*
X158877Y81788D01*
X158948Y81786D01*
X159019Y81780D01*
X159090Y81770D01*
X159160Y81756D01*
X159229Y81738D01*
X159296Y81717D01*
X159363Y81691D01*
X159428Y81662D01*
X159491Y81630D01*
X159553Y81593D01*
X159612Y81554D01*
X159669Y81511D01*
X159723Y81465D01*
X159775Y81416D01*
X159824Y81364D01*
X159870Y81310D01*
X159913Y81253D01*
X159952Y81194D01*
X159989Y81132D01*
X160021Y81069D01*
X160050Y81004D01*
X160076Y80937D01*
X160097Y80870D01*
X160115Y80801D01*
X160129Y80731D01*
X160139Y80660D01*
X160145Y80589D01*
X160147Y80518D01*
X160145Y80447D01*
X160139Y80376D01*
X160129Y80305D01*
X160115Y80235D01*
X160097Y80166D01*
X160076Y80099D01*
X160050Y80032D01*
X160021Y79967D01*
X159989Y79904D01*
X159952Y79842D01*
X159913Y79783D01*
X159870Y79726D01*
X159824Y79672D01*
X159775Y79620D01*
X159723Y79571D01*
X159669Y79525D01*
X159612Y79482D01*
X159553Y79443D01*
X159491Y79406D01*
X159428Y79374D01*
X159363Y79345D01*
X159296Y79319D01*
X159229Y79298D01*
X159160Y79280D01*
X159090Y79266D01*
X159019Y79256D01*
X158948Y79250D01*
X158877Y79248D01*
X158806Y79250D01*
X158735Y79256D01*
X158664Y79266D01*
X158594Y79280D01*
X158525Y79298D01*
X158458Y79319D01*
X158391Y79345D01*
X158326Y79374D01*
X158263Y79406D01*
X158201Y79443D01*
X158142Y79482D01*
X158085Y79525D01*
X158031Y79571D01*
X157979Y79620D01*
X157930Y79672D01*
X157884Y79726D01*
X157841Y79783D01*
X157802Y79842D01*
X157765Y79904D01*
X157733Y79967D01*
X157704Y80032D01*
X157678Y80099D01*
X157657Y80166D01*
X157639Y80235D01*
X157625Y80305D01*
X157615Y80376D01*
X157609Y80447D01*
X157607Y80518D01*
X196205Y39690D02*
X199705Y39690D01*
X199705Y43190D01*
X163205Y39690D02*
X159705Y39690D01*
X159705Y43190D01*
X199705Y76190D02*
X199705Y79690D01*
X196205Y79690D01*
X163205Y79690D02*
X159705Y76190D01*
D14*
X182383Y87775D02*
X182383Y92012D01*
X182383Y87775D02*
X183230Y86928D01*
X184925Y86928D01*
X185773Y87775D01*
X185773Y92012D01*
X187996Y91165D02*
X188843Y92012D01*
X190538Y92012D01*
X191386Y91165D01*
X191386Y90318D01*
X190538Y89470D01*
X189691Y89470D01*
X190538Y89470D02*
X191386Y88623D01*
X191386Y87775D01*
X190538Y86928D01*
X188843Y86928D01*
X187996Y87775D01*
D10*
X50370Y131300D02*
X50370Y139300D01*
X50370Y97300D02*
X50370Y89300D01*
X5370Y152300D02*
X-3630Y152300D01*
X-3630Y76300D01*
X5370Y76300D01*
D13*
X217805Y189865D02*
X217805Y194945D01*
D14*
X195236Y191054D02*
X194389Y191901D01*
X192694Y191901D01*
X191847Y191054D01*
X191847Y187664D01*
X192694Y186817D01*
X194389Y186817D01*
X195236Y187664D01*
X197460Y187664D02*
X198307Y186817D01*
X200002Y186817D01*
X200849Y187664D01*
X200849Y191054D01*
X200002Y191901D01*
X198307Y191901D01*
X197460Y191054D01*
X197460Y190207D01*
X198307Y189359D01*
X200849Y189359D01*
D13*
X67310Y77343D02*
X62230Y77343D01*
D14*
X57908Y94363D02*
X58755Y95211D01*
X57908Y94363D02*
X57908Y92668D01*
X58755Y91821D01*
X62145Y91821D01*
X62992Y92668D01*
X62992Y94363D01*
X62145Y95211D01*
X58755Y97434D02*
X57908Y98281D01*
X57908Y99976D01*
X58755Y100824D01*
X59602Y100824D01*
X60450Y99976D01*
X61297Y100824D01*
X62145Y100824D01*
X62992Y99976D01*
X62992Y98281D01*
X62145Y97434D01*
X61297Y97434D01*
X60450Y98281D01*
X59602Y97434D01*
X58755Y97434D01*
X60450Y98281D02*
X60450Y99976D01*
D13*
X118261Y117936D02*
X118261Y131064D01*
X128349Y131064D01*
X149709Y131064D02*
X149709Y117936D01*
X149709Y131064D02*
X139621Y131064D01*
X137709Y117856D02*
X130121Y117856D01*
D14*
X128143Y124545D02*
X128143Y127935D01*
X128990Y128782D01*
X130685Y128782D01*
X131533Y127935D01*
X131533Y124545D01*
X130685Y123698D01*
X128990Y123698D01*
X128143Y124545D01*
X129838Y125393D02*
X131533Y123698D01*
X133756Y127088D02*
X135451Y128782D01*
X135451Y123698D01*
X133756Y123698D02*
X137146Y123698D01*
D13*
X208915Y152400D02*
X213995Y152400D01*
D14*
X197358Y152277D02*
X197358Y147193D01*
X197358Y152277D02*
X199900Y152277D01*
X200748Y151430D01*
X200748Y149735D01*
X199900Y148888D01*
X197358Y148888D01*
X199053Y148888D02*
X200748Y147193D01*
X205513Y147193D02*
X205513Y152277D01*
X202971Y149735D01*
X206361Y149735D01*
D16*
X276098Y43815D03*
D14*
X271222Y49657D02*
X271222Y54741D01*
X271222Y49657D02*
X273764Y49657D01*
X274611Y50504D01*
X274611Y53894D01*
X273764Y54741D01*
X271222Y54741D01*
X276835Y54741D02*
X280224Y54741D01*
X276835Y54741D02*
X276835Y52199D01*
X278530Y53047D01*
X279377Y53047D01*
X280224Y52199D01*
X280224Y50504D01*
X279377Y49657D01*
X277682Y49657D01*
X276835Y50504D01*
D16*
X276098Y60325D03*
D14*
X269952Y67437D02*
X269952Y72521D01*
X269952Y67437D02*
X272494Y67437D01*
X273341Y68284D01*
X273341Y71674D01*
X272494Y72521D01*
X269952Y72521D01*
X278107Y72521D02*
X278107Y67437D01*
X275565Y69979D02*
X278107Y72521D01*
X278954Y69979D02*
X275565Y69979D01*
D13*
X116840Y51435D02*
X111760Y51435D01*
D14*
X112483Y69515D02*
X111635Y70362D01*
X109940Y70362D01*
X109093Y69515D01*
X109093Y66125D01*
X109940Y65278D01*
X111635Y65278D01*
X112483Y66125D01*
X114706Y69515D02*
X115553Y70362D01*
X117248Y70362D01*
X118096Y69515D01*
X118096Y68668D01*
X117248Y67820D01*
X116401Y67820D01*
X117248Y67820D02*
X118096Y66973D01*
X118096Y66125D01*
X117248Y65278D01*
X115553Y65278D01*
X114706Y66125D01*
D13*
X201930Y116840D02*
X207010Y116840D01*
D14*
X201374Y106176D02*
X202221Y105329D01*
X201374Y106176D02*
X199679Y106176D01*
X198832Y105329D01*
X198832Y101939D01*
X199679Y101092D01*
X201374Y101092D01*
X202221Y101939D01*
X204445Y104482D02*
X206140Y106176D01*
X206140Y101092D01*
X207834Y101092D02*
X204445Y101092D01*
D13*
X337185Y120650D02*
X342265Y120650D01*
D14*
X350811Y131364D02*
X349964Y132211D01*
X348269Y132211D01*
X347422Y131364D01*
X347422Y127974D01*
X348269Y127127D01*
X349964Y127127D01*
X350811Y127974D01*
X353035Y132211D02*
X356424Y132211D01*
X353035Y132211D02*
X353035Y129669D01*
X354730Y130517D01*
X355577Y130517D01*
X356424Y129669D01*
X356424Y127974D01*
X355577Y127127D01*
X353882Y127127D01*
X353035Y127974D01*
D17*
X333755Y143766D02*
X317755Y143766D01*
X317755Y175766D02*
X333755Y175766D01*
D18*
X309374Y145393D02*
X308823Y145393D01*
X309374Y145393D02*
X310476Y146495D01*
X309374Y147596D01*
X308823Y147596D01*
X310476Y146495D02*
X312128Y146495D01*
X309925Y148667D02*
X308823Y149769D01*
X312128Y149769D01*
X312128Y148667D02*
X312128Y150871D01*
D13*
X233680Y151765D02*
X233680Y156845D01*
D14*
X251970Y152277D02*
X252818Y151430D01*
X251970Y152277D02*
X250275Y152277D01*
X249428Y151430D01*
X249428Y148040D01*
X250275Y147193D01*
X251970Y147193D01*
X252818Y148040D01*
X255041Y147193D02*
X258431Y147193D01*
X255041Y147193D02*
X258431Y150583D01*
X258431Y151430D01*
X257583Y152277D01*
X255888Y152277D01*
X255041Y151430D01*
D13*
X244475Y175895D02*
X239395Y175895D01*
D14*
X238633Y189103D02*
X238633Y194187D01*
X241175Y194187D01*
X242023Y193340D01*
X242023Y191645D01*
X241175Y190798D01*
X238633Y190798D01*
X240328Y190798D02*
X242023Y189103D01*
X244246Y193340D02*
X245093Y194187D01*
X246788Y194187D01*
X247636Y193340D01*
X247636Y192493D01*
X246788Y191645D01*
X245941Y191645D01*
X246788Y191645D02*
X247636Y190798D01*
X247636Y189950D01*
X246788Y189103D01*
X245093Y189103D01*
X244246Y189950D01*
D12*
X299750Y116580D02*
X299752Y116657D01*
X299758Y116734D01*
X299768Y116811D01*
X299782Y116887D01*
X299799Y116962D01*
X299821Y117036D01*
X299846Y117109D01*
X299876Y117181D01*
X299908Y117251D01*
X299945Y117319D01*
X299984Y117385D01*
X300027Y117449D01*
X300074Y117511D01*
X300123Y117570D01*
X300176Y117627D01*
X300231Y117681D01*
X300289Y117732D01*
X300350Y117780D01*
X300413Y117825D01*
X300478Y117866D01*
X300545Y117904D01*
X300614Y117939D01*
X300685Y117969D01*
X300757Y117997D01*
X300831Y118020D01*
X300905Y118040D01*
X300981Y118056D01*
X301057Y118068D01*
X301134Y118076D01*
X301211Y118080D01*
X301289Y118080D01*
X301366Y118076D01*
X301443Y118068D01*
X301519Y118056D01*
X301595Y118040D01*
X301669Y118020D01*
X301743Y117997D01*
X301815Y117969D01*
X301886Y117939D01*
X301955Y117904D01*
X302022Y117866D01*
X302087Y117825D01*
X302150Y117780D01*
X302211Y117732D01*
X302269Y117681D01*
X302324Y117627D01*
X302377Y117570D01*
X302426Y117511D01*
X302473Y117449D01*
X302516Y117385D01*
X302555Y117319D01*
X302592Y117251D01*
X302624Y117181D01*
X302654Y117109D01*
X302679Y117036D01*
X302701Y116962D01*
X302718Y116887D01*
X302732Y116811D01*
X302742Y116734D01*
X302748Y116657D01*
X302750Y116580D01*
X302748Y116503D01*
X302742Y116426D01*
X302732Y116349D01*
X302718Y116273D01*
X302701Y116198D01*
X302679Y116124D01*
X302654Y116051D01*
X302624Y115979D01*
X302592Y115909D01*
X302555Y115841D01*
X302516Y115775D01*
X302473Y115711D01*
X302426Y115649D01*
X302377Y115590D01*
X302324Y115533D01*
X302269Y115479D01*
X302211Y115428D01*
X302150Y115380D01*
X302087Y115335D01*
X302022Y115294D01*
X301955Y115256D01*
X301886Y115221D01*
X301815Y115191D01*
X301743Y115163D01*
X301669Y115140D01*
X301595Y115120D01*
X301519Y115104D01*
X301443Y115092D01*
X301366Y115084D01*
X301289Y115080D01*
X301211Y115080D01*
X301134Y115084D01*
X301057Y115092D01*
X300981Y115104D01*
X300905Y115120D01*
X300831Y115140D01*
X300757Y115163D01*
X300685Y115191D01*
X300614Y115221D01*
X300545Y115256D01*
X300478Y115294D01*
X300413Y115335D01*
X300350Y115380D01*
X300289Y115428D01*
X300231Y115479D01*
X300176Y115533D01*
X300123Y115590D01*
X300074Y115649D01*
X300027Y115711D01*
X299984Y115775D01*
X299945Y115841D01*
X299908Y115909D01*
X299876Y115979D01*
X299846Y116051D01*
X299821Y116124D01*
X299799Y116198D01*
X299782Y116273D01*
X299768Y116349D01*
X299758Y116426D01*
X299752Y116503D01*
X299750Y116580D01*
X306250Y108580D02*
X309250Y111580D01*
X265250Y108580D02*
X262250Y111580D01*
X262250Y152580D02*
X265250Y155580D01*
X306250Y155580D02*
X309250Y152580D01*
D19*
X276710Y95758D02*
X274846Y95758D01*
X275778Y95758D02*
X275778Y101351D01*
X274846Y101351D02*
X276710Y101351D01*
X281384Y101351D02*
X282316Y100419D01*
X281384Y101351D02*
X279520Y101351D01*
X278588Y100419D01*
X278588Y96690D01*
X279520Y95758D01*
X281384Y95758D01*
X282316Y96690D01*
X284201Y99487D02*
X286065Y101351D01*
X286065Y95758D01*
X284201Y95758D02*
X287929Y95758D01*
D13*
X217805Y76200D02*
X212725Y76200D01*
D14*
X211848Y94534D02*
X211001Y95381D01*
X209306Y95381D01*
X208459Y94534D01*
X208459Y91144D01*
X209306Y90297D01*
X211001Y90297D01*
X211848Y91144D01*
X214072Y93687D02*
X215767Y95381D01*
X215767Y90297D01*
X217461Y90297D02*
X214072Y90297D01*
X219685Y93687D02*
X221380Y95381D01*
X221380Y90297D01*
X223074Y90297D02*
X219685Y90297D01*
D13*
X70485Y135890D02*
X70485Y140970D01*
D14*
X66763Y150795D02*
X65915Y151642D01*
X64220Y151642D01*
X63373Y150795D01*
X63373Y147405D01*
X64220Y146558D01*
X65915Y146558D01*
X66763Y147405D01*
X70681Y150795D02*
X72376Y151642D01*
X70681Y150795D02*
X68986Y149100D01*
X68986Y147405D01*
X69833Y146558D01*
X71528Y146558D01*
X72376Y147405D01*
X72376Y148253D01*
X71528Y149100D01*
X68986Y149100D01*
D13*
X220777Y123301D02*
X225857Y123301D01*
D14*
X229632Y115880D02*
X229632Y110795D01*
X229632Y115880D02*
X232174Y115880D01*
X233022Y115032D01*
X233022Y113337D01*
X232174Y112490D01*
X229632Y112490D01*
X231327Y112490D02*
X233022Y110795D01*
X235245Y115880D02*
X238635Y115880D01*
X238635Y115032D01*
X235245Y111643D01*
X235245Y110795D01*
D13*
X311785Y61595D02*
X311785Y56515D01*
D14*
X308483Y68453D02*
X308483Y73537D01*
X311025Y73537D01*
X311873Y72690D01*
X311873Y70995D01*
X311025Y70148D01*
X308483Y70148D01*
X310178Y70148D02*
X311873Y68453D01*
X314096Y69300D02*
X314943Y68453D01*
X316638Y68453D01*
X317486Y69300D01*
X317486Y72690D01*
X316638Y73537D01*
X314943Y73537D01*
X314096Y72690D01*
X314096Y71843D01*
X314943Y70995D01*
X317486Y70995D01*
D13*
X311785Y48260D02*
X311785Y43180D01*
D14*
X326263Y50038D02*
X326263Y55122D01*
X328805Y55122D01*
X329653Y54275D01*
X329653Y52580D01*
X328805Y51733D01*
X326263Y51733D01*
X327958Y51733D02*
X329653Y50038D01*
X331876Y53428D02*
X333571Y55122D01*
X333571Y50038D01*
X331876Y50038D02*
X335266Y50038D01*
X337489Y50885D02*
X337489Y54275D01*
X338337Y55122D01*
X340031Y55122D01*
X340879Y54275D01*
X340879Y50885D01*
X340031Y50038D01*
X338337Y50038D01*
X337489Y50885D01*
X340879Y54275D01*
D13*
X137795Y49530D02*
X137795Y44450D01*
D14*
X129933Y58339D02*
X129086Y59186D01*
X127391Y59186D01*
X126544Y58339D01*
X126544Y54949D01*
X127391Y54102D01*
X129086Y54102D01*
X129933Y54949D01*
X132157Y57492D02*
X133852Y59186D01*
X133852Y54102D01*
X135546Y54102D02*
X132157Y54102D01*
X137770Y54949D02*
X137770Y58339D01*
X138617Y59186D01*
X140312Y59186D01*
X141159Y58339D01*
X141159Y54949D01*
X140312Y54102D01*
X138617Y54102D01*
X137770Y54949D01*
X141159Y58339D01*
D13*
X124460Y93980D02*
X119380Y93980D01*
D14*
X106122Y88713D02*
X106122Y83629D01*
X106122Y88713D02*
X108664Y88713D01*
X109511Y87866D01*
X109511Y86171D01*
X108664Y85324D01*
X106122Y85324D01*
X107817Y85324D02*
X109511Y83629D01*
X111735Y87019D02*
X113430Y88713D01*
X113430Y83629D01*
X115124Y83629D02*
X111735Y83629D01*
D13*
X130810Y93980D02*
X135890Y93980D01*
D14*
X120092Y79823D02*
X120092Y74739D01*
X120092Y79823D02*
X122634Y79823D01*
X123481Y78976D01*
X123481Y77281D01*
X122634Y76434D01*
X120092Y76434D01*
X121787Y76434D02*
X123481Y74739D01*
X125705Y79823D02*
X129094Y79823D01*
X125705Y79823D02*
X125705Y77281D01*
X127400Y78129D01*
X128247Y78129D01*
X129094Y77281D01*
X129094Y75586D01*
X128247Y74739D01*
X126552Y74739D01*
X125705Y75586D01*
D13*
X144780Y90170D02*
X149860Y90170D01*
D14*
X154178Y89091D02*
X154178Y94175D01*
X156720Y94175D01*
X157568Y93328D01*
X157568Y91633D01*
X156720Y90786D01*
X154178Y90786D01*
X155873Y90786D02*
X157568Y89091D01*
X161486Y93328D02*
X163181Y94175D01*
X161486Y93328D02*
X159791Y91633D01*
X159791Y89938D01*
X160638Y89091D01*
X162333Y89091D01*
X163181Y89938D01*
X163181Y90786D01*
X162333Y91633D01*
X159791Y91633D01*
D13*
X426340Y146060D02*
X442340Y146060D01*
X442340Y179060D02*
X426340Y179060D01*
X423840Y166560D02*
X423840Y158560D01*
D14*
X427972Y162899D02*
X427972Y167136D01*
X427972Y162899D02*
X428819Y162052D01*
X430514Y162052D01*
X431361Y162899D01*
X431361Y167136D01*
X433585Y167136D02*
X436974Y167136D01*
X433585Y167136D02*
X433585Y164594D01*
X435280Y165442D01*
X436127Y165442D01*
X436974Y164594D01*
X436974Y162899D01*
X436127Y162052D01*
X434432Y162052D01*
X433585Y162899D01*
D12*
X367350Y152400D02*
X367350Y137400D01*
X376350Y137400D01*
X367350Y175400D02*
X367350Y186400D01*
X407350Y186400D01*
X407350Y175400D01*
X407350Y137400D02*
X398350Y137400D01*
X407350Y137400D02*
X407350Y152400D01*
D19*
X390624Y163566D02*
X390624Y168227D01*
X390624Y163566D02*
X391556Y162634D01*
X393420Y162634D01*
X394353Y163566D01*
X394353Y168227D01*
X399033Y168227D02*
X399033Y162634D01*
X396237Y165430D02*
X399033Y168227D01*
X399966Y165430D02*
X396237Y165430D01*
D13*
X382270Y191770D02*
X382270Y196850D01*
D14*
X375373Y206675D02*
X374525Y207522D01*
X372830Y207522D01*
X371983Y206675D01*
X371983Y203285D01*
X372830Y202438D01*
X374525Y202438D01*
X375373Y203285D01*
X377596Y205828D02*
X379291Y207522D01*
X379291Y202438D01*
X377596Y202438D02*
X380986Y202438D01*
X383209Y202438D02*
X386599Y202438D01*
X383209Y202438D02*
X386599Y205828D01*
X386599Y206675D01*
X385751Y207522D01*
X384057Y207522D01*
X383209Y206675D01*
D13*
X407670Y196850D02*
X407670Y191770D01*
D14*
X398653Y201168D02*
X398653Y206252D01*
X401195Y206252D01*
X402043Y205405D01*
X402043Y203710D01*
X401195Y202863D01*
X398653Y202863D01*
X400348Y202863D02*
X402043Y201168D01*
X404266Y204558D02*
X405961Y206252D01*
X405961Y201168D01*
X404266Y201168D02*
X407656Y201168D01*
X409879Y201168D02*
X413269Y201168D01*
X409879Y201168D02*
X413269Y204558D01*
X413269Y205405D01*
X412421Y206252D01*
X410727Y206252D01*
X409879Y205405D01*
D13*
X421640Y142240D02*
X421640Y137160D01*
D14*
X416739Y120463D02*
X416739Y115379D01*
X416739Y120463D02*
X419281Y120463D01*
X420128Y119616D01*
X420128Y117921D01*
X419281Y117074D01*
X416739Y117074D01*
X418433Y117074D02*
X420128Y115379D01*
X422352Y118769D02*
X424047Y120463D01*
X424047Y115379D01*
X425741Y115379D02*
X422352Y115379D01*
X427965Y119616D02*
X428812Y120463D01*
X430507Y120463D01*
X431354Y119616D01*
X431354Y118769D01*
X430507Y117921D01*
X429660Y117921D01*
X430507Y117921D02*
X431354Y117074D01*
X431354Y116226D01*
X430507Y115379D01*
X428812Y115379D01*
X427965Y116226D01*
D13*
X448310Y137160D02*
X448310Y142240D01*
D14*
X438329Y134433D02*
X438329Y129349D01*
X438329Y134433D02*
X440871Y134433D01*
X441718Y133586D01*
X441718Y131891D01*
X440871Y131044D01*
X438329Y131044D01*
X440023Y131044D02*
X441718Y129349D01*
X443942Y132739D02*
X445637Y134433D01*
X445637Y129349D01*
X447331Y129349D02*
X443942Y129349D01*
X452097Y129349D02*
X452097Y134433D01*
X449555Y131891D01*
X452944Y131891D01*
D13*
X438150Y181610D02*
X438150Y186690D01*
X459740Y167640D02*
X464820Y167640D01*
D14*
X468394Y161048D02*
X467547Y160201D01*
X467547Y158506D01*
X468394Y157659D01*
X471784Y157659D01*
X472631Y158506D01*
X472631Y160201D01*
X471784Y161048D01*
X469241Y163272D02*
X467547Y164967D01*
X472631Y164967D01*
X472631Y166661D02*
X472631Y163272D01*
X468394Y168885D02*
X467547Y169732D01*
X467547Y171427D01*
X468394Y172274D01*
X469241Y172274D01*
X470089Y171427D01*
X470089Y170580D01*
X470089Y171427D02*
X470936Y172274D01*
X471784Y172274D01*
X472631Y171427D01*
X472631Y169732D01*
X471784Y168885D01*
D13*
X438150Y193040D02*
X438150Y198120D01*
D14*
X431253Y206675D02*
X430405Y207522D01*
X428710Y207522D01*
X427863Y206675D01*
X427863Y203285D01*
X428710Y202438D01*
X430405Y202438D01*
X431253Y203285D01*
X433476Y205828D02*
X435171Y207522D01*
X435171Y202438D01*
X433476Y202438D02*
X436866Y202438D01*
X441631Y202438D02*
X441631Y207522D01*
X439089Y204980D01*
X442479Y204980D01*
D13*
X421640Y130810D02*
X421640Y125730D01*
D14*
X420458Y149208D02*
X419610Y150055D01*
X417915Y150055D01*
X417068Y149208D01*
X417068Y145818D01*
X417915Y144971D01*
X419610Y144971D01*
X420458Y145818D01*
X422681Y148361D02*
X424376Y150055D01*
X424376Y144971D01*
X422681Y144971D02*
X426071Y144971D01*
X428294Y150055D02*
X431684Y150055D01*
X428294Y150055D02*
X428294Y147513D01*
X429989Y148361D01*
X430836Y148361D01*
X431684Y147513D01*
X431684Y145818D01*
X430836Y144971D01*
X429142Y144971D01*
X428294Y145818D01*
D13*
X459280Y110970D02*
X467820Y110970D01*
X467820Y41430D02*
X459280Y41430D01*
X477820Y49200D02*
X477820Y103200D01*
X449280Y77470D02*
X449280Y59930D01*
X67310Y213360D02*
X67310Y218440D01*
D14*
X33834Y216666D02*
X33834Y211582D01*
X33834Y216666D02*
X36376Y216666D01*
X37223Y215819D01*
X37223Y214124D01*
X36376Y213277D01*
X33834Y213277D01*
X35528Y213277D02*
X37223Y211582D01*
X39447Y214972D02*
X41142Y216666D01*
X41142Y211582D01*
X42836Y211582D02*
X39447Y211582D01*
X45060Y214972D02*
X46755Y216666D01*
X46755Y211582D01*
X48449Y211582D02*
X45060Y211582D01*
M02*
