G04 EAGLE Gerber RS-274X export*
G75*
%MOMM*%
%FSLAX34Y34*%
%LPD*%
%INSilkscreen Bottom*%
%IPPOS*%
%AMOC8*
5,1,8,0,0,1.08239X$1,22.5*%
G01*
%ADD10C,0.127000*%
%ADD11C,0.177800*%
%ADD12C,0.152400*%


D10*
X149244Y200242D02*
X146278Y203208D01*
X146278Y194310D01*
X149244Y194310D02*
X143312Y194310D01*
X135440Y203208D02*
X133957Y201725D01*
X135440Y203208D02*
X138405Y203208D01*
X139888Y201725D01*
X139888Y200242D01*
X138405Y198759D01*
X135440Y198759D01*
X133957Y197276D01*
X133957Y195793D01*
X135440Y194310D01*
X138405Y194310D01*
X139888Y195793D01*
X121178Y194310D02*
X121178Y203208D01*
X121178Y194310D02*
X115246Y194310D01*
X111823Y200242D02*
X110340Y200242D01*
X110340Y194310D01*
X111823Y194310D02*
X108857Y194310D01*
X110340Y203208D02*
X110340Y204691D01*
X105586Y203208D02*
X105586Y194310D01*
X105586Y203208D02*
X101137Y203208D01*
X99654Y201725D01*
X99654Y198759D01*
X101137Y197276D01*
X105586Y197276D01*
X94748Y194310D02*
X91782Y194310D01*
X90299Y195793D01*
X90299Y198759D01*
X91782Y200242D01*
X94748Y200242D01*
X96231Y198759D01*
X96231Y195793D01*
X94748Y194310D01*
X77520Y194310D02*
X77520Y203208D01*
X73072Y203208D01*
X71589Y201725D01*
X71589Y200242D01*
X73072Y198759D01*
X71589Y197276D01*
X71589Y195793D01*
X73072Y194310D01*
X77520Y194310D01*
X77520Y198759D02*
X73072Y198759D01*
X66682Y200242D02*
X63717Y200242D01*
X62234Y198759D01*
X62234Y194310D01*
X66682Y194310D01*
X68165Y195793D01*
X66682Y197276D01*
X62234Y197276D01*
X57327Y195793D02*
X57327Y201725D01*
X57327Y195793D02*
X55844Y194310D01*
X55844Y200242D02*
X58810Y200242D01*
X51090Y201725D02*
X51090Y195793D01*
X49607Y194310D01*
X49607Y200242D02*
X52573Y200242D01*
X146981Y183519D02*
X146981Y180553D01*
X145498Y179070D01*
X144015Y179070D01*
X142532Y180553D01*
X142532Y183519D01*
X146981Y180553D02*
X146981Y177587D01*
X148464Y176104D01*
X139109Y180553D02*
X139109Y187968D01*
X139109Y180553D02*
X137626Y179070D01*
X134660Y179070D01*
X133177Y180553D01*
X133177Y187968D01*
X125305Y187968D02*
X123822Y186485D01*
X125305Y187968D02*
X128271Y187968D01*
X129754Y186485D01*
X129754Y185002D01*
X128271Y183519D01*
X125305Y183519D01*
X123822Y182036D01*
X123822Y180553D01*
X125305Y179070D01*
X128271Y179070D01*
X129754Y180553D01*
X120398Y179070D02*
X120398Y187968D01*
X115950Y187968D01*
X114467Y186485D01*
X114467Y185002D01*
X115950Y183519D01*
X114467Y182036D01*
X114467Y180553D01*
X115950Y179070D01*
X120398Y179070D01*
X120398Y183519D02*
X115950Y183519D01*
X100205Y185002D02*
X95756Y185002D01*
X100205Y185002D02*
X101688Y183519D01*
X101688Y180553D01*
X100205Y179070D01*
X95756Y179070D01*
X92333Y179070D02*
X92333Y187968D01*
X90850Y185002D02*
X92333Y183519D01*
X90850Y185002D02*
X87884Y185002D01*
X86401Y183519D01*
X86401Y179070D01*
X81495Y185002D02*
X78529Y185002D01*
X77046Y183519D01*
X77046Y179070D01*
X81495Y179070D01*
X82978Y180553D01*
X81495Y182036D01*
X77046Y182036D01*
X73622Y179070D02*
X73622Y185002D01*
X70657Y185002D02*
X73622Y182036D01*
X70657Y185002D02*
X69174Y185002D01*
X62861Y176104D02*
X61378Y176104D01*
X59895Y177587D01*
X59895Y185002D01*
X64344Y185002D01*
X65827Y183519D01*
X65827Y180553D01*
X64344Y179070D01*
X59895Y179070D01*
X54988Y179070D02*
X52023Y179070D01*
X54988Y179070D02*
X56471Y180553D01*
X56471Y183519D01*
X54988Y185002D01*
X52023Y185002D01*
X50540Y183519D01*
X50540Y182036D01*
X56471Y182036D01*
D11*
X331040Y167905D02*
X331040Y155448D01*
X322735Y155448D02*
X331040Y167905D01*
X322735Y167905D02*
X322735Y155448D01*
X317942Y157524D02*
X317942Y167905D01*
X317942Y157524D02*
X315866Y155448D01*
X311714Y155448D01*
X309638Y157524D01*
X309638Y167905D01*
X285520Y167905D02*
X283443Y165829D01*
X285520Y167905D02*
X289672Y167905D01*
X291748Y165829D01*
X291748Y163752D01*
X289672Y161676D01*
X285520Y161676D01*
X283443Y159600D01*
X283443Y157524D01*
X285520Y155448D01*
X289672Y155448D01*
X291748Y157524D01*
X278651Y155448D02*
X278651Y163752D01*
X276574Y163752D01*
X274498Y161676D01*
X274498Y155448D01*
X274498Y161676D02*
X272422Y163752D01*
X270346Y161676D01*
X270346Y155448D01*
X263477Y163752D02*
X259325Y163752D01*
X257249Y161676D01*
X257249Y155448D01*
X263477Y155448D01*
X265553Y157524D01*
X263477Y159600D01*
X257249Y159600D01*
X252456Y155448D02*
X252456Y163752D01*
X252456Y159600D02*
X248304Y163752D01*
X246228Y163752D01*
X239466Y165829D02*
X239466Y157524D01*
X237390Y155448D01*
X237390Y163752D02*
X241542Y163752D01*
X232810Y163752D02*
X230734Y163752D01*
X230734Y155448D01*
X232810Y155448D02*
X228658Y155448D01*
X230734Y167905D02*
X230734Y169981D01*
X222003Y163752D02*
X215774Y163752D01*
X222003Y163752D02*
X224079Y161676D01*
X224079Y157524D01*
X222003Y155448D01*
X215774Y155448D01*
X210981Y167905D02*
X208905Y167905D01*
X208905Y155448D01*
X210981Y155448D02*
X206829Y155448D01*
X200174Y155448D02*
X196022Y155448D01*
X200174Y155448D02*
X202250Y157524D01*
X202250Y161676D01*
X200174Y163752D01*
X196022Y163752D01*
X193946Y161676D01*
X193946Y159600D01*
X202250Y159600D01*
X335405Y146569D02*
X335405Y134112D01*
X335405Y146569D02*
X327101Y146569D01*
X331253Y140340D02*
X335405Y140340D01*
X320232Y134112D02*
X316080Y134112D01*
X320232Y134112D02*
X322308Y136188D01*
X322308Y140340D01*
X320232Y142416D01*
X316080Y142416D01*
X314004Y140340D01*
X314004Y138264D01*
X322308Y138264D01*
X307135Y142416D02*
X302983Y142416D01*
X300906Y140340D01*
X300906Y134112D01*
X307135Y134112D01*
X309211Y136188D01*
X307135Y138264D01*
X300906Y138264D01*
X294037Y136188D02*
X294037Y144493D01*
X294037Y136188D02*
X291961Y134112D01*
X291961Y142416D02*
X296114Y142416D01*
X287382Y146569D02*
X287382Y134112D01*
X287382Y140340D02*
X285306Y142416D01*
X281154Y142416D01*
X279078Y140340D01*
X279078Y134112D01*
X272209Y134112D02*
X268057Y134112D01*
X272209Y134112D02*
X274285Y136188D01*
X274285Y140340D01*
X272209Y142416D01*
X268057Y142416D01*
X265980Y140340D01*
X265980Y138264D01*
X274285Y138264D01*
X261188Y134112D02*
X261188Y142416D01*
X261188Y138264D02*
X257035Y142416D01*
X254959Y142416D01*
X237176Y144493D02*
X235100Y146569D01*
X230948Y146569D01*
X228872Y144493D01*
X228872Y142416D01*
X230948Y140340D01*
X233024Y140340D01*
X230948Y140340D02*
X228872Y138264D01*
X228872Y136188D01*
X230948Y134112D01*
X235100Y134112D01*
X237176Y136188D01*
X224079Y134112D02*
X215774Y134112D01*
X215774Y142416D02*
X224079Y134112D01*
X215774Y142416D02*
X215774Y144493D01*
X217850Y146569D01*
X222003Y146569D01*
X224079Y144493D01*
X210981Y144493D02*
X208905Y146569D01*
X204753Y146569D01*
X202677Y144493D01*
X202677Y142416D01*
X204753Y140340D01*
X202677Y138264D01*
X202677Y136188D01*
X204753Y134112D01*
X208905Y134112D01*
X210981Y136188D01*
X210981Y138264D01*
X208905Y140340D01*
X210981Y142416D01*
X210981Y144493D01*
X208905Y140340D02*
X204753Y140340D01*
X197884Y142416D02*
X197884Y129960D01*
X197884Y142416D02*
X191656Y142416D01*
X189580Y140340D01*
X189580Y136188D01*
X191656Y134112D01*
X197884Y134112D01*
X325582Y121080D02*
X325582Y112776D01*
X325582Y121080D02*
X321430Y125233D01*
X317278Y121080D01*
X317278Y112776D01*
X317278Y119004D02*
X325582Y119004D01*
X308333Y112776D02*
X308333Y125233D01*
X312485Y125233D02*
X304181Y125233D01*
X299388Y121080D02*
X299388Y112776D01*
X299388Y121080D02*
X297312Y121080D01*
X295236Y119004D01*
X295236Y112776D01*
X295236Y119004D02*
X293160Y121080D01*
X291083Y119004D01*
X291083Y112776D01*
X284215Y112776D02*
X280062Y112776D01*
X284215Y112776D02*
X286291Y114852D01*
X286291Y119004D01*
X284215Y121080D01*
X280062Y121080D01*
X277986Y119004D01*
X277986Y116928D01*
X286291Y116928D01*
X269041Y108624D02*
X266965Y108624D01*
X264889Y110700D01*
X264889Y121080D01*
X271117Y121080D01*
X273193Y119004D01*
X273193Y114852D01*
X271117Y112776D01*
X264889Y112776D01*
X258020Y121080D02*
X253868Y121080D01*
X251792Y119004D01*
X251792Y112776D01*
X258020Y112776D01*
X260096Y114852D01*
X258020Y116928D01*
X251792Y116928D01*
X246999Y123157D02*
X244923Y125233D01*
X240771Y125233D01*
X238694Y123157D01*
X238694Y121080D01*
X240771Y119004D01*
X242847Y119004D01*
X240771Y119004D02*
X238694Y116928D01*
X238694Y114852D01*
X240771Y112776D01*
X244923Y112776D01*
X246999Y114852D01*
X233902Y112776D02*
X225597Y112776D01*
X225597Y121080D02*
X233902Y112776D01*
X225597Y121080D02*
X225597Y123157D01*
X227673Y125233D01*
X231826Y125233D01*
X233902Y123157D01*
X220804Y123157D02*
X218728Y125233D01*
X214576Y125233D01*
X212500Y123157D01*
X212500Y121080D01*
X214576Y119004D01*
X212500Y116928D01*
X212500Y114852D01*
X214576Y112776D01*
X218728Y112776D01*
X220804Y114852D01*
X220804Y116928D01*
X218728Y119004D01*
X220804Y121080D01*
X220804Y123157D01*
X218728Y119004D02*
X214576Y119004D01*
X207707Y121080D02*
X207707Y108624D01*
X207707Y121080D02*
X201479Y121080D01*
X199403Y119004D01*
X199403Y114852D01*
X201479Y112776D01*
X207707Y112776D01*
D12*
X83686Y161443D02*
X82034Y159790D01*
X82034Y156485D01*
X83686Y154833D01*
X85338Y154833D01*
X86991Y156485D01*
X88643Y154833D01*
X90296Y154833D01*
X91948Y156485D01*
X91948Y159790D01*
X90296Y161443D01*
X88643Y161443D01*
X86991Y159790D01*
X85338Y161443D01*
X83686Y161443D01*
X86991Y159790D02*
X86991Y156485D01*
X91948Y150918D02*
X82034Y150918D01*
X85338Y147613D01*
X82034Y144308D01*
X91948Y144308D01*
X91948Y140393D02*
X82034Y140393D01*
X86991Y140393D02*
X86991Y133784D01*
X82034Y133784D02*
X91948Y133784D01*
X85338Y129869D02*
X85338Y123259D01*
X91948Y129869D01*
X91948Y123259D01*
X91948Y119344D02*
X82034Y112735D01*
X83686Y108820D02*
X82034Y107167D01*
X82034Y103862D01*
X83686Y102210D01*
X85338Y102210D01*
X86991Y103862D01*
X86991Y105515D01*
X86991Y103862D02*
X88643Y102210D01*
X90296Y102210D01*
X91948Y103862D01*
X91948Y107167D01*
X90296Y108820D01*
X90296Y98295D02*
X91948Y98295D01*
X90296Y98295D02*
X90296Y96643D01*
X91948Y96643D01*
X91948Y98295D01*
X83686Y93033D02*
X82034Y91380D01*
X82034Y88075D01*
X83686Y86423D01*
X85338Y86423D01*
X86991Y88075D01*
X86991Y89728D01*
X86991Y88075D02*
X88643Y86423D01*
X90296Y86423D01*
X91948Y88075D01*
X91948Y91380D01*
X90296Y93033D01*
X88643Y82508D02*
X82034Y82508D01*
X88643Y82508D02*
X91948Y79203D01*
X88643Y75898D01*
X82034Y75898D01*
D10*
X211447Y202565D02*
X218862Y202565D01*
X220345Y201082D01*
X220345Y198116D01*
X218862Y196633D01*
X211447Y196633D01*
X211447Y188761D02*
X212930Y187278D01*
X211447Y188761D02*
X211447Y191727D01*
X212930Y193210D01*
X214413Y193210D01*
X215896Y191727D01*
X215896Y188761D01*
X217379Y187278D01*
X218862Y187278D01*
X220345Y188761D01*
X220345Y191727D01*
X218862Y193210D01*
X220345Y183855D02*
X211447Y183855D01*
X211447Y179406D01*
X212930Y177923D01*
X214413Y177923D01*
X215896Y179406D01*
X217379Y177923D01*
X218862Y177923D01*
X220345Y179406D01*
X220345Y183855D01*
X215896Y183855D02*
X215896Y179406D01*
X236847Y198116D02*
X245745Y198116D01*
X241296Y202565D02*
X236847Y198116D01*
X241296Y196633D02*
X241296Y202565D01*
X389247Y202565D02*
X389247Y196633D01*
X389247Y202565D02*
X393696Y202565D01*
X392213Y199599D01*
X392213Y198116D01*
X393696Y196633D01*
X396662Y196633D01*
X398145Y198116D01*
X398145Y201082D01*
X396662Y202565D01*
X296545Y202565D02*
X296545Y196633D01*
X296545Y202565D02*
X290613Y196633D01*
X289130Y196633D01*
X287647Y198116D01*
X287647Y201082D01*
X289130Y202565D01*
X313047Y199599D02*
X316013Y202565D01*
X313047Y199599D02*
X321945Y199599D01*
X321945Y202565D02*
X321945Y196633D01*
X320462Y193210D02*
X314530Y193210D01*
X313047Y191727D01*
X313047Y188761D01*
X314530Y187278D01*
X320462Y187278D01*
X321945Y188761D01*
X321945Y191727D01*
X320462Y193210D01*
X314530Y187278D01*
X313047Y183855D02*
X311564Y182372D01*
X314530Y179406D01*
X313047Y177923D01*
X345862Y202565D02*
X347345Y201082D01*
X347345Y198116D01*
X345862Y196633D01*
X339930Y196633D01*
X338447Y198116D01*
X338447Y201082D01*
X339930Y202565D01*
X341413Y202565D01*
X342896Y201082D01*
X342896Y196633D01*
X338447Y193210D02*
X336964Y191727D01*
X339930Y188761D01*
X338447Y187278D01*
X169545Y202565D02*
X160647Y202565D01*
X160647Y198116D01*
X162130Y196633D01*
X163613Y196633D01*
X165096Y198116D01*
X166579Y196633D01*
X168062Y196633D01*
X169545Y198116D01*
X169545Y202565D01*
X165096Y202565D02*
X165096Y198116D01*
X163613Y193210D02*
X169545Y193210D01*
X163613Y193210D02*
X160647Y190244D01*
X163613Y187278D01*
X169545Y187278D01*
X165096Y187278D02*
X165096Y193210D01*
X169545Y180889D02*
X160647Y180889D01*
X160647Y183855D02*
X160647Y177923D01*
X262247Y201082D02*
X263730Y202565D01*
X262247Y201082D02*
X262247Y198116D01*
X263730Y196633D01*
X265213Y196633D01*
X266696Y198116D01*
X266696Y199599D01*
X266696Y198116D02*
X268179Y196633D01*
X269662Y196633D01*
X271145Y198116D01*
X271145Y201082D01*
X269662Y202565D01*
X262247Y193210D02*
X260764Y191727D01*
X263730Y188761D01*
X262247Y187278D01*
X363847Y196633D02*
X365330Y199599D01*
X368296Y202565D01*
X371262Y202565D01*
X372745Y201082D01*
X372745Y198116D01*
X371262Y196633D01*
X369779Y196633D01*
X368296Y198116D01*
X368296Y202565D01*
X363847Y193210D02*
X362364Y191727D01*
X365330Y188761D01*
X363847Y187278D01*
X186047Y196633D02*
X186047Y202565D01*
X194945Y202565D01*
X194945Y196633D01*
X190496Y199599D02*
X190496Y202565D01*
X189013Y193210D02*
X194945Y193210D01*
X189013Y193210D02*
X189013Y188761D01*
X190496Y187278D01*
X194945Y187278D01*
X67945Y50291D02*
X59047Y50291D01*
X59047Y45842D01*
X60530Y44359D01*
X63496Y44359D01*
X64979Y45842D01*
X64979Y50291D01*
X64979Y47325D02*
X67945Y44359D01*
X59047Y36487D02*
X60530Y35004D01*
X59047Y36487D02*
X59047Y39452D01*
X60530Y40935D01*
X62013Y40935D01*
X63496Y39452D01*
X63496Y36487D01*
X64979Y35004D01*
X66462Y35004D01*
X67945Y36487D01*
X67945Y39452D01*
X66462Y40935D01*
X67945Y28614D02*
X59047Y28614D01*
X59047Y31580D02*
X59047Y25648D01*
X112813Y54968D02*
X118745Y54968D01*
X112813Y54968D02*
X109847Y52002D01*
X112813Y49036D01*
X118745Y49036D01*
X114296Y49036D02*
X114296Y54968D01*
X112813Y45613D02*
X118745Y45613D01*
X115779Y45613D02*
X112813Y42647D01*
X112813Y41164D01*
X118745Y36334D02*
X118745Y33368D01*
X118745Y36334D02*
X117262Y37817D01*
X114296Y37817D01*
X112813Y36334D01*
X112813Y33368D01*
X114296Y31885D01*
X115779Y31885D01*
X115779Y37817D01*
X118745Y26979D02*
X111330Y26979D01*
X109847Y25496D01*
X114296Y25496D02*
X114296Y28462D01*
X85930Y40935D02*
X84447Y39452D01*
X84447Y36487D01*
X85930Y35004D01*
X87413Y35004D01*
X88896Y36487D01*
X88896Y37970D01*
X88896Y36487D02*
X90379Y35004D01*
X91862Y35004D01*
X93345Y36487D01*
X93345Y39452D01*
X91862Y40935D01*
X90379Y31580D02*
X84447Y31580D01*
X90379Y31580D02*
X93345Y28614D01*
X90379Y25648D01*
X84447Y25648D01*
X290613Y40935D02*
X296545Y40935D01*
X290613Y40935D02*
X287647Y37970D01*
X290613Y35004D01*
X296545Y35004D01*
X292096Y35004D02*
X292096Y40935D01*
X287647Y31580D02*
X287647Y25648D01*
X289130Y25648D01*
X295062Y31580D01*
X296545Y31580D01*
X271145Y40935D02*
X265213Y40935D01*
X262247Y37970D01*
X265213Y35004D01*
X271145Y35004D01*
X266696Y35004D02*
X266696Y40935D01*
X263730Y28614D02*
X262247Y25648D01*
X263730Y28614D02*
X266696Y31580D01*
X269662Y31580D01*
X271145Y30097D01*
X271145Y27131D01*
X269662Y25648D01*
X268179Y25648D01*
X266696Y27131D01*
X266696Y31580D01*
X245745Y40935D02*
X239813Y40935D01*
X236847Y37970D01*
X239813Y35004D01*
X245745Y35004D01*
X241296Y35004D02*
X241296Y40935D01*
X238330Y31580D02*
X236847Y30097D01*
X236847Y27131D01*
X238330Y25648D01*
X239813Y25648D01*
X241296Y27131D01*
X241296Y28614D01*
X241296Y27131D02*
X242779Y25648D01*
X244262Y25648D01*
X245745Y27131D01*
X245745Y30097D01*
X244262Y31580D01*
X220345Y40935D02*
X214413Y40935D01*
X211447Y37970D01*
X214413Y35004D01*
X220345Y35004D01*
X215896Y35004D02*
X215896Y40935D01*
X220345Y31580D02*
X220345Y25648D01*
X220345Y31580D02*
X214413Y25648D01*
X212930Y25648D01*
X211447Y27131D01*
X211447Y30097D01*
X212930Y31580D01*
X194945Y40935D02*
X189013Y40935D01*
X186047Y37970D01*
X189013Y35004D01*
X194945Y35004D01*
X190496Y35004D02*
X190496Y40935D01*
X189013Y31580D02*
X186047Y28614D01*
X194945Y28614D01*
X194945Y31580D02*
X194945Y25648D01*
X169545Y40935D02*
X163613Y40935D01*
X160647Y37970D01*
X163613Y35004D01*
X169545Y35004D01*
X165096Y35004D02*
X165096Y40935D01*
X168062Y31580D02*
X162130Y31580D01*
X160647Y30097D01*
X160647Y27131D01*
X162130Y25648D01*
X168062Y25648D01*
X169545Y27131D01*
X169545Y30097D01*
X168062Y31580D01*
X162130Y25648D01*
X313047Y45842D02*
X314530Y44359D01*
X313047Y45842D02*
X313047Y48808D01*
X314530Y50291D01*
X316013Y50291D01*
X317496Y48808D01*
X317496Y45842D01*
X318979Y44359D01*
X320462Y44359D01*
X321945Y45842D01*
X321945Y48808D01*
X320462Y50291D01*
X313047Y36487D02*
X314530Y35004D01*
X313047Y36487D02*
X313047Y39452D01*
X314530Y40935D01*
X320462Y40935D01*
X321945Y39452D01*
X321945Y36487D01*
X320462Y35004D01*
X321945Y31580D02*
X313047Y31580D01*
X318979Y31580D02*
X313047Y25648D01*
X317496Y30097D02*
X321945Y25648D01*
X338447Y56527D02*
X347345Y56527D01*
X341413Y53562D02*
X338447Y56527D01*
X341413Y53562D02*
X338447Y50596D01*
X347345Y50596D01*
X338447Y45689D02*
X338447Y42723D01*
X338447Y45689D02*
X339930Y47172D01*
X345862Y47172D01*
X347345Y45689D01*
X347345Y42723D01*
X345862Y41240D01*
X339930Y41240D01*
X338447Y42723D01*
X338447Y33368D02*
X339930Y31885D01*
X338447Y33368D02*
X338447Y36334D01*
X339930Y37817D01*
X341413Y37817D01*
X342896Y36334D01*
X342896Y33368D01*
X344379Y31885D01*
X345862Y31885D01*
X347345Y33368D01*
X347345Y36334D01*
X345862Y37817D01*
X347345Y28462D02*
X347345Y25496D01*
X347345Y26979D02*
X338447Y26979D01*
X338447Y28462D02*
X338447Y25496D01*
X360037Y53987D02*
X368935Y53987D01*
X363003Y51022D02*
X360037Y53987D01*
X363003Y51022D02*
X360037Y48056D01*
X368935Y48056D01*
X368935Y44632D02*
X368935Y41666D01*
X368935Y43149D02*
X360037Y43149D01*
X360037Y44632D02*
X360037Y41666D01*
X360037Y33947D02*
X361520Y32464D01*
X360037Y33947D02*
X360037Y36913D01*
X361520Y38395D01*
X363003Y38395D01*
X364486Y36913D01*
X364486Y33947D01*
X365969Y32464D01*
X367452Y32464D01*
X368935Y33947D01*
X368935Y36913D01*
X367452Y38395D01*
X360037Y27557D02*
X360037Y24591D01*
X360037Y27557D02*
X361520Y29040D01*
X367452Y29040D01*
X368935Y27557D01*
X368935Y24591D01*
X367452Y23109D01*
X361520Y23109D01*
X360037Y24591D01*
X389247Y37125D02*
X398145Y37125D01*
X389247Y37125D02*
X389247Y32677D01*
X390730Y31194D01*
X393696Y31194D01*
X395179Y32677D01*
X395179Y37125D01*
X395179Y34160D02*
X398145Y31194D01*
X398145Y21838D02*
X389247Y27770D01*
X389247Y21838D02*
X398145Y27770D01*
X414647Y34160D02*
X423545Y34160D01*
X414647Y37125D02*
X414647Y31194D01*
X414647Y27770D02*
X423545Y21838D01*
X423545Y27770D02*
X414647Y21838D01*
X136730Y44359D02*
X135247Y45842D01*
X135247Y48808D01*
X136730Y50291D01*
X142662Y50291D01*
X144145Y48808D01*
X144145Y45842D01*
X142662Y44359D01*
X139696Y44359D01*
X139696Y47325D01*
X144145Y40935D02*
X135247Y40935D01*
X144145Y35004D01*
X135247Y35004D01*
X135247Y31580D02*
X144145Y31580D01*
X144145Y27131D01*
X142662Y25648D01*
X136730Y25648D01*
X135247Y27131D01*
X135247Y31580D01*
X440047Y31580D02*
X440047Y25648D01*
X441530Y25648D01*
X447462Y31580D01*
X448945Y31580D01*
X446823Y190930D02*
X448306Y192413D01*
X451272Y192413D01*
X452755Y190930D01*
X452755Y189447D01*
X451272Y187964D01*
X448306Y187964D01*
X446823Y186481D01*
X446823Y184998D01*
X448306Y183515D01*
X451272Y183515D01*
X452755Y184998D01*
X443400Y183515D02*
X443400Y192413D01*
X443400Y183515D02*
X438951Y183515D01*
X437468Y184998D01*
X437468Y190930D01*
X438951Y192413D01*
X443400Y192413D01*
X434045Y189447D02*
X434045Y183515D01*
X434045Y189447D02*
X431079Y192413D01*
X428113Y189447D01*
X428113Y183515D01*
X428113Y187964D02*
X434045Y187964D01*
X422693Y203630D02*
X424176Y205113D01*
X427142Y205113D01*
X428625Y203630D01*
X428625Y202147D01*
X427142Y200664D01*
X424176Y200664D01*
X422693Y199181D01*
X422693Y197698D01*
X424176Y196215D01*
X427142Y196215D01*
X428625Y197698D01*
X414821Y205113D02*
X413338Y203630D01*
X414821Y205113D02*
X417787Y205113D01*
X419270Y203630D01*
X419270Y197698D01*
X417787Y196215D01*
X414821Y196215D01*
X413338Y197698D01*
X409915Y196215D02*
X409915Y205113D01*
X409915Y196215D02*
X403983Y196215D01*
X385666Y198503D02*
X384183Y197020D01*
X385666Y198503D02*
X382700Y201469D01*
X384183Y202952D01*
M02*
