G04 EAGLE Gerber RS-274X export*
G75*
%MOMM*%
%FSLAX34Y34*%
%LPD*%
%INSoldermask Top*%
%IPPOS*%
%AMOC8*
5,1,8,0,0,1.08239X$1,22.5*%
G01*
%ADD10C,2.301600*%
%ADD11R,0.901600X0.901600*%
%ADD12R,1.301600X0.651600*%
%ADD13R,0.701600X0.901600*%
%ADD14C,1.778000*%
%ADD15R,1.001600X1.001600*%
%ADD16C,0.240406*%
%ADD17R,2.601600X2.601600*%
%ADD18R,1.450000X0.500000*%
%ADD19R,2.101600X1.101600*%
%ADD20C,1.409600*%
%ADD21R,2.514600X2.514600*%
%ADD22C,0.801600*%
%ADD23R,0.736600X1.117600*%
%ADD24R,2.101600X0.801600*%
%ADD25C,0.225022*%
%ADD26R,3.301600X3.301600*%
%ADD27C,0.500000*%
%ADD28C,1.001600*%
%ADD29R,1.601600X0.801600*%
%ADD30R,0.701600X1.101600*%
%ADD31R,0.901600X1.101600*%


D10*
X463550Y19050D03*
X463550Y209550D03*
X19050Y19050D03*
X19050Y209550D03*
D11*
X200260Y160070D03*
X200260Y175310D03*
D12*
X186991Y141630D03*
X186991Y151130D03*
X186991Y160630D03*
X160989Y160630D03*
X160989Y141630D03*
D13*
X92830Y135255D03*
X107830Y135255D03*
D14*
X438150Y12700D03*
X412750Y12700D03*
X387350Y12700D03*
X361950Y12700D03*
X336550Y12700D03*
X311150Y12700D03*
X285750Y12700D03*
X260350Y12700D03*
X234950Y12700D03*
X209550Y12700D03*
X184150Y12700D03*
X158750Y12700D03*
X133350Y12700D03*
X107950Y12700D03*
X82550Y12700D03*
X57150Y12700D03*
X158750Y215900D03*
X184150Y215900D03*
X209550Y215900D03*
X234950Y215900D03*
X260350Y215900D03*
X285750Y215900D03*
X311150Y215900D03*
X336550Y215900D03*
X361950Y215900D03*
X387350Y215900D03*
X412750Y215900D03*
X438150Y215900D03*
D12*
X159719Y125705D03*
X159719Y116205D03*
X159719Y106705D03*
X185721Y106705D03*
X185721Y125705D03*
D11*
X11550Y55880D03*
X26550Y55880D03*
X45720Y41910D03*
X60960Y41910D03*
X154940Y186690D03*
X154940Y171450D03*
D15*
X97535Y42365D03*
X97535Y83365D03*
X81535Y42365D03*
X81535Y83365D03*
D11*
X29725Y173355D03*
X14725Y173355D03*
X44450Y199390D03*
X44450Y184150D03*
D16*
X156399Y72896D02*
X163011Y72896D01*
X163011Y71484D01*
X156399Y71484D01*
X156399Y72896D01*
X156399Y67896D02*
X163011Y67896D01*
X163011Y66484D01*
X156399Y66484D01*
X156399Y67896D01*
X156399Y62896D02*
X163011Y62896D01*
X163011Y61484D01*
X156399Y61484D01*
X156399Y62896D01*
X156399Y57896D02*
X163011Y57896D01*
X163011Y56484D01*
X156399Y56484D01*
X156399Y57896D01*
X156399Y52896D02*
X163011Y52896D01*
X163011Y51484D01*
X156399Y51484D01*
X156399Y52896D01*
X156399Y47896D02*
X163011Y47896D01*
X163011Y46484D01*
X156399Y46484D01*
X156399Y47896D01*
X167911Y42996D02*
X167911Y36384D01*
X166499Y36384D01*
X166499Y42996D01*
X167911Y42996D01*
X167911Y38668D02*
X166499Y38668D01*
X166499Y40952D02*
X167911Y40952D01*
X172911Y42996D02*
X172911Y36384D01*
X171499Y36384D01*
X171499Y42996D01*
X172911Y42996D01*
X172911Y38668D02*
X171499Y38668D01*
X171499Y40952D02*
X172911Y40952D01*
X177911Y42996D02*
X177911Y36384D01*
X176499Y36384D01*
X176499Y42996D01*
X177911Y42996D01*
X177911Y38668D02*
X176499Y38668D01*
X176499Y40952D02*
X177911Y40952D01*
X182911Y42996D02*
X182911Y36384D01*
X181499Y36384D01*
X181499Y42996D01*
X182911Y42996D01*
X182911Y38668D02*
X181499Y38668D01*
X181499Y40952D02*
X182911Y40952D01*
X187911Y42996D02*
X187911Y36384D01*
X186499Y36384D01*
X186499Y42996D01*
X187911Y42996D01*
X187911Y38668D02*
X186499Y38668D01*
X186499Y40952D02*
X187911Y40952D01*
X192911Y42996D02*
X192911Y36384D01*
X191499Y36384D01*
X191499Y42996D01*
X192911Y42996D01*
X192911Y38668D02*
X191499Y38668D01*
X191499Y40952D02*
X192911Y40952D01*
X196399Y46484D02*
X203011Y46484D01*
X196399Y46484D02*
X196399Y47896D01*
X203011Y47896D01*
X203011Y46484D01*
X203011Y51484D02*
X196399Y51484D01*
X196399Y52896D01*
X203011Y52896D01*
X203011Y51484D01*
X203011Y56484D02*
X196399Y56484D01*
X196399Y57896D01*
X203011Y57896D01*
X203011Y56484D01*
X203011Y61484D02*
X196399Y61484D01*
X196399Y62896D01*
X203011Y62896D01*
X203011Y61484D01*
X203011Y66484D02*
X196399Y66484D01*
X196399Y67896D01*
X203011Y67896D01*
X203011Y66484D01*
X203011Y71484D02*
X196399Y71484D01*
X196399Y72896D01*
X203011Y72896D01*
X203011Y71484D01*
X191499Y76384D02*
X191499Y82996D01*
X192911Y82996D01*
X192911Y76384D01*
X191499Y76384D01*
X191499Y78668D02*
X192911Y78668D01*
X192911Y80952D02*
X191499Y80952D01*
X186499Y82996D02*
X186499Y76384D01*
X186499Y82996D02*
X187911Y82996D01*
X187911Y76384D01*
X186499Y76384D01*
X186499Y78668D02*
X187911Y78668D01*
X187911Y80952D02*
X186499Y80952D01*
X181499Y82996D02*
X181499Y76384D01*
X181499Y82996D02*
X182911Y82996D01*
X182911Y76384D01*
X181499Y76384D01*
X181499Y78668D02*
X182911Y78668D01*
X182911Y80952D02*
X181499Y80952D01*
X176499Y82996D02*
X176499Y76384D01*
X176499Y82996D02*
X177911Y82996D01*
X177911Y76384D01*
X176499Y76384D01*
X176499Y78668D02*
X177911Y78668D01*
X177911Y80952D02*
X176499Y80952D01*
X171499Y82996D02*
X171499Y76384D01*
X171499Y82996D02*
X172911Y82996D01*
X172911Y76384D01*
X171499Y76384D01*
X171499Y78668D02*
X172911Y78668D01*
X172911Y80952D02*
X171499Y80952D01*
X166499Y82996D02*
X166499Y76384D01*
X166499Y82996D02*
X167911Y82996D01*
X167911Y76384D01*
X166499Y76384D01*
X166499Y78668D02*
X167911Y78668D01*
X167911Y80952D02*
X166499Y80952D01*
D17*
X179705Y59690D03*
D18*
X47120Y127300D03*
X47120Y120800D03*
X47120Y114300D03*
X47120Y107800D03*
X47120Y101300D03*
D19*
X19370Y121800D03*
X19370Y106800D03*
D20*
X48370Y147300D02*
X48370Y160380D01*
X48370Y81300D02*
X48370Y68220D01*
D21*
X20370Y150300D03*
X20370Y78300D03*
D22*
X39370Y133800D03*
X39370Y94800D03*
D11*
X225425Y192405D03*
X210185Y192405D03*
X64770Y69723D03*
X64770Y84963D03*
D23*
X124485Y114460D03*
X143485Y114460D03*
X133985Y134460D03*
D11*
X211455Y160020D03*
X211455Y144780D03*
X285630Y43815D03*
X270630Y43815D03*
X285630Y60325D03*
X270630Y60325D03*
X114300Y59055D03*
X114300Y43815D03*
X204470Y109220D03*
X204470Y124460D03*
X339725Y113030D03*
X339725Y128270D03*
D24*
X325755Y149766D03*
X325755Y159766D03*
X325755Y169766D03*
D11*
X226060Y154305D03*
X241300Y154305D03*
X241935Y183515D03*
X241935Y168275D03*
D25*
X306367Y115213D02*
X312133Y115213D01*
X312133Y113947D01*
X306367Y113947D01*
X306367Y115213D01*
X306367Y120213D02*
X312133Y120213D01*
X312133Y118947D01*
X306367Y118947D01*
X306367Y120213D01*
X306367Y125213D02*
X312133Y125213D01*
X312133Y123947D01*
X306367Y123947D01*
X306367Y125213D01*
X306367Y130213D02*
X312133Y130213D01*
X312133Y128947D01*
X306367Y128947D01*
X306367Y130213D01*
X306367Y135213D02*
X312133Y135213D01*
X312133Y133947D01*
X306367Y133947D01*
X306367Y135213D01*
X306367Y140213D02*
X312133Y140213D01*
X312133Y138947D01*
X306367Y138947D01*
X306367Y140213D01*
X306367Y145213D02*
X312133Y145213D01*
X312133Y143947D01*
X306367Y143947D01*
X306367Y145213D01*
X306367Y150213D02*
X312133Y150213D01*
X312133Y148947D01*
X306367Y148947D01*
X306367Y150213D01*
X303883Y158463D02*
X302617Y158463D01*
X303883Y158463D02*
X303883Y152697D01*
X302617Y152697D01*
X302617Y158463D01*
X302617Y154834D02*
X303883Y154834D01*
X303883Y156971D02*
X302617Y156971D01*
X298883Y158463D02*
X297617Y158463D01*
X298883Y158463D02*
X298883Y152697D01*
X297617Y152697D01*
X297617Y158463D01*
X297617Y154834D02*
X298883Y154834D01*
X298883Y156971D02*
X297617Y156971D01*
X293883Y158463D02*
X292617Y158463D01*
X293883Y158463D02*
X293883Y152697D01*
X292617Y152697D01*
X292617Y158463D01*
X292617Y154834D02*
X293883Y154834D01*
X293883Y156971D02*
X292617Y156971D01*
X288883Y158463D02*
X287617Y158463D01*
X288883Y158463D02*
X288883Y152697D01*
X287617Y152697D01*
X287617Y158463D01*
X287617Y154834D02*
X288883Y154834D01*
X288883Y156971D02*
X287617Y156971D01*
X283883Y158463D02*
X282617Y158463D01*
X283883Y158463D02*
X283883Y152697D01*
X282617Y152697D01*
X282617Y158463D01*
X282617Y154834D02*
X283883Y154834D01*
X283883Y156971D02*
X282617Y156971D01*
X278883Y158463D02*
X277617Y158463D01*
X278883Y158463D02*
X278883Y152697D01*
X277617Y152697D01*
X277617Y158463D01*
X277617Y154834D02*
X278883Y154834D01*
X278883Y156971D02*
X277617Y156971D01*
X273883Y158463D02*
X272617Y158463D01*
X273883Y158463D02*
X273883Y152697D01*
X272617Y152697D01*
X272617Y158463D01*
X272617Y154834D02*
X273883Y154834D01*
X273883Y156971D02*
X272617Y156971D01*
X268883Y158463D02*
X267617Y158463D01*
X268883Y158463D02*
X268883Y152697D01*
X267617Y152697D01*
X267617Y158463D01*
X267617Y154834D02*
X268883Y154834D01*
X268883Y156971D02*
X267617Y156971D01*
X265133Y150213D02*
X259367Y150213D01*
X265133Y150213D02*
X265133Y148947D01*
X259367Y148947D01*
X259367Y150213D01*
X259367Y145213D02*
X265133Y145213D01*
X265133Y143947D01*
X259367Y143947D01*
X259367Y145213D01*
X259367Y140213D02*
X265133Y140213D01*
X265133Y138947D01*
X259367Y138947D01*
X259367Y140213D01*
X259367Y135213D02*
X265133Y135213D01*
X265133Y133947D01*
X259367Y133947D01*
X259367Y135213D01*
X259367Y130213D02*
X265133Y130213D01*
X265133Y128947D01*
X259367Y128947D01*
X259367Y130213D01*
X259367Y125213D02*
X265133Y125213D01*
X265133Y123947D01*
X259367Y123947D01*
X259367Y125213D01*
X259367Y120213D02*
X265133Y120213D01*
X265133Y118947D01*
X259367Y118947D01*
X259367Y120213D01*
X259367Y115213D02*
X265133Y115213D01*
X265133Y113947D01*
X259367Y113947D01*
X259367Y115213D01*
X267617Y111463D02*
X268883Y111463D01*
X268883Y105697D01*
X267617Y105697D01*
X267617Y111463D01*
X267617Y107834D02*
X268883Y107834D01*
X268883Y109971D02*
X267617Y109971D01*
X272617Y111463D02*
X273883Y111463D01*
X273883Y105697D01*
X272617Y105697D01*
X272617Y111463D01*
X272617Y107834D02*
X273883Y107834D01*
X273883Y109971D02*
X272617Y109971D01*
X277617Y111463D02*
X278883Y111463D01*
X278883Y105697D01*
X277617Y105697D01*
X277617Y111463D01*
X277617Y107834D02*
X278883Y107834D01*
X278883Y109971D02*
X277617Y109971D01*
X282617Y111463D02*
X283883Y111463D01*
X283883Y105697D01*
X282617Y105697D01*
X282617Y111463D01*
X282617Y107834D02*
X283883Y107834D01*
X283883Y109971D02*
X282617Y109971D01*
X287617Y111463D02*
X288883Y111463D01*
X288883Y105697D01*
X287617Y105697D01*
X287617Y111463D01*
X287617Y107834D02*
X288883Y107834D01*
X288883Y109971D02*
X287617Y109971D01*
X292617Y111463D02*
X293883Y111463D01*
X293883Y105697D01*
X292617Y105697D01*
X292617Y111463D01*
X292617Y107834D02*
X293883Y107834D01*
X293883Y109971D02*
X292617Y109971D01*
X297617Y111463D02*
X298883Y111463D01*
X298883Y105697D01*
X297617Y105697D01*
X297617Y111463D01*
X297617Y107834D02*
X298883Y107834D01*
X298883Y109971D02*
X297617Y109971D01*
X302617Y111463D02*
X303883Y111463D01*
X303883Y105697D01*
X302617Y105697D01*
X302617Y111463D01*
X302617Y107834D02*
X303883Y107834D01*
X303883Y109971D02*
X302617Y109971D01*
D26*
X285750Y132080D03*
D11*
X215265Y68580D03*
X215265Y83820D03*
X62865Y138430D03*
X78105Y138430D03*
X223317Y130921D03*
X223317Y115681D03*
X304165Y59055D03*
X319405Y59055D03*
X304165Y45720D03*
X319405Y45720D03*
X145415Y46990D03*
X130175Y46990D03*
X121920Y86360D03*
X121920Y101600D03*
X133350Y86360D03*
X133350Y101600D03*
X147320Y97790D03*
X147320Y82550D03*
D12*
X447341Y153060D03*
X447341Y162560D03*
X447341Y172060D03*
X421339Y172060D03*
X421339Y153060D03*
D27*
X380350Y152400D02*
X380352Y152572D01*
X380358Y152743D01*
X380369Y152915D01*
X380384Y153086D01*
X380403Y153257D01*
X380426Y153427D01*
X380453Y153597D01*
X380485Y153766D01*
X380520Y153934D01*
X380560Y154101D01*
X380604Y154267D01*
X380651Y154432D01*
X380703Y154596D01*
X380759Y154758D01*
X380819Y154919D01*
X380883Y155079D01*
X380951Y155237D01*
X381022Y155393D01*
X381097Y155547D01*
X381177Y155700D01*
X381259Y155850D01*
X381346Y155999D01*
X381436Y156145D01*
X381530Y156289D01*
X381627Y156431D01*
X381728Y156570D01*
X381832Y156707D01*
X381939Y156841D01*
X382050Y156972D01*
X382163Y157101D01*
X382280Y157227D01*
X382400Y157350D01*
X382523Y157470D01*
X382649Y157587D01*
X382778Y157700D01*
X382909Y157811D01*
X383043Y157918D01*
X383180Y158022D01*
X383319Y158123D01*
X383461Y158220D01*
X383605Y158314D01*
X383751Y158404D01*
X383900Y158491D01*
X384050Y158573D01*
X384203Y158653D01*
X384357Y158728D01*
X384513Y158799D01*
X384671Y158867D01*
X384831Y158931D01*
X384992Y158991D01*
X385154Y159047D01*
X385318Y159099D01*
X385483Y159146D01*
X385649Y159190D01*
X385816Y159230D01*
X385984Y159265D01*
X386153Y159297D01*
X386323Y159324D01*
X386493Y159347D01*
X386664Y159366D01*
X386835Y159381D01*
X387007Y159392D01*
X387178Y159398D01*
X387350Y159400D01*
X387522Y159398D01*
X387693Y159392D01*
X387865Y159381D01*
X388036Y159366D01*
X388207Y159347D01*
X388377Y159324D01*
X388547Y159297D01*
X388716Y159265D01*
X388884Y159230D01*
X389051Y159190D01*
X389217Y159146D01*
X389382Y159099D01*
X389546Y159047D01*
X389708Y158991D01*
X389869Y158931D01*
X390029Y158867D01*
X390187Y158799D01*
X390343Y158728D01*
X390497Y158653D01*
X390650Y158573D01*
X390800Y158491D01*
X390949Y158404D01*
X391095Y158314D01*
X391239Y158220D01*
X391381Y158123D01*
X391520Y158022D01*
X391657Y157918D01*
X391791Y157811D01*
X391922Y157700D01*
X392051Y157587D01*
X392177Y157470D01*
X392300Y157350D01*
X392420Y157227D01*
X392537Y157101D01*
X392650Y156972D01*
X392761Y156841D01*
X392868Y156707D01*
X392972Y156570D01*
X393073Y156431D01*
X393170Y156289D01*
X393264Y156145D01*
X393354Y155999D01*
X393441Y155850D01*
X393523Y155700D01*
X393603Y155547D01*
X393678Y155393D01*
X393749Y155237D01*
X393817Y155079D01*
X393881Y154919D01*
X393941Y154758D01*
X393997Y154596D01*
X394049Y154432D01*
X394096Y154267D01*
X394140Y154101D01*
X394180Y153934D01*
X394215Y153766D01*
X394247Y153597D01*
X394274Y153427D01*
X394297Y153257D01*
X394316Y153086D01*
X394331Y152915D01*
X394342Y152743D01*
X394348Y152572D01*
X394350Y152400D01*
X394348Y152228D01*
X394342Y152057D01*
X394331Y151885D01*
X394316Y151714D01*
X394297Y151543D01*
X394274Y151373D01*
X394247Y151203D01*
X394215Y151034D01*
X394180Y150866D01*
X394140Y150699D01*
X394096Y150533D01*
X394049Y150368D01*
X393997Y150204D01*
X393941Y150042D01*
X393881Y149881D01*
X393817Y149721D01*
X393749Y149563D01*
X393678Y149407D01*
X393603Y149253D01*
X393523Y149100D01*
X393441Y148950D01*
X393354Y148801D01*
X393264Y148655D01*
X393170Y148511D01*
X393073Y148369D01*
X392972Y148230D01*
X392868Y148093D01*
X392761Y147959D01*
X392650Y147828D01*
X392537Y147699D01*
X392420Y147573D01*
X392300Y147450D01*
X392177Y147330D01*
X392051Y147213D01*
X391922Y147100D01*
X391791Y146989D01*
X391657Y146882D01*
X391520Y146778D01*
X391381Y146677D01*
X391239Y146580D01*
X391095Y146486D01*
X390949Y146396D01*
X390800Y146309D01*
X390650Y146227D01*
X390497Y146147D01*
X390343Y146072D01*
X390187Y146001D01*
X390029Y145933D01*
X389869Y145869D01*
X389708Y145809D01*
X389546Y145753D01*
X389382Y145701D01*
X389217Y145654D01*
X389051Y145610D01*
X388884Y145570D01*
X388716Y145535D01*
X388547Y145503D01*
X388377Y145476D01*
X388207Y145453D01*
X388036Y145434D01*
X387865Y145419D01*
X387693Y145408D01*
X387522Y145402D01*
X387350Y145400D01*
X387178Y145402D01*
X387007Y145408D01*
X386835Y145419D01*
X386664Y145434D01*
X386493Y145453D01*
X386323Y145476D01*
X386153Y145503D01*
X385984Y145535D01*
X385816Y145570D01*
X385649Y145610D01*
X385483Y145654D01*
X385318Y145701D01*
X385154Y145753D01*
X384992Y145809D01*
X384831Y145869D01*
X384671Y145933D01*
X384513Y146001D01*
X384357Y146072D01*
X384203Y146147D01*
X384050Y146227D01*
X383900Y146309D01*
X383751Y146396D01*
X383605Y146486D01*
X383461Y146580D01*
X383319Y146677D01*
X383180Y146778D01*
X383043Y146882D01*
X382909Y146989D01*
X382778Y147100D01*
X382649Y147213D01*
X382523Y147330D01*
X382400Y147450D01*
X382280Y147573D01*
X382163Y147699D01*
X382050Y147828D01*
X381939Y147959D01*
X381832Y148093D01*
X381728Y148230D01*
X381627Y148369D01*
X381530Y148511D01*
X381436Y148655D01*
X381346Y148801D01*
X381259Y148950D01*
X381177Y149100D01*
X381097Y149253D01*
X381022Y149407D01*
X380951Y149563D01*
X380883Y149721D01*
X380819Y149881D01*
X380759Y150042D01*
X380703Y150204D01*
X380651Y150368D01*
X380604Y150533D01*
X380560Y150699D01*
X380520Y150866D01*
X380485Y151034D01*
X380453Y151203D01*
X380426Y151373D01*
X380403Y151543D01*
X380384Y151714D01*
X380369Y151885D01*
X380358Y152057D01*
X380352Y152228D01*
X380350Y152400D01*
D28*
X375350Y178600D03*
D22*
X400350Y144400D03*
X374350Y144400D03*
D28*
X399350Y178600D03*
X387350Y178600D03*
X387350Y152400D03*
D11*
X374650Y194310D03*
X389890Y194310D03*
X400050Y194310D03*
X415290Y194310D03*
X429260Y139700D03*
X414020Y139700D03*
X455930Y139700D03*
X440690Y139700D03*
X430530Y184150D03*
X445770Y184150D03*
X462280Y175260D03*
X462280Y160020D03*
X430530Y195580D03*
X445770Y195580D03*
X414020Y128270D03*
X429260Y128270D03*
D29*
X446050Y98700D03*
X446050Y83700D03*
X446050Y53700D03*
D30*
X473550Y112700D03*
D31*
X452550Y112700D03*
D30*
X473550Y39700D03*
D31*
X452550Y39700D03*
D28*
X463550Y91200D03*
X463550Y61200D03*
D14*
X92710Y215900D03*
D11*
X74930Y215900D03*
X59690Y215900D03*
D14*
X114300Y215900D03*
M02*
