G04 EAGLE Gerber RS-274X export*
G75*
%MOMM*%
%FSLAX34Y34*%
%LPD*%
%INSoldermask Bottom*%
%IPPOS*%
%AMOC8*
5,1,8,0,0,1.08239X$1,22.5*%
G01*
%ADD10C,2.301600*%
%ADD11R,8.763000X0.508000*%
%ADD12R,7.874000X0.508000*%
%ADD13C,1.778000*%
%ADD14C,1.409600*%
%ADD15R,2.514600X2.514600*%
%ADD16C,0.801600*%
%ADD17C,1.001600*%
%ADD18R,0.381000X4.601600*%


D10*
X463550Y19050D03*
X463550Y209550D03*
D11*
X415290Y184150D03*
D12*
X419735Y44450D03*
D10*
X19050Y19050D03*
X19050Y209550D03*
D13*
X438150Y12700D03*
X412750Y12700D03*
X387350Y12700D03*
X361950Y12700D03*
X336550Y12700D03*
X311150Y12700D03*
X285750Y12700D03*
X260350Y12700D03*
X234950Y12700D03*
X209550Y12700D03*
X184150Y12700D03*
X158750Y12700D03*
X133350Y12700D03*
X107950Y12700D03*
X82550Y12700D03*
X57150Y12700D03*
X158750Y215900D03*
X184150Y215900D03*
X209550Y215900D03*
X234950Y215900D03*
X260350Y215900D03*
X285750Y215900D03*
X311150Y215900D03*
X336550Y215900D03*
X361950Y215900D03*
X387350Y215900D03*
X412750Y215900D03*
X438150Y215900D03*
D14*
X48370Y160380D02*
X48370Y147300D01*
X48370Y81300D02*
X48370Y68220D01*
D15*
X20370Y150300D03*
X20370Y78300D03*
D16*
X39370Y133800D03*
X39370Y94800D03*
D17*
X387350Y152400D03*
D18*
X254000Y90231D03*
X249000Y90231D03*
X244000Y90231D03*
X239000Y90231D03*
X234000Y90231D03*
X229000Y90231D03*
X224000Y90231D03*
X219000Y90231D03*
X214000Y90231D03*
X209000Y90231D03*
X204000Y90231D03*
X199000Y90231D03*
D17*
X463550Y91200D03*
X463550Y61200D03*
D13*
X92710Y215900D03*
X114300Y215900D03*
M02*
