M48
;GenerationSoftware,Autodesk,EAGLE,9.4.0*%
;CreationDate,2019-06-03T06:18:08Z*%
FMAT,2
ICI,OFF
METRIC,TZ,000.000
T9C0.394
T8C0.483
T7C0.500
T6C0.508
T5C0.700
T4C0.800
T3C0.900
T2C1.000
T1C2.200
%
G90
M71
T1
X46355Y1905
X46355Y20955
X1905Y1905
X1905Y20955
T2
X18415Y1270
X26035Y1270
X43815Y21590
X41275Y21590
X38735Y21590
X36195Y21590
X33655Y21590
X31115Y21590
X28575Y21590
X26035Y21590
X23495Y21590
X20955Y21590
X18415Y21590
X43815Y1270
X15875Y21590
X5715Y1270
X8255Y1270
X10795Y1270
X13335Y1270
X15875Y1270
X41275Y1270
X20955Y1270
X23495Y1270
X38735Y1270
X28575Y1270
X31115Y1270
X33655Y1270
X11430Y21590
X9271Y21590
X36195Y1270
T3
X46355Y6120
X46355Y9120
X38735Y15240
X2037Y15030
X2037Y7830
T4
X4837Y14730
X4837Y8130
T5
X3937Y9480
X3937Y13380
T6
X38735Y11430
X38989Y9271
X41275Y11430
X41656Y18288
X36957Y6096
X22288Y14224
T7
X25489Y4572
X21781Y5271
X25489Y5905
X33528Y9843
X10922Y8382
X33401Y4318
X4191Y889
X1778Y11430
X29718Y2413
X29325Y8331
X21019Y4382
X32702Y10668
X32156Y11684
X30162Y9271
X23431Y14224
X34887Y18390
X31877Y19622
X13716Y7239
X17355Y13970
X14351Y12700
X12065Y13555
X25082Y13906
X25400Y16129
X6731Y16129
X26162Y17018
X24765Y12255
X27305Y17018
X18415Y17399
X7747Y10668
X9525Y6604
X25400Y18542
X21273Y13398
X27178Y8319
X9525Y3111
X22987Y17717
X33236Y18009
X29210Y19685
X22987Y16662
X15875Y15113
X7874Y5715
X6667Y5461
X12890Y16192
X25527Y3175
X10605Y9843
X18669Y11628
X8763Y19685
X14795Y3505
X17228Y12748
X36195Y7620
X9652Y5398
X33630Y8636
X13906Y16828
X29845Y20701
X22200Y20599
X28321Y12192
X18034Y6223
X9462Y12192
X17336Y16510
T8
X34544Y4382
T9
X9525Y1968
X33630Y13995
X5715Y19812
X46355Y12700
X46355Y18796
M30