G04 EAGLE Gerber RS-274X export*
G75*
%MOMM*%
%FSLAX34Y34*%
%LPD*%
%INTop Copper*%
%IPPOS*%
%AMOC8*
5,1,8,0,0,1.08239X$1,22.5*%
G01*
%ADD10C,0.863600*%
%ADD11C,1.359600*%
%ADD12R,0.800000X0.800000*%
%ADD13C,1.879600*%
%ADD14C,1.309600*%
%ADD15R,0.700000X1.500000*%
%ADD16R,1.000000X0.600000*%
%ADD17R,1.000000X0.800000*%
%ADD18C,0.254000*%
%ADD19C,1.016000*%
%ADD20C,0.508000*%

G36*
X410755Y-26686D02*
X410755Y-26686D01*
X410827Y-26684D01*
X410876Y-26666D01*
X410927Y-26658D01*
X410991Y-26624D01*
X411058Y-26599D01*
X411099Y-26567D01*
X411145Y-26542D01*
X411194Y-26491D01*
X411250Y-26446D01*
X411278Y-26402D01*
X411314Y-26364D01*
X411344Y-26299D01*
X411383Y-26239D01*
X411396Y-26188D01*
X411418Y-26141D01*
X411426Y-26070D01*
X411443Y-26000D01*
X411439Y-25948D01*
X411445Y-25897D01*
X411430Y-25826D01*
X411424Y-25755D01*
X411404Y-25707D01*
X411393Y-25656D01*
X411356Y-25595D01*
X411328Y-25529D01*
X411283Y-25473D01*
X411267Y-25445D01*
X411249Y-25430D01*
X411223Y-25398D01*
X411077Y-25252D01*
X411077Y-18913D01*
X411066Y-18843D01*
X411064Y-18773D01*
X411046Y-18723D01*
X411038Y-18670D01*
X411005Y-18608D01*
X410981Y-18542D01*
X410938Y-18481D01*
X410922Y-18453D01*
X410906Y-18437D01*
X410883Y-18405D01*
X401475Y-7893D01*
X401463Y-7883D01*
X401454Y-7871D01*
X401368Y-7807D01*
X401283Y-7739D01*
X401269Y-7733D01*
X401257Y-7724D01*
X401154Y-7691D01*
X401052Y-7653D01*
X401037Y-7653D01*
X401023Y-7648D01*
X400915Y-7649D01*
X400807Y-7646D01*
X400792Y-7650D01*
X400777Y-7651D01*
X400616Y-7697D01*
X398899Y-8409D01*
X396069Y-8409D01*
X393455Y-7326D01*
X391454Y-5325D01*
X390371Y-2711D01*
X390371Y119D01*
X391454Y2733D01*
X393455Y4734D01*
X396123Y5839D01*
X396140Y5850D01*
X396159Y5855D01*
X396244Y5914D01*
X396332Y5969D01*
X396345Y5984D01*
X396361Y5996D01*
X396423Y6079D01*
X396489Y6158D01*
X396496Y6177D01*
X396508Y6193D01*
X396540Y6291D01*
X396577Y6388D01*
X396578Y6408D01*
X396584Y6427D01*
X396583Y6530D01*
X396588Y6634D01*
X396582Y6653D01*
X396582Y6673D01*
X396535Y6834D01*
X395189Y10083D01*
X395189Y13597D01*
X396534Y16842D01*
X399018Y19326D01*
X402263Y20671D01*
X405777Y20671D01*
X409022Y19326D01*
X411506Y16842D01*
X412851Y13597D01*
X412851Y10083D01*
X411506Y6838D01*
X409022Y4354D01*
X405777Y3009D01*
X404539Y3009D01*
X404494Y3002D01*
X404448Y3004D01*
X404373Y2982D01*
X404296Y2970D01*
X404256Y2948D01*
X404212Y2935D01*
X404147Y2891D01*
X404079Y2854D01*
X404047Y2821D01*
X404009Y2795D01*
X403963Y2732D01*
X403909Y2676D01*
X403890Y2634D01*
X403863Y2598D01*
X403839Y2524D01*
X403806Y2453D01*
X403801Y2407D01*
X403787Y2364D01*
X403787Y2286D01*
X403779Y2209D01*
X403788Y2164D01*
X403789Y2118D01*
X403827Y1986D01*
X403831Y1968D01*
X403834Y1964D01*
X403836Y1957D01*
X404597Y119D01*
X404597Y-1186D01*
X404608Y-1255D01*
X404610Y-1326D01*
X404628Y-1376D01*
X404637Y-1429D01*
X404669Y-1491D01*
X404693Y-1557D01*
X404737Y-1617D01*
X404752Y-1646D01*
X404768Y-1661D01*
X404791Y-1694D01*
X409241Y-6665D01*
X409313Y-6724D01*
X409380Y-6787D01*
X409408Y-6800D01*
X409432Y-6820D01*
X409519Y-6852D01*
X409603Y-6891D01*
X409634Y-6894D01*
X409663Y-6905D01*
X409756Y-6908D01*
X409847Y-6918D01*
X409878Y-6911D01*
X409909Y-6912D01*
X409997Y-6885D01*
X410088Y-6866D01*
X410114Y-6850D01*
X410144Y-6841D01*
X410220Y-6787D01*
X410299Y-6740D01*
X410319Y-6716D01*
X410344Y-6698D01*
X410348Y-6693D01*
X415587Y-6693D01*
X415587Y-11711D01*
X415459Y-11711D01*
X415409Y-11719D01*
X415358Y-11717D01*
X415289Y-11739D01*
X415217Y-11750D01*
X415172Y-11774D01*
X415123Y-11789D01*
X415064Y-11831D01*
X414999Y-11866D01*
X414964Y-11902D01*
X414923Y-11932D01*
X414880Y-11991D01*
X414830Y-12044D01*
X414808Y-12090D01*
X414779Y-12131D01*
X414757Y-12201D01*
X414726Y-12267D01*
X414721Y-12317D01*
X414706Y-12366D01*
X414707Y-12439D01*
X414699Y-12511D01*
X414710Y-12561D01*
X414711Y-12612D01*
X414736Y-12680D01*
X414751Y-12752D01*
X414777Y-12795D01*
X414795Y-12843D01*
X414864Y-12940D01*
X414878Y-12963D01*
X414884Y-12969D01*
X414892Y-12980D01*
X415916Y-14124D01*
X416003Y-14194D01*
X416088Y-14267D01*
X416099Y-14271D01*
X416108Y-14278D01*
X416213Y-14317D01*
X416317Y-14359D01*
X416330Y-14360D01*
X416338Y-14363D01*
X416364Y-14364D01*
X416483Y-14377D01*
X421952Y-14377D01*
X423143Y-15568D01*
X423143Y-18796D01*
X423146Y-18816D01*
X423144Y-18835D01*
X423166Y-18937D01*
X423182Y-19039D01*
X423192Y-19056D01*
X423196Y-19076D01*
X423249Y-19165D01*
X423298Y-19256D01*
X423312Y-19270D01*
X423322Y-19287D01*
X423401Y-19354D01*
X423476Y-19426D01*
X423494Y-19434D01*
X423509Y-19447D01*
X423605Y-19486D01*
X423699Y-19529D01*
X423719Y-19531D01*
X423737Y-19539D01*
X423904Y-19557D01*
X431034Y-19557D01*
X431105Y-19546D01*
X431177Y-19544D01*
X431226Y-19526D01*
X431277Y-19518D01*
X431341Y-19484D01*
X431408Y-19459D01*
X431449Y-19427D01*
X431495Y-19402D01*
X431544Y-19350D01*
X431600Y-19306D01*
X431628Y-19262D01*
X431664Y-19224D01*
X431694Y-19159D01*
X431733Y-19099D01*
X431746Y-19048D01*
X431768Y-19001D01*
X431775Y-18930D01*
X431793Y-18860D01*
X431789Y-18808D01*
X431795Y-18757D01*
X431779Y-18686D01*
X431774Y-18615D01*
X431754Y-18567D01*
X431742Y-18516D01*
X431706Y-18455D01*
X431678Y-18389D01*
X431633Y-18333D01*
X431616Y-18305D01*
X431598Y-18290D01*
X431573Y-18258D01*
X429606Y-16291D01*
X428299Y-13137D01*
X428299Y-9723D01*
X429606Y-6569D01*
X432019Y-4156D01*
X435173Y-2849D01*
X438587Y-2849D01*
X441741Y-4156D01*
X444154Y-6569D01*
X445461Y-9723D01*
X445461Y-13137D01*
X444154Y-16291D01*
X442187Y-18258D01*
X442145Y-18316D01*
X442096Y-18368D01*
X442074Y-18415D01*
X442044Y-18457D01*
X442023Y-18526D01*
X441992Y-18591D01*
X441987Y-18643D01*
X441971Y-18693D01*
X441973Y-18764D01*
X441965Y-18835D01*
X441976Y-18886D01*
X441978Y-18938D01*
X442002Y-19006D01*
X442018Y-19076D01*
X442044Y-19121D01*
X442062Y-19169D01*
X442107Y-19225D01*
X442144Y-19287D01*
X442183Y-19321D01*
X442216Y-19361D01*
X442276Y-19400D01*
X442331Y-19447D01*
X442379Y-19466D01*
X442423Y-19494D01*
X442492Y-19512D01*
X442559Y-19539D01*
X442630Y-19547D01*
X442661Y-19555D01*
X442685Y-19553D01*
X442726Y-19557D01*
X444087Y-19557D01*
X444177Y-19543D01*
X444268Y-19535D01*
X444297Y-19523D01*
X444329Y-19518D01*
X444410Y-19475D01*
X444494Y-19439D01*
X444526Y-19413D01*
X444547Y-19402D01*
X444569Y-19379D01*
X444625Y-19334D01*
X448007Y-15952D01*
X448075Y-15858D01*
X448145Y-15764D01*
X448147Y-15758D01*
X448150Y-15753D01*
X448185Y-15642D01*
X448221Y-15530D01*
X448221Y-15524D01*
X448223Y-15518D01*
X448220Y-15401D01*
X448219Y-15284D01*
X448217Y-15277D01*
X448216Y-15272D01*
X448210Y-15254D01*
X448172Y-15123D01*
X447349Y-13137D01*
X447349Y-9723D01*
X448656Y-6569D01*
X451069Y-4156D01*
X454223Y-2849D01*
X457637Y-2849D01*
X460791Y-4156D01*
X463204Y-6569D01*
X464511Y-9723D01*
X464511Y-13137D01*
X463204Y-16291D01*
X460791Y-18704D01*
X457637Y-20011D01*
X454223Y-20011D01*
X454033Y-19932D01*
X453920Y-19906D01*
X453806Y-19877D01*
X453800Y-19877D01*
X453794Y-19876D01*
X453677Y-19887D01*
X453561Y-19896D01*
X453555Y-19898D01*
X453549Y-19899D01*
X453441Y-19947D01*
X453335Y-19992D01*
X453329Y-19997D01*
X453324Y-19999D01*
X453310Y-20012D01*
X453204Y-20097D01*
X447903Y-25398D01*
X447861Y-25456D01*
X447812Y-25508D01*
X447790Y-25555D01*
X447759Y-25597D01*
X447738Y-25666D01*
X447708Y-25731D01*
X447702Y-25783D01*
X447687Y-25833D01*
X447689Y-25904D01*
X447681Y-25975D01*
X447692Y-26026D01*
X447693Y-26078D01*
X447718Y-26146D01*
X447733Y-26216D01*
X447760Y-26260D01*
X447778Y-26309D01*
X447823Y-26365D01*
X447860Y-26427D01*
X447899Y-26461D01*
X447932Y-26501D01*
X447992Y-26540D01*
X448046Y-26587D01*
X448095Y-26606D01*
X448139Y-26634D01*
X448208Y-26652D01*
X448275Y-26679D01*
X448346Y-26687D01*
X448377Y-26695D01*
X448400Y-26693D01*
X448441Y-26697D01*
X467300Y-26697D01*
X467326Y-26693D01*
X467375Y-26694D01*
X469059Y-26528D01*
X469087Y-26520D01*
X469115Y-26520D01*
X469276Y-26473D01*
X472389Y-25184D01*
X472445Y-25149D01*
X472505Y-25124D01*
X472570Y-25072D01*
X472598Y-25054D01*
X472611Y-25039D01*
X472636Y-25019D01*
X475019Y-22636D01*
X475057Y-22583D01*
X475103Y-22536D01*
X475143Y-22463D01*
X475162Y-22436D01*
X475168Y-22418D01*
X475184Y-22389D01*
X476473Y-19276D01*
X476480Y-19249D01*
X476493Y-19224D01*
X476528Y-19059D01*
X476694Y-17375D01*
X476692Y-17348D01*
X476697Y-17300D01*
X476697Y17300D01*
X476693Y17326D01*
X476694Y17375D01*
X476528Y19059D01*
X476520Y19087D01*
X476520Y19115D01*
X476473Y19276D01*
X475184Y22389D01*
X475149Y22445D01*
X475124Y22505D01*
X475072Y22570D01*
X475054Y22598D01*
X475039Y22611D01*
X475019Y22636D01*
X472636Y25019D01*
X472583Y25057D01*
X472536Y25103D01*
X472463Y25143D01*
X472436Y25162D01*
X472418Y25168D01*
X472389Y25184D01*
X469276Y26473D01*
X469249Y26480D01*
X469224Y26493D01*
X469059Y26528D01*
X467375Y26694D01*
X467348Y26692D01*
X467300Y26697D01*
X383528Y26697D01*
X370960Y29795D01*
X359498Y35811D01*
X349809Y44394D01*
X342456Y55047D01*
X337866Y67150D01*
X336306Y80000D01*
X337866Y92850D01*
X342456Y104953D01*
X349809Y115606D01*
X359498Y124189D01*
X370960Y130205D01*
X383528Y133303D01*
X467300Y133303D01*
X467326Y133307D01*
X467375Y133306D01*
X469059Y133472D01*
X469087Y133480D01*
X469115Y133480D01*
X469276Y133527D01*
X472389Y134816D01*
X472445Y134851D01*
X472505Y134876D01*
X472570Y134928D01*
X472598Y134946D01*
X472611Y134961D01*
X472636Y134981D01*
X475019Y137364D01*
X475057Y137417D01*
X475103Y137464D01*
X475143Y137537D01*
X475162Y137564D01*
X475168Y137582D01*
X475184Y137611D01*
X476473Y140724D01*
X476480Y140751D01*
X476493Y140776D01*
X476528Y140941D01*
X476694Y142625D01*
X476692Y142652D01*
X476697Y142700D01*
X476697Y149871D01*
X476694Y149890D01*
X476696Y149909D01*
X476674Y150011D01*
X476658Y150114D01*
X476649Y150131D01*
X476645Y150149D01*
X476591Y150239D01*
X476542Y150332D01*
X476529Y150344D01*
X476519Y150361D01*
X476440Y150429D01*
X476364Y150501D01*
X476347Y150509D01*
X476333Y150521D01*
X476236Y150560D01*
X476141Y150605D01*
X476122Y150607D01*
X476105Y150614D01*
X475938Y150633D01*
X462374Y150671D01*
X462353Y150667D01*
X462333Y150670D01*
X462232Y150648D01*
X462131Y150632D01*
X462113Y150622D01*
X462092Y150617D01*
X462004Y150565D01*
X461914Y150517D01*
X461899Y150502D01*
X461881Y150491D01*
X461815Y150413D01*
X461744Y150339D01*
X461735Y150320D01*
X461721Y150304D01*
X461683Y150209D01*
X461639Y150116D01*
X461637Y150096D01*
X461629Y150076D01*
X461611Y149909D01*
X461611Y144846D01*
X461438Y144199D01*
X461103Y143620D01*
X460630Y143147D01*
X460051Y142812D01*
X459404Y142639D01*
X457093Y142639D01*
X457093Y149926D01*
X457091Y149941D01*
X457092Y149952D01*
X457091Y149956D01*
X457092Y149964D01*
X457070Y150066D01*
X457053Y150169D01*
X457045Y150186D01*
X457041Y150204D01*
X456987Y150294D01*
X456938Y150386D01*
X456925Y150399D01*
X456915Y150416D01*
X456836Y150484D01*
X456760Y150556D01*
X456743Y150564D01*
X456729Y150576D01*
X456632Y150615D01*
X456537Y150659D01*
X456518Y150661D01*
X456501Y150669D01*
X456334Y150688D01*
X454810Y150692D01*
X454789Y150688D01*
X454769Y150691D01*
X454668Y150669D01*
X454567Y150653D01*
X454549Y150643D01*
X454528Y150639D01*
X454440Y150586D01*
X454350Y150538D01*
X454335Y150523D01*
X454317Y150512D01*
X454251Y150435D01*
X454180Y150360D01*
X454171Y150341D01*
X454157Y150325D01*
X454119Y150230D01*
X454075Y150138D01*
X454073Y150117D01*
X454065Y150097D01*
X454047Y149931D01*
X454047Y142639D01*
X451736Y142639D01*
X451089Y142812D01*
X450510Y143147D01*
X450037Y143620D01*
X449702Y144199D01*
X449529Y144846D01*
X449529Y149947D01*
X449526Y149966D01*
X449528Y149985D01*
X449506Y150087D01*
X449490Y150190D01*
X449481Y150207D01*
X449477Y150225D01*
X449423Y150316D01*
X449374Y150408D01*
X449361Y150421D01*
X449351Y150437D01*
X449272Y150505D01*
X449196Y150577D01*
X449179Y150585D01*
X449165Y150597D01*
X449068Y150637D01*
X448973Y150681D01*
X448954Y150683D01*
X448937Y150690D01*
X448770Y150709D01*
X431866Y150756D01*
X431845Y150753D01*
X431825Y150755D01*
X431724Y150733D01*
X431623Y150717D01*
X431605Y150707D01*
X431584Y150703D01*
X431496Y150650D01*
X431406Y150603D01*
X431391Y150587D01*
X431373Y150577D01*
X431307Y150499D01*
X431236Y150425D01*
X431227Y150406D01*
X431213Y150390D01*
X431175Y150295D01*
X431131Y150202D01*
X431129Y150181D01*
X431121Y150161D01*
X431103Y149995D01*
X431103Y144338D01*
X429912Y143147D01*
X425246Y143147D01*
X425226Y143144D01*
X425207Y143146D01*
X425105Y143124D01*
X425003Y143108D01*
X424986Y143098D01*
X424966Y143094D01*
X424877Y143041D01*
X424786Y142992D01*
X424772Y142978D01*
X424755Y142968D01*
X424688Y142889D01*
X424616Y142814D01*
X424608Y142796D01*
X424595Y142781D01*
X424556Y142685D01*
X424513Y142591D01*
X424511Y142571D01*
X424503Y142553D01*
X424485Y142386D01*
X424485Y141392D01*
X418220Y135127D01*
X352729Y135127D01*
X352639Y135113D01*
X352548Y135105D01*
X352519Y135093D01*
X352487Y135088D01*
X352406Y135045D01*
X352322Y135009D01*
X352290Y134983D01*
X352269Y134972D01*
X352247Y134949D01*
X352191Y134904D01*
X329916Y112629D01*
X329863Y112555D01*
X329803Y112485D01*
X329791Y112455D01*
X329772Y112429D01*
X329745Y112342D01*
X329711Y112257D01*
X329707Y112216D01*
X329700Y112194D01*
X329701Y112162D01*
X329693Y112091D01*
X329693Y36499D01*
X329707Y36409D01*
X329715Y36318D01*
X329727Y36289D01*
X329732Y36257D01*
X329775Y36176D01*
X329811Y36092D01*
X329837Y36060D01*
X329848Y36039D01*
X329871Y36017D01*
X329876Y36011D01*
X329885Y35996D01*
X329895Y35987D01*
X329916Y35961D01*
X349651Y16226D01*
X349725Y16173D01*
X349795Y16113D01*
X349825Y16101D01*
X349851Y16082D01*
X349938Y16055D01*
X350023Y16021D01*
X350064Y16017D01*
X350086Y16010D01*
X350118Y16011D01*
X350189Y16003D01*
X351935Y16003D01*
X354549Y14920D01*
X356550Y12919D01*
X357633Y10305D01*
X357633Y7475D01*
X356550Y4861D01*
X354549Y2860D01*
X351935Y1777D01*
X349105Y1777D01*
X346491Y2860D01*
X344490Y4861D01*
X343407Y7475D01*
X343407Y9221D01*
X343393Y9311D01*
X343385Y9402D01*
X343373Y9431D01*
X343368Y9463D01*
X343325Y9544D01*
X343289Y9628D01*
X343263Y9660D01*
X343252Y9681D01*
X343229Y9703D01*
X343184Y9759D01*
X323449Y29494D01*
X321243Y31700D01*
X321227Y31712D01*
X321214Y31727D01*
X321151Y31768D01*
X321104Y31809D01*
X321077Y31819D01*
X321043Y31844D01*
X321024Y31850D01*
X321007Y31860D01*
X320921Y31882D01*
X320876Y31901D01*
X320849Y31903D01*
X320808Y31916D01*
X320788Y31916D01*
X320769Y31920D01*
X320726Y31917D01*
X320709Y31919D01*
X320701Y31919D01*
X320659Y31912D01*
X320562Y31910D01*
X320544Y31903D01*
X320524Y31901D01*
X320481Y31883D01*
X320458Y31879D01*
X320411Y31854D01*
X320331Y31825D01*
X320316Y31813D01*
X320297Y31805D01*
X320258Y31774D01*
X320240Y31764D01*
X320222Y31744D01*
X320166Y31700D01*
X318522Y30056D01*
X318133Y29895D01*
X318072Y29857D01*
X318007Y29828D01*
X317968Y29793D01*
X317924Y29765D01*
X317879Y29710D01*
X317826Y29662D01*
X317801Y29616D01*
X317767Y29576D01*
X317742Y29509D01*
X317707Y29446D01*
X317698Y29395D01*
X317679Y29346D01*
X317676Y29275D01*
X317663Y29204D01*
X317671Y29153D01*
X317669Y29101D01*
X317689Y29032D01*
X317699Y28961D01*
X317723Y28914D01*
X317737Y28864D01*
X317778Y28805D01*
X317811Y28741D01*
X317848Y28705D01*
X317878Y28662D01*
X317935Y28619D01*
X317986Y28569D01*
X318049Y28535D01*
X318075Y28515D01*
X318097Y28508D01*
X318133Y28488D01*
X318522Y28327D01*
X320309Y26541D01*
X321276Y24207D01*
X321276Y21680D01*
X320309Y19346D01*
X318418Y17455D01*
X318363Y17379D01*
X318303Y17307D01*
X318292Y17279D01*
X318275Y17256D01*
X318247Y17166D01*
X318213Y17078D01*
X318211Y17049D01*
X318202Y17021D01*
X318205Y16926D01*
X318200Y16832D01*
X318208Y16804D01*
X318209Y16775D01*
X318241Y16686D01*
X318267Y16595D01*
X318283Y16571D01*
X318293Y16544D01*
X318352Y16470D01*
X318405Y16392D01*
X318434Y16368D01*
X318447Y16352D01*
X318475Y16334D01*
X318534Y16284D01*
X319297Y15774D01*
X320252Y14819D01*
X321003Y13695D01*
X321520Y12447D01*
X321615Y11970D01*
X310480Y11970D01*
X310460Y11966D01*
X310441Y11969D01*
X310339Y11947D01*
X310237Y11930D01*
X310220Y11921D01*
X310200Y11916D01*
X310111Y11863D01*
X310020Y11815D01*
X310006Y11800D01*
X309989Y11790D01*
X309922Y11711D01*
X309851Y11636D01*
X309842Y11618D01*
X309829Y11603D01*
X309790Y11507D01*
X309747Y11413D01*
X309745Y11394D01*
X309737Y11375D01*
X309719Y11208D01*
X309719Y9685D01*
X309722Y9665D01*
X309720Y9645D01*
X309742Y9544D01*
X309759Y9442D01*
X309768Y9424D01*
X309772Y9405D01*
X309825Y9316D01*
X309874Y9224D01*
X309888Y9211D01*
X309898Y9194D01*
X309977Y9126D01*
X310052Y9055D01*
X310070Y9047D01*
X310085Y9034D01*
X310181Y8995D01*
X310275Y8951D01*
X310295Y8949D01*
X310313Y8942D01*
X310480Y8923D01*
X321615Y8923D01*
X321520Y8446D01*
X320997Y7182D01*
X320986Y7137D01*
X320967Y7095D01*
X320958Y7018D01*
X320940Y6942D01*
X320945Y6897D01*
X320940Y6851D01*
X320956Y6775D01*
X320963Y6697D01*
X320982Y6656D01*
X320992Y6611D01*
X321032Y6544D01*
X321063Y6473D01*
X321095Y6439D01*
X321118Y6400D01*
X321177Y6349D01*
X321230Y6292D01*
X321270Y6269D01*
X321305Y6240D01*
X321377Y6211D01*
X321445Y6173D01*
X321491Y6165D01*
X321533Y6148D01*
X321669Y6133D01*
X321687Y6129D01*
X321692Y6130D01*
X321700Y6129D01*
X330778Y6129D01*
X333679Y3228D01*
X334244Y2662D01*
X334340Y2594D01*
X334433Y2525D01*
X334439Y2523D01*
X334444Y2519D01*
X334555Y2485D01*
X334667Y2448D01*
X334673Y2448D01*
X334679Y2447D01*
X334796Y2450D01*
X334913Y2451D01*
X334920Y2453D01*
X334925Y2453D01*
X334942Y2459D01*
X335074Y2497D01*
X336506Y3091D01*
X341054Y3091D01*
X345255Y1350D01*
X348470Y-1865D01*
X350211Y-6066D01*
X350211Y-10614D01*
X348470Y-14815D01*
X345255Y-18030D01*
X341054Y-19771D01*
X336506Y-19771D01*
X332305Y-18030D01*
X329090Y-14815D01*
X327349Y-10614D01*
X327349Y-6066D01*
X327943Y-4634D01*
X327969Y-4520D01*
X327998Y-4407D01*
X327997Y-4401D01*
X327999Y-4394D01*
X327988Y-4278D01*
X327979Y-4162D01*
X327976Y-4156D01*
X327976Y-4150D01*
X327928Y-4043D01*
X327882Y-3935D01*
X327878Y-3929D01*
X327876Y-3925D01*
X327863Y-3911D01*
X327778Y-3804D01*
X327212Y-3239D01*
X327138Y-3186D01*
X327069Y-3127D01*
X327039Y-3115D01*
X327013Y-3096D01*
X326926Y-3069D01*
X326841Y-3035D01*
X326800Y-3030D01*
X326778Y-3023D01*
X326745Y-3024D01*
X326674Y-3016D01*
X298935Y-3016D01*
X296033Y-115D01*
X293950Y1968D01*
X291048Y4870D01*
X291048Y46838D01*
X291029Y46953D01*
X291012Y47069D01*
X291010Y47075D01*
X291009Y47081D01*
X290954Y47183D01*
X290901Y47288D01*
X290896Y47293D01*
X290893Y47298D01*
X290809Y47378D01*
X290725Y47461D01*
X290719Y47464D01*
X290715Y47468D01*
X290698Y47476D01*
X290578Y47542D01*
X288071Y48580D01*
X287095Y49556D01*
X287016Y49613D01*
X286941Y49675D01*
X286917Y49684D01*
X286895Y49700D01*
X286802Y49728D01*
X286711Y49763D01*
X286685Y49764D01*
X286660Y49772D01*
X286563Y49769D01*
X286466Y49774D01*
X286440Y49766D01*
X286414Y49766D01*
X286323Y49732D01*
X286229Y49705D01*
X286208Y49690D01*
X286183Y49681D01*
X286107Y49620D01*
X286027Y49565D01*
X286012Y49544D01*
X285991Y49527D01*
X285939Y49446D01*
X285881Y49367D01*
X285872Y49343D01*
X285858Y49321D01*
X285834Y49226D01*
X285804Y49134D01*
X285805Y49107D01*
X285798Y49082D01*
X285806Y48985D01*
X285807Y48888D01*
X285816Y48856D01*
X285817Y48837D01*
X285830Y48806D01*
X285853Y48726D01*
X286513Y47135D01*
X286513Y44305D01*
X285430Y41691D01*
X283429Y39690D01*
X283131Y39567D01*
X283092Y39542D01*
X283049Y39527D01*
X282988Y39478D01*
X282922Y39437D01*
X282893Y39402D01*
X282857Y39373D01*
X282815Y39308D01*
X282765Y39248D01*
X282749Y39205D01*
X282724Y39166D01*
X282705Y39091D01*
X282677Y39018D01*
X282675Y38972D01*
X282664Y38928D01*
X282670Y38850D01*
X282666Y38772D01*
X282679Y38728D01*
X282683Y38682D01*
X282713Y38611D01*
X282735Y38536D01*
X282761Y38498D01*
X282779Y38456D01*
X282864Y38349D01*
X282875Y38334D01*
X282879Y38331D01*
X282884Y38325D01*
X284160Y37049D01*
X285243Y34435D01*
X285243Y31605D01*
X284160Y28991D01*
X282159Y26990D01*
X279545Y25907D01*
X276715Y25907D01*
X274101Y26990D01*
X272100Y28991D01*
X271017Y31605D01*
X271017Y34435D01*
X271123Y34691D01*
X271133Y34732D01*
X271146Y34759D01*
X271151Y34809D01*
X271179Y34918D01*
X271178Y34925D01*
X271180Y34931D01*
X271169Y35047D01*
X271160Y35164D01*
X271157Y35169D01*
X271157Y35176D01*
X271109Y35283D01*
X271063Y35390D01*
X271059Y35396D01*
X271057Y35400D01*
X271044Y35414D01*
X270958Y35521D01*
X245015Y61465D01*
X245015Y116351D01*
X244996Y116465D01*
X244979Y116582D01*
X244976Y116587D01*
X244975Y116593D01*
X244921Y116695D01*
X244867Y116801D01*
X244863Y116805D01*
X244860Y116811D01*
X244775Y116891D01*
X244692Y116973D01*
X244685Y116977D01*
X244681Y116980D01*
X244664Y116988D01*
X244545Y117054D01*
X244288Y117160D01*
X242288Y119161D01*
X241205Y121775D01*
X241205Y124605D01*
X242288Y127219D01*
X244288Y129220D01*
X246903Y130303D01*
X249732Y130303D01*
X252346Y129220D01*
X254347Y127219D01*
X255430Y124605D01*
X255430Y121775D01*
X254347Y119161D01*
X252346Y117160D01*
X252090Y117054D01*
X251991Y116993D01*
X251890Y116932D01*
X251886Y116928D01*
X251881Y116924D01*
X251806Y116834D01*
X251731Y116746D01*
X251728Y116740D01*
X251724Y116735D01*
X251683Y116627D01*
X251639Y116517D01*
X251638Y116510D01*
X251636Y116505D01*
X251635Y116487D01*
X251620Y116351D01*
X251620Y64516D01*
X251635Y64426D01*
X251642Y64335D01*
X251655Y64305D01*
X251660Y64273D01*
X251703Y64193D01*
X251738Y64109D01*
X251764Y64077D01*
X251775Y64056D01*
X251798Y64034D01*
X251843Y63978D01*
X270988Y44833D01*
X271046Y44791D01*
X271098Y44742D01*
X271145Y44720D01*
X271187Y44689D01*
X271256Y44668D01*
X271321Y44638D01*
X271373Y44632D01*
X271423Y44617D01*
X271494Y44619D01*
X271565Y44611D01*
X271616Y44622D01*
X271668Y44623D01*
X271736Y44648D01*
X271806Y44663D01*
X271851Y44690D01*
X271899Y44708D01*
X271955Y44753D01*
X272017Y44790D01*
X272051Y44829D01*
X272091Y44862D01*
X272130Y44922D01*
X272177Y44976D01*
X272196Y45025D01*
X272224Y45069D01*
X272242Y45138D01*
X272269Y45205D01*
X272277Y45276D01*
X272285Y45307D01*
X272283Y45330D01*
X272287Y45371D01*
X272287Y47135D01*
X272393Y47391D01*
X272420Y47504D01*
X272449Y47618D01*
X272448Y47625D01*
X272450Y47631D01*
X272439Y47747D01*
X272430Y47864D01*
X272427Y47869D01*
X272427Y47876D01*
X272379Y47983D01*
X272333Y48090D01*
X272329Y48096D01*
X272327Y48100D01*
X272314Y48114D01*
X272228Y48221D01*
X271683Y48767D01*
X271650Y48790D01*
X271624Y48820D01*
X271551Y48861D01*
X271483Y48910D01*
X271445Y48922D01*
X271410Y48942D01*
X271249Y48982D01*
X271248Y48982D01*
X270587Y49852D01*
X270564Y49874D01*
X270520Y49930D01*
X269747Y50702D01*
X269741Y50740D01*
X269743Y50780D01*
X269721Y50861D01*
X269708Y50944D01*
X269689Y50979D01*
X269678Y51018D01*
X269593Y51160D01*
X269593Y51161D01*
X269740Y52243D01*
X269739Y52275D01*
X269747Y52346D01*
X269747Y53438D01*
X269770Y53470D01*
X269800Y53496D01*
X269840Y53566D01*
X269840Y53567D01*
X269841Y53569D01*
X269890Y53637D01*
X269902Y53675D01*
X269922Y53710D01*
X269939Y53780D01*
X269944Y53790D01*
X269946Y53806D01*
X269962Y53871D01*
X269962Y53872D01*
X269963Y53873D01*
X280289Y129597D01*
X280288Y129617D01*
X280293Y129636D01*
X280285Y129739D01*
X280282Y129843D01*
X280275Y129862D01*
X280274Y129881D01*
X280233Y129977D01*
X280197Y130074D01*
X280185Y130089D01*
X280177Y130108D01*
X280073Y130238D01*
X278450Y131861D01*
X277367Y134475D01*
X277367Y137305D01*
X278450Y139919D01*
X280451Y141920D01*
X283065Y143003D01*
X285895Y143003D01*
X288509Y141920D01*
X290510Y139919D01*
X291593Y137305D01*
X291593Y134475D01*
X290510Y131861D01*
X288509Y129860D01*
X287304Y129361D01*
X287248Y129326D01*
X287188Y129300D01*
X287144Y129262D01*
X287095Y129231D01*
X287053Y129181D01*
X287004Y129137D01*
X286975Y129087D01*
X286938Y129042D01*
X286915Y128980D01*
X286882Y128923D01*
X286862Y128843D01*
X286850Y128812D01*
X286849Y128793D01*
X286841Y128761D01*
X276595Y53621D01*
X276595Y53601D01*
X276591Y53582D01*
X276599Y53479D01*
X276601Y53375D01*
X276608Y53357D01*
X276610Y53337D01*
X276650Y53242D01*
X276686Y53144D01*
X276698Y53129D01*
X276706Y53111D01*
X276811Y52980D01*
X276899Y52892D01*
X276994Y52823D01*
X277088Y52754D01*
X277094Y52752D01*
X277099Y52748D01*
X277210Y52714D01*
X277322Y52677D01*
X277328Y52677D01*
X277334Y52676D01*
X277451Y52679D01*
X277568Y52680D01*
X277575Y52682D01*
X277580Y52682D01*
X277598Y52688D01*
X277729Y52727D01*
X277985Y52833D01*
X280815Y52833D01*
X283429Y51750D01*
X284405Y50774D01*
X284484Y50717D01*
X284559Y50655D01*
X284583Y50646D01*
X284605Y50630D01*
X284698Y50602D01*
X284789Y50567D01*
X284815Y50566D01*
X284840Y50558D01*
X284937Y50561D01*
X285034Y50556D01*
X285060Y50564D01*
X285086Y50564D01*
X285177Y50598D01*
X285271Y50625D01*
X285292Y50640D01*
X285317Y50649D01*
X285393Y50710D01*
X285473Y50765D01*
X285488Y50786D01*
X285509Y50803D01*
X285561Y50884D01*
X285619Y50963D01*
X285628Y50987D01*
X285642Y51009D01*
X285666Y51104D01*
X285696Y51196D01*
X285695Y51223D01*
X285702Y51248D01*
X285694Y51345D01*
X285693Y51442D01*
X285684Y51474D01*
X285683Y51493D01*
X285670Y51524D01*
X285647Y51604D01*
X284987Y53195D01*
X284987Y56025D01*
X286070Y58639D01*
X288071Y60640D01*
X290685Y61723D01*
X293515Y61723D01*
X296129Y60640D01*
X296861Y59908D01*
X296919Y59866D01*
X296971Y59817D01*
X297018Y59795D01*
X297060Y59765D01*
X297129Y59744D01*
X297194Y59713D01*
X297246Y59708D01*
X297296Y59692D01*
X297367Y59694D01*
X297438Y59686D01*
X297489Y59697D01*
X297541Y59699D01*
X297609Y59723D01*
X297679Y59738D01*
X297724Y59765D01*
X297772Y59783D01*
X297828Y59828D01*
X297890Y59865D01*
X297924Y59904D01*
X297964Y59937D01*
X298003Y59997D01*
X298050Y60052D01*
X298069Y60100D01*
X298097Y60144D01*
X298115Y60213D01*
X298142Y60280D01*
X298150Y60351D01*
X298158Y60382D01*
X298156Y60406D01*
X298160Y60446D01*
X298160Y61697D01*
X299127Y64031D01*
X300914Y65818D01*
X301303Y65979D01*
X301364Y66017D01*
X301429Y66046D01*
X301467Y66081D01*
X301512Y66108D01*
X301558Y66164D01*
X301610Y66212D01*
X301635Y66258D01*
X301669Y66298D01*
X301694Y66365D01*
X301729Y66428D01*
X301738Y66479D01*
X301757Y66527D01*
X301760Y66599D01*
X301773Y66670D01*
X301765Y66721D01*
X301767Y66773D01*
X301747Y66842D01*
X301737Y66913D01*
X301713Y66959D01*
X301699Y67009D01*
X301658Y67068D01*
X301625Y67132D01*
X301588Y67169D01*
X301558Y67211D01*
X301501Y67254D01*
X301450Y67304D01*
X301387Y67339D01*
X301361Y67358D01*
X301339Y67365D01*
X301303Y67385D01*
X300914Y67547D01*
X299127Y69333D01*
X298160Y71667D01*
X298160Y74194D01*
X299127Y76528D01*
X300914Y78314D01*
X301303Y78475D01*
X301364Y78513D01*
X301429Y78542D01*
X301467Y78578D01*
X301512Y78605D01*
X301558Y78660D01*
X301610Y78709D01*
X301635Y78754D01*
X301669Y78795D01*
X301694Y78862D01*
X301729Y78924D01*
X301738Y78976D01*
X301757Y79024D01*
X301760Y79096D01*
X301773Y79166D01*
X301765Y79218D01*
X301767Y79270D01*
X301747Y79339D01*
X301737Y79410D01*
X301713Y79456D01*
X301699Y79506D01*
X301658Y79565D01*
X301625Y79629D01*
X301588Y79665D01*
X301558Y79708D01*
X301501Y79751D01*
X301450Y79801D01*
X301387Y79836D01*
X301361Y79855D01*
X301339Y79862D01*
X301303Y79882D01*
X300914Y80043D01*
X299127Y81830D01*
X298160Y84164D01*
X298160Y86690D01*
X299127Y89025D01*
X300914Y90811D01*
X301303Y90972D01*
X301364Y91010D01*
X301429Y91039D01*
X301467Y91074D01*
X301512Y91102D01*
X301558Y91157D01*
X301610Y91206D01*
X301635Y91251D01*
X301669Y91291D01*
X301694Y91358D01*
X301729Y91421D01*
X301738Y91472D01*
X301757Y91521D01*
X301760Y91593D01*
X301773Y91663D01*
X301765Y91715D01*
X301767Y91767D01*
X301747Y91836D01*
X301737Y91907D01*
X301713Y91953D01*
X301699Y92003D01*
X301658Y92062D01*
X301625Y92126D01*
X301588Y92162D01*
X301558Y92205D01*
X301501Y92248D01*
X301450Y92298D01*
X301387Y92333D01*
X301361Y92352D01*
X301339Y92359D01*
X301303Y92379D01*
X300914Y92540D01*
X299127Y94327D01*
X298160Y96661D01*
X298160Y99187D01*
X299127Y101521D01*
X300914Y103308D01*
X301303Y103469D01*
X301364Y103507D01*
X301429Y103536D01*
X301467Y103571D01*
X301512Y103599D01*
X301558Y103654D01*
X301610Y103702D01*
X301635Y103748D01*
X301669Y103788D01*
X301694Y103855D01*
X301729Y103918D01*
X301738Y103969D01*
X301757Y104018D01*
X301760Y104089D01*
X301773Y104160D01*
X301765Y104211D01*
X301767Y104264D01*
X301747Y104332D01*
X301737Y104403D01*
X301713Y104450D01*
X301699Y104500D01*
X301658Y104559D01*
X301625Y104623D01*
X301588Y104659D01*
X301558Y104702D01*
X301501Y104745D01*
X301450Y104795D01*
X301387Y104829D01*
X301361Y104849D01*
X301339Y104856D01*
X301303Y104876D01*
X300914Y105037D01*
X299127Y106823D01*
X298160Y109158D01*
X298160Y111684D01*
X299127Y114018D01*
X300914Y115805D01*
X301303Y115966D01*
X301364Y116004D01*
X301429Y116033D01*
X301467Y116068D01*
X301512Y116095D01*
X301558Y116151D01*
X301610Y116199D01*
X301635Y116245D01*
X301669Y116285D01*
X301694Y116352D01*
X301729Y116415D01*
X301738Y116466D01*
X301757Y116515D01*
X301760Y116586D01*
X301773Y116657D01*
X301765Y116708D01*
X301767Y116760D01*
X301747Y116829D01*
X301737Y116900D01*
X301713Y116947D01*
X301699Y116997D01*
X301658Y117055D01*
X301625Y117119D01*
X301588Y117156D01*
X301558Y117199D01*
X301501Y117241D01*
X301450Y117292D01*
X301387Y117326D01*
X301361Y117345D01*
X301339Y117353D01*
X301303Y117372D01*
X300914Y117534D01*
X299127Y119320D01*
X298160Y121654D01*
X298160Y124181D01*
X299127Y126515D01*
X300914Y128301D01*
X301303Y128463D01*
X301364Y128500D01*
X301429Y128530D01*
X301467Y128565D01*
X301512Y128592D01*
X301558Y128648D01*
X301610Y128696D01*
X301635Y128742D01*
X301669Y128782D01*
X301694Y128849D01*
X301729Y128911D01*
X301738Y128963D01*
X301757Y129011D01*
X301760Y129083D01*
X301773Y129154D01*
X301765Y129205D01*
X301767Y129257D01*
X301747Y129326D01*
X301737Y129397D01*
X301713Y129443D01*
X301699Y129493D01*
X301658Y129552D01*
X301625Y129616D01*
X301588Y129653D01*
X301558Y129695D01*
X301501Y129738D01*
X301450Y129788D01*
X301387Y129823D01*
X301361Y129842D01*
X301339Y129849D01*
X301303Y129869D01*
X300914Y130030D01*
X299127Y131817D01*
X298160Y134151D01*
X298160Y136678D01*
X299127Y139012D01*
X301018Y140902D01*
X301073Y140979D01*
X301133Y141051D01*
X301144Y141078D01*
X301161Y141102D01*
X301189Y141192D01*
X301223Y141280D01*
X301225Y141309D01*
X301234Y141337D01*
X301231Y141431D01*
X301236Y141526D01*
X301228Y141554D01*
X301227Y141583D01*
X301195Y141672D01*
X301169Y141762D01*
X301153Y141786D01*
X301143Y141814D01*
X301084Y141888D01*
X301031Y141965D01*
X301002Y141989D01*
X300989Y142006D01*
X300961Y142024D01*
X300902Y142073D01*
X300139Y142584D01*
X299184Y143539D01*
X298433Y144662D01*
X297916Y145910D01*
X297821Y146388D01*
X308956Y146388D01*
X308976Y146391D01*
X308995Y146389D01*
X309097Y146411D01*
X309199Y146428D01*
X309216Y146437D01*
X309236Y146441D01*
X309325Y146494D01*
X309416Y146543D01*
X309430Y146557D01*
X309447Y146567D01*
X309514Y146646D01*
X309585Y146721D01*
X309594Y146739D01*
X309607Y146754D01*
X309646Y146850D01*
X309689Y146944D01*
X309691Y146964D01*
X309699Y146982D01*
X309717Y147149D01*
X309717Y148673D01*
X309714Y148693D01*
X309716Y148712D01*
X309694Y148814D01*
X309677Y148916D01*
X309668Y148933D01*
X309664Y148953D01*
X309611Y149042D01*
X309562Y149133D01*
X309548Y149147D01*
X309538Y149164D01*
X309459Y149231D01*
X309384Y149303D01*
X309366Y149311D01*
X309351Y149324D01*
X309255Y149363D01*
X309161Y149406D01*
X309141Y149408D01*
X309123Y149416D01*
X308956Y149434D01*
X297821Y149434D01*
X297904Y149851D01*
X297907Y149946D01*
X297917Y150039D01*
X297911Y150068D01*
X297912Y150097D01*
X297885Y150188D01*
X297865Y150280D01*
X297850Y150305D01*
X297842Y150333D01*
X297787Y150410D01*
X297739Y150491D01*
X297717Y150510D01*
X297700Y150534D01*
X297624Y150590D01*
X297552Y150651D01*
X297525Y150662D01*
X297501Y150679D01*
X297412Y150707D01*
X297324Y150743D01*
X297287Y150747D01*
X297267Y150753D01*
X297234Y150753D01*
X297157Y150761D01*
X185871Y150761D01*
X185778Y150746D01*
X185684Y150738D01*
X185657Y150726D01*
X185628Y150722D01*
X185545Y150677D01*
X185458Y150640D01*
X185436Y150620D01*
X185411Y150606D01*
X185346Y150538D01*
X185276Y150475D01*
X185261Y150449D01*
X185241Y150428D01*
X185201Y150343D01*
X185155Y150260D01*
X185150Y150232D01*
X185138Y150205D01*
X185127Y150111D01*
X185110Y150019D01*
X185113Y149982D01*
X185110Y149961D01*
X185117Y149929D01*
X185124Y149851D01*
X185217Y149384D01*
X174082Y149384D01*
X174062Y149380D01*
X174043Y149383D01*
X173941Y149361D01*
X173839Y149344D01*
X173822Y149335D01*
X173802Y149330D01*
X173713Y149277D01*
X173622Y149229D01*
X173608Y149214D01*
X173591Y149204D01*
X173524Y149125D01*
X173453Y149050D01*
X173444Y149032D01*
X173431Y149017D01*
X173392Y148921D01*
X173349Y148827D01*
X173347Y148808D01*
X173339Y148789D01*
X173321Y148622D01*
X173321Y147099D01*
X173324Y147079D01*
X173322Y147059D01*
X173344Y146958D01*
X173361Y146856D01*
X173370Y146838D01*
X173374Y146819D01*
X173427Y146730D01*
X173476Y146638D01*
X173490Y146625D01*
X173500Y146608D01*
X173579Y146540D01*
X173654Y146469D01*
X173672Y146461D01*
X173687Y146448D01*
X173783Y146409D01*
X173877Y146365D01*
X173897Y146363D01*
X173915Y146356D01*
X174082Y146337D01*
X185217Y146337D01*
X185122Y145860D01*
X184605Y144612D01*
X183854Y143488D01*
X182899Y142533D01*
X182136Y142023D01*
X182067Y141958D01*
X181993Y141900D01*
X181977Y141875D01*
X181956Y141855D01*
X181911Y141772D01*
X181860Y141693D01*
X181853Y141664D01*
X181839Y141638D01*
X181823Y141546D01*
X181800Y141454D01*
X181802Y141425D01*
X181797Y141396D01*
X181812Y141303D01*
X181819Y141209D01*
X181831Y141182D01*
X181835Y141153D01*
X181879Y141069D01*
X181916Y140983D01*
X181939Y140954D01*
X181948Y140935D01*
X181972Y140912D01*
X182020Y140852D01*
X183911Y138961D01*
X184878Y136627D01*
X184878Y134100D01*
X183911Y131766D01*
X182124Y129980D01*
X181735Y129819D01*
X181674Y129781D01*
X181609Y129752D01*
X181570Y129716D01*
X181526Y129689D01*
X181481Y129634D01*
X181428Y129585D01*
X181403Y129540D01*
X181369Y129500D01*
X181344Y129433D01*
X181309Y129370D01*
X181300Y129319D01*
X181281Y129270D01*
X181278Y129198D01*
X181265Y129128D01*
X181273Y129076D01*
X181271Y129024D01*
X181291Y128955D01*
X181301Y128884D01*
X181325Y128838D01*
X181339Y128788D01*
X181380Y128729D01*
X181413Y128665D01*
X181450Y128629D01*
X181480Y128586D01*
X181537Y128543D01*
X181588Y128493D01*
X181651Y128458D01*
X181677Y128439D01*
X181699Y128432D01*
X181735Y128412D01*
X182124Y128251D01*
X183983Y126393D01*
X184057Y126339D01*
X184126Y126280D01*
X184156Y126268D01*
X184182Y126249D01*
X184269Y126222D01*
X184354Y126188D01*
X184395Y126184D01*
X184417Y126177D01*
X184450Y126178D01*
X184521Y126170D01*
X202051Y126170D01*
X202166Y126188D01*
X202282Y126206D01*
X202287Y126208D01*
X202294Y126209D01*
X202396Y126264D01*
X202501Y126317D01*
X202505Y126322D01*
X202511Y126324D01*
X202590Y126408D01*
X202673Y126493D01*
X202677Y126499D01*
X202680Y126503D01*
X202688Y126520D01*
X202754Y126640D01*
X203520Y128489D01*
X205521Y130490D01*
X208135Y131573D01*
X210965Y131573D01*
X213579Y130490D01*
X215580Y128489D01*
X216663Y125875D01*
X216663Y123045D01*
X215580Y120431D01*
X213579Y118430D01*
X210965Y117347D01*
X208135Y117347D01*
X205521Y118430D01*
X204610Y119341D01*
X204536Y119394D01*
X204466Y119454D01*
X204436Y119466D01*
X204410Y119485D01*
X204323Y119512D01*
X204238Y119546D01*
X204197Y119550D01*
X204175Y119557D01*
X204143Y119556D01*
X204072Y119564D01*
X184521Y119564D01*
X184431Y119549D01*
X184340Y119542D01*
X184310Y119530D01*
X184278Y119524D01*
X184197Y119482D01*
X184114Y119446D01*
X184081Y119420D01*
X184061Y119409D01*
X184039Y119386D01*
X183983Y119341D01*
X182124Y117483D01*
X181735Y117322D01*
X181674Y117284D01*
X181609Y117255D01*
X181570Y117220D01*
X181526Y117192D01*
X181481Y117137D01*
X181428Y117088D01*
X181403Y117043D01*
X181369Y117003D01*
X181344Y116936D01*
X181309Y116873D01*
X181300Y116822D01*
X181281Y116773D01*
X181278Y116702D01*
X181265Y116631D01*
X181273Y116579D01*
X181271Y116527D01*
X181291Y116459D01*
X181301Y116388D01*
X181325Y116341D01*
X181339Y116291D01*
X181380Y116232D01*
X181413Y116168D01*
X181450Y116132D01*
X181480Y116089D01*
X181537Y116046D01*
X181588Y115996D01*
X181651Y115962D01*
X181677Y115942D01*
X181699Y115935D01*
X181735Y115915D01*
X182124Y115754D01*
X183983Y113896D01*
X184057Y113843D01*
X184126Y113783D01*
X184156Y113771D01*
X184182Y113752D01*
X184269Y113726D01*
X184354Y113691D01*
X184395Y113687D01*
X184417Y113680D01*
X184450Y113681D01*
X184521Y113673D01*
X186151Y113673D01*
X186266Y113692D01*
X186382Y113709D01*
X186388Y113712D01*
X186394Y113713D01*
X186496Y113767D01*
X186601Y113820D01*
X186606Y113825D01*
X186611Y113828D01*
X186690Y113911D01*
X186773Y113996D01*
X186777Y114002D01*
X186780Y114006D01*
X186788Y114023D01*
X186854Y114143D01*
X187010Y114519D01*
X189011Y116520D01*
X191625Y117603D01*
X194455Y117603D01*
X197069Y116520D01*
X199070Y114519D01*
X200153Y111905D01*
X200153Y109075D01*
X199070Y106461D01*
X197069Y104460D01*
X194455Y103377D01*
X191625Y103377D01*
X189011Y104460D01*
X187010Y106461D01*
X186954Y106597D01*
X186892Y106697D01*
X186832Y106797D01*
X186827Y106801D01*
X186824Y106807D01*
X186733Y106882D01*
X186645Y106957D01*
X186639Y106959D01*
X186634Y106963D01*
X186526Y107005D01*
X186417Y107049D01*
X186409Y107050D01*
X186405Y107052D01*
X186387Y107052D01*
X186250Y107067D01*
X184521Y107067D01*
X184431Y107053D01*
X184340Y107046D01*
X184310Y107033D01*
X184278Y107028D01*
X184197Y106985D01*
X184114Y106949D01*
X184081Y106924D01*
X184061Y106913D01*
X184039Y106889D01*
X183983Y106844D01*
X182124Y104986D01*
X181735Y104825D01*
X181674Y104787D01*
X181609Y104758D01*
X181570Y104723D01*
X181526Y104695D01*
X181481Y104640D01*
X181428Y104592D01*
X181403Y104546D01*
X181369Y104506D01*
X181344Y104439D01*
X181309Y104376D01*
X181300Y104325D01*
X181281Y104276D01*
X181278Y104205D01*
X181265Y104134D01*
X181273Y104083D01*
X181271Y104031D01*
X181291Y103962D01*
X181301Y103891D01*
X181325Y103844D01*
X181339Y103794D01*
X181380Y103736D01*
X181413Y103672D01*
X181450Y103635D01*
X181480Y103592D01*
X181537Y103550D01*
X181588Y103499D01*
X181651Y103465D01*
X181677Y103446D01*
X181699Y103438D01*
X181735Y103418D01*
X182124Y103257D01*
X183911Y101471D01*
X184878Y99137D01*
X184878Y96610D01*
X183911Y94276D01*
X182124Y92489D01*
X181735Y92328D01*
X181674Y92291D01*
X181609Y92261D01*
X181570Y92226D01*
X181526Y92199D01*
X181481Y92143D01*
X181428Y92095D01*
X181403Y92049D01*
X181369Y92009D01*
X181344Y91942D01*
X181309Y91879D01*
X181300Y91828D01*
X181281Y91780D01*
X181278Y91708D01*
X181265Y91637D01*
X181273Y91586D01*
X181271Y91534D01*
X181291Y91465D01*
X181301Y91394D01*
X181325Y91348D01*
X181339Y91298D01*
X181380Y91239D01*
X181413Y91175D01*
X181450Y91138D01*
X181480Y91096D01*
X181537Y91053D01*
X181588Y91003D01*
X181651Y90968D01*
X181677Y90949D01*
X181699Y90941D01*
X181735Y90922D01*
X182124Y90760D01*
X183911Y88974D01*
X184878Y86640D01*
X184878Y84113D01*
X183911Y81779D01*
X182124Y79993D01*
X181735Y79832D01*
X181674Y79794D01*
X181609Y79765D01*
X181570Y79729D01*
X181526Y79702D01*
X181481Y79647D01*
X181428Y79598D01*
X181403Y79552D01*
X181369Y79512D01*
X181344Y79446D01*
X181309Y79383D01*
X181300Y79331D01*
X181281Y79283D01*
X181278Y79211D01*
X181265Y79141D01*
X181273Y79089D01*
X181271Y79037D01*
X181291Y78968D01*
X181301Y78897D01*
X181325Y78851D01*
X181339Y78801D01*
X181380Y78742D01*
X181413Y78678D01*
X181450Y78642D01*
X181480Y78599D01*
X181537Y78556D01*
X181588Y78506D01*
X181651Y78471D01*
X181677Y78452D01*
X181699Y78445D01*
X181735Y78425D01*
X182124Y78264D01*
X183911Y76477D01*
X184878Y74143D01*
X184878Y71617D01*
X183911Y69282D01*
X182124Y67496D01*
X181735Y67335D01*
X181674Y67297D01*
X181609Y67268D01*
X181570Y67233D01*
X181526Y67205D01*
X181481Y67150D01*
X181428Y67101D01*
X181403Y67056D01*
X181369Y67016D01*
X181344Y66949D01*
X181309Y66886D01*
X181300Y66835D01*
X181281Y66786D01*
X181278Y66714D01*
X181265Y66644D01*
X181273Y66592D01*
X181271Y66540D01*
X181291Y66471D01*
X181301Y66400D01*
X181325Y66354D01*
X181339Y66304D01*
X181380Y66245D01*
X181413Y66181D01*
X181450Y66145D01*
X181480Y66102D01*
X181537Y66059D01*
X181588Y66009D01*
X181651Y65974D01*
X181677Y65955D01*
X181699Y65948D01*
X181735Y65928D01*
X182124Y65767D01*
X183911Y63980D01*
X184878Y61646D01*
X184878Y59120D01*
X183911Y56786D01*
X182124Y54999D01*
X181735Y54838D01*
X181674Y54800D01*
X181609Y54771D01*
X181570Y54736D01*
X181526Y54708D01*
X181481Y54653D01*
X181428Y54605D01*
X181403Y54559D01*
X181369Y54519D01*
X181344Y54452D01*
X181309Y54389D01*
X181300Y54338D01*
X181281Y54289D01*
X181278Y54218D01*
X181265Y54147D01*
X181273Y54095D01*
X181271Y54044D01*
X181291Y53975D01*
X181301Y53904D01*
X181325Y53857D01*
X181339Y53807D01*
X181380Y53748D01*
X181413Y53684D01*
X181450Y53648D01*
X181480Y53605D01*
X181537Y53562D01*
X181588Y53512D01*
X181651Y53478D01*
X181677Y53458D01*
X181699Y53451D01*
X181735Y53431D01*
X182124Y53270D01*
X183911Y51484D01*
X184878Y49149D01*
X184878Y46623D01*
X183911Y44289D01*
X182020Y42398D01*
X181965Y42322D01*
X181905Y42250D01*
X181894Y42222D01*
X181877Y42199D01*
X181849Y42108D01*
X181815Y42021D01*
X181813Y41992D01*
X181804Y41964D01*
X181807Y41869D01*
X181802Y41775D01*
X181810Y41747D01*
X181811Y41718D01*
X181843Y41629D01*
X181869Y41538D01*
X181885Y41514D01*
X181895Y41487D01*
X181954Y41413D01*
X182007Y41335D01*
X182036Y41311D01*
X182049Y41295D01*
X182077Y41277D01*
X182136Y41227D01*
X182899Y40717D01*
X183854Y39762D01*
X184605Y38638D01*
X185122Y37390D01*
X185217Y36913D01*
X174082Y36913D01*
X174062Y36909D01*
X174043Y36912D01*
X173941Y36890D01*
X173839Y36873D01*
X173822Y36864D01*
X173802Y36859D01*
X173713Y36806D01*
X173622Y36758D01*
X173608Y36743D01*
X173591Y36733D01*
X173524Y36654D01*
X173453Y36579D01*
X173444Y36561D01*
X173431Y36546D01*
X173392Y36450D01*
X173349Y36356D01*
X173347Y36337D01*
X173339Y36318D01*
X173321Y36151D01*
X173321Y34628D01*
X173324Y34608D01*
X173322Y34588D01*
X173344Y34487D01*
X173361Y34385D01*
X173370Y34367D01*
X173374Y34348D01*
X173427Y34259D01*
X173476Y34167D01*
X173490Y34154D01*
X173500Y34137D01*
X173579Y34069D01*
X173654Y33998D01*
X173672Y33990D01*
X173687Y33977D01*
X173783Y33938D01*
X173877Y33894D01*
X173897Y33892D01*
X173915Y33885D01*
X174082Y33866D01*
X185217Y33866D01*
X185122Y33389D01*
X184605Y32141D01*
X183854Y31017D01*
X182899Y30062D01*
X182136Y29552D01*
X182067Y29488D01*
X181993Y29429D01*
X181977Y29404D01*
X181956Y29384D01*
X181911Y29301D01*
X181860Y29222D01*
X181853Y29193D01*
X181839Y29168D01*
X181823Y29075D01*
X181800Y28983D01*
X181802Y28954D01*
X181797Y28925D01*
X181812Y28832D01*
X181819Y28738D01*
X181831Y28711D01*
X181835Y28682D01*
X181879Y28598D01*
X181916Y28512D01*
X181939Y28483D01*
X181948Y28464D01*
X181972Y28441D01*
X182020Y28381D01*
X183911Y26490D01*
X184878Y24156D01*
X184878Y21629D01*
X183911Y19295D01*
X182020Y17405D01*
X181965Y17328D01*
X181905Y17256D01*
X181894Y17229D01*
X181877Y17205D01*
X181849Y17115D01*
X181815Y17027D01*
X181813Y16998D01*
X181804Y16970D01*
X181807Y16876D01*
X181802Y16781D01*
X181810Y16753D01*
X181811Y16724D01*
X181843Y16635D01*
X181869Y16545D01*
X181885Y16521D01*
X181895Y16493D01*
X181954Y16419D01*
X182007Y16342D01*
X182036Y16318D01*
X182049Y16301D01*
X182077Y16283D01*
X182136Y16234D01*
X182899Y15723D01*
X183854Y14768D01*
X184605Y13645D01*
X185122Y12396D01*
X185217Y11919D01*
X174082Y11919D01*
X174062Y11916D01*
X174043Y11918D01*
X173941Y11896D01*
X173839Y11879D01*
X173822Y11870D01*
X173802Y11866D01*
X173713Y11813D01*
X173622Y11764D01*
X173608Y11750D01*
X173591Y11740D01*
X173524Y11661D01*
X173453Y11586D01*
X173444Y11568D01*
X173431Y11553D01*
X173392Y11456D01*
X173349Y11363D01*
X173347Y11343D01*
X173339Y11325D01*
X173321Y11158D01*
X173321Y10395D01*
X173319Y10395D01*
X173319Y11158D01*
X173316Y11178D01*
X173318Y11197D01*
X173296Y11299D01*
X173279Y11401D01*
X173270Y11418D01*
X173266Y11438D01*
X173213Y11527D01*
X173164Y11618D01*
X173150Y11632D01*
X173140Y11649D01*
X173061Y11716D01*
X172986Y11787D01*
X172968Y11796D01*
X172953Y11809D01*
X172857Y11847D01*
X172763Y11891D01*
X172743Y11893D01*
X172725Y11901D01*
X172558Y11919D01*
X161423Y11919D01*
X161518Y12397D01*
X162035Y13645D01*
X162786Y14768D01*
X163741Y15723D01*
X164504Y16234D01*
X164573Y16298D01*
X164647Y16357D01*
X164663Y16381D01*
X164684Y16401D01*
X164729Y16484D01*
X164780Y16564D01*
X164787Y16592D01*
X164801Y16618D01*
X164817Y16711D01*
X164840Y16802D01*
X164838Y16831D01*
X164843Y16860D01*
X164828Y16954D01*
X164821Y17047D01*
X164809Y17074D01*
X164805Y17103D01*
X164761Y17187D01*
X164724Y17274D01*
X164701Y17303D01*
X164692Y17322D01*
X164668Y17344D01*
X164620Y17405D01*
X162729Y19295D01*
X161762Y21629D01*
X161762Y24156D01*
X162729Y26490D01*
X164620Y28381D01*
X164675Y28457D01*
X164735Y28529D01*
X164746Y28557D01*
X164763Y28580D01*
X164791Y28671D01*
X164825Y28758D01*
X164827Y28787D01*
X164836Y28815D01*
X164833Y28910D01*
X164838Y29004D01*
X164830Y29032D01*
X164829Y29061D01*
X164797Y29150D01*
X164771Y29241D01*
X164755Y29265D01*
X164745Y29292D01*
X164686Y29366D01*
X164633Y29444D01*
X164604Y29468D01*
X164591Y29484D01*
X164563Y29502D01*
X164504Y29552D01*
X163741Y30062D01*
X162786Y31017D01*
X162035Y32141D01*
X161518Y33389D01*
X161423Y33866D01*
X172558Y33866D01*
X172578Y33869D01*
X172597Y33867D01*
X172699Y33889D01*
X172801Y33906D01*
X172818Y33915D01*
X172838Y33920D01*
X172927Y33973D01*
X173018Y34021D01*
X173032Y34036D01*
X173049Y34046D01*
X173116Y34124D01*
X173187Y34199D01*
X173196Y34217D01*
X173209Y34233D01*
X173248Y34329D01*
X173291Y34423D01*
X173293Y34442D01*
X173301Y34461D01*
X173319Y34628D01*
X173319Y36151D01*
X173316Y36171D01*
X173318Y36191D01*
X173296Y36292D01*
X173279Y36394D01*
X173270Y36412D01*
X173266Y36431D01*
X173213Y36520D01*
X173164Y36612D01*
X173150Y36625D01*
X173140Y36642D01*
X173061Y36710D01*
X172986Y36781D01*
X172968Y36789D01*
X172953Y36802D01*
X172857Y36841D01*
X172763Y36885D01*
X172743Y36887D01*
X172725Y36894D01*
X172558Y36913D01*
X161423Y36913D01*
X161518Y37390D01*
X162035Y38638D01*
X162786Y39762D01*
X163741Y40717D01*
X164504Y41227D01*
X164573Y41291D01*
X164647Y41350D01*
X164663Y41375D01*
X164684Y41395D01*
X164729Y41478D01*
X164780Y41557D01*
X164787Y41586D01*
X164801Y41611D01*
X164817Y41704D01*
X164840Y41796D01*
X164838Y41825D01*
X164843Y41854D01*
X164828Y41947D01*
X164821Y42041D01*
X164809Y42068D01*
X164805Y42097D01*
X164761Y42181D01*
X164724Y42267D01*
X164701Y42296D01*
X164692Y42315D01*
X164668Y42338D01*
X164620Y42398D01*
X162729Y44289D01*
X161762Y46623D01*
X161762Y49149D01*
X162729Y51484D01*
X164516Y53270D01*
X164905Y53431D01*
X164966Y53469D01*
X165031Y53498D01*
X165070Y53534D01*
X165114Y53561D01*
X165159Y53616D01*
X165212Y53665D01*
X165237Y53710D01*
X165271Y53750D01*
X165296Y53817D01*
X165331Y53880D01*
X165340Y53931D01*
X165359Y53980D01*
X165362Y54052D01*
X165375Y54122D01*
X165367Y54174D01*
X165369Y54226D01*
X165349Y54295D01*
X165339Y54366D01*
X165315Y54412D01*
X165301Y54462D01*
X165260Y54521D01*
X165227Y54585D01*
X165190Y54621D01*
X165160Y54664D01*
X165103Y54707D01*
X165052Y54757D01*
X164989Y54792D01*
X164963Y54811D01*
X164941Y54818D01*
X164905Y54838D01*
X164516Y54999D01*
X162729Y56786D01*
X161762Y59120D01*
X161762Y61646D01*
X162729Y63980D01*
X164516Y65767D01*
X164905Y65928D01*
X164966Y65966D01*
X165031Y65995D01*
X165070Y66030D01*
X165114Y66058D01*
X165159Y66113D01*
X165212Y66161D01*
X165237Y66207D01*
X165271Y66247D01*
X165296Y66314D01*
X165331Y66377D01*
X165340Y66428D01*
X165359Y66477D01*
X165362Y66548D01*
X165375Y66619D01*
X165367Y66671D01*
X165369Y66723D01*
X165349Y66791D01*
X165339Y66862D01*
X165315Y66909D01*
X165301Y66959D01*
X165260Y67018D01*
X165227Y67082D01*
X165190Y67118D01*
X165160Y67161D01*
X165103Y67204D01*
X165052Y67254D01*
X164989Y67288D01*
X164963Y67308D01*
X164941Y67315D01*
X164905Y67335D01*
X164516Y67496D01*
X162729Y69282D01*
X161762Y71617D01*
X161762Y74143D01*
X162729Y76477D01*
X164516Y78264D01*
X164905Y78425D01*
X164966Y78463D01*
X165031Y78492D01*
X165070Y78527D01*
X165114Y78554D01*
X165159Y78610D01*
X165212Y78658D01*
X165237Y78704D01*
X165271Y78744D01*
X165296Y78811D01*
X165331Y78874D01*
X165340Y78925D01*
X165359Y78974D01*
X165362Y79045D01*
X165375Y79116D01*
X165367Y79167D01*
X165369Y79219D01*
X165349Y79288D01*
X165339Y79359D01*
X165315Y79406D01*
X165301Y79456D01*
X165260Y79514D01*
X165227Y79578D01*
X165190Y79615D01*
X165160Y79658D01*
X165103Y79700D01*
X165052Y79751D01*
X164989Y79785D01*
X164963Y79804D01*
X164941Y79812D01*
X164905Y79832D01*
X164516Y79993D01*
X162729Y81779D01*
X161762Y84113D01*
X161762Y86640D01*
X162729Y88974D01*
X164516Y90760D01*
X164905Y90922D01*
X164966Y90959D01*
X165031Y90989D01*
X165070Y91024D01*
X165114Y91051D01*
X165159Y91106D01*
X165212Y91155D01*
X165237Y91201D01*
X165271Y91241D01*
X165296Y91308D01*
X165331Y91371D01*
X165340Y91422D01*
X165359Y91470D01*
X165362Y91542D01*
X165375Y91613D01*
X165367Y91664D01*
X165369Y91716D01*
X165349Y91785D01*
X165339Y91856D01*
X165315Y91902D01*
X165301Y91952D01*
X165260Y92011D01*
X165227Y92075D01*
X165190Y92112D01*
X165160Y92154D01*
X165103Y92197D01*
X165052Y92247D01*
X164989Y92282D01*
X164963Y92301D01*
X164941Y92308D01*
X164905Y92328D01*
X164516Y92489D01*
X162729Y94276D01*
X161762Y96610D01*
X161762Y99137D01*
X162729Y101471D01*
X164516Y103257D01*
X164905Y103418D01*
X164966Y103456D01*
X165031Y103485D01*
X165070Y103521D01*
X165114Y103548D01*
X165159Y103603D01*
X165212Y103652D01*
X165237Y103697D01*
X165271Y103738D01*
X165296Y103804D01*
X165331Y103867D01*
X165340Y103919D01*
X165359Y103967D01*
X165362Y104039D01*
X165375Y104109D01*
X165367Y104161D01*
X165369Y104213D01*
X165349Y104282D01*
X165339Y104353D01*
X165315Y104399D01*
X165301Y104449D01*
X165260Y104508D01*
X165227Y104572D01*
X165190Y104608D01*
X165160Y104651D01*
X165103Y104694D01*
X165052Y104744D01*
X164989Y104779D01*
X164963Y104798D01*
X164941Y104805D01*
X164905Y104825D01*
X164516Y104986D01*
X162729Y106773D01*
X161762Y109107D01*
X161762Y111633D01*
X162729Y113968D01*
X164516Y115754D01*
X164905Y115915D01*
X164966Y115953D01*
X165031Y115982D01*
X165070Y116017D01*
X165114Y116045D01*
X165159Y116100D01*
X165212Y116149D01*
X165237Y116194D01*
X165271Y116234D01*
X165296Y116301D01*
X165331Y116364D01*
X165340Y116415D01*
X165359Y116464D01*
X165362Y116536D01*
X165375Y116606D01*
X165367Y116658D01*
X165369Y116710D01*
X165349Y116778D01*
X165339Y116850D01*
X165315Y116896D01*
X165301Y116946D01*
X165260Y117005D01*
X165227Y117069D01*
X165190Y117105D01*
X165160Y117148D01*
X165103Y117191D01*
X165052Y117241D01*
X164989Y117276D01*
X164963Y117295D01*
X164941Y117302D01*
X164905Y117322D01*
X164516Y117483D01*
X162729Y119270D01*
X161762Y121604D01*
X161762Y124130D01*
X162729Y126464D01*
X164516Y128251D01*
X164905Y128412D01*
X164966Y128450D01*
X165031Y128479D01*
X165070Y128514D01*
X165114Y128542D01*
X165159Y128597D01*
X165212Y128645D01*
X165237Y128691D01*
X165271Y128731D01*
X165296Y128798D01*
X165331Y128861D01*
X165340Y128912D01*
X165359Y128961D01*
X165362Y129032D01*
X165375Y129103D01*
X165367Y129154D01*
X165369Y129206D01*
X165349Y129275D01*
X165339Y129346D01*
X165315Y129393D01*
X165301Y129443D01*
X165260Y129502D01*
X165227Y129566D01*
X165190Y129602D01*
X165160Y129645D01*
X165103Y129688D01*
X165052Y129738D01*
X164989Y129772D01*
X164963Y129792D01*
X164941Y129799D01*
X164905Y129819D01*
X164516Y129980D01*
X162657Y131838D01*
X162583Y131891D01*
X162514Y131951D01*
X162484Y131963D01*
X162458Y131982D01*
X162371Y132008D01*
X162286Y132043D01*
X162245Y132047D01*
X162223Y132054D01*
X162190Y132053D01*
X162119Y132061D01*
X161001Y132061D01*
X160993Y132060D01*
X160984Y132061D01*
X160871Y132040D01*
X160758Y132021D01*
X160751Y132017D01*
X160742Y132016D01*
X160642Y131960D01*
X160541Y131906D01*
X160535Y131900D01*
X160527Y131896D01*
X160408Y131777D01*
X156761Y127252D01*
X156736Y127207D01*
X156703Y127169D01*
X156676Y127101D01*
X156640Y127038D01*
X156630Y126988D01*
X156611Y126941D01*
X156598Y126822D01*
X156593Y126796D01*
X156594Y126787D01*
X156593Y126774D01*
X156593Y119978D01*
X156590Y119975D01*
X156578Y119959D01*
X156563Y119947D01*
X156532Y119899D01*
X156525Y119891D01*
X156518Y119877D01*
X156507Y119859D01*
X156447Y119776D01*
X156441Y119757D01*
X156430Y119740D01*
X156405Y119639D01*
X156374Y119541D01*
X156375Y119521D01*
X156370Y119501D01*
X156378Y119398D01*
X156381Y119295D01*
X156387Y119276D01*
X156389Y119256D01*
X156429Y119161D01*
X156465Y119064D01*
X156478Y119048D01*
X156485Y119030D01*
X156590Y118899D01*
X158430Y117059D01*
X159513Y114445D01*
X159513Y111615D01*
X158430Y109001D01*
X156429Y107000D01*
X156173Y106894D01*
X156074Y106833D01*
X155973Y106772D01*
X155969Y106768D01*
X155964Y106764D01*
X155890Y106675D01*
X155813Y106586D01*
X155811Y106580D01*
X155807Y106575D01*
X155765Y106467D01*
X155721Y106357D01*
X155720Y106350D01*
X155719Y106345D01*
X155718Y106327D01*
X155703Y106191D01*
X155703Y46794D01*
X155706Y46774D01*
X155704Y46755D01*
X155726Y46653D01*
X155742Y46551D01*
X155752Y46534D01*
X155756Y46514D01*
X155809Y46425D01*
X155858Y46334D01*
X155872Y46320D01*
X155882Y46303D01*
X155961Y46236D01*
X156036Y46164D01*
X156054Y46156D01*
X156069Y46143D01*
X156165Y46104D01*
X156259Y46061D01*
X156279Y46059D01*
X156297Y46051D01*
X156464Y46033D01*
X157542Y46033D01*
X158733Y44842D01*
X158733Y35158D01*
X157542Y33967D01*
X151653Y33967D01*
X151563Y33953D01*
X151472Y33945D01*
X151443Y33933D01*
X151411Y33928D01*
X151330Y33885D01*
X151246Y33849D01*
X151214Y33823D01*
X151193Y33812D01*
X151171Y33789D01*
X151115Y33744D01*
X148306Y30935D01*
X148264Y30876D01*
X148214Y30825D01*
X148206Y30807D01*
X148193Y30792D01*
X148181Y30761D01*
X148162Y30735D01*
X148141Y30666D01*
X148111Y30602D01*
X148109Y30582D01*
X148101Y30563D01*
X148097Y30522D01*
X148090Y30500D01*
X148091Y30468D01*
X148083Y30397D01*
X148083Y13189D01*
X148101Y13075D01*
X148119Y12958D01*
X148121Y12953D01*
X148122Y12947D01*
X148177Y12844D01*
X148230Y12739D01*
X148235Y12735D01*
X148238Y12729D01*
X148322Y12649D01*
X148406Y12567D01*
X148412Y12563D01*
X148416Y12560D01*
X148433Y12552D01*
X148553Y12486D01*
X148809Y12380D01*
X150810Y10379D01*
X151893Y7765D01*
X151893Y4935D01*
X150810Y2321D01*
X148809Y320D01*
X146195Y-763D01*
X143365Y-763D01*
X140751Y320D01*
X138750Y2321D01*
X137667Y4935D01*
X137667Y7765D01*
X138750Y10379D01*
X140751Y12380D01*
X141007Y12486D01*
X141106Y12547D01*
X141207Y12608D01*
X141211Y12612D01*
X141216Y12616D01*
X141290Y12705D01*
X141367Y12794D01*
X141369Y12800D01*
X141373Y12805D01*
X141415Y12913D01*
X141459Y13023D01*
X141460Y13030D01*
X141461Y13035D01*
X141462Y13053D01*
X141477Y13189D01*
X141477Y32698D01*
X141475Y32711D01*
X141476Y32720D01*
X141475Y32726D01*
X141476Y32737D01*
X141454Y32839D01*
X141438Y32941D01*
X141428Y32958D01*
X141424Y32978D01*
X141371Y33067D01*
X141322Y33158D01*
X141308Y33172D01*
X141298Y33189D01*
X141219Y33256D01*
X141144Y33328D01*
X141126Y33336D01*
X141111Y33349D01*
X141015Y33388D01*
X140921Y33431D01*
X140901Y33433D01*
X140883Y33441D01*
X140716Y33459D01*
X138983Y33459D01*
X138983Y38477D01*
X144001Y38477D01*
X144001Y37809D01*
X144012Y37739D01*
X144014Y37667D01*
X144032Y37618D01*
X144040Y37567D01*
X144074Y37503D01*
X144099Y37436D01*
X144131Y37395D01*
X144156Y37349D01*
X144208Y37300D01*
X144252Y37244D01*
X144296Y37216D01*
X144334Y37180D01*
X144399Y37150D01*
X144459Y37111D01*
X144510Y37098D01*
X144557Y37076D01*
X144628Y37068D01*
X144698Y37051D01*
X144750Y37055D01*
X144801Y37049D01*
X144872Y37064D01*
X144943Y37070D01*
X144991Y37090D01*
X145042Y37101D01*
X145103Y37138D01*
X145169Y37166D01*
X145225Y37211D01*
X145253Y37228D01*
X145268Y37245D01*
X145300Y37271D01*
X146444Y38415D01*
X146497Y38489D01*
X146557Y38558D01*
X146569Y38589D01*
X146588Y38615D01*
X146615Y38702D01*
X146649Y38787D01*
X146653Y38828D01*
X146660Y38850D01*
X146659Y38882D01*
X146667Y38953D01*
X146667Y44842D01*
X147858Y46033D01*
X148336Y46033D01*
X148356Y46036D01*
X148375Y46034D01*
X148477Y46056D01*
X148579Y46072D01*
X148596Y46082D01*
X148616Y46086D01*
X148705Y46139D01*
X148796Y46188D01*
X148810Y46202D01*
X148827Y46212D01*
X148894Y46291D01*
X148966Y46366D01*
X148974Y46384D01*
X148987Y46399D01*
X149026Y46495D01*
X149069Y46589D01*
X149071Y46609D01*
X149079Y46627D01*
X149097Y46794D01*
X149097Y106191D01*
X149079Y106305D01*
X149061Y106422D01*
X149059Y106427D01*
X149058Y106433D01*
X149003Y106536D01*
X148950Y106641D01*
X148945Y106645D01*
X148942Y106651D01*
X148858Y106731D01*
X148774Y106813D01*
X148768Y106817D01*
X148764Y106820D01*
X148747Y106828D01*
X148627Y106894D01*
X148371Y107000D01*
X146370Y109001D01*
X145287Y111615D01*
X145287Y114445D01*
X146370Y117059D01*
X146799Y117488D01*
X146841Y117546D01*
X146890Y117598D01*
X146912Y117645D01*
X146942Y117687D01*
X146963Y117756D01*
X146994Y117821D01*
X146999Y117873D01*
X147015Y117923D01*
X147013Y117994D01*
X147021Y118065D01*
X147010Y118116D01*
X147008Y118168D01*
X146984Y118236D01*
X146969Y118306D01*
X146942Y118351D01*
X146924Y118399D01*
X146879Y118455D01*
X146842Y118517D01*
X146803Y118551D01*
X146770Y118591D01*
X146710Y118630D01*
X146655Y118677D01*
X146607Y118696D01*
X146563Y118724D01*
X146494Y118742D01*
X146427Y118769D01*
X146356Y118777D01*
X146325Y118785D01*
X146301Y118783D01*
X146261Y118787D01*
X145718Y118787D01*
X144527Y119978D01*
X144527Y120756D01*
X144524Y120776D01*
X144526Y120795D01*
X144504Y120897D01*
X144488Y120999D01*
X144478Y121016D01*
X144474Y121036D01*
X144421Y121125D01*
X144372Y121216D01*
X144358Y121230D01*
X144348Y121247D01*
X144269Y121314D01*
X144194Y121386D01*
X144176Y121394D01*
X144161Y121407D01*
X144065Y121446D01*
X143971Y121489D01*
X143951Y121491D01*
X143933Y121499D01*
X143766Y121517D01*
X142274Y121517D01*
X142254Y121514D01*
X142235Y121516D01*
X142133Y121494D01*
X142031Y121478D01*
X142014Y121468D01*
X141994Y121464D01*
X141905Y121411D01*
X141814Y121362D01*
X141800Y121348D01*
X141783Y121338D01*
X141716Y121259D01*
X141644Y121184D01*
X141636Y121166D01*
X141623Y121151D01*
X141584Y121055D01*
X141541Y120961D01*
X141539Y120941D01*
X141531Y120923D01*
X141513Y120756D01*
X141513Y119578D01*
X140322Y118387D01*
X130638Y118387D01*
X129447Y119578D01*
X129447Y129262D01*
X130638Y130453D01*
X140322Y130453D01*
X141513Y129262D01*
X141513Y128884D01*
X141516Y128864D01*
X141514Y128845D01*
X141536Y128743D01*
X141552Y128641D01*
X141562Y128624D01*
X141566Y128604D01*
X141619Y128515D01*
X141668Y128424D01*
X141682Y128410D01*
X141692Y128393D01*
X141771Y128326D01*
X141846Y128254D01*
X141864Y128246D01*
X141879Y128233D01*
X141975Y128194D01*
X142069Y128151D01*
X142089Y128149D01*
X142107Y128141D01*
X142274Y128123D01*
X143766Y128123D01*
X143786Y128126D01*
X143805Y128124D01*
X143907Y128146D01*
X144009Y128162D01*
X144026Y128172D01*
X144046Y128176D01*
X144135Y128229D01*
X144226Y128278D01*
X144240Y128292D01*
X144257Y128302D01*
X144324Y128381D01*
X144396Y128456D01*
X144404Y128474D01*
X144417Y128489D01*
X144456Y128585D01*
X144499Y128679D01*
X144501Y128699D01*
X144509Y128717D01*
X144527Y128884D01*
X144527Y129662D01*
X145718Y130853D01*
X150816Y130853D01*
X150824Y130854D01*
X150833Y130853D01*
X150946Y130874D01*
X151058Y130892D01*
X151066Y130897D01*
X151075Y130898D01*
X151175Y130954D01*
X151276Y131008D01*
X151282Y131014D01*
X151289Y131018D01*
X151408Y131136D01*
X152330Y132280D01*
X152346Y132307D01*
X152367Y132330D01*
X152406Y132414D01*
X152452Y132494D01*
X152458Y132525D01*
X152471Y132553D01*
X152481Y132645D01*
X152499Y132736D01*
X152494Y132767D01*
X152498Y132797D01*
X152478Y132888D01*
X152466Y132980D01*
X152452Y133007D01*
X152446Y133038D01*
X152398Y133117D01*
X152357Y133200D01*
X152335Y133222D01*
X152319Y133249D01*
X152249Y133309D01*
X152184Y133375D01*
X152156Y133389D01*
X152132Y133409D01*
X152083Y133429D01*
X152083Y138537D01*
X157244Y138537D01*
X157334Y138552D01*
X157425Y138559D01*
X157455Y138571D01*
X157487Y138577D01*
X157567Y138619D01*
X157651Y138655D01*
X157665Y138666D01*
X158839Y138666D01*
X158867Y138671D01*
X158920Y138671D01*
X160075Y138795D01*
X160096Y138777D01*
X160163Y138750D01*
X160227Y138714D01*
X160277Y138704D01*
X160324Y138685D01*
X160442Y138672D01*
X160468Y138667D01*
X160477Y138668D01*
X160491Y138666D01*
X162119Y138666D01*
X162209Y138681D01*
X162300Y138688D01*
X162330Y138701D01*
X162362Y138706D01*
X162443Y138749D01*
X162526Y138785D01*
X162559Y138810D01*
X162579Y138821D01*
X162601Y138845D01*
X162657Y138889D01*
X164620Y140852D01*
X164675Y140928D01*
X164735Y141000D01*
X164746Y141028D01*
X164763Y141051D01*
X164791Y141141D01*
X164825Y141229D01*
X164827Y141258D01*
X164836Y141286D01*
X164833Y141381D01*
X164838Y141475D01*
X164830Y141503D01*
X164829Y141532D01*
X164797Y141621D01*
X164771Y141712D01*
X164755Y141736D01*
X164745Y141763D01*
X164686Y141837D01*
X164633Y141915D01*
X164604Y141939D01*
X164591Y141955D01*
X164563Y141973D01*
X164504Y142023D01*
X163741Y142533D01*
X162786Y143488D01*
X162035Y144612D01*
X161518Y145860D01*
X161423Y146337D01*
X172558Y146337D01*
X172578Y146341D01*
X172597Y146338D01*
X172699Y146360D01*
X172801Y146377D01*
X172818Y146386D01*
X172838Y146391D01*
X172927Y146444D01*
X173018Y146492D01*
X173032Y146507D01*
X173049Y146517D01*
X173116Y146595D01*
X173187Y146670D01*
X173196Y146689D01*
X173209Y146704D01*
X173248Y146800D01*
X173291Y146894D01*
X173293Y146913D01*
X173301Y146932D01*
X173319Y147099D01*
X173319Y148622D01*
X173316Y148642D01*
X173318Y148662D01*
X173296Y148763D01*
X173279Y148865D01*
X173270Y148883D01*
X173266Y148902D01*
X173213Y148991D01*
X173164Y149083D01*
X173150Y149096D01*
X173140Y149113D01*
X173061Y149181D01*
X172986Y149252D01*
X172968Y149260D01*
X172953Y149273D01*
X172857Y149312D01*
X172763Y149356D01*
X172743Y149358D01*
X172725Y149365D01*
X172558Y149384D01*
X161423Y149384D01*
X161516Y149851D01*
X161519Y149946D01*
X161530Y150039D01*
X161523Y150068D01*
X161524Y150097D01*
X161497Y150188D01*
X161477Y150280D01*
X161462Y150305D01*
X161454Y150333D01*
X161400Y150410D01*
X161351Y150491D01*
X161329Y150510D01*
X161312Y150534D01*
X161236Y150590D01*
X161164Y150651D01*
X161137Y150662D01*
X161113Y150679D01*
X161024Y150707D01*
X160936Y150743D01*
X160899Y150747D01*
X160879Y150753D01*
X160846Y150753D01*
X160769Y150761D01*
X86892Y150761D01*
X86872Y150758D01*
X86853Y150760D01*
X86751Y150738D01*
X86649Y150722D01*
X86632Y150712D01*
X86612Y150708D01*
X86523Y150655D01*
X86432Y150606D01*
X86418Y150592D01*
X86401Y150582D01*
X86334Y150503D01*
X86262Y150428D01*
X86254Y150410D01*
X86241Y150395D01*
X86202Y150299D01*
X86159Y150205D01*
X86157Y150185D01*
X86149Y150167D01*
X86131Y150000D01*
X86131Y147953D01*
X80352Y147953D01*
X80332Y147950D01*
X80313Y147952D01*
X80211Y147930D01*
X80109Y147913D01*
X80092Y147904D01*
X80072Y147900D01*
X79983Y147847D01*
X79892Y147798D01*
X79878Y147784D01*
X79861Y147774D01*
X79794Y147695D01*
X79723Y147620D01*
X79714Y147602D01*
X79701Y147587D01*
X79662Y147491D01*
X79619Y147397D01*
X79617Y147377D01*
X79609Y147359D01*
X79591Y147192D01*
X79591Y145668D01*
X79594Y145648D01*
X79592Y145629D01*
X79614Y145527D01*
X79631Y145425D01*
X79640Y145408D01*
X79644Y145388D01*
X79697Y145299D01*
X79746Y145208D01*
X79760Y145194D01*
X79770Y145177D01*
X79849Y145110D01*
X79924Y145039D01*
X79942Y145030D01*
X79957Y145017D01*
X80053Y144978D01*
X80147Y144935D01*
X80167Y144933D01*
X80185Y144925D01*
X80352Y144907D01*
X86131Y144907D01*
X86131Y142494D01*
X86134Y142474D01*
X86132Y142455D01*
X86154Y142353D01*
X86170Y142251D01*
X86180Y142234D01*
X86184Y142214D01*
X86237Y142125D01*
X86286Y142034D01*
X86300Y142020D01*
X86310Y142003D01*
X86389Y141936D01*
X86464Y141864D01*
X86482Y141856D01*
X86497Y141843D01*
X86593Y141804D01*
X86687Y141761D01*
X86707Y141759D01*
X86725Y141751D01*
X86892Y141733D01*
X90951Y141733D01*
X91065Y141751D01*
X91182Y141769D01*
X91187Y141771D01*
X91193Y141772D01*
X91296Y141827D01*
X91401Y141880D01*
X91405Y141885D01*
X91411Y141888D01*
X91491Y141972D01*
X91573Y142056D01*
X91577Y142062D01*
X91580Y142066D01*
X91588Y142083D01*
X91654Y142203D01*
X91760Y142459D01*
X93761Y144460D01*
X96375Y145543D01*
X99205Y145543D01*
X101819Y144460D01*
X103820Y142459D01*
X104903Y139845D01*
X104903Y137015D01*
X103820Y134401D01*
X102440Y133021D01*
X102380Y132938D01*
X102316Y132858D01*
X102309Y132838D01*
X102297Y132822D01*
X102267Y132723D01*
X102231Y132627D01*
X102230Y132606D01*
X102224Y132587D01*
X102227Y132484D01*
X102224Y132381D01*
X102230Y132361D01*
X102231Y132341D01*
X102266Y132244D01*
X102296Y132146D01*
X102308Y132129D01*
X102315Y132110D01*
X102379Y132029D01*
X102439Y131946D01*
X102456Y131934D01*
X102469Y131918D01*
X102555Y131862D01*
X102639Y131802D01*
X102663Y131793D01*
X102676Y131785D01*
X102707Y131777D01*
X102796Y131744D01*
X109040Y130205D01*
X120502Y124189D01*
X130191Y115606D01*
X137544Y104953D01*
X142134Y92850D01*
X143694Y80000D01*
X142134Y67150D01*
X137544Y55047D01*
X132496Y47734D01*
X132495Y47732D01*
X132493Y47730D01*
X132443Y47621D01*
X132391Y47512D01*
X132391Y47509D01*
X132390Y47507D01*
X132376Y47387D01*
X132362Y47268D01*
X132363Y47265D01*
X132363Y47263D01*
X132389Y47143D01*
X132413Y47027D01*
X132414Y47025D01*
X132415Y47022D01*
X132477Y46918D01*
X132538Y46815D01*
X132540Y46813D01*
X132541Y46811D01*
X132633Y46733D01*
X132723Y46654D01*
X132726Y46653D01*
X132728Y46651D01*
X132842Y46605D01*
X132951Y46560D01*
X132954Y46560D01*
X132956Y46559D01*
X133123Y46541D01*
X135937Y46541D01*
X135937Y41523D01*
X130919Y41523D01*
X130919Y43348D01*
X130917Y43364D01*
X130918Y43377D01*
X130912Y43407D01*
X130913Y43445D01*
X130892Y43517D01*
X130880Y43591D01*
X130866Y43616D01*
X130866Y43618D01*
X130861Y43626D01*
X130857Y43634D01*
X130843Y43681D01*
X130799Y43742D01*
X130764Y43808D01*
X130729Y43842D01*
X130701Y43882D01*
X130640Y43926D01*
X130586Y43978D01*
X130542Y43998D01*
X130502Y44027D01*
X130431Y44050D01*
X130363Y44081D01*
X130315Y44087D01*
X130268Y44101D01*
X130193Y44100D01*
X130119Y44108D01*
X130071Y44098D01*
X130022Y44097D01*
X129951Y44072D01*
X129878Y44056D01*
X129836Y44031D01*
X129790Y44015D01*
X129703Y43953D01*
X129686Y43944D01*
X129680Y43938D01*
X129667Y43930D01*
X129662Y43924D01*
X129653Y43918D01*
X120502Y35811D01*
X109040Y29795D01*
X96472Y26697D01*
X12700Y26697D01*
X12674Y26693D01*
X12625Y26694D01*
X10941Y26528D01*
X10913Y26520D01*
X10885Y26520D01*
X10724Y26473D01*
X7611Y25184D01*
X7555Y25149D01*
X7495Y25124D01*
X7430Y25072D01*
X7402Y25054D01*
X7389Y25039D01*
X7364Y25019D01*
X4981Y22636D01*
X4943Y22583D01*
X4897Y22536D01*
X4857Y22463D01*
X4838Y22436D01*
X4832Y22418D01*
X4816Y22389D01*
X3527Y19276D01*
X3520Y19249D01*
X3507Y19224D01*
X3500Y19192D01*
X3496Y19183D01*
X3493Y19159D01*
X3472Y19059D01*
X3306Y17375D01*
X3308Y17348D01*
X3303Y17300D01*
X3303Y-17300D01*
X3307Y-17326D01*
X3306Y-17375D01*
X3472Y-19059D01*
X3480Y-19087D01*
X3480Y-19115D01*
X3527Y-19276D01*
X4816Y-22389D01*
X4851Y-22445D01*
X4876Y-22505D01*
X4928Y-22570D01*
X4946Y-22598D01*
X4961Y-22611D01*
X4981Y-22636D01*
X7364Y-25019D01*
X7417Y-25057D01*
X7464Y-25103D01*
X7537Y-25143D01*
X7564Y-25162D01*
X7582Y-25168D01*
X7611Y-25184D01*
X10724Y-26473D01*
X10751Y-26480D01*
X10776Y-26493D01*
X10941Y-26528D01*
X12625Y-26694D01*
X12652Y-26692D01*
X12700Y-26697D01*
X410685Y-26697D01*
X410755Y-26686D01*
G37*
%LPC*%
G36*
X197457Y-18637D02*
X197457Y-18637D01*
X195123Y-17670D01*
X193336Y-15884D01*
X192369Y-13550D01*
X192369Y-609D01*
X193336Y1725D01*
X195123Y3511D01*
X197457Y4478D01*
X199983Y4478D01*
X202317Y3511D01*
X204104Y1725D01*
X204265Y1336D01*
X204303Y1275D01*
X204332Y1209D01*
X204367Y1171D01*
X204395Y1127D01*
X204450Y1081D01*
X204498Y1028D01*
X204544Y1003D01*
X204584Y970D01*
X204651Y944D01*
X204714Y910D01*
X204765Y900D01*
X204814Y882D01*
X204885Y879D01*
X204956Y866D01*
X205008Y873D01*
X205060Y871D01*
X205128Y891D01*
X205199Y902D01*
X205246Y925D01*
X205296Y940D01*
X205355Y981D01*
X205419Y1013D01*
X205455Y1050D01*
X205498Y1080D01*
X205541Y1138D01*
X205591Y1189D01*
X205625Y1252D01*
X205645Y1277D01*
X205652Y1300D01*
X205672Y1336D01*
X205833Y1725D01*
X207619Y3511D01*
X209954Y4478D01*
X212480Y4478D01*
X214814Y3511D01*
X216601Y1725D01*
X216762Y1336D01*
X216800Y1275D01*
X216829Y1209D01*
X216864Y1171D01*
X216891Y1127D01*
X216947Y1081D01*
X216995Y1028D01*
X217041Y1003D01*
X217081Y970D01*
X217148Y944D01*
X217211Y910D01*
X217262Y900D01*
X217311Y882D01*
X217382Y879D01*
X217453Y866D01*
X217504Y873D01*
X217556Y871D01*
X217625Y891D01*
X217696Y902D01*
X217743Y925D01*
X217793Y940D01*
X217851Y981D01*
X217915Y1013D01*
X217952Y1050D01*
X217995Y1080D01*
X218037Y1138D01*
X218088Y1189D01*
X218122Y1252D01*
X218141Y1277D01*
X218149Y1300D01*
X218168Y1336D01*
X218330Y1725D01*
X220116Y3511D01*
X222450Y4478D01*
X224977Y4478D01*
X227311Y3511D01*
X229097Y1725D01*
X229259Y1336D01*
X229296Y1275D01*
X229326Y1209D01*
X229361Y1171D01*
X229388Y1127D01*
X229443Y1081D01*
X229492Y1028D01*
X229538Y1003D01*
X229578Y970D01*
X229645Y944D01*
X229708Y910D01*
X229759Y900D01*
X229807Y882D01*
X229879Y879D01*
X229950Y866D01*
X230001Y873D01*
X230053Y871D01*
X230122Y891D01*
X230193Y902D01*
X230239Y925D01*
X230289Y940D01*
X230348Y981D01*
X230412Y1013D01*
X230449Y1050D01*
X230491Y1080D01*
X230534Y1138D01*
X230584Y1189D01*
X230619Y1252D01*
X230638Y1277D01*
X230645Y1300D01*
X230665Y1336D01*
X230826Y1725D01*
X232613Y3511D01*
X234947Y4478D01*
X237474Y4478D01*
X239808Y3511D01*
X241594Y1725D01*
X241755Y1336D01*
X241793Y1275D01*
X241822Y1209D01*
X241858Y1171D01*
X241885Y1127D01*
X241940Y1081D01*
X241989Y1028D01*
X242034Y1003D01*
X242075Y970D01*
X242141Y944D01*
X242204Y910D01*
X242256Y900D01*
X242304Y882D01*
X242376Y879D01*
X242446Y866D01*
X242498Y873D01*
X242550Y871D01*
X242619Y891D01*
X242690Y902D01*
X242736Y925D01*
X242786Y940D01*
X242845Y981D01*
X242909Y1013D01*
X242945Y1050D01*
X242988Y1080D01*
X243031Y1138D01*
X243081Y1189D01*
X243116Y1252D01*
X243135Y1277D01*
X243142Y1300D01*
X243162Y1336D01*
X243323Y1725D01*
X245110Y3511D01*
X247444Y4478D01*
X249970Y4478D01*
X252305Y3511D01*
X254091Y1725D01*
X254252Y1336D01*
X254290Y1275D01*
X254319Y1209D01*
X254354Y1171D01*
X254382Y1127D01*
X254437Y1081D01*
X254486Y1028D01*
X254531Y1003D01*
X254571Y970D01*
X254638Y944D01*
X254701Y910D01*
X254752Y900D01*
X254801Y882D01*
X254872Y879D01*
X254943Y866D01*
X254995Y873D01*
X255047Y871D01*
X255116Y891D01*
X255186Y902D01*
X255233Y925D01*
X255283Y940D01*
X255342Y981D01*
X255406Y1013D01*
X255442Y1050D01*
X255485Y1080D01*
X255528Y1138D01*
X255578Y1189D01*
X255613Y1252D01*
X255632Y1277D01*
X255639Y1300D01*
X255659Y1336D01*
X255820Y1725D01*
X257606Y3511D01*
X259941Y4478D01*
X262467Y4478D01*
X264801Y3511D01*
X266588Y1725D01*
X266749Y1336D01*
X266787Y1275D01*
X266816Y1209D01*
X266851Y1171D01*
X266879Y1127D01*
X266934Y1081D01*
X266982Y1028D01*
X267028Y1003D01*
X267068Y970D01*
X267135Y944D01*
X267198Y910D01*
X267249Y900D01*
X267298Y882D01*
X267369Y879D01*
X267440Y866D01*
X267491Y873D01*
X267543Y871D01*
X267612Y891D01*
X267683Y902D01*
X267730Y925D01*
X267780Y940D01*
X267839Y981D01*
X267902Y1013D01*
X267939Y1050D01*
X267982Y1080D01*
X268025Y1138D01*
X268075Y1189D01*
X268109Y1252D01*
X268129Y1277D01*
X268136Y1300D01*
X268156Y1336D01*
X268317Y1725D01*
X270103Y3511D01*
X272437Y4478D01*
X274964Y4478D01*
X277298Y3511D01*
X279085Y1725D01*
X279246Y1336D01*
X279284Y1275D01*
X279313Y1209D01*
X279348Y1171D01*
X279375Y1127D01*
X279431Y1081D01*
X279479Y1028D01*
X279525Y1003D01*
X279565Y970D01*
X279632Y944D01*
X279695Y910D01*
X279746Y900D01*
X279794Y882D01*
X279866Y879D01*
X279937Y866D01*
X279988Y873D01*
X280040Y871D01*
X280109Y891D01*
X280180Y902D01*
X280226Y925D01*
X280276Y940D01*
X280335Y981D01*
X280399Y1013D01*
X280436Y1050D01*
X280479Y1080D01*
X280521Y1138D01*
X280572Y1189D01*
X280606Y1252D01*
X280625Y1277D01*
X280633Y1300D01*
X280652Y1336D01*
X280814Y1725D01*
X282600Y3511D01*
X284934Y4478D01*
X287461Y4478D01*
X289795Y3511D01*
X291581Y1725D01*
X292548Y-609D01*
X292548Y-13550D01*
X291581Y-15884D01*
X289795Y-17670D01*
X287461Y-18637D01*
X284934Y-18637D01*
X282600Y-17670D01*
X280814Y-15884D01*
X280652Y-15495D01*
X280615Y-15434D01*
X280585Y-15368D01*
X280550Y-15330D01*
X280523Y-15286D01*
X280467Y-15240D01*
X280419Y-15187D01*
X280373Y-15162D01*
X280333Y-15129D01*
X280266Y-15103D01*
X280204Y-15069D01*
X280152Y-15059D01*
X280104Y-15041D01*
X280032Y-15038D01*
X279961Y-15025D01*
X279910Y-15032D01*
X279858Y-15030D01*
X279789Y-15050D01*
X279718Y-15061D01*
X279672Y-15084D01*
X279622Y-15099D01*
X279563Y-15140D01*
X279499Y-15172D01*
X279462Y-15209D01*
X279420Y-15239D01*
X279377Y-15297D01*
X279327Y-15348D01*
X279292Y-15411D01*
X279273Y-15436D01*
X279266Y-15459D01*
X279246Y-15495D01*
X279085Y-15884D01*
X277298Y-17670D01*
X274964Y-18637D01*
X272437Y-18637D01*
X270103Y-17670D01*
X268317Y-15884D01*
X268156Y-15495D01*
X268118Y-15434D01*
X268089Y-15368D01*
X268054Y-15330D01*
X268026Y-15286D01*
X267971Y-15240D01*
X267922Y-15187D01*
X267877Y-15162D01*
X267837Y-15129D01*
X267770Y-15103D01*
X267707Y-15069D01*
X267655Y-15059D01*
X267607Y-15041D01*
X267535Y-15038D01*
X267465Y-15025D01*
X267413Y-15032D01*
X267361Y-15030D01*
X267292Y-15050D01*
X267221Y-15061D01*
X267175Y-15084D01*
X267125Y-15099D01*
X267066Y-15140D01*
X267002Y-15172D01*
X266966Y-15209D01*
X266923Y-15239D01*
X266880Y-15297D01*
X266830Y-15348D01*
X266795Y-15411D01*
X266776Y-15436D01*
X266769Y-15459D01*
X266749Y-15495D01*
X266588Y-15884D01*
X264801Y-17670D01*
X262467Y-18637D01*
X259941Y-18637D01*
X257606Y-17670D01*
X255820Y-15884D01*
X255659Y-15495D01*
X255621Y-15434D01*
X255592Y-15368D01*
X255557Y-15330D01*
X255529Y-15286D01*
X255474Y-15240D01*
X255425Y-15187D01*
X255380Y-15162D01*
X255340Y-15129D01*
X255273Y-15103D01*
X255210Y-15069D01*
X255159Y-15059D01*
X255110Y-15041D01*
X255039Y-15038D01*
X254968Y-15025D01*
X254916Y-15032D01*
X254864Y-15030D01*
X254795Y-15050D01*
X254725Y-15061D01*
X254678Y-15084D01*
X254628Y-15099D01*
X254569Y-15140D01*
X254505Y-15172D01*
X254469Y-15209D01*
X254426Y-15239D01*
X254383Y-15297D01*
X254333Y-15348D01*
X254299Y-15411D01*
X254279Y-15436D01*
X254272Y-15459D01*
X254252Y-15495D01*
X254091Y-15884D01*
X252305Y-17670D01*
X249970Y-18637D01*
X247444Y-18637D01*
X245110Y-17670D01*
X243323Y-15884D01*
X243162Y-15495D01*
X243124Y-15434D01*
X243095Y-15368D01*
X243060Y-15330D01*
X243032Y-15286D01*
X242977Y-15240D01*
X242929Y-15187D01*
X242883Y-15162D01*
X242843Y-15129D01*
X242776Y-15103D01*
X242713Y-15069D01*
X242662Y-15059D01*
X242613Y-15041D01*
X242542Y-15038D01*
X242471Y-15025D01*
X242420Y-15032D01*
X242368Y-15030D01*
X242299Y-15050D01*
X242228Y-15061D01*
X242181Y-15084D01*
X242131Y-15099D01*
X242073Y-15140D01*
X242009Y-15172D01*
X241972Y-15209D01*
X241929Y-15239D01*
X241887Y-15297D01*
X241836Y-15348D01*
X241802Y-15411D01*
X241783Y-15436D01*
X241775Y-15459D01*
X241755Y-15495D01*
X241594Y-15884D01*
X239808Y-17670D01*
X237474Y-18637D01*
X234947Y-18637D01*
X232613Y-17670D01*
X230826Y-15884D01*
X230665Y-15495D01*
X230628Y-15434D01*
X230598Y-15368D01*
X230563Y-15330D01*
X230536Y-15286D01*
X230480Y-15240D01*
X230432Y-15187D01*
X230386Y-15162D01*
X230346Y-15129D01*
X230279Y-15103D01*
X230216Y-15069D01*
X230165Y-15059D01*
X230117Y-15041D01*
X230045Y-15038D01*
X229974Y-15025D01*
X229923Y-15032D01*
X229871Y-15030D01*
X229802Y-15050D01*
X229731Y-15061D01*
X229685Y-15084D01*
X229635Y-15099D01*
X229576Y-15140D01*
X229512Y-15172D01*
X229475Y-15209D01*
X229433Y-15239D01*
X229390Y-15297D01*
X229340Y-15348D01*
X229305Y-15411D01*
X229286Y-15436D01*
X229278Y-15459D01*
X229259Y-15495D01*
X229097Y-15884D01*
X227311Y-17670D01*
X224977Y-18637D01*
X222450Y-18637D01*
X220116Y-17670D01*
X218330Y-15884D01*
X218168Y-15495D01*
X218131Y-15434D01*
X218102Y-15368D01*
X218066Y-15330D01*
X218039Y-15286D01*
X217984Y-15240D01*
X217935Y-15187D01*
X217889Y-15162D01*
X217849Y-15129D01*
X217783Y-15103D01*
X217720Y-15069D01*
X217668Y-15059D01*
X217620Y-15041D01*
X217548Y-15038D01*
X217478Y-15025D01*
X217426Y-15032D01*
X217374Y-15030D01*
X217305Y-15050D01*
X217234Y-15061D01*
X217188Y-15084D01*
X217138Y-15099D01*
X217079Y-15140D01*
X217015Y-15172D01*
X216978Y-15209D01*
X216936Y-15239D01*
X216893Y-15297D01*
X216843Y-15348D01*
X216808Y-15411D01*
X216789Y-15436D01*
X216782Y-15459D01*
X216762Y-15495D01*
X216601Y-15884D01*
X214814Y-17670D01*
X212480Y-18637D01*
X209954Y-18637D01*
X207619Y-17670D01*
X205833Y-15884D01*
X205672Y-15495D01*
X205634Y-15434D01*
X205605Y-15368D01*
X205570Y-15330D01*
X205542Y-15286D01*
X205487Y-15240D01*
X205438Y-15187D01*
X205393Y-15162D01*
X205353Y-15129D01*
X205286Y-15103D01*
X205223Y-15069D01*
X205172Y-15059D01*
X205123Y-15041D01*
X205051Y-15038D01*
X204981Y-15025D01*
X204929Y-15032D01*
X204877Y-15030D01*
X204808Y-15050D01*
X204737Y-15061D01*
X204691Y-15084D01*
X204641Y-15099D01*
X204582Y-15140D01*
X204518Y-15172D01*
X204482Y-15209D01*
X204439Y-15239D01*
X204396Y-15297D01*
X204346Y-15348D01*
X204311Y-15411D01*
X204292Y-15436D01*
X204285Y-15459D01*
X204265Y-15495D01*
X204104Y-15884D01*
X202317Y-17670D01*
X199983Y-18637D01*
X197457Y-18637D01*
G37*
%LPD*%
%LPC*%
G36*
X97645Y-13463D02*
X97645Y-13463D01*
X95031Y-12380D01*
X93030Y-10379D01*
X91947Y-7765D01*
X91947Y-6764D01*
X91947Y-6761D01*
X91947Y-6758D01*
X91927Y-6640D01*
X91908Y-6521D01*
X91906Y-6518D01*
X91906Y-6515D01*
X91849Y-6410D01*
X91792Y-6304D01*
X91790Y-6302D01*
X91789Y-6299D01*
X91701Y-6217D01*
X91614Y-6134D01*
X91611Y-6133D01*
X91609Y-6131D01*
X91500Y-6081D01*
X91391Y-6031D01*
X91388Y-6030D01*
X91385Y-6029D01*
X91219Y-6003D01*
X44687Y-3956D01*
X44651Y-3961D01*
X44615Y-3957D01*
X44529Y-3975D01*
X44443Y-3985D01*
X44410Y-4001D01*
X44374Y-4009D01*
X44299Y-4053D01*
X44221Y-4091D01*
X44195Y-4116D01*
X44163Y-4135D01*
X44106Y-4201D01*
X44044Y-4261D01*
X44027Y-4294D01*
X44003Y-4322D01*
X43971Y-4403D01*
X43931Y-4480D01*
X43925Y-4516D01*
X43911Y-4550D01*
X43893Y-4717D01*
X43893Y-5192D01*
X42702Y-6383D01*
X33018Y-6383D01*
X31827Y-5192D01*
X31827Y-148D01*
X31825Y-136D01*
X31827Y-125D01*
X31805Y-15D01*
X31788Y95D01*
X31782Y105D01*
X31780Y117D01*
X31725Y214D01*
X31672Y312D01*
X31664Y320D01*
X31658Y330D01*
X31539Y449D01*
X27449Y3693D01*
X27363Y3741D01*
X27279Y3795D01*
X27256Y3801D01*
X27234Y3813D01*
X27137Y3831D01*
X27040Y3855D01*
X27016Y3853D01*
X26993Y3858D01*
X26894Y3844D01*
X26795Y3836D01*
X26773Y3827D01*
X26749Y3823D01*
X26660Y3779D01*
X26569Y3740D01*
X26545Y3721D01*
X26529Y3713D01*
X26506Y3689D01*
X26438Y3635D01*
X24927Y2124D01*
X21773Y817D01*
X18359Y817D01*
X15205Y2124D01*
X12792Y4537D01*
X11485Y7691D01*
X11485Y11105D01*
X12792Y14259D01*
X15205Y16672D01*
X18359Y17979D01*
X21773Y17979D01*
X24927Y16672D01*
X27340Y14259D01*
X28528Y11391D01*
X28585Y11299D01*
X28639Y11204D01*
X28652Y11192D01*
X28658Y11182D01*
X28680Y11163D01*
X28758Y11086D01*
X35362Y5848D01*
X35404Y5824D01*
X35440Y5793D01*
X35511Y5765D01*
X35577Y5728D01*
X35624Y5719D01*
X35668Y5701D01*
X35797Y5687D01*
X35818Y5683D01*
X35825Y5684D01*
X35835Y5683D01*
X42702Y5683D01*
X43893Y4492D01*
X43893Y3419D01*
X43893Y3416D01*
X43893Y3413D01*
X43913Y3294D01*
X43932Y3176D01*
X43934Y3174D01*
X43934Y3171D01*
X43991Y3065D01*
X44048Y2959D01*
X44050Y2957D01*
X44051Y2954D01*
X44139Y2872D01*
X44226Y2790D01*
X44229Y2788D01*
X44231Y2786D01*
X44340Y2736D01*
X44449Y2686D01*
X44452Y2686D01*
X44455Y2684D01*
X44621Y2659D01*
X52709Y2303D01*
X52822Y2316D01*
X52936Y2327D01*
X52945Y2331D01*
X52954Y2332D01*
X53056Y2380D01*
X53161Y2427D01*
X53168Y2433D01*
X53176Y2437D01*
X53258Y2516D01*
X53342Y2593D01*
X53346Y2601D01*
X53353Y2608D01*
X53405Y2708D01*
X53460Y2809D01*
X53462Y2818D01*
X53466Y2826D01*
X53484Y2938D01*
X53504Y3051D01*
X53503Y3060D01*
X53504Y3069D01*
X53485Y3181D01*
X53468Y3294D01*
X53464Y3302D01*
X53462Y3312D01*
X53409Y3411D01*
X53357Y3513D01*
X53350Y3520D01*
X53346Y3528D01*
X53263Y3605D01*
X53181Y3686D01*
X53171Y3691D01*
X53166Y3696D01*
X53145Y3706D01*
X53034Y3767D01*
X52436Y4014D01*
X50907Y5036D01*
X49606Y6337D01*
X48584Y7866D01*
X47880Y9566D01*
X47641Y10767D01*
X56098Y10767D01*
X56118Y10770D01*
X56137Y10768D01*
X56239Y10790D01*
X56341Y10807D01*
X56358Y10816D01*
X56378Y10820D01*
X56467Y10873D01*
X56558Y10922D01*
X56572Y10936D01*
X56589Y10946D01*
X56656Y11025D01*
X56727Y11100D01*
X56736Y11118D01*
X56749Y11133D01*
X56787Y11229D01*
X56831Y11323D01*
X56833Y11343D01*
X56841Y11361D01*
X56859Y11528D01*
X56859Y12291D01*
X56861Y12291D01*
X56861Y11528D01*
X56864Y11508D01*
X56862Y11489D01*
X56884Y11387D01*
X56901Y11285D01*
X56910Y11268D01*
X56914Y11248D01*
X56967Y11159D01*
X57016Y11068D01*
X57030Y11054D01*
X57040Y11037D01*
X57119Y10970D01*
X57194Y10899D01*
X57212Y10890D01*
X57227Y10877D01*
X57323Y10838D01*
X57417Y10795D01*
X57437Y10793D01*
X57455Y10785D01*
X57622Y10767D01*
X66079Y10767D01*
X65840Y9566D01*
X65136Y7866D01*
X64114Y6337D01*
X62813Y5036D01*
X61284Y4014D01*
X59895Y3439D01*
X59827Y3396D01*
X59754Y3362D01*
X59723Y3332D01*
X59686Y3309D01*
X59634Y3247D01*
X59576Y3191D01*
X59557Y3153D01*
X59529Y3120D01*
X59500Y3044D01*
X59463Y2973D01*
X59457Y2930D01*
X59441Y2890D01*
X59438Y2810D01*
X59425Y2730D01*
X59433Y2688D01*
X59431Y2645D01*
X59453Y2567D01*
X59467Y2487D01*
X59487Y2450D01*
X59499Y2408D01*
X59545Y2342D01*
X59584Y2271D01*
X59615Y2242D01*
X59640Y2206D01*
X59704Y2158D01*
X59763Y2103D01*
X59802Y2085D01*
X59837Y2060D01*
X59914Y2034D01*
X59987Y2001D01*
X60043Y1992D01*
X60071Y1983D01*
X60099Y1984D01*
X60153Y1975D01*
X95656Y413D01*
X95669Y415D01*
X95689Y413D01*
X96649Y413D01*
X96713Y423D01*
X96779Y424D01*
X96859Y447D01*
X96892Y452D01*
X96909Y462D01*
X96940Y471D01*
X97645Y763D01*
X100475Y763D01*
X103089Y-320D01*
X105090Y-2321D01*
X106173Y-4935D01*
X106173Y-7765D01*
X105090Y-10379D01*
X103089Y-12380D01*
X100475Y-13463D01*
X97645Y-13463D01*
G37*
%LPD*%
%LPC*%
G36*
X381943Y3009D02*
X381943Y3009D01*
X378698Y4354D01*
X376214Y6838D01*
X374869Y10083D01*
X374869Y13597D01*
X376214Y16842D01*
X378698Y19326D01*
X381943Y20671D01*
X385457Y20671D01*
X388702Y19326D01*
X391186Y16842D01*
X392531Y13597D01*
X392531Y10083D01*
X391186Y6838D01*
X388702Y4354D01*
X385457Y3009D01*
X381943Y3009D01*
G37*
%LPD*%
%LPC*%
G36*
X75423Y3459D02*
X75423Y3459D01*
X72178Y4804D01*
X69694Y7288D01*
X68349Y10533D01*
X68349Y14047D01*
X69694Y17292D01*
X72178Y19776D01*
X75423Y21121D01*
X78937Y21121D01*
X82182Y19776D01*
X84666Y17292D01*
X86011Y14047D01*
X86011Y10533D01*
X84666Y7288D01*
X82182Y4804D01*
X78937Y3459D01*
X75423Y3459D01*
G37*
%LPD*%
%LPC*%
G36*
X95743Y3459D02*
X95743Y3459D01*
X92498Y4804D01*
X90014Y7288D01*
X88669Y10533D01*
X88669Y14047D01*
X90014Y17292D01*
X92498Y19776D01*
X95743Y21121D01*
X99257Y21121D01*
X102502Y19776D01*
X104986Y17292D01*
X106331Y14047D01*
X106331Y10533D01*
X104986Y7288D01*
X102502Y4804D01*
X99257Y3459D01*
X95743Y3459D01*
G37*
%LPD*%
%LPC*%
G36*
X18359Y-18233D02*
X18359Y-18233D01*
X15205Y-16926D01*
X12792Y-14513D01*
X11485Y-11359D01*
X11485Y-7945D01*
X12792Y-4791D01*
X15205Y-2378D01*
X18359Y-1071D01*
X21773Y-1071D01*
X24927Y-2378D01*
X27340Y-4791D01*
X28647Y-7945D01*
X28647Y-11359D01*
X27340Y-14513D01*
X24927Y-16926D01*
X21773Y-18233D01*
X18359Y-18233D01*
G37*
%LPD*%
G36*
X322147Y135577D02*
X322147Y135577D01*
X322218Y135583D01*
X322266Y135603D01*
X322317Y135614D01*
X322378Y135651D01*
X322444Y135679D01*
X322500Y135724D01*
X322528Y135741D01*
X322543Y135758D01*
X322575Y135784D01*
X323631Y136840D01*
X326245Y137923D01*
X327991Y137923D01*
X328081Y137937D01*
X328172Y137945D01*
X328201Y137957D01*
X328233Y137962D01*
X328314Y138005D01*
X328398Y138041D01*
X328430Y138067D01*
X328451Y138078D01*
X328473Y138101D01*
X328529Y138146D01*
X339374Y148991D01*
X339845Y149462D01*
X339887Y149520D01*
X339936Y149572D01*
X339958Y149619D01*
X339988Y149661D01*
X340009Y149730D01*
X340040Y149795D01*
X340045Y149847D01*
X340061Y149897D01*
X340059Y149968D01*
X340067Y150039D01*
X340056Y150090D01*
X340054Y150142D01*
X340030Y150210D01*
X340015Y150280D01*
X339988Y150324D01*
X339970Y150373D01*
X339925Y150429D01*
X339888Y150491D01*
X339849Y150525D01*
X339816Y150565D01*
X339756Y150604D01*
X339701Y150651D01*
X339653Y150670D01*
X339609Y150698D01*
X339540Y150716D01*
X339473Y150743D01*
X339402Y150751D01*
X339371Y150759D01*
X339348Y150757D01*
X339307Y150761D01*
X322279Y150761D01*
X322186Y150746D01*
X322092Y150738D01*
X322065Y150726D01*
X322036Y150722D01*
X321953Y150677D01*
X321866Y150640D01*
X321844Y150620D01*
X321819Y150606D01*
X321754Y150538D01*
X321684Y150475D01*
X321669Y150449D01*
X321649Y150428D01*
X321610Y150343D01*
X321563Y150260D01*
X321558Y150232D01*
X321546Y150205D01*
X321535Y150111D01*
X321518Y150019D01*
X321521Y149982D01*
X321519Y149961D01*
X321525Y149929D01*
X321532Y149851D01*
X321615Y149434D01*
X310480Y149434D01*
X310460Y149431D01*
X310441Y149433D01*
X310339Y149411D01*
X310237Y149395D01*
X310220Y149385D01*
X310200Y149381D01*
X310111Y149328D01*
X310020Y149279D01*
X310006Y149265D01*
X309989Y149255D01*
X309922Y149176D01*
X309851Y149101D01*
X309842Y149083D01*
X309829Y149068D01*
X309790Y148972D01*
X309747Y148878D01*
X309745Y148858D01*
X309737Y148840D01*
X309719Y148673D01*
X309719Y147149D01*
X309722Y147129D01*
X309720Y147110D01*
X309742Y147008D01*
X309759Y146906D01*
X309768Y146889D01*
X309772Y146869D01*
X309825Y146780D01*
X309874Y146689D01*
X309888Y146675D01*
X309898Y146658D01*
X309977Y146591D01*
X310052Y146520D01*
X310070Y146511D01*
X310085Y146498D01*
X310181Y146460D01*
X310275Y146416D01*
X310295Y146414D01*
X310313Y146406D01*
X310480Y146388D01*
X321615Y146388D01*
X321520Y145910D01*
X321003Y144662D01*
X320252Y143539D01*
X319297Y142584D01*
X318534Y142073D01*
X318465Y142009D01*
X318391Y141950D01*
X318375Y141926D01*
X318354Y141906D01*
X318309Y141823D01*
X318258Y141743D01*
X318251Y141715D01*
X318237Y141689D01*
X318221Y141596D01*
X318198Y141505D01*
X318200Y141476D01*
X318195Y141447D01*
X318210Y141353D01*
X318217Y141260D01*
X318229Y141233D01*
X318233Y141204D01*
X318277Y141120D01*
X318314Y141033D01*
X318337Y141004D01*
X318346Y140985D01*
X318370Y140963D01*
X318418Y140902D01*
X320309Y139012D01*
X321276Y136678D01*
X321276Y136322D01*
X321287Y136252D01*
X321289Y136180D01*
X321307Y136131D01*
X321315Y136080D01*
X321349Y136016D01*
X321374Y135949D01*
X321406Y135908D01*
X321431Y135862D01*
X321483Y135813D01*
X321527Y135757D01*
X321571Y135729D01*
X321609Y135693D01*
X321674Y135663D01*
X321734Y135624D01*
X321785Y135611D01*
X321832Y135589D01*
X321903Y135581D01*
X321973Y135564D01*
X322025Y135568D01*
X322076Y135562D01*
X322147Y135577D01*
G37*
%LPC*%
G36*
X365703Y-9863D02*
X365703Y-9863D01*
X376026Y-9863D01*
X375825Y-11136D01*
X375244Y-12923D01*
X374391Y-14597D01*
X373286Y-16118D01*
X371958Y-17446D01*
X370437Y-18551D01*
X368763Y-19404D01*
X366976Y-19985D01*
X365703Y-20186D01*
X365703Y-9863D01*
G37*
%LPD*%
%LPC*%
G36*
X361384Y-19985D02*
X361384Y-19985D01*
X359597Y-19404D01*
X357923Y-18551D01*
X356402Y-17446D01*
X355074Y-16118D01*
X353969Y-14597D01*
X353116Y-12923D01*
X352535Y-11136D01*
X352334Y-9863D01*
X362657Y-9863D01*
X362657Y-20186D01*
X361384Y-19985D01*
G37*
%LPD*%
%LPC*%
G36*
X365703Y-6817D02*
X365703Y-6817D01*
X365703Y3506D01*
X366976Y3305D01*
X368763Y2724D01*
X370437Y1871D01*
X371958Y766D01*
X373286Y-562D01*
X374391Y-2083D01*
X375244Y-3757D01*
X375825Y-5544D01*
X376026Y-6817D01*
X365703Y-6817D01*
G37*
%LPD*%
%LPC*%
G36*
X352334Y-6817D02*
X352334Y-6817D01*
X352535Y-5544D01*
X353116Y-3757D01*
X353969Y-2083D01*
X355074Y-562D01*
X356402Y766D01*
X357923Y1871D01*
X359597Y2724D01*
X361384Y3305D01*
X362657Y3506D01*
X362657Y-6817D01*
X352334Y-6817D01*
G37*
%LPD*%
%LPC*%
G36*
X174843Y3537D02*
X174843Y3537D01*
X174843Y8873D01*
X185217Y8873D01*
X185122Y8395D01*
X184605Y7147D01*
X183854Y6024D01*
X182899Y5068D01*
X181776Y4318D01*
X180528Y3801D01*
X179203Y3537D01*
X174843Y3537D01*
G37*
%LPD*%
%LPC*%
G36*
X167437Y3537D02*
X167437Y3537D01*
X166112Y3801D01*
X164864Y4318D01*
X163741Y5068D01*
X162786Y6024D01*
X162035Y7147D01*
X161518Y8395D01*
X161423Y8873D01*
X171797Y8873D01*
X171797Y3537D01*
X167437Y3537D01*
G37*
%LPD*%
%LPC*%
G36*
X422183Y2747D02*
X422183Y2747D01*
X422085Y2751D01*
X421987Y2761D01*
X421962Y2755D01*
X421937Y2756D01*
X421849Y2729D01*
X421823Y2754D01*
X421794Y2770D01*
X421780Y2783D01*
X421749Y2795D01*
X421676Y2835D01*
X419916Y3564D01*
X418387Y4586D01*
X417086Y5887D01*
X416064Y7416D01*
X415360Y9116D01*
X415121Y10317D01*
X422817Y10317D01*
X422817Y2621D01*
X422183Y2747D01*
G37*
%LPD*%
%LPC*%
G36*
X58383Y13813D02*
X58383Y13813D01*
X58383Y21509D01*
X59584Y21270D01*
X61284Y20566D01*
X62813Y19544D01*
X64114Y18243D01*
X65136Y16714D01*
X65840Y15014D01*
X66079Y13813D01*
X58383Y13813D01*
G37*
%LPD*%
%LPC*%
G36*
X425863Y13363D02*
X425863Y13363D01*
X425863Y21059D01*
X427064Y20820D01*
X428764Y20116D01*
X430293Y19094D01*
X431594Y17793D01*
X432616Y16264D01*
X433320Y14564D01*
X433559Y13363D01*
X425863Y13363D01*
G37*
%LPD*%
%LPC*%
G36*
X47641Y13813D02*
X47641Y13813D01*
X47880Y15014D01*
X48584Y16714D01*
X49606Y18243D01*
X50907Y19544D01*
X52436Y20566D01*
X54136Y21270D01*
X55337Y21509D01*
X55337Y13813D01*
X47641Y13813D01*
G37*
%LPD*%
%LPC*%
G36*
X415121Y13363D02*
X415121Y13363D01*
X415360Y14564D01*
X416064Y16264D01*
X417086Y17793D01*
X418387Y19094D01*
X419916Y20116D01*
X421616Y20820D01*
X422817Y21059D01*
X422817Y13363D01*
X415121Y13363D01*
G37*
%LPD*%
%LPC*%
G36*
X425863Y10317D02*
X425863Y10317D01*
X433559Y10317D01*
X433320Y9116D01*
X432616Y7416D01*
X431594Y5887D01*
X430293Y4586D01*
X428764Y3564D01*
X427064Y2860D01*
X425863Y2621D01*
X425863Y10317D01*
G37*
%LPD*%
G36*
X72378Y143490D02*
X72378Y143490D01*
X72430Y143492D01*
X72498Y143516D01*
X72568Y143531D01*
X72612Y143558D01*
X72661Y143576D01*
X72717Y143621D01*
X72779Y143658D01*
X72813Y143697D01*
X72853Y143730D01*
X72892Y143790D01*
X72939Y143844D01*
X72958Y143893D01*
X72986Y143937D01*
X73004Y144006D01*
X73031Y144073D01*
X73039Y144144D01*
X73047Y144175D01*
X73045Y144198D01*
X73049Y144239D01*
X73049Y144907D01*
X78828Y144907D01*
X78848Y144910D01*
X78867Y144908D01*
X78969Y144930D01*
X79071Y144947D01*
X79088Y144956D01*
X79108Y144960D01*
X79197Y145013D01*
X79288Y145062D01*
X79302Y145076D01*
X79319Y145086D01*
X79386Y145165D01*
X79457Y145240D01*
X79466Y145258D01*
X79479Y145273D01*
X79518Y145369D01*
X79561Y145463D01*
X79563Y145483D01*
X79571Y145501D01*
X79589Y145668D01*
X79589Y147192D01*
X79586Y147212D01*
X79588Y147231D01*
X79566Y147333D01*
X79549Y147435D01*
X79540Y147452D01*
X79536Y147472D01*
X79483Y147561D01*
X79434Y147652D01*
X79420Y147666D01*
X79410Y147683D01*
X79331Y147750D01*
X79256Y147821D01*
X79238Y147830D01*
X79223Y147843D01*
X79127Y147882D01*
X79033Y147925D01*
X79013Y147927D01*
X78995Y147935D01*
X78828Y147953D01*
X73049Y147953D01*
X73049Y150000D01*
X73046Y150020D01*
X73048Y150039D01*
X73026Y150141D01*
X73010Y150243D01*
X73000Y150260D01*
X72996Y150280D01*
X72943Y150369D01*
X72894Y150460D01*
X72880Y150474D01*
X72870Y150491D01*
X72791Y150558D01*
X72716Y150630D01*
X72698Y150638D01*
X72683Y150651D01*
X72587Y150690D01*
X72493Y150733D01*
X72473Y150735D01*
X72455Y150743D01*
X72288Y150761D01*
X71144Y150761D01*
X71124Y150758D01*
X71105Y150760D01*
X71003Y150738D01*
X70901Y150722D01*
X70884Y150712D01*
X70864Y150708D01*
X70775Y150655D01*
X70684Y150606D01*
X70670Y150592D01*
X70653Y150582D01*
X70586Y150503D01*
X70514Y150428D01*
X70506Y150410D01*
X70493Y150395D01*
X70454Y150299D01*
X70411Y150205D01*
X70409Y150185D01*
X70401Y150167D01*
X70383Y150000D01*
X70383Y145383D01*
X70397Y145293D01*
X70405Y145202D01*
X70417Y145173D01*
X70422Y145141D01*
X70465Y145060D01*
X70501Y144976D01*
X70527Y144944D01*
X70538Y144923D01*
X70561Y144901D01*
X70606Y144845D01*
X71750Y143701D01*
X71808Y143659D01*
X71860Y143610D01*
X71907Y143588D01*
X71949Y143558D01*
X72018Y143536D01*
X72083Y143506D01*
X72135Y143500D01*
X72185Y143485D01*
X72256Y143487D01*
X72327Y143479D01*
X72378Y143490D01*
G37*
%LPC*%
G36*
X418633Y-3647D02*
X418633Y-3647D01*
X418633Y1371D01*
X421385Y1371D01*
X421481Y1386D01*
X421578Y1396D01*
X421583Y1398D01*
X421602Y1386D01*
X421681Y1326D01*
X421710Y1315D01*
X421726Y1305D01*
X421782Y1287D01*
X421837Y1265D01*
X422091Y1198D01*
X422670Y863D01*
X423143Y390D01*
X423478Y-189D01*
X423651Y-836D01*
X423651Y-3647D01*
X418633Y-3647D01*
G37*
%LPD*%
%LPC*%
G36*
X39383Y-22131D02*
X39383Y-22131D01*
X39383Y-17113D01*
X44401Y-17113D01*
X44401Y-19924D01*
X44228Y-20571D01*
X43893Y-21150D01*
X43420Y-21623D01*
X42841Y-21958D01*
X42194Y-22131D01*
X39383Y-22131D01*
G37*
%LPD*%
%LPC*%
G36*
X418633Y-11711D02*
X418633Y-11711D01*
X418633Y-6693D01*
X423651Y-6693D01*
X423651Y-9504D01*
X423478Y-10151D01*
X423143Y-10730D01*
X422670Y-11203D01*
X422091Y-11538D01*
X421444Y-11711D01*
X418633Y-11711D01*
G37*
%LPD*%
%LPC*%
G36*
X152083Y141583D02*
X152083Y141583D01*
X152083Y146601D01*
X154894Y146601D01*
X155541Y146428D01*
X156120Y146093D01*
X156593Y145620D01*
X156928Y145041D01*
X157101Y144394D01*
X157101Y141583D01*
X152083Y141583D01*
G37*
%LPD*%
%LPC*%
G36*
X137003Y141183D02*
X137003Y141183D01*
X137003Y146201D01*
X139814Y146201D01*
X140461Y146028D01*
X141040Y145693D01*
X141513Y145220D01*
X141848Y144641D01*
X142021Y143994D01*
X142021Y141183D01*
X137003Y141183D01*
G37*
%LPD*%
%LPC*%
G36*
X138983Y41523D02*
X138983Y41523D01*
X138983Y46541D01*
X141794Y46541D01*
X142441Y46368D01*
X143020Y46033D01*
X143493Y45560D01*
X143828Y44981D01*
X144001Y44334D01*
X144001Y41523D01*
X138983Y41523D01*
G37*
%LPD*%
%LPC*%
G36*
X137003Y138137D02*
X137003Y138137D01*
X142021Y138137D01*
X142021Y135326D01*
X141848Y134679D01*
X141513Y134100D01*
X141040Y133627D01*
X140461Y133292D01*
X139814Y133119D01*
X137003Y133119D01*
X137003Y138137D01*
G37*
%LPD*%
%LPC*%
G36*
X128939Y141183D02*
X128939Y141183D01*
X128939Y143994D01*
X129112Y144641D01*
X129447Y145220D01*
X129920Y145693D01*
X130499Y146028D01*
X131146Y146201D01*
X133957Y146201D01*
X133957Y141183D01*
X128939Y141183D01*
G37*
%LPD*%
%LPC*%
G36*
X39383Y-14067D02*
X39383Y-14067D01*
X39383Y-9049D01*
X42194Y-9049D01*
X42841Y-9222D01*
X43420Y-9557D01*
X43893Y-10030D01*
X44228Y-10609D01*
X44401Y-11256D01*
X44401Y-14067D01*
X39383Y-14067D01*
G37*
%LPD*%
%LPC*%
G36*
X144019Y141583D02*
X144019Y141583D01*
X144019Y144394D01*
X144192Y145041D01*
X144527Y145620D01*
X145000Y146093D01*
X145579Y146428D01*
X146226Y146601D01*
X149037Y146601D01*
X149037Y141583D01*
X144019Y141583D01*
G37*
%LPD*%
%LPC*%
G36*
X32879Y-21958D02*
X32879Y-21958D01*
X32300Y-21623D01*
X31827Y-21150D01*
X31492Y-20571D01*
X31319Y-19924D01*
X31319Y-17113D01*
X36337Y-17113D01*
X36337Y-22131D01*
X33525Y-22131D01*
X32879Y-21958D01*
G37*
%LPD*%
%LPC*%
G36*
X133126Y33459D02*
X133126Y33459D01*
X132479Y33632D01*
X131900Y33967D01*
X131427Y34440D01*
X131092Y35019D01*
X130919Y35666D01*
X130919Y38477D01*
X135937Y38477D01*
X135937Y33459D01*
X133126Y33459D01*
G37*
%LPD*%
%LPC*%
G36*
X146226Y133519D02*
X146226Y133519D01*
X145579Y133692D01*
X145000Y134027D01*
X144527Y134500D01*
X144192Y135079D01*
X144019Y135726D01*
X144019Y138537D01*
X149037Y138537D01*
X149037Y133519D01*
X146226Y133519D01*
G37*
%LPD*%
%LPC*%
G36*
X131146Y133119D02*
X131146Y133119D01*
X130499Y133292D01*
X129920Y133627D01*
X129447Y134100D01*
X129112Y134679D01*
X128939Y135326D01*
X128939Y138137D01*
X133957Y138137D01*
X133957Y133119D01*
X131146Y133119D01*
G37*
%LPD*%
%LPC*%
G36*
X31319Y-14067D02*
X31319Y-14067D01*
X31319Y-11256D01*
X31492Y-10609D01*
X31827Y-10030D01*
X32300Y-9557D01*
X32879Y-9222D01*
X33526Y-9049D01*
X36337Y-9049D01*
X36337Y-14067D01*
X31319Y-14067D01*
G37*
%LPD*%
%LPC*%
G36*
X410569Y-3647D02*
X410569Y-3647D01*
X410569Y-836D01*
X410742Y-189D01*
X411077Y390D01*
X411550Y863D01*
X412129Y1198D01*
X412776Y1371D01*
X415587Y1371D01*
X415587Y-3647D01*
X410569Y-3647D01*
G37*
%LPD*%
%LPC*%
G36*
X364179Y-8341D02*
X364179Y-8341D01*
X364179Y-8339D01*
X364181Y-8339D01*
X364181Y-8341D01*
X364179Y-8341D01*
G37*
%LPD*%
%LPC*%
G36*
X424339Y11839D02*
X424339Y11839D01*
X424339Y11841D01*
X424341Y11841D01*
X424341Y11839D01*
X424339Y11839D01*
G37*
%LPD*%
%LPC*%
G36*
X417109Y-5171D02*
X417109Y-5171D01*
X417109Y-5169D01*
X417111Y-5169D01*
X417111Y-5171D01*
X417109Y-5171D01*
G37*
%LPD*%
%LPC*%
G36*
X137459Y39999D02*
X137459Y39999D01*
X137459Y40001D01*
X137461Y40001D01*
X137461Y39999D01*
X137459Y39999D01*
G37*
%LPD*%
%LPC*%
G36*
X37859Y-15591D02*
X37859Y-15591D01*
X37859Y-15589D01*
X37861Y-15589D01*
X37861Y-15591D01*
X37859Y-15591D01*
G37*
%LPD*%
%LPC*%
G36*
X150559Y140059D02*
X150559Y140059D01*
X150559Y140061D01*
X150561Y140061D01*
X150561Y140059D01*
X150559Y140059D01*
G37*
%LPD*%
%LPC*%
G36*
X135479Y139659D02*
X135479Y139659D01*
X135479Y139661D01*
X135481Y139661D01*
X135481Y139659D01*
X135479Y139659D01*
G37*
%LPD*%
D10*
X198720Y-12287D02*
X198720Y-1873D01*
X211217Y-1873D02*
X211217Y-12287D01*
X223714Y-12287D02*
X223714Y-1873D01*
X236210Y-1873D02*
X236210Y-12287D01*
X248707Y-12287D02*
X248707Y-1873D01*
X261204Y-1873D02*
X261204Y-12287D01*
X273701Y-12287D02*
X273701Y-1873D01*
X286197Y-1873D02*
X286197Y-12287D01*
X178527Y147861D02*
X168113Y147861D01*
X168113Y135364D02*
X178527Y135364D01*
X178527Y122867D02*
X168113Y122867D01*
X168113Y110370D02*
X178527Y110370D01*
X178527Y97873D02*
X168113Y97873D01*
X168113Y85377D02*
X178527Y85377D01*
X178527Y72880D02*
X168113Y72880D01*
X168113Y60383D02*
X178527Y60383D01*
X178527Y47886D02*
X168113Y47886D01*
X168113Y35389D02*
X178527Y35389D01*
X178527Y22893D02*
X168113Y22893D01*
X168113Y10396D02*
X178527Y10396D01*
X304511Y10447D02*
X314925Y10447D01*
X314925Y22943D02*
X304511Y22943D01*
X304511Y35440D02*
X314925Y35440D01*
X314925Y47937D02*
X304511Y47937D01*
X304511Y60434D02*
X314925Y60434D01*
X314925Y72930D02*
X304511Y72930D01*
X304511Y85427D02*
X314925Y85427D01*
X314925Y97924D02*
X304511Y97924D01*
X304511Y110421D02*
X314925Y110421D01*
X314925Y122918D02*
X304511Y122918D01*
X304511Y135414D02*
X314925Y135414D01*
X314925Y147911D02*
X304511Y147911D01*
X304511Y160408D02*
X314925Y160408D01*
X314925Y172905D02*
X304511Y172905D01*
D11*
X383700Y11840D03*
X404020Y11840D03*
X424340Y11840D03*
X97500Y12290D03*
X77180Y12290D03*
X56860Y12290D03*
D12*
X417110Y-5170D03*
X417110Y-20410D03*
X79590Y146430D03*
X64350Y146430D03*
X37860Y-15590D03*
X37860Y-350D03*
X135480Y139660D03*
X135480Y124420D03*
X150560Y140060D03*
X150560Y124820D03*
D13*
X338780Y-8340D03*
X364180Y-8340D03*
D12*
X152700Y40000D03*
X137460Y40000D03*
D14*
X436880Y-11430D03*
X455930Y-11430D03*
X10160Y149860D03*
X29210Y149860D03*
X20066Y-9652D03*
X20066Y9398D03*
D15*
X410570Y152680D03*
X425570Y152680D03*
X455570Y152680D03*
D16*
X396570Y180180D03*
D17*
X396570Y159180D03*
D16*
X469570Y180180D03*
D17*
X469570Y159180D03*
D18*
X159057Y135364D02*
X150560Y124820D01*
X159057Y135364D02*
X173320Y135364D01*
D19*
X152400Y113030D03*
D18*
X152400Y40300D01*
D19*
X144780Y6350D03*
D18*
X135480Y124420D02*
X135880Y124820D01*
X150560Y124820D01*
X152400Y122980D01*
X152400Y113030D01*
X152400Y40300D02*
X152700Y40000D01*
X144780Y32080D02*
X144780Y6350D01*
X144780Y32080D02*
X152700Y40000D01*
D19*
X234950Y125222D03*
D18*
X318081Y152788D02*
X322545Y157252D01*
X322545Y163564D01*
X314595Y152788D02*
X309718Y147911D01*
X314595Y152788D02*
X318081Y152788D01*
X322545Y163564D02*
X316230Y169879D01*
X316230Y173990D01*
X310803Y173990D01*
X309718Y172905D01*
D19*
X261620Y24130D03*
X248317Y123190D03*
D18*
X248317Y62833D01*
X278130Y33020D01*
D19*
X278130Y33020D03*
D18*
X417110Y-20410D02*
X417194Y-22860D01*
X445770Y-22860D01*
X455930Y-12700D01*
X455930Y-11430D01*
X417110Y-20410D02*
X400003Y-1296D01*
X397484Y-1296D01*
D19*
X397484Y-1296D03*
X97790Y138430D03*
D18*
X60920Y149860D02*
X29210Y149860D01*
X60920Y149860D02*
X64350Y146430D01*
X72350Y138430D02*
X97790Y138430D01*
X72350Y138430D02*
X64350Y146430D01*
X173320Y110370D02*
X192920Y110370D01*
X193040Y110490D01*
D19*
X193040Y110490D03*
X284480Y135890D03*
D18*
X273050Y52070D01*
X279400Y45720D01*
D19*
X279400Y45720D03*
D20*
X419912Y145752D02*
X425570Y152680D01*
X419912Y145752D02*
X419912Y143286D01*
X416326Y139700D01*
X350520Y139700D01*
D19*
X350520Y8890D03*
D20*
X325120Y114300D02*
X350520Y139700D01*
X325120Y34290D02*
X350520Y8890D01*
X325120Y34290D02*
X325120Y114300D01*
D18*
X25572Y9398D02*
X20066Y9398D01*
X25572Y9398D02*
X37860Y-350D01*
X95600Y-2890D01*
X99060Y-6350D01*
D19*
X99060Y-6350D03*
D18*
X173320Y122867D02*
X208603Y122867D01*
X209550Y124460D01*
D19*
X209550Y124460D03*
X292100Y54610D03*
X327660Y130810D03*
D20*
X292100Y54610D02*
X295621Y51089D01*
X295621Y6764D02*
X300829Y1557D01*
X295621Y6764D02*
X295621Y51089D01*
X328884Y1557D02*
X338780Y-8340D01*
X328884Y1557D02*
X300829Y1557D01*
X327660Y130810D02*
X344170Y147320D01*
X406480Y147320D02*
X410570Y152680D01*
X406480Y147320D02*
X344170Y147320D01*
M02*
