G04 EAGLE Gerber RS-274X export*
G75*
%MOMM*%
%FSLAX34Y34*%
%LPD*%
%INBottom Copper*%
%IPPOS*%
%AMOC8*
5,1,8,0,0,1.08239X$1,22.5*%
G01*
%ADD10C,1.359600*%
%ADD11C,1.879600*%
%ADD12R,0.550000X1.200000*%
%ADD13R,0.800000X0.800000*%
%ADD14R,0.279400X5.334000*%
%ADD15C,1.309600*%
%ADD16C,1.016000*%
%ADD17C,0.254000*%
%ADD18C,0.508000*%
%ADD19C,0.406400*%

G36*
X344220Y49026D02*
X344220Y49026D01*
X344245Y49024D01*
X344377Y49046D01*
X344512Y49063D01*
X344534Y49072D01*
X344558Y49076D01*
X344682Y49130D01*
X344807Y49180D01*
X344827Y49194D01*
X344849Y49204D01*
X344955Y49287D01*
X345065Y49366D01*
X345080Y49385D01*
X345099Y49400D01*
X345181Y49507D01*
X345267Y49611D01*
X345278Y49633D01*
X345293Y49653D01*
X345346Y49778D01*
X345403Y49899D01*
X345408Y49923D01*
X345417Y49946D01*
X345437Y50079D01*
X345463Y50211D01*
X345461Y50236D01*
X345465Y50260D01*
X345451Y50394D01*
X345443Y50529D01*
X345435Y50552D01*
X345433Y50576D01*
X345387Y50703D01*
X345345Y50831D01*
X345332Y50852D01*
X345324Y50875D01*
X345241Y51013D01*
X342456Y55047D01*
X337866Y67150D01*
X336306Y80000D01*
X337866Y92850D01*
X342456Y104953D01*
X349809Y115606D01*
X359498Y124189D01*
X370960Y130205D01*
X383528Y133303D01*
X467300Y133303D01*
X467320Y133305D01*
X467424Y133309D01*
X469010Y133465D01*
X469114Y133489D01*
X469219Y133503D01*
X469299Y133531D01*
X469320Y133536D01*
X469334Y133543D01*
X469371Y133556D01*
X472301Y134769D01*
X472309Y134774D01*
X472318Y134776D01*
X472447Y134852D01*
X472578Y134927D01*
X472584Y134933D01*
X472592Y134938D01*
X472713Y135044D01*
X474956Y137287D01*
X474961Y137294D01*
X474969Y137300D01*
X475059Y137420D01*
X475151Y137538D01*
X475154Y137547D01*
X475160Y137554D01*
X475231Y137699D01*
X476444Y140629D01*
X476472Y140731D01*
X476509Y140831D01*
X476523Y140914D01*
X476528Y140935D01*
X476529Y140951D01*
X476535Y140990D01*
X476691Y142576D01*
X476691Y142595D01*
X476697Y142700D01*
X476697Y149700D01*
X476682Y149818D01*
X476675Y149937D01*
X476662Y149975D01*
X476657Y150016D01*
X476614Y150126D01*
X476577Y150239D01*
X476555Y150274D01*
X476540Y150311D01*
X476471Y150407D01*
X476407Y150508D01*
X476377Y150536D01*
X476354Y150569D01*
X476262Y150645D01*
X476175Y150726D01*
X476140Y150746D01*
X476109Y150771D01*
X476001Y150822D01*
X475897Y150880D01*
X475857Y150890D01*
X475821Y150907D01*
X475704Y150929D01*
X475589Y150959D01*
X475529Y150963D01*
X475509Y150967D01*
X475488Y150965D01*
X475428Y150969D01*
X39060Y150969D01*
X38942Y150954D01*
X38823Y150947D01*
X38785Y150934D01*
X38744Y150929D01*
X38634Y150886D01*
X38521Y150849D01*
X38486Y150827D01*
X38449Y150812D01*
X38353Y150743D01*
X38252Y150679D01*
X38224Y150649D01*
X38191Y150626D01*
X38115Y150534D01*
X38034Y150447D01*
X38014Y150412D01*
X37989Y150381D01*
X37938Y150273D01*
X37880Y150169D01*
X37870Y150129D01*
X37853Y150093D01*
X37831Y149976D01*
X37801Y149861D01*
X37797Y149801D01*
X37793Y149781D01*
X37795Y149760D01*
X37791Y149700D01*
X37791Y148153D01*
X36484Y144999D01*
X34071Y142586D01*
X30917Y141279D01*
X27503Y141279D01*
X24349Y142586D01*
X21936Y144999D01*
X21124Y146960D01*
X21109Y146986D01*
X21099Y147014D01*
X21030Y147123D01*
X20966Y147236D01*
X20945Y147258D01*
X20929Y147283D01*
X20835Y147371D01*
X20745Y147465D01*
X20719Y147480D01*
X20697Y147501D01*
X20584Y147563D01*
X20474Y147631D01*
X20445Y147640D01*
X20419Y147654D01*
X20293Y147686D01*
X20170Y147724D01*
X20140Y147726D01*
X20111Y147733D01*
X19981Y147733D01*
X19852Y147740D01*
X19823Y147734D01*
X19793Y147734D01*
X19667Y147701D01*
X19541Y147675D01*
X19514Y147662D01*
X19485Y147655D01*
X19371Y147593D01*
X19255Y147536D01*
X19232Y147516D01*
X19206Y147502D01*
X19112Y147413D01*
X19013Y147329D01*
X18996Y147305D01*
X18974Y147284D01*
X18904Y147175D01*
X18830Y147069D01*
X18819Y147041D01*
X18803Y147016D01*
X18744Y146866D01*
X18583Y146371D01*
X17933Y145097D01*
X17092Y143939D01*
X16081Y142928D01*
X14923Y142087D01*
X13649Y141437D01*
X12288Y140995D01*
X11909Y140935D01*
X11909Y149380D01*
X11894Y149498D01*
X11887Y149617D01*
X11874Y149655D01*
X11869Y149695D01*
X11826Y149806D01*
X11789Y149919D01*
X11767Y149953D01*
X11752Y149991D01*
X11683Y150087D01*
X11619Y150188D01*
X11589Y150216D01*
X11566Y150248D01*
X11474Y150324D01*
X11387Y150406D01*
X11352Y150425D01*
X11321Y150451D01*
X11213Y150502D01*
X11109Y150559D01*
X11069Y150569D01*
X11033Y150587D01*
X10916Y150609D01*
X10801Y150639D01*
X10741Y150643D01*
X10721Y150646D01*
X10700Y150645D01*
X10640Y150649D01*
X9680Y150649D01*
X9562Y150634D01*
X9443Y150627D01*
X9405Y150614D01*
X9364Y150609D01*
X9254Y150565D01*
X9141Y150529D01*
X9106Y150507D01*
X9069Y150492D01*
X8972Y150422D01*
X8872Y150359D01*
X8844Y150329D01*
X8811Y150305D01*
X8735Y150214D01*
X8654Y150127D01*
X8634Y150092D01*
X8609Y150060D01*
X8558Y149953D01*
X8500Y149848D01*
X8490Y149809D01*
X8473Y149773D01*
X8451Y149656D01*
X8421Y149540D01*
X8417Y149480D01*
X8413Y149460D01*
X8415Y149440D01*
X8411Y149380D01*
X8411Y140935D01*
X8032Y140995D01*
X6671Y141437D01*
X5363Y142104D01*
X5335Y142114D01*
X5309Y142129D01*
X5186Y142167D01*
X5064Y142211D01*
X5034Y142214D01*
X5006Y142223D01*
X4876Y142229D01*
X4747Y142241D01*
X4718Y142237D01*
X4688Y142238D01*
X4561Y142212D01*
X4433Y142192D01*
X4406Y142180D01*
X4376Y142174D01*
X4260Y142117D01*
X4141Y142066D01*
X4118Y142047D01*
X4091Y142034D01*
X3992Y141950D01*
X3890Y141871D01*
X3871Y141847D01*
X3849Y141828D01*
X3774Y141722D01*
X3695Y141620D01*
X3683Y141592D01*
X3666Y141568D01*
X3620Y141446D01*
X3568Y141328D01*
X3564Y141298D01*
X3553Y141270D01*
X3539Y141141D01*
X3518Y141014D01*
X3521Y140984D01*
X3518Y140954D01*
X3536Y140826D01*
X3548Y140697D01*
X3558Y140669D01*
X3562Y140639D01*
X3614Y140487D01*
X4769Y137699D01*
X4774Y137691D01*
X4776Y137682D01*
X4852Y137552D01*
X4927Y137422D01*
X4933Y137416D01*
X4938Y137408D01*
X5044Y137287D01*
X7287Y135044D01*
X7294Y135039D01*
X7300Y135031D01*
X7420Y134941D01*
X7538Y134849D01*
X7547Y134846D01*
X7554Y134840D01*
X7699Y134769D01*
X10629Y133556D01*
X10731Y133528D01*
X10831Y133491D01*
X10914Y133477D01*
X10935Y133472D01*
X10951Y133471D01*
X10990Y133465D01*
X12575Y133309D01*
X12595Y133309D01*
X12700Y133303D01*
X90315Y133303D01*
X90365Y133309D01*
X90414Y133307D01*
X90522Y133329D01*
X90631Y133343D01*
X90677Y133361D01*
X90726Y133371D01*
X90825Y133419D01*
X90927Y133460D01*
X90967Y133489D01*
X91012Y133511D01*
X91095Y133582D01*
X91184Y133646D01*
X91216Y133685D01*
X91254Y133717D01*
X91317Y133807D01*
X91387Y133891D01*
X91408Y133936D01*
X91437Y133977D01*
X91476Y134080D01*
X91522Y134179D01*
X91532Y134228D01*
X91549Y134274D01*
X91562Y134384D01*
X91582Y134491D01*
X91579Y134541D01*
X91585Y134590D01*
X91569Y134699D01*
X91562Y134809D01*
X91547Y134856D01*
X91540Y134905D01*
X91488Y135058D01*
X90677Y137015D01*
X90677Y139845D01*
X91760Y142459D01*
X93761Y144460D01*
X96375Y145543D01*
X99205Y145543D01*
X101819Y144460D01*
X103820Y142459D01*
X104903Y139845D01*
X104903Y137486D01*
X104918Y137368D01*
X104925Y137249D01*
X104938Y137210D01*
X104943Y137170D01*
X104986Y137060D01*
X105023Y136946D01*
X105045Y136912D01*
X105060Y136875D01*
X105129Y136778D01*
X105193Y136678D01*
X105223Y136650D01*
X105246Y136617D01*
X105338Y136541D01*
X105425Y136460D01*
X105460Y136440D01*
X105491Y136414D01*
X105599Y136364D01*
X105703Y136306D01*
X105743Y136296D01*
X105779Y136279D01*
X105896Y136257D01*
X106011Y136227D01*
X106071Y136223D01*
X106091Y136219D01*
X106112Y136220D01*
X106172Y136217D01*
X115925Y136217D01*
X142951Y109191D01*
X142951Y106086D01*
X142963Y105988D01*
X142966Y105889D01*
X142983Y105830D01*
X142991Y105770D01*
X143027Y105678D01*
X143054Y105583D01*
X143085Y105531D01*
X143108Y105475D01*
X143166Y105395D01*
X143216Y105309D01*
X143255Y105265D01*
X143257Y105262D01*
X143261Y105258D01*
X143282Y105234D01*
X143294Y105217D01*
X143304Y105210D01*
X143322Y105188D01*
X144506Y104004D01*
X144585Y103944D01*
X144657Y103876D01*
X144710Y103847D01*
X144758Y103810D01*
X144849Y103770D01*
X144935Y103722D01*
X144994Y103707D01*
X145049Y103683D01*
X145147Y103668D01*
X145243Y103643D01*
X145343Y103637D01*
X145364Y103633D01*
X145376Y103635D01*
X145404Y103633D01*
X186774Y103633D01*
X186912Y103650D01*
X187051Y103663D01*
X187070Y103670D01*
X187090Y103673D01*
X187219Y103724D01*
X187350Y103771D01*
X187367Y103782D01*
X187385Y103790D01*
X187498Y103871D01*
X187613Y103949D01*
X187626Y103965D01*
X187643Y103976D01*
X187732Y104084D01*
X187823Y104188D01*
X187833Y104206D01*
X187846Y104221D01*
X187905Y104347D01*
X187968Y104471D01*
X187972Y104491D01*
X187981Y104509D01*
X188007Y104646D01*
X188038Y104781D01*
X188037Y104802D01*
X188041Y104821D01*
X188032Y104960D01*
X188028Y105099D01*
X188022Y105119D01*
X188021Y105139D01*
X187978Y105271D01*
X187940Y105405D01*
X187929Y105422D01*
X187923Y105441D01*
X187849Y105559D01*
X187778Y105679D01*
X187759Y105700D01*
X187753Y105710D01*
X187738Y105724D01*
X187672Y105799D01*
X187010Y106461D01*
X185927Y109075D01*
X185927Y111905D01*
X187010Y114519D01*
X189017Y116526D01*
X189117Y116589D01*
X189230Y116654D01*
X189251Y116674D01*
X189276Y116690D01*
X189365Y116784D01*
X189458Y116875D01*
X189474Y116900D01*
X189494Y116922D01*
X189557Y117035D01*
X189625Y117146D01*
X189633Y117174D01*
X189648Y117200D01*
X189680Y117326D01*
X189718Y117450D01*
X189720Y117480D01*
X189727Y117508D01*
X189737Y117669D01*
X189737Y127098D01*
X199292Y136653D01*
X210080Y136653D01*
X210179Y136665D01*
X210278Y136668D01*
X210336Y136685D01*
X210396Y136693D01*
X210488Y136729D01*
X210583Y136757D01*
X210635Y136787D01*
X210692Y136810D01*
X210772Y136868D01*
X210857Y136918D01*
X210932Y136984D01*
X210949Y136996D01*
X210957Y137006D01*
X210978Y137024D01*
X218908Y144955D01*
X257398Y144955D01*
X271395Y130958D01*
X271395Y116652D01*
X271410Y116534D01*
X271417Y116415D01*
X271430Y116377D01*
X271435Y116336D01*
X271478Y116226D01*
X271515Y116113D01*
X271537Y116078D01*
X271552Y116041D01*
X271621Y115945D01*
X271685Y115844D01*
X271715Y115816D01*
X271738Y115783D01*
X271830Y115707D01*
X271917Y115626D01*
X271952Y115606D01*
X271983Y115581D01*
X272091Y115530D01*
X272195Y115472D01*
X272235Y115462D01*
X272271Y115445D01*
X272388Y115423D01*
X272503Y115393D01*
X272563Y115389D01*
X272583Y115385D01*
X272604Y115387D01*
X272664Y115383D01*
X274794Y115383D01*
X274886Y115394D01*
X274978Y115396D01*
X275043Y115414D01*
X275110Y115423D01*
X275196Y115457D01*
X275285Y115481D01*
X275390Y115533D01*
X275405Y115540D01*
X275412Y115545D01*
X275429Y115553D01*
X275714Y115718D01*
X276361Y115891D01*
X276823Y115891D01*
X276823Y86680D01*
X276823Y57145D01*
X276795Y57126D01*
X276719Y57034D01*
X276638Y56947D01*
X276618Y56912D01*
X276593Y56881D01*
X276542Y56773D01*
X276484Y56669D01*
X276474Y56629D01*
X276457Y56593D01*
X276435Y56476D01*
X276405Y56361D01*
X276401Y56301D01*
X276397Y56281D01*
X276399Y56260D01*
X276395Y56200D01*
X276395Y54074D01*
X276401Y54024D01*
X276399Y53975D01*
X276421Y53867D01*
X276435Y53758D01*
X276453Y53712D01*
X276463Y53663D01*
X276511Y53564D01*
X276552Y53462D01*
X276581Y53422D01*
X276603Y53377D01*
X276674Y53294D01*
X276738Y53205D01*
X276777Y53173D01*
X276809Y53135D01*
X276899Y53072D01*
X276983Y53002D01*
X277028Y52981D01*
X277069Y52952D01*
X277172Y52913D01*
X277271Y52867D01*
X277320Y52857D01*
X277366Y52840D01*
X277476Y52827D01*
X277583Y52807D01*
X277633Y52810D01*
X277683Y52804D01*
X277791Y52820D01*
X277901Y52827D01*
X277920Y52833D01*
X280815Y52833D01*
X283232Y51831D01*
X283280Y51818D01*
X283325Y51797D01*
X283433Y51776D01*
X283539Y51747D01*
X283589Y51747D01*
X283638Y51737D01*
X283747Y51744D01*
X283857Y51742D01*
X283905Y51754D01*
X283955Y51757D01*
X284059Y51791D01*
X284166Y51817D01*
X284210Y51840D01*
X284257Y51855D01*
X284350Y51914D01*
X284447Y51965D01*
X284484Y51999D01*
X284526Y52025D01*
X284601Y52105D01*
X284683Y52179D01*
X284710Y52221D01*
X284744Y52257D01*
X284797Y52353D01*
X284857Y52445D01*
X284874Y52492D01*
X284898Y52535D01*
X284925Y52642D01*
X284961Y52746D01*
X284965Y52795D01*
X284977Y52843D01*
X284987Y53004D01*
X284987Y55449D01*
X284975Y55547D01*
X284972Y55646D01*
X284955Y55704D01*
X284947Y55764D01*
X284911Y55856D01*
X284883Y55951D01*
X284853Y56003D01*
X284830Y56060D01*
X284772Y56140D01*
X284722Y56225D01*
X284656Y56301D01*
X284644Y56317D01*
X284634Y56325D01*
X284616Y56346D01*
X283356Y57605D01*
X283278Y57666D01*
X283206Y57734D01*
X283153Y57763D01*
X283105Y57800D01*
X283014Y57840D01*
X282927Y57888D01*
X282869Y57903D01*
X282813Y57927D01*
X282715Y57942D01*
X282619Y57967D01*
X282519Y57973D01*
X282499Y57977D01*
X282487Y57975D01*
X282459Y57977D01*
X281390Y57977D01*
X281298Y57966D01*
X281206Y57964D01*
X281141Y57946D01*
X281074Y57937D01*
X280988Y57903D01*
X280899Y57879D01*
X280794Y57827D01*
X280779Y57820D01*
X280772Y57815D01*
X280755Y57807D01*
X280470Y57642D01*
X279823Y57469D01*
X279361Y57469D01*
X279361Y86680D01*
X279361Y115891D01*
X279823Y115891D01*
X280470Y115718D01*
X280755Y115553D01*
X280840Y115517D01*
X280921Y115472D01*
X280986Y115456D01*
X281048Y115430D01*
X281140Y115416D01*
X281229Y115393D01*
X281346Y115386D01*
X281363Y115383D01*
X281371Y115384D01*
X281390Y115383D01*
X285331Y115383D01*
X286522Y114192D01*
X286522Y99203D01*
X286539Y99065D01*
X286552Y98926D01*
X286559Y98907D01*
X286562Y98887D01*
X286613Y98758D01*
X286660Y98627D01*
X286671Y98610D01*
X286679Y98592D01*
X286760Y98479D01*
X286838Y98364D01*
X286854Y98351D01*
X286865Y98334D01*
X286973Y98246D01*
X287077Y98154D01*
X287095Y98144D01*
X287110Y98131D01*
X287236Y98072D01*
X287360Y98009D01*
X287380Y98004D01*
X287398Y97996D01*
X287534Y97970D01*
X287670Y97939D01*
X287691Y97940D01*
X287710Y97936D01*
X287849Y97945D01*
X287988Y97949D01*
X288008Y97955D01*
X288028Y97956D01*
X288160Y97999D01*
X288294Y98037D01*
X288311Y98048D01*
X288330Y98054D01*
X288448Y98128D01*
X288568Y98199D01*
X288589Y98217D01*
X288599Y98224D01*
X288613Y98239D01*
X288688Y98305D01*
X320176Y129792D01*
X320236Y129871D01*
X320304Y129943D01*
X320333Y129996D01*
X320370Y130044D01*
X320410Y130135D01*
X320458Y130221D01*
X320473Y130280D01*
X320497Y130335D01*
X320512Y130433D01*
X320537Y130529D01*
X320543Y130629D01*
X320547Y130650D01*
X320545Y130662D01*
X320547Y130690D01*
X320547Y132225D01*
X321630Y134839D01*
X323631Y136840D01*
X326245Y137923D01*
X329075Y137923D01*
X331689Y136840D01*
X333690Y134839D01*
X334773Y132225D01*
X334773Y129395D01*
X333690Y126781D01*
X331689Y124780D01*
X329075Y123697D01*
X327540Y123697D01*
X327442Y123685D01*
X327343Y123682D01*
X327284Y123665D01*
X327224Y123657D01*
X327132Y123621D01*
X327037Y123593D01*
X326985Y123563D01*
X326929Y123540D01*
X326849Y123482D01*
X326763Y123432D01*
X326688Y123366D01*
X326671Y123354D01*
X326663Y123344D01*
X326642Y123326D01*
X297044Y93728D01*
X296984Y93649D01*
X296916Y93577D01*
X296887Y93524D01*
X296850Y93476D01*
X296810Y93385D01*
X296762Y93299D01*
X296747Y93240D01*
X296723Y93185D01*
X296708Y93087D01*
X296683Y92991D01*
X296677Y92891D01*
X296673Y92870D01*
X296675Y92858D01*
X296673Y92830D01*
X296673Y60622D01*
X296685Y60524D01*
X296688Y60425D01*
X296705Y60366D01*
X296713Y60306D01*
X296749Y60214D01*
X296777Y60119D01*
X296807Y60067D01*
X296830Y60011D01*
X296888Y59931D01*
X296938Y59845D01*
X297004Y59770D01*
X297016Y59753D01*
X297026Y59746D01*
X297044Y59724D01*
X298130Y58639D01*
X299213Y56025D01*
X299213Y53195D01*
X298211Y50778D01*
X298198Y50730D01*
X298177Y50685D01*
X298156Y50577D01*
X298127Y50471D01*
X298127Y50421D01*
X298117Y50372D01*
X298124Y50263D01*
X298122Y50153D01*
X298134Y50105D01*
X298137Y50055D01*
X298171Y49951D01*
X298197Y49844D01*
X298220Y49800D01*
X298235Y49753D01*
X298294Y49660D01*
X298345Y49563D01*
X298379Y49526D01*
X298405Y49484D01*
X298485Y49409D01*
X298559Y49327D01*
X298601Y49300D01*
X298637Y49266D01*
X298733Y49213D01*
X298825Y49153D01*
X298872Y49136D01*
X298915Y49112D01*
X299022Y49085D01*
X299126Y49049D01*
X299175Y49045D01*
X299223Y49033D01*
X299384Y49023D01*
X344196Y49023D01*
X344220Y49026D01*
G37*
G36*
X356333Y-19568D02*
X356333Y-19568D01*
X356472Y-19555D01*
X356491Y-19548D01*
X356511Y-19545D01*
X356640Y-19494D01*
X356771Y-19447D01*
X356788Y-19436D01*
X356807Y-19428D01*
X356919Y-19347D01*
X357034Y-19269D01*
X357048Y-19253D01*
X357064Y-19242D01*
X357153Y-19134D01*
X357245Y-19030D01*
X357254Y-19012D01*
X357267Y-18997D01*
X357326Y-18871D01*
X357389Y-18747D01*
X357394Y-18727D01*
X357402Y-18709D01*
X357429Y-18573D01*
X357459Y-18437D01*
X357458Y-18416D01*
X357462Y-18397D01*
X357454Y-18258D01*
X357449Y-18119D01*
X357444Y-18099D01*
X357442Y-18079D01*
X357400Y-17947D01*
X357361Y-17813D01*
X357351Y-17796D01*
X357344Y-17777D01*
X357270Y-17659D01*
X357199Y-17539D01*
X357181Y-17518D01*
X357174Y-17508D01*
X357159Y-17494D01*
X357093Y-17419D01*
X354489Y-14815D01*
X352749Y-10614D01*
X352749Y-6066D01*
X354489Y-1865D01*
X357705Y1351D01*
X361906Y3091D01*
X366454Y3091D01*
X370655Y1351D01*
X373871Y-1865D01*
X375611Y-6066D01*
X375611Y-10614D01*
X373871Y-14815D01*
X371267Y-17419D01*
X371182Y-17528D01*
X371093Y-17635D01*
X371084Y-17654D01*
X371072Y-17670D01*
X371017Y-17798D01*
X370958Y-17923D01*
X370954Y-17943D01*
X370946Y-17962D01*
X370924Y-18100D01*
X370898Y-18236D01*
X370899Y-18256D01*
X370896Y-18276D01*
X370909Y-18415D01*
X370918Y-18553D01*
X370924Y-18572D01*
X370926Y-18592D01*
X370973Y-18724D01*
X371016Y-18855D01*
X371026Y-18873D01*
X371033Y-18892D01*
X371111Y-19007D01*
X371186Y-19124D01*
X371200Y-19138D01*
X371212Y-19155D01*
X371316Y-19247D01*
X371417Y-19342D01*
X371435Y-19352D01*
X371450Y-19365D01*
X371574Y-19429D01*
X371696Y-19496D01*
X371715Y-19501D01*
X371733Y-19510D01*
X371869Y-19540D01*
X372004Y-19575D01*
X372032Y-19577D01*
X372044Y-19580D01*
X372064Y-19579D01*
X372164Y-19585D01*
X429118Y-19585D01*
X429255Y-19568D01*
X429394Y-19555D01*
X429413Y-19548D01*
X429433Y-19545D01*
X429562Y-19494D01*
X429693Y-19447D01*
X429710Y-19436D01*
X429729Y-19428D01*
X429841Y-19347D01*
X429957Y-19269D01*
X429970Y-19253D01*
X429986Y-19242D01*
X430075Y-19134D01*
X430167Y-19030D01*
X430176Y-19012D01*
X430189Y-18997D01*
X430248Y-18871D01*
X430312Y-18747D01*
X430316Y-18727D01*
X430325Y-18709D01*
X430351Y-18573D01*
X430381Y-18437D01*
X430381Y-18416D01*
X430384Y-18397D01*
X430376Y-18258D01*
X430371Y-18119D01*
X430366Y-18099D01*
X430365Y-18079D01*
X430322Y-17947D01*
X430283Y-17813D01*
X430273Y-17796D01*
X430267Y-17777D01*
X430192Y-17659D01*
X430121Y-17539D01*
X430103Y-17518D01*
X430096Y-17508D01*
X430082Y-17494D01*
X430015Y-17418D01*
X429947Y-17351D01*
X429107Y-16193D01*
X428457Y-14919D01*
X428015Y-13558D01*
X427955Y-13179D01*
X436400Y-13179D01*
X436518Y-13164D01*
X436637Y-13157D01*
X436675Y-13144D01*
X436715Y-13139D01*
X436826Y-13096D01*
X436939Y-13059D01*
X436973Y-13037D01*
X437011Y-13022D01*
X437107Y-12953D01*
X437208Y-12889D01*
X437236Y-12859D01*
X437268Y-12836D01*
X437344Y-12744D01*
X437426Y-12657D01*
X437445Y-12622D01*
X437471Y-12591D01*
X437522Y-12483D01*
X437579Y-12379D01*
X437589Y-12339D01*
X437607Y-12303D01*
X437629Y-12186D01*
X437635Y-12184D01*
X437676Y-12179D01*
X437786Y-12135D01*
X437899Y-12099D01*
X437934Y-12077D01*
X437971Y-12062D01*
X438067Y-11992D01*
X438168Y-11929D01*
X438196Y-11899D01*
X438229Y-11875D01*
X438305Y-11784D01*
X438386Y-11697D01*
X438406Y-11662D01*
X438431Y-11630D01*
X438482Y-11523D01*
X438540Y-11418D01*
X438550Y-11379D01*
X438567Y-11343D01*
X438589Y-11226D01*
X438619Y-11110D01*
X438623Y-11050D01*
X438627Y-11030D01*
X438625Y-11010D01*
X438629Y-10950D01*
X438629Y-2505D01*
X439008Y-2565D01*
X440369Y-3007D01*
X441643Y-3657D01*
X442801Y-4498D01*
X443812Y-5509D01*
X444653Y-6667D01*
X445303Y-7941D01*
X445464Y-8436D01*
X445476Y-8463D01*
X445483Y-8492D01*
X445544Y-8607D01*
X445599Y-8724D01*
X445618Y-8747D01*
X445632Y-8774D01*
X445719Y-8869D01*
X445802Y-8969D01*
X445826Y-8987D01*
X445846Y-9009D01*
X445954Y-9080D01*
X446059Y-9156D01*
X446087Y-9167D01*
X446112Y-9184D01*
X446235Y-9226D01*
X446355Y-9273D01*
X446384Y-9277D01*
X446413Y-9287D01*
X446542Y-9297D01*
X446670Y-9313D01*
X446700Y-9310D01*
X446730Y-9312D01*
X446857Y-9290D01*
X446986Y-9274D01*
X447013Y-9263D01*
X447043Y-9258D01*
X447161Y-9204D01*
X447281Y-9157D01*
X447306Y-9139D01*
X447333Y-9127D01*
X447434Y-9046D01*
X447539Y-8970D01*
X447558Y-8947D01*
X447581Y-8929D01*
X447659Y-8825D01*
X447742Y-8725D01*
X447755Y-8698D01*
X447773Y-8674D01*
X447844Y-8530D01*
X448656Y-6569D01*
X451069Y-4156D01*
X454223Y-2849D01*
X457637Y-2849D01*
X460791Y-4156D01*
X463204Y-6569D01*
X464511Y-9723D01*
X464511Y-13137D01*
X463514Y-15544D01*
X463495Y-15612D01*
X463467Y-15676D01*
X463453Y-15765D01*
X463430Y-15851D01*
X463428Y-15921D01*
X463418Y-15990D01*
X463426Y-16079D01*
X463425Y-16169D01*
X463441Y-16237D01*
X463447Y-16306D01*
X463478Y-16391D01*
X463499Y-16478D01*
X463531Y-16540D01*
X463555Y-16606D01*
X463605Y-16680D01*
X463647Y-16759D01*
X463694Y-16811D01*
X463734Y-16869D01*
X463801Y-16928D01*
X463861Y-16995D01*
X463920Y-17033D01*
X463972Y-17079D01*
X464052Y-17120D01*
X464127Y-17170D01*
X464193Y-17192D01*
X464255Y-17224D01*
X464343Y-17244D01*
X464428Y-17273D01*
X464497Y-17278D01*
X464565Y-17294D01*
X464655Y-17291D01*
X464745Y-17298D01*
X464814Y-17286D01*
X464883Y-17284D01*
X464970Y-17259D01*
X465058Y-17244D01*
X465122Y-17215D01*
X465189Y-17196D01*
X465266Y-17150D01*
X465348Y-17113D01*
X465403Y-17069D01*
X465463Y-17034D01*
X465584Y-16928D01*
X469214Y-13298D01*
X469274Y-13219D01*
X469342Y-13147D01*
X469371Y-13094D01*
X469408Y-13046D01*
X469448Y-12955D01*
X469496Y-12869D01*
X469511Y-12810D01*
X469535Y-12755D01*
X469550Y-12657D01*
X469575Y-12561D01*
X469581Y-12461D01*
X469585Y-12440D01*
X469583Y-12428D01*
X469585Y-12400D01*
X469585Y12400D01*
X469573Y12498D01*
X469570Y12597D01*
X469553Y12656D01*
X469545Y12716D01*
X469509Y12808D01*
X469481Y12903D01*
X469451Y12955D01*
X469428Y13011D01*
X469370Y13091D01*
X469320Y13177D01*
X469254Y13252D01*
X469242Y13269D01*
X469232Y13277D01*
X469214Y13298D01*
X463298Y19214D01*
X463219Y19274D01*
X463147Y19342D01*
X463094Y19371D01*
X463046Y19408D01*
X462955Y19448D01*
X462869Y19496D01*
X462810Y19511D01*
X462755Y19535D01*
X462657Y19550D01*
X462561Y19575D01*
X462461Y19581D01*
X462440Y19585D01*
X462428Y19583D01*
X462400Y19585D01*
X432148Y19585D01*
X432010Y19568D01*
X431871Y19555D01*
X431852Y19548D01*
X431832Y19545D01*
X431702Y19494D01*
X431572Y19447D01*
X431555Y19436D01*
X431536Y19428D01*
X431424Y19347D01*
X431309Y19269D01*
X431295Y19253D01*
X431279Y19242D01*
X431190Y19134D01*
X431098Y19030D01*
X431089Y19012D01*
X431076Y18997D01*
X431017Y18871D01*
X430954Y18747D01*
X430949Y18727D01*
X430941Y18709D01*
X430915Y18572D01*
X430884Y18437D01*
X430885Y18416D01*
X430881Y18397D01*
X430889Y18258D01*
X430894Y18119D01*
X430899Y18099D01*
X430901Y18079D01*
X430943Y17947D01*
X430982Y17813D01*
X430992Y17796D01*
X430999Y17777D01*
X431073Y17659D01*
X431144Y17539D01*
X431162Y17518D01*
X431169Y17508D01*
X431184Y17494D01*
X431250Y17419D01*
X431826Y16842D01*
X433171Y13597D01*
X433171Y10083D01*
X431826Y6838D01*
X429342Y4354D01*
X426097Y3009D01*
X422583Y3009D01*
X419338Y4354D01*
X416854Y6838D01*
X415509Y10083D01*
X415509Y13798D01*
X415492Y13936D01*
X415479Y14075D01*
X415472Y14094D01*
X415469Y14114D01*
X415418Y14243D01*
X415371Y14374D01*
X415360Y14391D01*
X415352Y14409D01*
X415271Y14522D01*
X415193Y14637D01*
X415177Y14650D01*
X415166Y14667D01*
X415058Y14756D01*
X414954Y14847D01*
X414936Y14857D01*
X414921Y14870D01*
X414795Y14929D01*
X414671Y14992D01*
X414651Y14997D01*
X414633Y15005D01*
X414497Y15031D01*
X414361Y15062D01*
X414340Y15061D01*
X414321Y15065D01*
X414182Y15056D01*
X414043Y15052D01*
X414023Y15046D01*
X414003Y15045D01*
X413871Y15002D01*
X413737Y14964D01*
X413720Y14953D01*
X413701Y14947D01*
X413583Y14873D01*
X413463Y14802D01*
X413442Y14784D01*
X413432Y14777D01*
X413418Y14762D01*
X413343Y14696D01*
X413222Y14576D01*
X413162Y14497D01*
X413094Y14425D01*
X413065Y14372D01*
X413028Y14324D01*
X412988Y14233D01*
X412940Y14147D01*
X412925Y14088D01*
X412901Y14033D01*
X412886Y13935D01*
X412861Y13839D01*
X412855Y13739D01*
X412851Y13718D01*
X412853Y13706D01*
X412851Y13678D01*
X412851Y10083D01*
X411506Y6838D01*
X409022Y4354D01*
X405777Y3009D01*
X405299Y3009D01*
X405250Y3003D01*
X405200Y3005D01*
X405093Y2983D01*
X404984Y2969D01*
X404937Y2951D01*
X404889Y2941D01*
X404790Y2893D01*
X404688Y2852D01*
X404648Y2823D01*
X404603Y2801D01*
X404520Y2730D01*
X404431Y2666D01*
X404399Y2627D01*
X404361Y2595D01*
X404298Y2505D01*
X404228Y2421D01*
X404207Y2376D01*
X404178Y2335D01*
X404139Y2232D01*
X404092Y2133D01*
X404083Y2084D01*
X404065Y2038D01*
X404053Y1928D01*
X404033Y1821D01*
X404036Y1771D01*
X404030Y1722D01*
X404045Y1613D01*
X404052Y1503D01*
X404068Y1456D01*
X404075Y1407D01*
X404127Y1254D01*
X404597Y119D01*
X404597Y-2711D01*
X403514Y-5325D01*
X401513Y-7326D01*
X398899Y-8409D01*
X396069Y-8409D01*
X393455Y-7326D01*
X391448Y-5319D01*
X391385Y-5219D01*
X391320Y-5106D01*
X391300Y-5085D01*
X391284Y-5060D01*
X391190Y-4971D01*
X391099Y-4877D01*
X391074Y-4862D01*
X391052Y-4842D01*
X390939Y-4779D01*
X390828Y-4711D01*
X390800Y-4703D01*
X390774Y-4688D01*
X390649Y-4656D01*
X390524Y-4618D01*
X390495Y-4616D01*
X390466Y-4609D01*
X390305Y-4599D01*
X381184Y-4599D01*
X378878Y-2292D01*
X347240Y29346D01*
X347162Y29406D01*
X347090Y29474D01*
X347037Y29503D01*
X346989Y29540D01*
X346898Y29580D01*
X346811Y29628D01*
X346753Y29643D01*
X346697Y29667D01*
X346599Y29682D01*
X346503Y29707D01*
X346403Y29713D01*
X346383Y29717D01*
X346371Y29715D01*
X346343Y29717D01*
X285309Y29717D01*
X285279Y29714D01*
X285250Y29716D01*
X285122Y29694D01*
X284993Y29677D01*
X284966Y29667D01*
X284937Y29661D01*
X284818Y29608D01*
X284698Y29560D01*
X284674Y29543D01*
X284647Y29531D01*
X284545Y29450D01*
X284440Y29374D01*
X284421Y29351D01*
X284398Y29332D01*
X284320Y29228D01*
X284237Y29129D01*
X284225Y29102D01*
X284207Y29078D01*
X284168Y29000D01*
X282159Y26990D01*
X279545Y25907D01*
X276715Y25907D01*
X274101Y26990D01*
X272100Y28991D01*
X271017Y31605D01*
X271017Y34435D01*
X272100Y37049D01*
X274159Y39107D01*
X274232Y39202D01*
X274310Y39291D01*
X274329Y39327D01*
X274354Y39359D01*
X274401Y39468D01*
X274455Y39574D01*
X274464Y39613D01*
X274480Y39651D01*
X274499Y39768D01*
X274525Y39884D01*
X274523Y39925D01*
X274530Y39965D01*
X274519Y40083D01*
X274515Y40202D01*
X274504Y40241D01*
X274500Y40281D01*
X274460Y40394D01*
X274427Y40508D01*
X274406Y40542D01*
X274392Y40581D01*
X274325Y40679D01*
X274265Y40782D01*
X274225Y40827D01*
X274214Y40844D01*
X274198Y40857D01*
X274159Y40902D01*
X273370Y41691D01*
X272287Y44305D01*
X272287Y47143D01*
X272313Y47259D01*
X272347Y47384D01*
X272348Y47414D01*
X272354Y47443D01*
X272350Y47572D01*
X272353Y47702D01*
X272346Y47731D01*
X272345Y47761D01*
X272309Y47885D01*
X272278Y48012D01*
X272265Y48038D01*
X272256Y48066D01*
X272190Y48178D01*
X272130Y48293D01*
X272110Y48314D01*
X272095Y48340D01*
X271988Y48461D01*
X269789Y50660D01*
X269789Y56708D01*
X269774Y56826D01*
X269767Y56945D01*
X269754Y56983D01*
X269749Y57024D01*
X269706Y57134D01*
X269669Y57247D01*
X269647Y57282D01*
X269632Y57319D01*
X269563Y57415D01*
X269499Y57516D01*
X269469Y57544D01*
X269446Y57577D01*
X269354Y57653D01*
X269267Y57734D01*
X269232Y57754D01*
X269201Y57779D01*
X269093Y57830D01*
X268989Y57888D01*
X268949Y57898D01*
X268913Y57915D01*
X268796Y57937D01*
X268681Y57967D01*
X268621Y57971D01*
X268601Y57975D01*
X268580Y57973D01*
X268520Y57977D01*
X252664Y57977D01*
X252546Y57962D01*
X252427Y57955D01*
X252389Y57942D01*
X252348Y57937D01*
X252238Y57894D01*
X252125Y57857D01*
X252090Y57835D01*
X252053Y57820D01*
X251957Y57751D01*
X251856Y57687D01*
X251828Y57657D01*
X251795Y57634D01*
X251719Y57542D01*
X251638Y57455D01*
X251618Y57420D01*
X251593Y57389D01*
X251542Y57281D01*
X251484Y57177D01*
X251474Y57137D01*
X251457Y57101D01*
X251435Y56984D01*
X251405Y56869D01*
X251401Y56809D01*
X251397Y56789D01*
X251399Y56768D01*
X251395Y56708D01*
X251395Y44794D01*
X235714Y29114D01*
X235654Y29035D01*
X235586Y28963D01*
X235557Y28910D01*
X235520Y28862D01*
X235480Y28771D01*
X235432Y28685D01*
X235417Y28626D01*
X235393Y28571D01*
X235378Y28473D01*
X235353Y28377D01*
X235347Y28277D01*
X235343Y28256D01*
X235345Y28244D01*
X235343Y28216D01*
X235343Y17589D01*
X234152Y16398D01*
X226968Y16398D01*
X225777Y17589D01*
X225777Y31273D01*
X226968Y32464D01*
X229197Y32464D01*
X229295Y32476D01*
X229394Y32479D01*
X229453Y32496D01*
X229513Y32504D01*
X229605Y32540D01*
X229700Y32568D01*
X229752Y32598D01*
X229808Y32621D01*
X229888Y32679D01*
X229974Y32729D01*
X230049Y32795D01*
X230066Y32807D01*
X230074Y32817D01*
X230095Y32835D01*
X244418Y47158D01*
X244478Y47237D01*
X244546Y47309D01*
X244575Y47362D01*
X244612Y47410D01*
X244652Y47501D01*
X244700Y47587D01*
X244715Y47646D01*
X244739Y47701D01*
X244754Y47799D01*
X244779Y47895D01*
X244785Y47995D01*
X244789Y48016D01*
X244787Y48028D01*
X244789Y48056D01*
X244789Y56708D01*
X244774Y56826D01*
X244767Y56945D01*
X244754Y56983D01*
X244749Y57024D01*
X244706Y57134D01*
X244669Y57247D01*
X244647Y57282D01*
X244632Y57319D01*
X244563Y57415D01*
X244499Y57516D01*
X244469Y57544D01*
X244446Y57577D01*
X244354Y57653D01*
X244267Y57734D01*
X244232Y57754D01*
X244201Y57779D01*
X244093Y57830D01*
X243989Y57888D01*
X243949Y57898D01*
X243913Y57915D01*
X243796Y57937D01*
X243681Y57967D01*
X243621Y57971D01*
X243601Y57975D01*
X243580Y57973D01*
X243520Y57977D01*
X242664Y57977D01*
X242546Y57962D01*
X242427Y57955D01*
X242389Y57942D01*
X242348Y57937D01*
X242238Y57894D01*
X242125Y57857D01*
X242090Y57835D01*
X242053Y57820D01*
X241957Y57751D01*
X241856Y57687D01*
X241828Y57657D01*
X241795Y57634D01*
X241719Y57542D01*
X241638Y57455D01*
X241618Y57420D01*
X241593Y57389D01*
X241542Y57281D01*
X241484Y57177D01*
X241474Y57137D01*
X241457Y57101D01*
X241435Y56984D01*
X241405Y56869D01*
X241401Y56809D01*
X241397Y56789D01*
X241399Y56768D01*
X241395Y56708D01*
X241395Y51304D01*
X213966Y23875D01*
X134482Y23875D01*
X134384Y23863D01*
X134285Y23860D01*
X134226Y23843D01*
X134166Y23835D01*
X134074Y23799D01*
X133979Y23771D01*
X133927Y23741D01*
X133871Y23718D01*
X133791Y23660D01*
X133705Y23610D01*
X133630Y23544D01*
X133613Y23532D01*
X133605Y23522D01*
X133584Y23504D01*
X106472Y-3609D01*
X106453Y-3633D01*
X106431Y-3652D01*
X106356Y-3758D01*
X106277Y-3860D01*
X106265Y-3888D01*
X106248Y-3912D01*
X106202Y-4033D01*
X106150Y-4152D01*
X106146Y-4182D01*
X106135Y-4209D01*
X106121Y-4338D01*
X106100Y-4466D01*
X106103Y-4496D01*
X106100Y-4525D01*
X106118Y-4654D01*
X106130Y-4783D01*
X106140Y-4811D01*
X106144Y-4840D01*
X106173Y-4923D01*
X106173Y-7765D01*
X105090Y-10379D01*
X103089Y-12380D01*
X100475Y-13463D01*
X97645Y-13463D01*
X95031Y-12380D01*
X93030Y-10379D01*
X91947Y-7765D01*
X91947Y-4935D01*
X93030Y-2321D01*
X95031Y-320D01*
X97645Y763D01*
X100483Y763D01*
X100599Y737D01*
X100724Y703D01*
X100754Y702D01*
X100783Y696D01*
X100913Y699D01*
X101042Y697D01*
X101071Y704D01*
X101101Y705D01*
X101225Y741D01*
X101351Y772D01*
X101378Y785D01*
X101406Y794D01*
X101518Y859D01*
X101633Y920D01*
X101654Y940D01*
X101680Y955D01*
X101801Y1062D01*
X103181Y2442D01*
X103224Y2497D01*
X103274Y2545D01*
X103321Y2622D01*
X103376Y2693D01*
X103404Y2757D01*
X103440Y2817D01*
X103467Y2902D01*
X103502Y2985D01*
X103513Y3054D01*
X103534Y3120D01*
X103538Y3210D01*
X103552Y3299D01*
X103546Y3369D01*
X103549Y3438D01*
X103531Y3526D01*
X103522Y3616D01*
X103499Y3681D01*
X103485Y3750D01*
X103445Y3830D01*
X103415Y3915D01*
X103376Y3973D01*
X103345Y4035D01*
X103287Y4104D01*
X103236Y4178D01*
X103184Y4224D01*
X103139Y4277D01*
X103065Y4329D01*
X102998Y4388D01*
X102936Y4420D01*
X102878Y4460D01*
X102794Y4492D01*
X102714Y4533D01*
X102646Y4548D01*
X102581Y4573D01*
X102492Y4583D01*
X102404Y4603D01*
X102334Y4601D01*
X102265Y4608D01*
X102176Y4596D01*
X102086Y4593D01*
X102019Y4574D01*
X101950Y4564D01*
X101798Y4512D01*
X99257Y3459D01*
X95743Y3459D01*
X92498Y4804D01*
X90014Y7288D01*
X88669Y10533D01*
X88669Y14047D01*
X90014Y17292D01*
X92498Y19776D01*
X95743Y21121D01*
X99257Y21121D01*
X100172Y20741D01*
X100201Y20734D01*
X100227Y20720D01*
X100354Y20692D01*
X100479Y20657D01*
X100509Y20657D01*
X100538Y20650D01*
X100667Y20654D01*
X100797Y20652D01*
X100826Y20659D01*
X100855Y20660D01*
X100980Y20696D01*
X101106Y20726D01*
X101133Y20740D01*
X101161Y20749D01*
X101273Y20814D01*
X101388Y20875D01*
X101409Y20895D01*
X101435Y20910D01*
X101556Y21016D01*
X107538Y26999D01*
X107620Y27104D01*
X107705Y27206D01*
X107717Y27229D01*
X107733Y27250D01*
X107786Y27372D01*
X107844Y27492D01*
X107849Y27518D01*
X107859Y27542D01*
X107880Y27673D01*
X107906Y27804D01*
X107905Y27830D01*
X107909Y27856D01*
X107897Y27989D01*
X107890Y28121D01*
X107882Y28146D01*
X107879Y28173D01*
X107834Y28298D01*
X107795Y28425D01*
X107781Y28447D01*
X107772Y28472D01*
X107697Y28582D01*
X107627Y28695D01*
X107608Y28713D01*
X107593Y28735D01*
X107494Y28823D01*
X107397Y28915D01*
X107374Y28928D01*
X107355Y28946D01*
X107236Y29006D01*
X107120Y29071D01*
X107095Y29078D01*
X107072Y29090D01*
X106942Y29119D01*
X106813Y29154D01*
X106787Y29154D01*
X106761Y29160D01*
X106628Y29156D01*
X106495Y29157D01*
X106459Y29151D01*
X106443Y29150D01*
X106422Y29144D01*
X106337Y29129D01*
X96472Y26697D01*
X72304Y26697D01*
X72166Y26680D01*
X72027Y26667D01*
X72008Y26660D01*
X71988Y26657D01*
X71859Y26606D01*
X71728Y26559D01*
X71711Y26548D01*
X71693Y26540D01*
X71580Y26459D01*
X71465Y26381D01*
X71452Y26365D01*
X71435Y26354D01*
X71346Y26246D01*
X71255Y26142D01*
X71245Y26124D01*
X71232Y26109D01*
X71173Y25983D01*
X71110Y25859D01*
X71105Y25839D01*
X71097Y25821D01*
X71071Y25685D01*
X71040Y25549D01*
X71041Y25528D01*
X71037Y25509D01*
X71046Y25370D01*
X71050Y25231D01*
X71056Y25211D01*
X71057Y25191D01*
X71100Y25059D01*
X71138Y24925D01*
X71149Y24908D01*
X71155Y24889D01*
X71229Y24771D01*
X71300Y24651D01*
X71318Y24630D01*
X71325Y24620D01*
X71340Y24606D01*
X71406Y24531D01*
X74444Y21492D01*
X74523Y21432D01*
X74595Y21364D01*
X74648Y21335D01*
X74696Y21298D01*
X74787Y21258D01*
X74873Y21210D01*
X74932Y21195D01*
X74987Y21171D01*
X75085Y21156D01*
X75181Y21131D01*
X75281Y21125D01*
X75302Y21121D01*
X75314Y21123D01*
X75342Y21121D01*
X78937Y21121D01*
X82182Y19776D01*
X84666Y17292D01*
X86011Y14047D01*
X86011Y10533D01*
X84666Y7288D01*
X82182Y4804D01*
X78937Y3459D01*
X75423Y3459D01*
X72178Y4804D01*
X69694Y7288D01*
X68349Y10533D01*
X68349Y14128D01*
X68337Y14226D01*
X68334Y14325D01*
X68317Y14383D01*
X68309Y14444D01*
X68273Y14536D01*
X68246Y14631D01*
X68215Y14683D01*
X68192Y14739D01*
X68134Y14819D01*
X68084Y14905D01*
X68018Y14980D01*
X68006Y14997D01*
X67996Y15004D01*
X67978Y15026D01*
X67858Y15146D01*
X67748Y15231D01*
X67641Y15320D01*
X67622Y15328D01*
X67606Y15341D01*
X67479Y15396D01*
X67353Y15455D01*
X67333Y15459D01*
X67315Y15467D01*
X67177Y15489D01*
X67040Y15515D01*
X67020Y15514D01*
X67000Y15517D01*
X66862Y15504D01*
X66723Y15495D01*
X66704Y15489D01*
X66684Y15487D01*
X66553Y15440D01*
X66421Y15397D01*
X66403Y15386D01*
X66385Y15380D01*
X66270Y15302D01*
X66152Y15227D01*
X66138Y15212D01*
X66121Y15201D01*
X66029Y15097D01*
X65934Y14995D01*
X65924Y14978D01*
X65911Y14963D01*
X65848Y14839D01*
X65780Y14717D01*
X65775Y14697D01*
X65766Y14679D01*
X65736Y14543D01*
X65701Y14409D01*
X65699Y14381D01*
X65696Y14369D01*
X65697Y14348D01*
X65691Y14248D01*
X65691Y10533D01*
X64346Y7288D01*
X61862Y4804D01*
X58617Y3459D01*
X55103Y3459D01*
X51858Y4804D01*
X49374Y7288D01*
X48029Y10533D01*
X48029Y14047D01*
X49374Y17292D01*
X49500Y17418D01*
X49585Y17528D01*
X49674Y17635D01*
X49682Y17654D01*
X49695Y17670D01*
X49750Y17798D01*
X49809Y17923D01*
X49813Y17943D01*
X49821Y17962D01*
X49843Y18099D01*
X49869Y18236D01*
X49868Y18256D01*
X49871Y18276D01*
X49858Y18414D01*
X49849Y18553D01*
X49843Y18572D01*
X49841Y18592D01*
X49794Y18723D01*
X49751Y18855D01*
X49741Y18873D01*
X49734Y18892D01*
X49656Y19007D01*
X49581Y19124D01*
X49566Y19138D01*
X49555Y19155D01*
X49451Y19247D01*
X49350Y19342D01*
X49332Y19352D01*
X49317Y19365D01*
X49193Y19428D01*
X49071Y19496D01*
X49051Y19501D01*
X49033Y19510D01*
X48898Y19540D01*
X48763Y19575D01*
X48735Y19577D01*
X48723Y19580D01*
X48703Y19579D01*
X48602Y19585D01*
X24275Y19585D01*
X24206Y19577D01*
X24136Y19578D01*
X24049Y19557D01*
X23960Y19545D01*
X23895Y19520D01*
X23827Y19503D01*
X23748Y19461D01*
X23664Y19428D01*
X23608Y19387D01*
X23546Y19355D01*
X23479Y19294D01*
X23407Y19242D01*
X23362Y19188D01*
X23311Y19141D01*
X23261Y19066D01*
X23204Y18997D01*
X23174Y18933D01*
X23136Y18875D01*
X23107Y18790D01*
X23068Y18709D01*
X23055Y18640D01*
X23033Y18574D01*
X23025Y18485D01*
X23009Y18397D01*
X23013Y18327D01*
X23007Y18257D01*
X23023Y18169D01*
X23028Y18079D01*
X23050Y18013D01*
X23062Y17944D01*
X23099Y17862D01*
X23126Y17777D01*
X23164Y17718D01*
X23192Y17654D01*
X23248Y17584D01*
X23296Y17508D01*
X23347Y17460D01*
X23391Y17406D01*
X23463Y17351D01*
X23528Y17290D01*
X23589Y17256D01*
X23645Y17214D01*
X23790Y17143D01*
X24927Y16672D01*
X27340Y14259D01*
X28647Y11105D01*
X28647Y7691D01*
X27340Y4537D01*
X24927Y2124D01*
X22966Y1312D01*
X22940Y1297D01*
X22912Y1287D01*
X22802Y1218D01*
X22690Y1154D01*
X22668Y1133D01*
X22643Y1117D01*
X22554Y1023D01*
X22461Y933D01*
X22446Y907D01*
X22425Y885D01*
X22363Y772D01*
X22295Y662D01*
X22286Y633D01*
X22272Y607D01*
X22240Y481D01*
X22202Y358D01*
X22200Y328D01*
X22193Y299D01*
X22193Y169D01*
X22186Y40D01*
X22192Y11D01*
X22192Y-19D01*
X22225Y-145D01*
X22251Y-272D01*
X22264Y-298D01*
X22271Y-327D01*
X22333Y-441D01*
X22390Y-557D01*
X22410Y-580D01*
X22424Y-606D01*
X22513Y-701D01*
X22597Y-799D01*
X22621Y-816D01*
X22642Y-838D01*
X22751Y-908D01*
X22857Y-982D01*
X22885Y-993D01*
X22910Y-1009D01*
X23060Y-1068D01*
X23555Y-1229D01*
X24829Y-1879D01*
X25987Y-2720D01*
X26998Y-3731D01*
X27839Y-4889D01*
X28489Y-6163D01*
X28931Y-7524D01*
X28991Y-7903D01*
X20546Y-7903D01*
X20428Y-7918D01*
X20309Y-7925D01*
X20271Y-7937D01*
X20231Y-7943D01*
X20120Y-7986D01*
X20007Y-8023D01*
X19973Y-8045D01*
X19935Y-8060D01*
X19839Y-8129D01*
X19738Y-8193D01*
X19710Y-8223D01*
X19678Y-8246D01*
X19602Y-8338D01*
X19520Y-8425D01*
X19501Y-8460D01*
X19475Y-8491D01*
X19424Y-8599D01*
X19367Y-8703D01*
X19357Y-8743D01*
X19339Y-8779D01*
X19317Y-8896D01*
X19287Y-9011D01*
X19283Y-9071D01*
X19280Y-9091D01*
X19281Y-9112D01*
X19277Y-9172D01*
X19277Y-10132D01*
X19292Y-10250D01*
X19299Y-10369D01*
X19312Y-10407D01*
X19317Y-10448D01*
X19361Y-10558D01*
X19397Y-10671D01*
X19419Y-10706D01*
X19434Y-10743D01*
X19504Y-10839D01*
X19567Y-10940D01*
X19597Y-10968D01*
X19621Y-11001D01*
X19712Y-11077D01*
X19799Y-11158D01*
X19834Y-11178D01*
X19866Y-11203D01*
X19973Y-11254D01*
X20078Y-11312D01*
X20117Y-11322D01*
X20153Y-11339D01*
X20270Y-11361D01*
X20386Y-11391D01*
X20446Y-11395D01*
X20466Y-11399D01*
X20486Y-11397D01*
X20546Y-11401D01*
X28991Y-11401D01*
X28931Y-11780D01*
X28489Y-13141D01*
X27839Y-14415D01*
X26998Y-15573D01*
X25987Y-16585D01*
X25056Y-17261D01*
X24998Y-17316D01*
X24933Y-17362D01*
X24882Y-17424D01*
X24824Y-17479D01*
X24781Y-17546D01*
X24730Y-17607D01*
X24696Y-17680D01*
X24653Y-17747D01*
X24629Y-17823D01*
X24595Y-17895D01*
X24580Y-17974D01*
X24555Y-18050D01*
X24550Y-18129D01*
X24535Y-18208D01*
X24540Y-18287D01*
X24535Y-18367D01*
X24550Y-18445D01*
X24555Y-18525D01*
X24579Y-18601D01*
X24594Y-18680D01*
X24628Y-18752D01*
X24653Y-18827D01*
X24695Y-18895D01*
X24729Y-18967D01*
X24780Y-19029D01*
X24823Y-19096D01*
X24881Y-19151D01*
X24932Y-19213D01*
X24996Y-19260D01*
X25054Y-19314D01*
X25124Y-19353D01*
X25189Y-19400D01*
X25263Y-19429D01*
X25333Y-19468D01*
X25410Y-19488D01*
X25485Y-19517D01*
X25564Y-19527D01*
X25641Y-19547D01*
X25799Y-19557D01*
X25800Y-19557D01*
X25801Y-19557D01*
X25802Y-19557D01*
X221369Y-19557D01*
X221407Y-19552D01*
X221446Y-19555D01*
X221565Y-19533D01*
X221685Y-19517D01*
X221720Y-19503D01*
X221758Y-19496D01*
X221868Y-19445D01*
X221980Y-19400D01*
X222011Y-19378D01*
X222046Y-19362D01*
X222140Y-19285D01*
X222238Y-19214D01*
X222262Y-19184D01*
X222292Y-19159D01*
X222395Y-19036D01*
X224894Y-15607D01*
X224969Y-15471D01*
X225047Y-15329D01*
X225048Y-15328D01*
X225079Y-15206D01*
X225127Y-15021D01*
X225127Y-15020D01*
X225137Y-14860D01*
X225137Y-9918D01*
X225406Y-9650D01*
X225466Y-9571D01*
X225534Y-9499D01*
X225563Y-9446D01*
X225600Y-9398D01*
X225640Y-9308D01*
X225688Y-9221D01*
X225703Y-9162D01*
X225727Y-9107D01*
X225742Y-9009D01*
X225767Y-8913D01*
X225773Y-8813D01*
X225777Y-8793D01*
X225775Y-8780D01*
X225777Y-8752D01*
X225777Y5271D01*
X226968Y6462D01*
X234177Y6462D01*
X234237Y6408D01*
X234273Y6390D01*
X234305Y6365D01*
X234414Y6318D01*
X234521Y6264D01*
X234560Y6255D01*
X234596Y6239D01*
X234714Y6220D01*
X234831Y6194D01*
X234871Y6196D01*
X234910Y6189D01*
X235029Y6200D01*
X235149Y6204D01*
X235187Y6215D01*
X235227Y6219D01*
X235339Y6259D01*
X235454Y6293D01*
X235489Y6313D01*
X235526Y6327D01*
X235596Y6374D01*
X235605Y6379D01*
X236329Y6797D01*
X236976Y6970D01*
X238686Y6970D01*
X238686Y-1466D01*
X238701Y-1584D01*
X238708Y-1703D01*
X238720Y-1741D01*
X238726Y-1781D01*
X238769Y-1892D01*
X238806Y-2005D01*
X238828Y-2039D01*
X238843Y-2077D01*
X238912Y-2173D01*
X238976Y-2274D01*
X239006Y-2302D01*
X239029Y-2334D01*
X239121Y-2410D01*
X239208Y-2492D01*
X239243Y-2511D01*
X239274Y-2537D01*
X239382Y-2588D01*
X239486Y-2645D01*
X239526Y-2655D01*
X239562Y-2673D01*
X239679Y-2695D01*
X239794Y-2725D01*
X239854Y-2729D01*
X239874Y-2732D01*
X239895Y-2731D01*
X239955Y-2735D01*
X240165Y-2735D01*
X240283Y-2720D01*
X240402Y-2713D01*
X240440Y-2700D01*
X240481Y-2695D01*
X240591Y-2651D01*
X240704Y-2615D01*
X240739Y-2593D01*
X240776Y-2578D01*
X240872Y-2508D01*
X240973Y-2445D01*
X241001Y-2415D01*
X241034Y-2391D01*
X241110Y-2300D01*
X241191Y-2213D01*
X241211Y-2178D01*
X241236Y-2146D01*
X241287Y-2039D01*
X241345Y-1934D01*
X241355Y-1895D01*
X241372Y-1859D01*
X241394Y-1742D01*
X241424Y-1626D01*
X241428Y-1566D01*
X241432Y-1546D01*
X241430Y-1526D01*
X241434Y-1466D01*
X241434Y6970D01*
X243144Y6970D01*
X243791Y6797D01*
X244441Y6421D01*
X244455Y6409D01*
X244491Y6390D01*
X244523Y6365D01*
X244632Y6318D01*
X244738Y6264D01*
X244778Y6255D01*
X244815Y6239D01*
X244933Y6220D01*
X245049Y6194D01*
X245089Y6196D01*
X245129Y6189D01*
X245248Y6200D01*
X245366Y6204D01*
X245405Y6215D01*
X245446Y6219D01*
X245558Y6259D01*
X245672Y6292D01*
X245707Y6313D01*
X245745Y6327D01*
X245843Y6394D01*
X245946Y6454D01*
X245955Y6462D01*
X250600Y6462D01*
X250698Y6474D01*
X250797Y6477D01*
X250856Y6494D01*
X250916Y6502D01*
X251008Y6538D01*
X251103Y6566D01*
X251155Y6596D01*
X251211Y6619D01*
X251291Y6677D01*
X251377Y6727D01*
X251452Y6793D01*
X251469Y6805D01*
X251477Y6815D01*
X251498Y6833D01*
X255077Y10412D01*
X258127Y13463D01*
X344508Y13463D01*
X344606Y13475D01*
X344705Y13478D01*
X344764Y13495D01*
X344824Y13503D01*
X344916Y13539D01*
X345011Y13567D01*
X345063Y13597D01*
X345119Y13620D01*
X345199Y13678D01*
X345285Y13728D01*
X345360Y13794D01*
X345377Y13806D01*
X345384Y13816D01*
X345406Y13834D01*
X346491Y14920D01*
X349105Y16003D01*
X351935Y16003D01*
X354549Y14920D01*
X356550Y12919D01*
X357633Y10305D01*
X357633Y7475D01*
X356550Y4861D01*
X354549Y2860D01*
X351935Y1777D01*
X349105Y1777D01*
X347699Y2360D01*
X347632Y2378D01*
X347568Y2406D01*
X347479Y2420D01*
X347392Y2444D01*
X347323Y2445D01*
X347254Y2456D01*
X347164Y2447D01*
X347074Y2449D01*
X347007Y2432D01*
X346937Y2426D01*
X346852Y2395D01*
X346765Y2375D01*
X346704Y2342D01*
X346638Y2318D01*
X346563Y2268D01*
X346484Y2226D01*
X346432Y2179D01*
X346375Y2140D01*
X346315Y2072D01*
X346249Y2012D01*
X346210Y1954D01*
X346164Y1901D01*
X346123Y1821D01*
X346074Y1746D01*
X346051Y1680D01*
X346020Y1618D01*
X346000Y1530D01*
X345971Y1445D01*
X345965Y1376D01*
X345950Y1308D01*
X345953Y1218D01*
X345946Y1128D01*
X345957Y1060D01*
X345960Y990D01*
X345985Y903D01*
X346000Y815D01*
X346029Y751D01*
X346048Y684D01*
X346094Y607D01*
X346131Y525D01*
X346174Y470D01*
X346210Y410D01*
X346316Y290D01*
X348471Y-1865D01*
X350211Y-6066D01*
X350211Y-10614D01*
X348471Y-14815D01*
X345867Y-17419D01*
X345782Y-17528D01*
X345693Y-17635D01*
X345684Y-17654D01*
X345672Y-17670D01*
X345617Y-17798D01*
X345558Y-17923D01*
X345554Y-17943D01*
X345546Y-17962D01*
X345524Y-18100D01*
X345498Y-18236D01*
X345499Y-18256D01*
X345496Y-18276D01*
X345509Y-18415D01*
X345518Y-18553D01*
X345524Y-18572D01*
X345526Y-18592D01*
X345573Y-18724D01*
X345616Y-18855D01*
X345626Y-18873D01*
X345633Y-18892D01*
X345711Y-19007D01*
X345786Y-19124D01*
X345800Y-19138D01*
X345812Y-19155D01*
X345916Y-19247D01*
X346017Y-19342D01*
X346035Y-19352D01*
X346050Y-19365D01*
X346174Y-19429D01*
X346296Y-19496D01*
X346315Y-19501D01*
X346333Y-19510D01*
X346469Y-19540D01*
X346604Y-19575D01*
X346632Y-19577D01*
X346644Y-19580D01*
X346664Y-19579D01*
X346764Y-19585D01*
X356196Y-19585D01*
X356333Y-19568D01*
G37*
%LPC*%
G36*
X245968Y16398D02*
X245968Y16398D01*
X244777Y17589D01*
X244777Y31273D01*
X245968Y32464D01*
X253152Y32464D01*
X254343Y31273D01*
X254343Y29976D01*
X254360Y29838D01*
X254373Y29699D01*
X254380Y29680D01*
X254383Y29660D01*
X254434Y29531D01*
X254481Y29400D01*
X254492Y29383D01*
X254500Y29365D01*
X254581Y29252D01*
X254659Y29137D01*
X254675Y29124D01*
X254686Y29107D01*
X254794Y29018D01*
X254898Y28927D01*
X254916Y28917D01*
X254931Y28904D01*
X255057Y28845D01*
X255181Y28782D01*
X255201Y28778D01*
X255219Y28769D01*
X255356Y28743D01*
X255491Y28712D01*
X255512Y28713D01*
X255531Y28709D01*
X255670Y28718D01*
X255809Y28722D01*
X255829Y28728D01*
X255849Y28729D01*
X255981Y28772D01*
X256115Y28810D01*
X256132Y28821D01*
X256151Y28827D01*
X256269Y28901D01*
X256389Y28972D01*
X256410Y28990D01*
X256420Y28997D01*
X256434Y29012D01*
X256509Y29078D01*
X257591Y30160D01*
X260205Y31243D01*
X263035Y31243D01*
X265649Y30160D01*
X267650Y28159D01*
X268733Y25545D01*
X268733Y22715D01*
X267650Y20101D01*
X265649Y18100D01*
X263035Y17017D01*
X260205Y17017D01*
X257591Y18100D01*
X256509Y19182D01*
X256400Y19266D01*
X256293Y19356D01*
X256274Y19364D01*
X256258Y19377D01*
X256131Y19432D01*
X256005Y19491D01*
X255985Y19495D01*
X255966Y19503D01*
X255828Y19525D01*
X255692Y19551D01*
X255672Y19550D01*
X255652Y19553D01*
X255513Y19540D01*
X255375Y19531D01*
X255356Y19525D01*
X255336Y19523D01*
X255204Y19476D01*
X255073Y19433D01*
X255055Y19422D01*
X255036Y19415D01*
X254921Y19337D01*
X254804Y19263D01*
X254790Y19248D01*
X254773Y19237D01*
X254681Y19132D01*
X254586Y19031D01*
X254576Y19014D01*
X254563Y18998D01*
X254499Y18874D01*
X254432Y18753D01*
X254427Y18733D01*
X254418Y18715D01*
X254388Y18579D01*
X254353Y18445D01*
X254351Y18417D01*
X254348Y18405D01*
X254349Y18384D01*
X254343Y18284D01*
X254343Y17589D01*
X253152Y16398D01*
X245968Y16398D01*
G37*
%LPD*%
%LPC*%
G36*
X283065Y128777D02*
X283065Y128777D01*
X280451Y129860D01*
X278450Y131861D01*
X277367Y134475D01*
X277367Y137305D01*
X278450Y139919D01*
X280451Y141920D01*
X283065Y143003D01*
X285895Y143003D01*
X288509Y141920D01*
X290510Y139919D01*
X291593Y137305D01*
X291593Y134475D01*
X290510Y131861D01*
X288509Y129860D01*
X285895Y128777D01*
X283065Y128777D01*
G37*
%LPD*%
%LPC*%
G36*
X427955Y-9681D02*
X427955Y-9681D01*
X428015Y-9302D01*
X428457Y-7941D01*
X429107Y-6667D01*
X429948Y-5509D01*
X430959Y-4498D01*
X432117Y-3657D01*
X433391Y-3007D01*
X434752Y-2565D01*
X435131Y-2505D01*
X435131Y-9681D01*
X427955Y-9681D01*
G37*
%LPD*%
D10*
X383700Y11840D03*
X404020Y11840D03*
X424340Y11840D03*
X97500Y12290D03*
X77180Y12290D03*
X56860Y12290D03*
D11*
X338780Y-8340D03*
X364180Y-8340D03*
D12*
X249560Y-1571D03*
X240060Y-1571D03*
X230560Y-1571D03*
X230560Y24431D03*
X249560Y24431D03*
D13*
X246410Y-14760D03*
X231170Y-14760D03*
D14*
X228092Y86680D03*
X233092Y86680D03*
X238092Y86680D03*
X243092Y86680D03*
X248092Y86680D03*
X253092Y86680D03*
X258092Y86680D03*
X263092Y86680D03*
X268092Y86680D03*
X273092Y86680D03*
X278092Y86680D03*
X283092Y86680D03*
D15*
X436880Y-11430D03*
X455930Y-11430D03*
X10160Y149860D03*
X29210Y149860D03*
X20066Y-9652D03*
X20066Y9398D03*
D16*
X152400Y113030D03*
X144780Y6350D03*
X234950Y125222D03*
D17*
X249560Y24431D02*
X261319Y24431D01*
X261620Y24130D01*
D16*
X261620Y24130D03*
D17*
X258092Y86680D02*
X258092Y125448D01*
X251460Y132080D02*
X238760Y132080D01*
X251460Y132080D02*
X258092Y125448D01*
X238760Y132080D02*
X234950Y128270D01*
X234950Y125222D01*
D16*
X248317Y123190D03*
X278130Y33020D03*
D17*
X348236Y33020D01*
X382552Y-1296D01*
D16*
X397484Y-1296D03*
D17*
X382552Y-1296D01*
X253092Y86680D02*
X252894Y86878D01*
X252894Y114718D01*
X248317Y119294D02*
X248317Y123190D01*
X248317Y119294D02*
X252894Y114718D01*
X230560Y28630D02*
X230560Y24431D01*
X248092Y46162D02*
X248092Y86680D01*
X248092Y46162D02*
X230560Y28630D01*
X214630Y100330D02*
X143510Y100330D01*
X104178Y132914D02*
X103119Y133101D01*
X97790Y138430D01*
X139648Y104192D02*
X143510Y100330D01*
X139648Y104192D02*
X139648Y107823D01*
X114557Y132914D01*
X104178Y132914D01*
D16*
X97790Y138430D03*
D17*
X214630Y100330D02*
X223290Y108990D01*
X223290Y114718D01*
X225224Y116652D01*
X240960Y116652D02*
X242894Y114718D01*
X240960Y116652D02*
X225224Y116652D01*
X242894Y114718D02*
X242894Y110886D01*
X243290Y110490D01*
X243290Y86878D01*
X243092Y86680D01*
D16*
X193040Y110490D03*
D17*
X200660Y133350D02*
X211974Y133350D01*
X200660Y133350D02*
X193040Y125730D01*
X193040Y110490D01*
X268092Y129590D02*
X268092Y86680D01*
X268092Y129590D02*
X256030Y141652D01*
X220276Y141652D02*
X211974Y133350D01*
X220276Y141652D02*
X256030Y141652D01*
D16*
X284480Y135890D03*
X279400Y45720D03*
D17*
X346809Y45720D01*
X364527Y31013D02*
X383700Y11840D01*
X361516Y31013D02*
X346809Y45720D01*
X361516Y31013D02*
X364527Y31013D01*
X279400Y45720D02*
X273092Y52028D01*
X273092Y86680D01*
X116960Y31750D02*
X97500Y12290D01*
X116960Y31750D02*
X153670Y31750D01*
X154940Y31750D01*
X228092Y49138D02*
X228092Y86680D01*
X210704Y31750D02*
X154940Y31750D01*
X210704Y31750D02*
X228092Y49138D01*
D18*
X249560Y-9070D02*
X246410Y-14760D01*
X249560Y-9070D02*
X249560Y-1571D01*
D16*
X350520Y8890D03*
D18*
X260021Y8890D02*
X249560Y-1571D01*
X260021Y8890D02*
X350520Y8890D01*
D16*
X99060Y-6350D03*
D17*
X132588Y27178D01*
X212598Y27178D01*
X238092Y52672D02*
X238092Y86680D01*
X238092Y52672D02*
X212598Y27178D01*
D16*
X209550Y124460D03*
D17*
X263092Y127519D02*
X263092Y86680D01*
X263092Y127519D02*
X253531Y137080D01*
X222170Y137080D02*
X209550Y124460D01*
X222170Y137080D02*
X253531Y137080D01*
D16*
X292100Y54610D03*
D17*
X283092Y86680D02*
X283735Y87230D01*
D16*
X327660Y130810D03*
D19*
X283735Y62975D02*
X292100Y54610D01*
X283735Y62975D02*
X283735Y87230D01*
D18*
X292100Y95250D02*
X292100Y54610D01*
X292100Y95250D02*
X327660Y130810D01*
X230560Y-1571D02*
X230560Y-11610D01*
X231170Y-14760D01*
X241300Y-24158D02*
X464820Y-24158D01*
X241300Y-24158D02*
X233710Y-16568D01*
X231170Y-14760D01*
X224340Y-24130D01*
X12700Y-24130D02*
X5842Y-17272D01*
X5842Y14732D02*
X15268Y24158D01*
X12700Y-24130D02*
X224340Y-24130D01*
X5842Y-17272D02*
X5842Y14732D01*
X464820Y24158D02*
X474158Y14820D01*
X474158Y-14820D02*
X464820Y-24158D01*
X474158Y-14820D02*
X474158Y14820D01*
X450850Y24158D02*
X440966Y24158D01*
X450850Y24158D02*
X464820Y24158D01*
X77180Y12290D02*
X65312Y24158D01*
X15268Y24158D01*
X404020Y11840D02*
X416338Y24158D01*
X440966Y24158D01*
M02*
